<?xml version="1.0" standalone="no"?>
<!DOCTYPE svg PUBLIC "-//W3C//DTD SVG 1.1//EN" "http://www.w3.org/Graphics/SVG/1.1/DTD/svg11.dtd" >
<svg xmlns="http://www.w3.org/2000/svg" xmlns:xlink="http://www.w3.org/1999/xlink" version="1.1">
<metadata>
Created by FontForge 20170731 at Sat Sep  5 19:55:15 2020
 By Aleksey,,,
Copyright 2011 The Emberly Project Authors (https://github.com/rajputrajesh448/Fonts)
</metadata>
<defs>
<font id="Emberly-Black" horiz-adv-x="862" >
  <font-face 
    font-family="Emberly Black"
    font-weight="900"
    font-stretch="normal"
    units-per-em="2048"
    panose-1="0 0 0 0 0 0 0 0 0 0"
    ascent="1638"
    descent="-410"
    x-height="1014"
    cap-height="1432"
    bbox="-49 -391 2497 1772"
    underline-thickness="0"
    underline-position="0"
    unicode-range="U+000D-FB03"
  />
<missing-glyph horiz-adv-x="2048" 
d="M1061 1432h971v-1432h-971v1432zM1165 1348v-1248h764v1248h-764z" />
    <glyph glyph-name="f_f" unicode="ff" horiz-adv-x="1216" 
d="M397 1245v-231h215v106q-33 3 -71 29q-78 61 -19 172q17 30 20 50t-6.5 27.5t-18 10t-21.5 2.5q-99 0 -99 -166zM68 0v33h79v948h-122v33h122v168q0 124 82 193t244 69q153 0 227 -64q83 64 238 64q148 0 212 -52t64 -132q0 -46 -20.5 -80t-51 -48t-67.5 -10t-69 27
q-78 61 -19 172q17 30 20 50t-6.5 27.5t-18 10t-21.5 2.5q-99 0 -99 -166v-231h180v-33h-180v-948h80v-33h-410v33h80v948h-215v-948h80v-33h-409z" />
    <glyph glyph-name="fi" unicode="fi" horiz-adv-x="921" 
d="M68 0v33h79v948h-122v33h122v168q0 124 82 193t244 69q148 0 212.5 -52t64.5 -132q0 -46 -20.5 -80t-51.5 -48t-68 -10t-69 27q-78 61 -19 172q17 30 20 50t-6.5 27.5t-18 10t-21.5 2.5q-99 0 -99 -166v-231h443v-981h80v-33h-414v33h80v948h-189v-948h80v-33h-409z" />
    <glyph glyph-name="fl" unicode="fl" horiz-adv-x="1097" 
d="M68 0v33h79v948h-122v33h122v168q0 124 82 193t244 69q148 0 212.5 -52t64.5 -132q0 -46 -20.5 -80t-51.5 -48t-68 -10t-69 27q-78 61 -19 172q17 30 20 50t-6.5 27.5t-18 10t-21.5 2.5q-99 0 -99 -166v-231h181v-33h-181v-948h80v-33h-409zM690 0v33h80v1378h-80v33h326
v-1411h80v-33h-406z" />
    <glyph glyph-name="f_f_i" unicode="ffi" horiz-adv-x="1392" 
d="M397 1245v-231h215v106q-33 3 -71 29q-78 61 -19 172q17 30 20 50t-6.5 27.5t-18 10t-21.5 2.5q-99 0 -99 -166zM68 0v33h79v948h-122v33h122v168q0 124 82 193t244 69q153 0 227 -64q83 64 238 64q148 0 212 -52t64 -132q0 -46 -20.5 -80t-51 -48t-67.5 -10t-69 27
q-78 61 -19 172q17 30 20 50t-6.5 27.5t-18 10t-21.5 2.5q-99 0 -99 -166v-231h449v-981h80v-33h-414v33h80v948h-195v-948h80v-33h-410v33h80v948h-215v-948h80v-33h-409z" />
    <glyph glyph-name=".notdef" horiz-adv-x="2048" 
d="M1061 1432h971v-1432h-971v1432zM1165 1348v-1248h764v1248h-764z" />
    <glyph glyph-name=".null" horiz-adv-x="0" 
 />
    <glyph glyph-name="nonmarkingreturn" horiz-adv-x="682" 
 />
    <glyph glyph-name="NULL" horiz-adv-x="0" 
 />
    <glyph glyph-name="NULL" horiz-adv-x="0" 
 />
    <glyph glyph-name="CR" unicode="&#xd;" horiz-adv-x="512" 
 />
    <glyph glyph-name="space" unicode=" " horiz-adv-x="397" 
 />
    <glyph glyph-name="exclam" unicode="!" horiz-adv-x="499" 
d="M383 315h-53q-7 147 -62 497t-55 507q0 45 29.5 76t71.5 38t84.5 0t72 -38t29.5 -76q0 -159 -55 -507.5t-62 -496.5zM219 131q0 60 39.5 99.5t99.5 39.5t101 -39.5t41 -99.5t-41 -100.5t-101 -40.5t-99.5 40.5t-39.5 100.5z" />
    <glyph glyph-name="quotedbl" unicode="&#x22;" horiz-adv-x="677" 
d="M213 1337q0 44 32 70.5t74 26.5q41 0 75 -27t34 -70q0 -2 -23.5 -75t-50 -154t-30.5 -94h-5q-9 25 -57.5 172.5t-48.5 150.5zM463 1337q0 43 32.5 70t73.5 27t75 -27t34 -70q0 -3 -48 -150.5t-57 -172.5h-4q-9 25 -57.5 172.5t-48.5 150.5z" />
    <glyph glyph-name="numbersign" unicode="#" horiz-adv-x="819" 
d="M782 565l-8 -82h-102l-41 -483h-84l41 483h-185l-41 -483h-83l40 483h-106l8 82h105l30 350h-106l10 82h102l37 435h84l-37 -435h185l37 435h84l-37 -435h104l-8 -82h-102l-31 -350h104zM410 565h184l31 350h-185z" />
    <glyph glyph-name="dollar" unicode="$" horiz-adv-x="854" 
d="M170 938q-45 88 -55 167.5t10.5 137t61 102.5t91.5 70t107 33l-47 98h184l-47 -96q102 -9 164 -68q41 5 41 50h33v-334h-33v104q0 102 -53 149.5t-127 47.5q-65 0 -104.5 -35.5t-42.5 -103.5t44 -166q41 -83 137.5 -277t172.5 -348q61 -132 41 -237t-96.5 -172.5
t-180.5 -75.5l51 -95h-184l53 97q-109 13 -190 73q-24 0 -36 -9.5t-13.5 -19.5t-1.5 -30h-33v375h33v-148q0 -87 68 -144.5t144 -57.5q58 0 93 32t44 90t-13.5 144.5t-77.5 189.5q-113 214 -238 457z" />
    <glyph glyph-name="percent" unicode="%" horiz-adv-x="1718" 
d="M213 1038v82q0 80 39.5 153.5t118.5 123t180 49.5q150 0 249 -100.5t99 -225.5v-82q0 -82 -39.5 -154.5t-118 -120.5t-178.5 -48q-76 0 -142.5 28t-111.5 73.5t-70.5 103.5t-25.5 118zM721 0l350 1432h131l-350 -1432h-131zM471 1298v-438q0 -44 25.5 -78t62.5 -34
t59.5 33.5t22.5 78.5v438q0 43 -24.5 79t-59.5 36q-37 0 -61.5 -35.5t-24.5 -79.5zM1032 326v82q0 80 39.5 153.5t118.5 122.5t180 49q150 0 249 -100t99 -225v-82q0 -82 -39.5 -155t-118 -121t-178.5 -48q-76 0 -142.5 28t-111.5 74t-70.5 104t-25.5 118zM1290 586v-439
q0 -44 25.5 -78t62.5 -34t59.5 33.5t22.5 78.5v439q0 43 -24.5 78.5t-59.5 35.5q-37 0 -61.5 -35.5t-24.5 -78.5z" />
    <glyph glyph-name="ampersand" unicode="&#x26;" horiz-adv-x="1247" 
d="M756 801v-33h-94q-85 0 -134 -45.5t-49 -104.5v-430q0 -80 37 -124t129 -44q69 0 121 25.5t81 68t42.5 90.5t13.5 101v221q-6 -1 -31 -3.5t-33 -3.5t-29 -4t-32.5 -5.5t-28.5 -7t-31 -10.5t-28 -13q-28 -15 -25 -37q2 -15 15 -10q8 3 16 14q15 21 40.5 25.5t49.5 -5.5
t44 -33t24 -52q8 -52 -29.5 -93t-99.5 -32q-49 7 -82 45t-41.5 92.5t1.5 113t47.5 113.5t94.5 87q40 23 175 43t178 38q51 22 65 52q8 17 -8 16q-4 0 -10 -2q-47 -16 -78 -7t-46 32.5t-14.5 54.5t15.5 59q23 41 67 50t86.5 -15.5t61.5 -73.5q31 -84 -39 -241
q-38 -85 -94.5 -123.5t-134.5 -52.5v-232q0 -57 -16.5 -109.5t-52.5 -101t-104.5 -77.5t-162.5 -29q-59 0 -116.5 11.5t-113 38t-97.5 66t-67.5 99.5t-25.5 133v72q0 157 84.5 250.5t222.5 125.5q-115 30 -180.5 106t-65.5 189v78q0 80 59.5 146.5t156 103.5t206.5 37
q63 0 119 -13t104.5 -40t77.5 -75t29 -112q0 -101 -64 -141.5t-137 -1.5q-25 13 -39.5 32t-20 35.5t-3.5 41.5t5 39t11 40t10 33q37 129 -88 129q-46 0 -79 -15t-49.5 -39.5t-23.5 -47.5t-7 -47v-312q0 -29 1 -44t7 -38.5t18 -35.5t36 -21.5t59 -9.5h94z" />
    <glyph glyph-name="quotesingle" unicode="'" horiz-adv-x="428" 
d="M213 1337q0 44 32 70.5t74 26.5q41 0 75 -27t34 -70q0 -2 -23.5 -75t-50 -154t-30.5 -94h-5q-9 25 -57.5 172.5t-48.5 150.5z" />
    <glyph glyph-name="parenleft" unicode="(" horiz-adv-x="696" 
d="M543 -74q-173 0 -251.5 83.5t-78.5 264.5v863q0 183 80 275.5t250 92.5h153v-32h-34q-29 0 -53.5 -5.5t-42 -13.5t-31.5 -23.5t-23 -29t-15 -37.5t-9 -40.5t-4.5 -47t-2 -48.5t-0.5 -52v-940q0 -33 0.5 -50.5t2 -46t4.5 -44t9 -38t15 -34.5t23 -26t31.5 -21t41.5 -12
t54 -5h34v-33h-153z" />
    <glyph glyph-name="parenright" unicode=")" horiz-adv-x="696" 
d="M367 -74h-154v33h35q33 0 59.5 5t45 17.5t31.5 24t21.5 35t13 39.5t6.5 48t2.5 51t0.5 57v940q0 45 -0.5 67t-4 60t-10 57.5t-19.5 44.5t-31.5 37.5t-47.5 21.5t-67 9h-35v32h154q170 0 249.5 -92t79.5 -276v-863q0 -181 -78.5 -264.5t-250.5 -83.5z" />
    <glyph glyph-name="asterisk" unicode="*" horiz-adv-x="632" 
d="M213 1290l66 94l137 -149l-49 197h114l-51 -197l139 149l64 -94l-193 -67l193 -72l-64 -96l-139 151l51 -198h-114l49 198l-137 -151l-66 96l195 72z" />
    <glyph glyph-name="plus" unicode="+" horiz-adv-x="886" 
d="M213 791h274v286h125v-286h275v-123h-275v-287h-125v287h-274v123z" />
    <glyph glyph-name="comma" unicode="," horiz-adv-x="448" 
d="M358 4q-77 -32 -137.5 6t-60.5 119q0 66 42 104.5t99 38.5q64 0 108 -50t44 -154q0 -33 -5 -64t-20 -67.5t-39.5 -64t-68 -49t-101.5 -28.5l-6 35q76 13 110.5 61.5t34.5 112.5z" />
    <glyph glyph-name="hyphen" unicode="-" horiz-adv-x="704" 
d="M213 711h492v-144h-492v144z" />
    <glyph glyph-name="period" unicode="." horiz-adv-x="436" 
d="M160 131q0 60 39.5 99.5t99.5 39.5t100.5 -39.5t40.5 -99.5t-40.5 -100.5t-100.5 -40.5t-99.5 40.5t-39.5 100.5z" />
    <glyph glyph-name="slash" unicode="/" horiz-adv-x="692" 
d="M213 0l350 1432h129l-348 -1432h-131z" />
    <glyph glyph-name="zero" unicode="0" horiz-adv-x="876" 
d="M213 438v555q0 115 49 218.5t134.5 168t185.5 64.5q101 0 189 -63t139 -167.5t51 -220.5v-555q0 -189 -110 -319.5t-265 -130.5q-156 0 -264.5 130t-108.5 320zM465 1210v-987q0 -113 28 -158t93 -45q64 0 94.5 45t30.5 158v987q0 201 -125 201q-62 0 -91.5 -49.5
t-29.5 -151.5z" />
    <glyph glyph-name="one" unicode="1" horiz-adv-x="645" 
d="M238 33h122v1259q-119 -45 -137 -45l-10 31q102 31 157.5 61.5t137.5 92.5h98v-1399h123v-33h-491v33z" />
    <glyph glyph-name="two" unicode="2" horiz-adv-x="888" 
d="M393 1051q-81 -26 -130.5 24.5t-49.5 132.5q0 105 90.5 170.5t249.5 65.5q111 0 191 -34.5t118.5 -90.5t52 -128t-1.5 -146.5t-50.5 -146t-86.5 -126.5q-30 -33 -86 -81.5t-108.5 -90.5t-112.5 -103.5t-105.5 -123t-80.5 -145.5t-45 -175l4 4q14 43 24.5 69.5t32 64.5
t45 60t61 38t82.5 16q57 0 153 -40t169 -40q44 0 73 10.5t39.5 26t16 33.5t2.5 34t0 27h25q3 -19 4.5 -35t3 -55t-5.5 -72.5t-20.5 -71.5t-43.5 -68.5t-72 -49.5q-53 -27 -117 -16.5t-108.5 33.5t-105.5 47t-109 24q-37 0 -69 -12t-52.5 -31t-30 -30t-14.5 -19h-6
q0 118 19.5 227.5t45 184.5t68.5 154t71 118.5t74 98t56 73.5q49 69 79 148t36.5 149.5t-4.5 129.5t-45 93.5t-84 34.5q-12 0 -20.5 -0.5t-28 -9t-28.5 -23.5t-10 -48t15 -79q52 -159 -70 -200z" />
    <glyph glyph-name="three" unicode="3" horiz-adv-x="903" 
d="M457 756h137q69 0 94 53t25 162v270q0 164 -154 170q-28 2 -49.5 -2t-42 -17.5t-24 -39t5.5 -66.5q2 -9 8 -27.5t10.5 -32t8.5 -33t4 -34.5t-4 -32.5t-13 -31t-27 -25.5t-43 -19q-81 -23 -130.5 26t-49.5 129q0 100 83.5 169t233.5 69q116 0 214 -42t160.5 -127.5
t62.5 -199.5v-37q0 -117 -65 -192.5t-183 -102.5q126 -24 197 -95t71 -187v-107q0 -109 -64.5 -195t-160.5 -128.5t-201 -42.5q-130 0 -222.5 64.5t-92.5 180.5q0 93 58 131.5t130 12.5q30 -11 48.5 -27.5t24.5 -40.5t7.5 -42.5t-6.5 -50.5t-12.5 -46.5t-16.5 -46.5
q-13 -39 9.5 -71t78.5 -32q28 0 49 3t44.5 13.5t38 28.5t24.5 51t10 79v321q0 92 -35 153.5t-104 61.5h-137v25z" />
    <glyph glyph-name="four" unicode="4" horiz-adv-x="854" 
d="M569 985h-8l-303 -690v-4h311v694zM477 33h92v225h-356v25l504 1149h98v-1141h119l4 -33h-123v-225h92v-33h-430v33z" />
    <glyph glyph-name="five" unicode="5" horiz-adv-x="794" 
d="M489 -12q-43 0 -80 6.5t-74 23.5t-63.5 44t-42.5 71t-16 100q0 62 49 106t111 19q36 -14 55.5 -44t22.5 -66.5t0.5 -65t-9.5 -55.5q-16 -58 2.5 -82.5t67.5 -24.5q65 0 89 42.5t24 156.5v426q0 217 -138 217q-65 0 -114 -40.5t-49 -92.5v-49h-37v752h553v-5
q-26 -69 -70.5 -114t-112.5 -68.5t-145 -32t-188 -8.5v-411q64 112 211 112q140 0 242 -88t102 -219v-172q0 -55 -10.5 -110.5t-38.5 -116t-70 -106t-112 -75.5t-159 -30z" />
    <glyph glyph-name="six" unicode="6" horiz-adv-x="911" 
d="M627 -12q-121 0 -217 62t-146.5 159.5t-50.5 208.5v637q0 175 120.5 282t311.5 107q58 0 111 -11t103 -36t80 -72.5t30 -112.5q0 -66 -31 -119t-102 -53q-83 0 -117.5 65.5t8.5 156.5q18 45 17 74t-24 45.5t-47.5 23t-54.5 6.5q-147 0 -147 -170v-461q30 57 95 91t153 34
q79 0 135 -28t85.5 -77t42.5 -103.5t13 -118.5v-222q0 -167 -105.5 -267.5t-262.5 -100.5zM621 842q-59 0 -104.5 -52t-45.5 -143v-446q0 -107 34 -144t99 -37q64 0 98.5 37.5t34.5 143.5v444q0 103 -32.5 150t-83.5 47z" />
    <glyph glyph-name="seven" unicode="7" horiz-adv-x="913" 
d="M426 139q0 122 14 212.5t40.5 152t59.5 110t75 102.5t83.5 112.5t89 156.5t86.5 219h-501q-72 0 -103.5 -34.5t-31.5 -104.5h-25v367h784l-63 -168q-94 -251 -136 -394t-63.5 -313.5t-21.5 -417.5q0 -44 -16 -78.5t-41 -52.5t-55.5 -26.5t-61.5 0t-56 26t-41 52.5t-16 79
z" />
    <glyph glyph-name="eight" unicode="8" horiz-adv-x="980" 
d="M528 735q-118 31 -206.5 115.5t-88.5 198.5v67q0 129 120.5 228.5t285.5 99.5q164 0 284.5 -98.5t120.5 -229.5v-67q0 -114 -88 -198.5t-206 -115.5q81 -20 151 -64.5t117 -116.5t47 -155v-63q0 -94 -60 -175t-158.5 -127t-207.5 -46t-207.5 46t-158.5 127t-60 175v63
q0 124 93.5 214t221.5 122zM639 754q71 0 103 44t32 158v254q0 201 -135 201t-135 -201v-254q0 -112 32 -157t103 -45zM639 20q71 0 103 44.5t32 158.5v291q0 201 -135 201t-135 -201v-291q0 -113 32 -158t103 -45z" />
    <glyph glyph-name="nine" unicode="9" horiz-adv-x="911" 
d="M582 1444q91 0 169.5 -36.5t131 -96.5t82.5 -137.5t30 -159.5v-617q0 -68 -30 -139t-82.5 -132t-134.5 -99.5t-177 -38.5q-51 0 -103 11t-104 35.5t-85 71.5t-33 111q0 72 39 122t108 50q55 0 87 -30.5t34 -73.5t-12 -90q-34 -92 -14.5 -133.5t94.5 -41.5q155 0 155 170
v572q-30 -57 -95 -91t-153 -34q-63 0 -112.5 19t-79.5 50.5t-49.5 75t-27 88t-7.5 95.5v110q0 167 106 268t263 101zM588 700q59 0 104 52t45 143v336q0 106 -33.5 143t-97.5 37q-66 0 -100.5 -37t-34.5 -143v-334q0 -103 33 -150t84 -47z" />
    <glyph glyph-name="colon" unicode=":" horiz-adv-x="493" 
d="M213 745q0 60 39.5 100t99.5 40t101 -40t41 -100t-41 -100.5t-101 -40.5t-99.5 40.5t-39.5 100.5zM213 131q0 60 39.5 99.5t99.5 39.5t101 -39.5t41 -99.5t-41 -100.5t-101 -40.5t-99.5 40.5t-39.5 100.5z" />
    <glyph glyph-name="semicolon" unicode=";" horiz-adv-x="505" 
d="M217 745q0 60 39.5 100t99.5 40t101 -40t41 -100t-41 -100.5t-101 -40.5t-99.5 40.5t-39.5 100.5zM412 4q-77 -32 -138 6t-61 119q0 66 42 104.5t99 38.5q64 0 108 -50t44 -154q0 -33 -5 -64t-20 -67.5t-39.5 -64t-68 -49t-101.5 -28.5l-6 35q76 13 111 61.5t35 112.5z
" />
    <glyph glyph-name="less" unicode="&#x3c;" horiz-adv-x="823" 
d="M823 477l-10 -2l-600 240v55l594 244l12 -4v-117l-4 -4l-364 -141v-5l364 -143l4 -4z" />
    <glyph glyph-name="equal" unicode="=" horiz-adv-x="880" 
d="M881 971v-109h-668v109h668zM881 694v-108h-668v108h668z" />
    <glyph glyph-name="greater" unicode="&#x3e;" horiz-adv-x="823" 
d="M213 477l4 119l4 4l367 143v5l-367 141l-4 4v117l12 4l594 -244v-55l-598 -240z" />
    <glyph glyph-name="question" unicode="?" horiz-adv-x="921" 
d="M395 1051q-83 -26 -132.5 24t-49.5 133q0 113 99.5 174.5t250.5 61.5q177 0 268 -81.5t91 -203.5q0 -64 -15.5 -126t-37.5 -111t-62.5 -102.5t-73 -89.5t-87.5 -83.5t-88.5 -73.5t-92.5 -71v-187h-33v400q17 13 33 27.5t56 62.5t68 98.5t51.5 131t23.5 165.5
q0 204 -132 209q-81 0 -90 -53q-4 -22 5 -60t18 -72t11.5 -69t-17 -62.5t-64.5 -41.5zM309 131q0 60 40 99.5t100 39.5t100.5 -39.5t40.5 -99.5t-40.5 -100.5t-100.5 -40.5t-100 40.5t-40 100.5z" />
    <glyph glyph-name="at" unicode="@" horiz-adv-x="1339" 
d="M438 221v461q0 105 77.5 190.5t193.5 85.5q92 0 131.5 -57.5t48.5 -157.5l174 195h41v-719q0 -102 44.5 -148t89 -2.5t44.5 158.5v459q0 107 -44 192.5t-117.5 138.5t-164.5 81t-190 28t-187 -28t-157.5 -81t-110.5 -138.5t-41 -192.5v-475q0 -206 133 -309t383 -103
q96 0 177.5 16t110 28.5t42.5 21.5l17 -31q-13 -9 -47 -23t-121 -31.5t-185 -17.5q-259 0 -413 115.5t-154 333.5v477q0 92 31 170t84 132.5t124 93t150.5 57t163.5 18.5t165.5 -18.5t155.5 -57t130 -93t89 -133t33 -169.5v-459q0 -67 -28 -121t-72 -85t-98 -46t-104.5 -11
t-93.5 27t-64 62q-14 -61 -55 -91t-117 -30q-131 0 -200 80.5t-69 206.5zM692 795v-678q0 -146 66 -146q42 0 73 42t31 75v635q0 77 -26.5 136t-71.5 59q-28 0 -45.5 -25t-22 -50t-4.5 -48z" />
    <glyph glyph-name="A" unicode="A" horiz-adv-x="1026" 
d="M82 33h96l305 1399h52l391 -1399h100v-33h-463v33h86l-112 403h-234l-88 -403h90v-33h-223v33zM311 469h217l-122 438z" />
    <glyph glyph-name="B" unicode="B" horiz-adv-x="909" 
d="M45 0v33h92v1366h-92v33h473q138 0 231 -98t93 -230v-43q0 -125 -78 -220t-180 -104q80 0 145.5 -49.5t99 -122t33.5 -149.5v-49q0 -171 -92 -269t-240 -98h-485zM391 754h90q94 0 94 209v188q0 57 -3.5 95.5t-13.5 76.5t-33 57t-58 19h-76v-645zM596 279v233
q0 209 -104 209h-101v-688h113q29 0 48.5 19t28.5 56.5t12 76t3 94.5z" />
    <glyph glyph-name="C" unicode="C" horiz-adv-x="817" 
d="M213 440v570q0 114 53.5 214t148.5 160t208 60q106 0 168 -53q20 1 25 10t5 31h35v-345h-35v136q0 80 -52 134t-144 54q-86 0 -115 -55.5t-29 -177.5v-930q0 -72 9 -118.5t27.5 -70t41 -31.5t57.5 -8q36 0 67.5 7.5t65 26.5t53 58.5t19.5 96.5v176h35v-385h-35
q0 20 -7 29t-26 12q-62 -53 -170 -53q-93 0 -171.5 40t-128.5 105.5t-77.5 145t-27.5 161.5z" />
    <glyph glyph-name="D" unicode="D" horiz-adv-x="974" 
d="M45 33h92v1366h-92v33h496q81 0 163.5 -59.5t134.5 -150.5t52 -178v-630q0 -66 -29.5 -140t-76 -134t-109 -100t-123.5 -40h-508v33zM408 1399v-1366h122q29 0 48 17t28 51.5t12 72.5t3 94v899q0 49 -3.5 84.5t-14 72t-34 56t-59.5 19.5h-102z" />
    <glyph glyph-name="E" unicode="E" horiz-adv-x="788" 
d="M45 0v33h92v1366h-92v33h668v-304h-35q0 156 -33.5 213.5t-132.5 57.5h-106v-651h81q30 0 50.5 3t36.5 7.5t25 17t15 24t8.5 37t3.5 47.5t1 62h32v-430h-32q0 35 -0.5 55.5t-2.5 44t-5.5 35t-11 25t-17 19.5t-24.5 11.5t-34 7t-45 1.5h-81v-682h129q102 0 138 64.5
t36 246.5h34v-344h-698z" />
    <glyph glyph-name="F" unicode="F" horiz-adv-x="749" 
d="M45 0v33h90v1368h-90v31h657v-304h-32q0 154 -38 213.5t-138 59.5h-93v-653h68q46 0 71 6t43.5 27t24.5 60.5t6 108.5h33v-438h-33q0 122 -29.5 162.5t-115.5 40.5h-68v-682h93v-33h-449z" />
    <glyph glyph-name="G" unicode="G" horiz-adv-x="915" 
d="M213 1030q0 100 52 195t148 157t210 62q109 0 168 -53q18 3 23 12t5 29h33v-345h-33v136q0 81 -52.5 134.5t-143.5 53.5q-73 0 -107.5 -48t-34.5 -149v-991q0 -98 27.5 -150.5t95.5 -52.5q82 0 82 80v426h-68v33h381v-33h-67v-526h-33q0 74 -35 74q-18 0 -57 -21.5
t-94 -43t-113 -21.5q-71 0 -140.5 34t-124 92t-88.5 143.5t-34 182.5v590z" />
    <glyph glyph-name="H" unicode="H" horiz-adv-x="1028" 
d="M45 1432h451v-33h-93v-668h267v668h-92v33h450v-33h-92v-1366h92v-33h-450v33h92v665h-267v-665h93v-33h-451v33h92v1366h-92v33z" />
    <glyph glyph-name="I" unicode="I" horiz-adv-x="495" 
d="M45 0v33h92v1366h-92v33h451v-33h-93v-1366h93v-33h-451z" />
    <glyph glyph-name="J" unicode="J" horiz-adv-x="804" 
d="M379 -12q-52 0 -102 14.5t-95 43t-72.5 79.5t-27.5 117q0 68 48.5 111.5t110.5 41t97 -52.5q20 -28 20 -61.5t-11 -60.5t-22.5 -63.5t-11.5 -64.5q0 -72 70 -72q82 0 82 105v1274h-92v33h450v-33h-92v-1145q0 -54 -23.5 -99.5t-61 -75.5t-84.5 -51t-93.5 -30.5
t-89.5 -9.5z" />
    <glyph glyph-name="K" unicode="K" horiz-adv-x="1040" 
d="M45 0v33h92v1366h-92v33h453v-33h-92v-662l378 662h-84v33h228v-33h-103l-235 -414l334 -952h98v-33h-457v33h82l-241 694v-694h92v-33h-453z" />
    <glyph glyph-name="L" unicode="L" horiz-adv-x="753" 
d="M45 0v33h92v1366h-92v33h451v-33h-93v-1366h132q99 0 133 63.5t34 247.5h33v-344h-690z" />
    <glyph glyph-name="M" unicode="M" horiz-adv-x="1183" 
d="M733 0v33h92v1329h-6l-250 -1362h-45l-350 1282h-4v-1249h92v-33h-217v33h92v1366h-92v33h365l225 -850h2l158 850h389v-33h-92v-1366h92v-33h-451z" />
    <glyph glyph-name="N" unicode="N" horiz-adv-x="903" 
d="M45 33h92v1366h-92v33h344l381 -846h4v813h-92v33h221v-33h-92v-1399h-59l-574 1274h-4v-1241h92v-33h-221v33z" />
    <glyph glyph-name="O" unicode="O" horiz-adv-x="1024" 
d="M213 438v576q0 174 119 302t284 128q166 0 287 -127t121 -303v-576q0 -189 -119.5 -319.5t-286.5 -130.5t-286 130.5t-119 319.5zM483 1219v-1004q0 -111 31.5 -153t103.5 -42t104 41.5t32 153.5v1004q0 100 -33 146t-103 46t-102.5 -46t-32.5 -146z" />
    <glyph glyph-name="P" unicode="P" horiz-adv-x="958" 
d="M608 944v242q0 103 -27 158t-73 55h-105v-688h117q88 0 88 233zM45 0v33h92v1366h-92v33h492q151 0 244 -95.5t93 -249.5v-51q0 -167 -94.5 -262.5t-236.5 -95.5h-140v-645h93v-33h-451z" />
    <glyph glyph-name="Q" unicode="Q" horiz-adv-x="1024" 
d="M213 438v576q0 174 119.5 302t285.5 128q165 0 285.5 -127t120.5 -303v-576q0 -189 -119.5 -319.5t-286.5 -130.5h-2q-84 -3 -165 -80q56 26 96 30t68 -10t51 -33.5t59 -42t78 -32.5q25 -8 47 -5.5t37.5 6.5t31.5 18.5t28.5 30t29.5 40.5l24 -10q-10 -17 -21.5 -33
t-31 -38.5t-39.5 -38.5t-48.5 -33.5t-58.5 -24t-68.5 -9t-78.5 10.5q-27 7 -67.5 23.5t-68.5 26t-62 14t-66.5 -9t-64.5 -46.5l-25 12q25 46 44 75.5t49 64.5t68 59.5t87 40.5q-143 28 -239.5 152t-96.5 292zM483 1219v-1004q0 -111 32 -153t106 -42q71 0 102 41.5t31 153.5
v1004q0 100 -33 146t-103 46t-102.5 -46t-32.5 -146z" />
    <glyph glyph-name="R" unicode="R" horiz-adv-x="1026" 
d="M608 944v242q0 32 -3.5 63t-13.5 68t-31.5 59.5t-53.5 22.5h-103v-668h115q44 0 67 58.5t23 154.5zM45 0v33h92v1366h-92v33h496q83 0 149.5 -33t105 -84.5t58.5 -108.5t20 -112v-58q0 -53 -20 -110t-57.5 -109t-101 -85.5t-140.5 -33.5h-4q11 0 26.5 -1.5t55 -13
t71.5 -31.5t64 -64.5t45 -104.5l98 -450h97v-33h-363l-106 518q-23 114 -42 147t-73 33h-21v-665h93v-33h-451z" />
    <glyph glyph-name="S" unicode="S" horiz-adv-x="854" 
d="M158 938q-61 124 -58 219.5t53 161t120.5 99.5t144.5 34q133 0 209 -70q41 5 41 50h32v-334h-32v104q0 101 -53.5 149t-127.5 48q-65 0 -104 -35.5t-42 -103.5t44 -166q41 -83 137 -277t172 -348q63 -137 39.5 -245.5t-107.5 -175t-194 -66.5q-60 0 -127 20t-117 57
q-24 0 -36 -9.5t-13.5 -19.5t-1.5 -30h-33v375h33v-148q0 -87 68.5 -144.5t144.5 -57.5q58 0 93 32t44 90t-14 144.5t-78 189.5q-54 103 -237 457z" />
    <glyph glyph-name="T" unicode="T" horiz-adv-x="921" 
d="M276 0v33h93v1366h-111q-71 0 -107 -61.5t-36 -207.5h-33v302h840v-302h-33q0 146 -36.5 207.5t-107.5 61.5h-110v-1366h92v-33h-451z" />
    <glyph glyph-name="U" unicode="U" horiz-adv-x="897" 
d="M137 1399h-92v33h451v-33h-93v-1139q0 -99 14.5 -152.5t40 -70.5t70.5 -17q23 0 46 3.5t61.5 24t66 55t49 105.5t21.5 167v1024h-92v33h217v-33h-92v-1022q0 -90 -15 -158t-49 -121.5t-95.5 -81.5t-149.5 -28q-48 0 -93 8t-95 31.5t-86.5 60.5t-60.5 101.5t-24 148.5
v1061z" />
    <glyph glyph-name="V" unicode="V" horiz-adv-x="1003" 
d="M584 0h-56l-350 1399h-96v33h450v-33h-79l217 -862l196 862h-86v33h224v-33h-101z" />
    <glyph glyph-name="W" unicode="W" horiz-adv-x="1419" 
d="M578 0h-31l-369 1399h-96v33h459v-33h-88l206 -799l89 451l-89 348h-98v33h440v-33h-83l215 -801l153 801h-92v33h225v-33h-98l-266 -1399h-39l-246 965z" />
    <glyph glyph-name="X" unicode="X" horiz-adv-x="1011" 
d="M113 0v33h98l209 647l-238 719h-100v33h465v-33h-86l162 -490l161 490h-88v33h224v-33h-97l-182 -549l272 -817h99v-33h-463v33h86l-195 588l-192 -588h86v-33h-221z" />
    <glyph glyph-name="Y" unicode="Y" horiz-adv-x="997" 
d="M362 0v33h95v626l-277 748h-98v25h467v-25h-90l243 -659h5l155 659h-88v25h223v-25h-98l-174 -745v-629h88v-33h-451z" />
    <glyph glyph-name="Z" unicode="Z" horiz-adv-x="952" 
d="M627 1399h-205q-38 0 -61 -4t-47 -20t-36 -47t-20 -85.5t-8 -134.5h-35v324h713l-492 -1399h289q27 0 44 1t38 6t34 15t27.5 26.5t22.5 42.5t15.5 62.5t10.5 86t3 112.5h32v-385h-813z" />
    <glyph glyph-name="bracketleft" unicode="[" horiz-adv-x="587" 
d="M213 -115v1661h375v-33h-107v-1595h107v-33h-375z" />
    <glyph glyph-name="backslash" unicode="\" horiz-adv-x="692" 
d="M692 0h-129l-350 1432h131z" />
    <glyph glyph-name="bracketright" unicode="]" horiz-adv-x="587" 
d="M588 -115h-375v33h109v1595h-109v33h375v-1661z" />
    <glyph glyph-name="asciicircum" unicode="^" horiz-adv-x="634" 
d="M635 1208l-4 -22q-66 10 -126 38t-81 44t-33 28q-5 -7 -21 -21t-58 -40t-93 -47l-6 16q42 22 77 53.5t54.5 57t35 54.5t19.5 41t7 22h34q4 -16 11.5 -35.5t28.5 -58.5t61.5 -74.5t93.5 -55.5z" />
    <glyph glyph-name="underscore" unicode="_" horiz-adv-x="788" 
d="M160 141h633v-143h-633v143z" />
    <glyph glyph-name="grave" unicode="`" horiz-adv-x="299" 
d="M195 1163q-68 39 -127 100.5t-93 133.5h146q19 -123 84 -234h-10z" />
    <glyph glyph-name="a" unicode="a" horiz-adv-x="882" 
d="M178 795q0 99 85 165t229 66q86 0 153.5 -26t106 -68.5t58 -90.5t19.5 -98v-600q0 -90 39 -90q20 0 33.5 25t13.5 51h33q0 -66 -48.5 -106.5t-131.5 -40.5q-75 0 -130 32t-65 88q-24 -56 -74.5 -85t-115.5 -29q-32 0 -67.5 11.5t-72 35.5t-60 69.5t-23.5 104.5v104
q0 60 23.5 105.5t60 71.5t84 48t91.5 35.5t86.5 33.5t65.5 42v238q0 50 -26 79t-72 29q-32 0 -48 -15t-15.5 -39t5 -42t11.5 -35q14 -29 18.5 -65.5t-3 -72.5t-39 -60.5t-83.5 -24.5q-34 0 -59.5 10.5t-40.5 26.5t-24.5 37.5t-13 40.5t-3.5 39zM571 612q-14 -12 -47.5 -31
t-55.5 -34t-41 -50t-19 -83v-271q0 -100 55 -100q34 0 71 49.5t37 108.5v411z" />
    <glyph glyph-name="b" unicode="b" horiz-adv-x="827" 
d="M25 0v33h79v1366h-79v33h325v-504q37 92 139 92q114 0 194.5 -94.5t80.5 -223.5v-419q0 -62 -19 -113.5t-48.5 -84.5t-67 -55.5t-73.5 -32t-69 -9.5q-102 0 -137 96v-84h-325zM350 807v-598q0 -76 33 -125t66 -49q25 0 43 27t18 71v746q0 44 -17.5 69t-43.5 25
q-32 0 -65.5 -47t-33.5 -119z" />
    <glyph glyph-name="c" unicode="c" horiz-adv-x="804" 
d="M160 743q0 41 23.5 89t66 92t112.5 73t152 29q133 0 214 -69.5t81 -172.5q0 -72 -39.5 -109.5t-95.5 -37.5q-49 0 -87 24.5t-51.5 72t21.5 118.5q26 51 20.5 82.5t-24 45t-45.5 13.5q-42 0 -67 -32.5t-25 -79.5v-727q0 -76 26.5 -105t77.5 -29q108 0 188 86t80 191v74h33
v-74q0 -52 -19 -104.5t-55.5 -99.5t-98 -76t-138.5 -29q-141 0 -245.5 89.5t-104.5 233.5v432z" />
    <glyph glyph-name="d" unicode="d" horiz-adv-x="833" 
d="M573 807q0 72 -33 119t-65 47q-26 0 -43.5 -25t-17.5 -69v-746q0 -44 18 -71t43 -27q32 0 65 50t33 126v596zM899 0h-326v84q-38 -96 -137 -96q-42 0 -87.5 16.5t-89 49t-71.5 92.5t-28 137v419q0 129 80 223.5t194 94.5q102 0 139 -92v471h-79v33h325v-1399h80v-33z" />
    <glyph glyph-name="e" unicode="e" horiz-adv-x="806" 
d="M160 719q0 51 23.5 104.5t65 99t106.5 74.5t141 29q143 0 234 -94t91 -219v-213h-403v-346q0 -65 23.5 -99.5t88.5 -34.5q106 0 182 85.5t76 191.5v74h35v-74q0 -52 -19 -104.5t-55.5 -99.5t-98.5 -76t-140 -29q-152 0 -251 98.5t-99 224.5v408zM418 889v-357h147v357
q0 23 -4 43.5t-20.5 40.5t-44.5 20t-47 -19.5t-25 -41.5t-6 -43z" />
    <glyph glyph-name="f" unicode="f" horiz-adv-x="751" 
d="M68 0v33h79v948h-122v33h122v168q0 124 82 193t244 69q148 0 212.5 -52t64.5 -132q0 -46 -20.5 -80t-51.5 -48t-68 -10t-69 27q-78 61 -19 172q17 30 20 50t-6.5 27.5t-18 10t-21.5 2.5q-99 0 -99 -166v-231h181v-33h-181v-948h80v-33h-409z" />
    <glyph glyph-name="g" unicode="g" horiz-adv-x="851" 
d="M2 627v102q0 72 36 138t110 111.5t169 45.5q99 0 181 -45q0 33 18 70q25 45 69 73.5t89 28.5q53 0 92 -39q37 -42 36 -83t-30 -72t-67 -31t-68 30q-4 4 -17 20t-20.5 22.5t-19 13.5t-22 2.5t-19.5 -19.5q-11 -19 -11 -34q59 -41 93 -98.5t34 -121.5v-125q0 -78 -27 -140
t-72.5 -98.5t-99.5 -55.5t-112 -19q-92 0 -170 41q-51 -39 -64.5 -70.5t19 -51t111.5 -19.5h315q87 0 141 -65t54 -156q0 -48 -15.5 -94.5t-50.5 -91t-85.5 -78t-127 -54t-168.5 -20.5q-159 0 -243.5 54.5t-84.5 125.5q0 44 35.5 81t98.5 54q-66 22 -97 75t-25.5 113
t47 119.5t109.5 93.5q-141 86 -141 267zM260 928v-529q0 -63 72 -63q65 0 65 63v529q0 28 -17 45.5t-52 17.5t-51.5 -17.5t-16.5 -45.5zM111 -152q0 -63 59.5 -112t177.5 -49q119 0 182.5 50t63.5 113q0 40 -29 68.5t-78 28.5h-286q-40 0 -65 -29t-25 -70z" />
    <glyph glyph-name="h" unicode="h" horiz-adv-x="854" 
d="M41 0v33h80v1378h-80v33h326v-549q30 62 79.5 93.5t106.5 31.5q35 0 72 -12t73 -36t59 -68t23 -101v-770h80v-33h-395v33h61v862q0 66 -32 66q-38 0 -82.5 -55.5t-44.5 -127.5v-745h61v-33h-387z" />
    <glyph glyph-name="i" unicode="i" horiz-adv-x="440" 
d="M106 1278q0 60 40 99.5t100 39.5t100.5 -39.5t40.5 -99.5t-40.5 -100.5t-100.5 -40.5t-100 40.5t-40 100.5zM41 0v33h80v948h-80v33h326v-981h79v-33h-405z" />
    <glyph glyph-name="j" unicode="j" horiz-adv-x="704" 
d="M360 1278q0 60 40 99.5t100 39.5t100.5 -39.5t40.5 -99.5t-40.5 -100.5t-100.5 -40.5t-100 40.5t-40 100.5zM625 -88q0 -77 -28.5 -131.5t-77.5 -82.5t-102 -40t-116 -12q-52 0 -98 9t-87.5 28.5t-66 57t-24.5 89.5t24.5 87.5t59 47t73.5 2t66 -40.5q56 -62 6 -166
q-9 -17 -14 -30.5t-6.5 -22t1 -14.5t4.5 -9t9.5 -4.5t11 -2t12.5 0t11 0.5q33 0 54.5 20.5t29.5 54t10 54t2 43.5v1131h-80v33h326v-1102z" />
    <glyph glyph-name="k" unicode="k" horiz-adv-x="942" 
d="M53 0v33h80v1366h-92v33h434v-33h-92v-785l285 367h-64v33h187v-33h-86l-142 -188l291 -760h88v-33h-424v33h78l-213 571v-571h92v-33h-422z" />
    <glyph glyph-name="l" unicode="l" horiz-adv-x="440" 
d="M41 0v33h80v1378h-80v33h326v-1411h79v-33h-405z" />
    <glyph glyph-name="m" unicode="m" horiz-adv-x="1239" 
d="M25 0v33h79v948h-79v33h325v-119q22 57 67 91t105 34q67 0 132.5 -39.5t88.5 -112.5q21 72 72.5 112t114.5 40q36 0 74 -13t73 -38t57.5 -68.5t22.5 -97.5v-770h80v-33h-395v33h61v821q0 107 -37 107q-34 0 -73 -55.5t-39 -127.5v-745h61v-33h-377v33h62v862
q0 27 -9.5 46.5t-27.5 19.5q-33 0 -73 -56t-40 -127v-745h62v-33h-387z" />
    <glyph glyph-name="n" unicode="n" 
d="M25 0v33h79v948h-79v33h329v-123q28 65 77.5 97t109.5 32q36 0 73.5 -10.5t76.5 -33t64 -67.5t25 -106v-770h80v-33h-399v33h61v841q0 89 -43 89q-41 0 -83 -58t-42 -127v-745h62v-33h-391z" />
    <glyph glyph-name="o" unicode="o" horiz-adv-x="839" 
d="M160 311v389q0 80 39 153.5t118 123t181 49.5q150 0 248 -100.5t98 -225.5v-389q0 -82 -39 -154.5t-117 -120.5t-178 -48q-76 0 -142.5 28t-111.5 73.5t-70.5 103.5t-25.5 118zM418 879v-746q0 -44 25.5 -78.5t62.5 -34.5q35 0 57.5 34t22.5 79v746q0 44 -23.5 79
t-58.5 35q-38 0 -62 -35t-24 -79z" />
    <glyph glyph-name="p" unicode="p" horiz-adv-x="835" 
d="M367 193q0 -71 32.5 -111.5t65.5 -40.5q26 0 43.5 25t17.5 69v746q0 44 -18 71t-43 27q-34 0 -66 -42.5t-32 -117.5v-626zM41 -313h80v1294h-80v33h326v-86q38 98 141 98q37 0 74.5 -11.5t73.5 -37t63.5 -61.5t44 -89t16.5 -116v-400q0 -125 -80.5 -221t-193.5 -96
q-102 0 -139 94v-401h79v-33h-405v33z" />
    <glyph glyph-name="q" unicode="q" horiz-adv-x="833" 
d="M573 193v626q0 75 -32 117.5t-66 42.5q-25 0 -43 -27t-18 -71v-746q0 -44 17.5 -69t43.5 -25q33 0 65.5 40.5t32.5 111.5zM573 -313v401q-37 -94 -139 -94q-113 0 -193.5 96t-80.5 221v400q0 63 16.5 116t44 89t63.5 61.5t73.5 37t74.5 11.5q103 0 141 -98v86h326v-33
h-80v-1294h80v-33h-405v33h79z" />
    <glyph glyph-name="r" unicode="r" horiz-adv-x="745" 
d="M25 0v33h79v948h-79v33h325v-111q40 105 154 105q97 0 165 -64.5t68 -155.5q0 -73 -38.5 -112t-102.5 -39q-48 0 -79 22.5t-41 57t-6 74.5t22 77q42 99 -25 99q-31 0 -55 -23t-36.5 -57.5t-19 -67t-6.5 -59.5v-727h80v-33h-405z" />
    <glyph glyph-name="s" unicode="s" horiz-adv-x="716" 
d="M94 307v-135q0 -59 60 -99t127 -40q37 0 61 14t33.5 43t-5 81t-55.5 120q-112 192 -200 338q-54 93 -49 166.5t52 125t111 78.5t127 27q90 0 160 -49q27 0 41 6.5t14 30.5h33v-277h-33v68q0 83 -45.5 125.5t-107.5 42.5q-42 0 -72.5 -21t-38.5 -65.5t31 -112.5
q124 -211 250 -430q54 -101 26.5 -181t-107.5 -129.5t-177 -49.5q-117 0 -197 57q-19 0 -29 -8.5t-10 -32.5h-33v307h33z" />
    <glyph glyph-name="t" unicode="t" horiz-adv-x="583" 
d="M25 981v33h122v233l250 84v-317h185v-33h-185v-856q0 -86 58 -86q31 0 55.5 28t24.5 83h34q0 -80 -49 -122t-123 -42q-30 0 -61 6t-65.5 21.5t-61.5 39.5t-44.5 64.5t-17.5 91.5v772h-122z" />
    <glyph glyph-name="u" unicode="u" 
d="M860 33v-33h-328v125q-28 -66 -78 -98.5t-110 -32.5q-35 0 -73 10.5t-77 33t-64.5 67.5t-25.5 106v770h-79v33h337v-875q0 -88 37 -88q49 0 91 61.5t42 123.5v745h-79v33h327v-981h80z" />
    <glyph glyph-name="v" unicode="v" horiz-adv-x="770" 
d="M455 0h-25l-303 981h-86v33h422v-33h-74l148 -473l110 473h-76v33h199v-33h-86z" />
    <glyph glyph-name="w" unicode="w" horiz-adv-x="1251" 
d="M457 0h-25l-305 981h-86v33h424v-33h-72l150 -477l90 385l-29 92h-84v33h424v-33h-76l148 -463l110 463h-73v33h198v-33h-88l-231 -981h-25l-254 819z" />
    <glyph glyph-name="x" unicode="x" horiz-adv-x="851" 
d="M41 0v33h88l199 442l-199 506h-86v33h418v-33h-72l105 -264l122 264h-73v33h200v-33h-90l-143 -307l254 -641h88v-33h-418v33h70l-156 393l-182 -393h72v-33h-197z" />
    <glyph glyph-name="y" unicode="y" horiz-adv-x="813" 
d="M397 -244q-19 -73 -60.5 -110t-88.5 -37t-79 33t-32 92q0 54 37.5 89.5t136.5 47.5q18 3 29 6t27.5 10.5t27 21.5t15.5 34l16 63l-299 975h-86v33h424v-33h-72l164 -481l129 481h-70v33h197v-33h-86z" />
    <glyph glyph-name="z" unicode="z" horiz-adv-x="743" 
d="M641 256h33v-256h-649l362 981h-113q-42 0 -65 -5t-41 -23.5t-24.5 -54t-6.5 -97.5h-33v213h576l-363 -981h195q55 0 79 12.5t37 60t13 150.5z" />
    <glyph glyph-name="braceleft" unicode="{" horiz-adv-x="800" 
d="M248 719h-35v24h35q42 0 68.5 9.5t36 29t12 34t2.5 40.5v410q0 171 57 236t188 65h189v-33h-4q-86 0 -124 -39.5t-38 -114.5v-362q0 -287 -361 -287q361 0 361 -287v-362q0 -75 38 -114.5t124 -39.5h4v-32h-189q-131 0 -188 65t-57 236v409q0 26 -2.5 40.5t-12 34t-36 29
t-68.5 9.5z" />
    <glyph glyph-name="bar" unicode="|" horiz-adv-x="397" 
d="M213 -61v1554h184v-1554h-184z" />
    <glyph glyph-name="braceright" unicode="}" horiz-adv-x="800" 
d="M739 731q-360 0 -360 287v362q0 75 -38 114.5t-124 39.5h-4v33h188q131 0 188.5 -65t57.5 -236v-410q0 -26 2.5 -40.5t12 -34t36 -29t68.5 -9.5h35v-24h-35q-42 0 -68.5 -9.5t-36 -29t-12 -34t-2.5 -40.5v-409q0 -171 -57.5 -236t-188.5 -65h-188v32h4q86 0 124 39.5
t38 114.5v362q0 287 360 287z" />
    <glyph glyph-name="asciitilde" unicode="~" horiz-adv-x="899" 
d="M213 659q12 37 18 54t23 52t34 54t45.5 38.5t63.5 27.5q45 10 91.5 -0.5t79 -28.5t71.5 -34.5t68 -16.5q37 0 64 4.5t46 17t26.5 18t21.5 25t16 21.5l18 -4q-11 -79 -50 -144t-112 -88q-44 -15 -95.5 -5t-88 28.5t-81 36.5t-75.5 18q-67 0 -104 -20.5t-64 -59.5z" />
    <glyph glyph-name="uni00A0" unicode="&#xa0;" horiz-adv-x="397" 
 />
    <glyph glyph-name="exclamdown" unicode="&#xa1;" horiz-adv-x="499" 
d="M487 887q0 -60 -39.5 -99.5t-99.5 -39.5t-100.5 39.5t-40.5 99.5t40.5 100.5t100.5 40.5t99.5 -40.5t39.5 -100.5zM371 688q13 -241 57 -470.5t59 -440.5q6 -81 -68.5 -114.5t-149 0t-68.5 114.5q15 209 59 439.5t57 471.5h54z" />
    <glyph glyph-name="cent" unicode="&#xa2;" horiz-adv-x="874" 
d="M213 743q0 38 19.5 81.5t55.5 85t95 72.5t129 40v78h33v-74h22q133 0 214 -69.5t81 -172.5q0 -72 -39.5 -109.5t-95.5 -37.5q-49 0 -87 24.5t-51.5 72t21.5 118.5q26 51 20.5 82.5t-24 45t-45.5 13.5q-10 0 -16 -2v-968q12 -3 28 -3q108 0 188.5 86t80.5 191v74h32v-74
q0 -52 -19 -104.5t-55.5 -99.5t-98 -76t-138.5 -29h-18v-58h-33v62q-126 16 -212.5 102.5t-86.5 216.5v432zM469 154q0 -94 43 -119v944q-43 -30 -43 -98v-727z" />
    <glyph glyph-name="sterling" unicode="&#xa3;" horiz-adv-x="958" 
d="M213 764v24h123v394q0 108 85.5 185t244.5 77q148 0 220 -67.5t72 -166.5q0 -50 -18.5 -84.5t-46 -47.5t-58.5 -13.5t-57 12.5q-38 17 -53.5 54.5t-10.5 75.5t23 69q17 30 19.5 62t-15.5 55.5t-57 23.5q-46 0 -70 -34.5t-24 -82.5v-512h246v-24h-246v-113
q0 -251 -127 -418q2 1 7 2.5t7 2.5q53 12 82.5 6.5t55.5 -16.5t45.5 -22t53 -10t77.5 19l45 18l51 -186l-23 -14q-48 -31 -94.5 -39t-85.5 2t-74 24t-75 27.5t-74 13.5q-36 0 -78 -10.5t-62 -18.5t-71 -30l-37 72q79 92 101 181t22 314v195h-123z" />
    <glyph glyph-name="currency" unicode="&#xa4;" horiz-adv-x="913" 
d="M213 686q0 129 88 227l-84 84l31 33l86 -84q100 90 229 90t230 -88l84 82l30 -33l-82 -84q88 -98 88 -227t-90 -229l84 -84l-30 -31l-86 82q-98 -88 -228 -88q-129 0 -227 88l-86 -82l-31 31l84 84q-90 100 -90 229zM268 686q0 -129 83 -212t212 -83t211 83t82 212
t-82 211t-211 82t-212 -82t-83 -211z" />
    <glyph glyph-name="yen" unicode="&#xa5;" horiz-adv-x="997" 
d="M362 0v33h95v450h-113v45h113v95h-113v43h111l-275 741h-98v25h467v-25h-90l243 -659h5l155 659h-88v25h223v-25h-98l-174 -741h123v-43h-123v-95h123v-45h-123v-450h88v-33h-451z" />
    <glyph glyph-name="brokenbar" unicode="&#xa6;" horiz-adv-x="356" 
d="M213 1493h143v-657h-143v657zM356 -61h-143v661h143v-661z" />
    <glyph glyph-name="section" unicode="&#xa7;" horiz-adv-x="921" 
d="M94 98v-135q0 -59 60 -99t127 -40q37 0 61 14t33.5 43t-5 81t-55.5 120q-65 115 -200 338q-54 93 -49 166.5t52 125t111 78.5t127 27q60 0 115 -24q-148 248 -152 254q-54 93 -49 166.5t51.5 125t111 78.5t128.5 27q88 0 158 -49q29 0 43 6.5t14 30.5h33v-277h-33v68
q0 83 -45.5 125.5t-107.5 42.5q-42 0 -73 -21t-39 -65.5t32 -112.5q63 -111 154.5 -267t95.5 -163q54 -101 26.5 -181t-108 -130t-176.5 -50q-47 0 -113 17q31 -53 89.5 -152.5t76.5 -130.5q54 -101 26.5 -181t-107.5 -129.5t-177 -49.5q-117 0 -197 57q-24 0 -31.5 -7.5
t-7.5 -33.5h-33v307h33zM338 565q9 -17 27.5 -48t27.5 -48q47 -18 92 -18q37 0 61 14t33.5 43t-5 80.5t-54.5 120.5q-2 3 -20 34q-40 21 -82 21t-72.5 -21t-38.5 -65.5t31 -112.5z" />
    <glyph glyph-name="dieresis" unicode="&#xa8;" horiz-adv-x="374" 
d="M-41 1264q0 37 24.5 60.5t61.5 23.5t62.5 -24t25.5 -60q0 -38 -25.5 -62t-62.5 -24t-61.5 24t-24.5 62zM199 1264q0 36 25 60t61 24q38 0 63 -23.5t25 -60.5q0 -38 -25 -62t-63 -24q-36 0 -61 24t-25 62z" />
    <glyph glyph-name="copyright" unicode="&#xa9;" horiz-adv-x="1640" 
d="M213 705q0 216 89 381t251 255.5t373 90.5q321 0 517.5 -200t196.5 -527t-196.5 -527.5t-517.5 -200.5q-211 0 -373 90.5t-251 256t-89 381.5zM362 705q0 -205 67 -361.5t195.5 -245t301.5 -88.5q174 0 303 88.5t195.5 245t66.5 361.5t-66.5 361.5t-195.5 244.5t-303 88
q-173 0 -301.5 -88t-195.5 -244.5t-67 -361.5zM596 948q0 41 23.5 89t66 92t112.5 73t152 29q133 0 214 -69.5t81 -172.5q0 -72 -39.5 -109.5t-95.5 -37.5q-49 0 -87 24.5t-51.5 72t21.5 118.5q26 51 20.5 82.5t-24 45t-45.5 13.5q-42 0 -67 -33t-25 -80v-727
q0 -76 26.5 -104.5t77.5 -28.5q108 0 188.5 86t80.5 191v73h32v-73q0 -52 -19 -104.5t-55.5 -99.5t-98 -76t-138.5 -29q-141 0 -245.5 89.5t-104.5 233.5v432z" />
    <glyph glyph-name="ordfeminine" unicode="&#xaa;" horiz-adv-x="686" 
d="M461 1210v144q0 29 -16 47t-44 18q-59 -2 -28 -80q11 -25 12.5 -54t-17 -54t-59.5 -25q-47 0 -66.5 28.5t-19.5 63.5q0 59 52 99.5t137 40.5q99 0 150.5 -52t51.5 -118v-361q0 -53 25 -53q11 0 19 15t8 30h20q0 -40 -29 -64t-79 -24q-43 0 -76.5 19.5t-40.5 52.5
q-13 -33 -43.5 -50.5t-69.5 -17.5q-20 0 -41.5 7t-43.5 21t-36 41t-14 62v64q0 52 31 87t69.5 48t84 30t63.5 35zM461 1190q-9 -7 -29.5 -19t-33.5 -21t-24.5 -30.5t-11.5 -50.5v-162q0 -59 33 -59q22 0 44 29.5t22 64.5v248z" />
    <glyph glyph-name="guillemotleft" unicode="&#xab;" horiz-adv-x="866" 
d="M213 623v8q19 8 65 33t109.5 64t111 87t50.5 86h31q-13 -91 -46.5 -151t-103.5 -119v-8q69 -57 103 -118t47 -153h-31q-3 39 -50.5 87t-111 87.5t-109 64t-65.5 32.5zM500 623v8q18 7 65.5 32.5t110 64.5t111 87t51.5 86h28q-12 -92 -45 -151.5t-104 -118.5v-8
q70 -57 103.5 -117.5t45.5 -153.5h-28q-3 32 -36.5 70.5t-78 70.5t-94.5 61.5t-83 46.5t-46 22z" />
    <glyph glyph-name="logicalnot" unicode="&#xac;" horiz-adv-x="1173" 
d="M1174 436h-144v234h-817v123h961v-357z" />
    <glyph glyph-name="uni00AD" unicode="&#xad;" horiz-adv-x="884" 
d="M213 844h672v-123h-672v123z" />
    <glyph glyph-name="registered" unicode="&#xae;" horiz-adv-x="749" 
d="M213 1192q0 108 73 180t199 72q127 0 196 -71t69 -181q0 -108 -69 -180t-196 -72q-126 0 -199 72.5t-73 179.5zM274 1192q0 -231 211 -231q59 0 100.5 18t63 51.5t30.5 72t9 89.5t-9 89.5t-30.5 72t-63 51.5t-100.5 18q-211 0 -211 -231zM514 1257v31q0 49 -29 49h-26
v-129h30q25 0 25 49zM356 1028v21h29v288h-29v21h140q43 0 67.5 -24.5t24.5 -53.5v-12q0 -27 -23.5 -52.5t-64.5 -25.5h-2q8 0 18.5 -1.5t30 -14t24.5 -35.5l25 -95v5h29v-21h-101l-28 119q-5 20 -7.5 27t-8.5 11.5t-17 4.5h-4v-141h24v-21h-127z" />
    <glyph glyph-name="macron" unicode="&#xaf;" horiz-adv-x="634" 
d="M635 1352v-62h-422v62h422z" />
    <glyph glyph-name="degree" unicode="&#xb0;" horiz-adv-x="452" 
d="M332 1192q-47 0 -83 36t-36 83q0 49 35.5 85t83.5 36q50 0 85.5 -36t35.5 -85q0 -48 -36 -83.5t-85 -35.5zM332 1374q-26 0 -44 -18.5t-18 -44.5t18 -44t44 -18t44.5 18t18.5 44t-18.5 44.5t-44.5 18.5z" />
    <glyph glyph-name="plusminus" unicode="&#xb1;" horiz-adv-x="886" 
d="M213 791h274v286h125v-286h275v-123h-275v-287h-125v287h-274v123zM213 334h674v-123h-674v123z" />
    <glyph glyph-name="twosuperior" unicode="&#xb2;" horiz-adv-x="538" 
d="M291 1268q-35 -11 -56.5 10.5t-21.5 56.5q0 44 39 72.5t106 28.5q71 0 111.5 -32t46 -77.5t-10.5 -94.5t-50 -85q-15 -17 -58 -53t-75 -66t-62.5 -81.5t-36.5 -108.5l2 2q11 31 20 50t32 37.5t55 18.5q24 0 64.5 -17.5t72.5 -17.5q19 0 31.5 4.5t17 11.5t7 15t1.5 15
t0 12h11q15 -120 -58 -152q-23 -12 -50.5 -7.5t-46.5 14.5t-45.5 20t-47.5 10q-20 0 -37.5 -9.5t-24 -17t-8.5 -12.5h-4q0 60 10 112.5t30 94.5t34.5 66.5t39.5 57.5t29 38q22 29 35 63t16 64t-1.5 55t-19 40t-36.5 15h-7t-10 -1.5t-12 -6t-8 -11t-3 -19t7 -29.5
q26 -70 -28 -86z" />
    <glyph glyph-name="threesuperior" unicode="&#xb3;" horiz-adv-x="546" 
d="M317 1139h60q30 0 40.5 22.5t10.5 69.5v117q0 69 -66 73q-27 2 -42 -9.5t-7 -43.5q1 -4 5 -16t6 -19.5t3 -19.5t-2 -19.5t-11.5 -15.5t-22.5 -12q-35 -10 -56.5 11t-21.5 56q0 42 36.5 72.5t100.5 30.5q76 0 131.5 -43.5t55.5 -116.5v-16q0 -103 -107 -125
q117 -23 117 -123v-45q0 -70 -57 -114t-128 -44q-55 0 -95 27.5t-40 78.5q0 39 25 55.5t55 6.5q15 -6 23.5 -16.5t11 -19.5t-0.5 -26.5t-5 -24t-8 -24.5q-6 -16 4 -29.5t33 -13.5q16 0 27 2t22 9t16.5 23t5.5 40v139q0 39 -14.5 65.5t-44.5 26.5h-60v11z" />
    <glyph glyph-name="acute" unicode="&#xb4;" horiz-adv-x="280" 
d="M59 1165h-10q65 111 84 234h146q-34 -72 -93 -133.5t-127 -100.5z" />
    <glyph glyph-name="mu" unicode="&#xb5;" 
d="M104 -346v1327h-79v33h337v-875q0 -88 37 -88q49 0 91 61.5t42 123.5v745h-79v33h327v-981h80v-33h-328v125q-53 -121 -170 -131v-340h-258z" />
    <glyph glyph-name="paragraph" unicode="&#xb6;" horiz-adv-x="1062" 
d="M506 -217q-115 0 -186.5 68.5t-77.5 171.5q-2 40 11.5 73t37.5 53.5t53.5 31t62 7.5t60.5 -20q37 -23 45 -60.5t-2 -71.5t-24 -78.5t-15 -68.5q-3 -61 51 -71q30 -5 62 2h-2q8 4 14.5 8t11 10.5t7.5 10t5 13t3 14.5t1.5 18.5t0.5 20v25.5v29v854h-107q-138 0 -221.5 83.5
t-83.5 221.5q0 137 83.5 220.5t221.5 83.5h545v-33h-102v-1186q0 -76 -19 -140t-50 -107t-73 -77t-84 -53.5t-87 -32t-79 -16.5t-63 -4zM653 -31q0 -102 -16 -129q98 63 98 244v1315h-82v-1430z" />
    <glyph glyph-name="periodcentered" unicode="&#xb7;" horiz-adv-x="423" 
d="M213 635q0 44 30 74t74 30q45 0 76 -30t31 -74t-31.5 -75.5t-75.5 -31.5t-74 31t-30 76z" />
    <glyph glyph-name="cedilla" unicode="&#xb8;" horiz-adv-x="360" 
d="M49 -213l21 20q25 -46 85 -59t85 33q6 14 7.5 33t-3.5 39.5t-26.5 34.5t-57.5 14h-35l59 108h29l-29 -73q65 9 121.5 -25.5t56.5 -93.5q0 -47 -39.5 -77.5t-91 -36t-104.5 15.5t-78 67z" />
    <glyph glyph-name="onesuperior" unicode="&#xb9;" horiz-adv-x="436" 
d="M225 829h51v541q-49 -18 -57 -18l-6 12q45 14 69.5 27.5t57.5 40.5h43v-603h53v-14h-211v14z" />
    <glyph glyph-name="ordmasculine" unicode="&#xba;" horiz-adv-x="624" 
d="M213 1008v233q0 74 56.5 134.5t146.5 60.5t149.5 -60t59.5 -135v-233q0 -77 -56 -136t-145 -59q-91 0 -151 59.5t-60 135.5zM369 1348v-449q0 -26 14.5 -47t38.5 -21q21 0 34 21t13 47v449q0 26 -14 46.5t-35 20.5q-22 0 -36.5 -20.5t-14.5 -46.5z" />
    <glyph glyph-name="guillemotright" unicode="&#xbb;" horiz-adv-x="866" 
d="M580 623q-13 -5 -46 -22t-83 -46.5t-94.5 -61.5t-78 -70.5t-36.5 -70.5h-29q12 92 45.5 153t103.5 118v8q-70 59 -103.5 119t-45.5 151h29q3 -38 51.5 -86t111 -87t110 -64.5t65.5 -32.5v-8zM866 623q-19 -8 -64.5 -32.5t-109 -64t-111.5 -87.5t-51 -87h-30
q14 93 47.5 153.5t103.5 117.5v8q-71 59 -104.5 118.5t-46.5 151.5h30q3 -38 51 -86t111.5 -87t109 -64t64.5 -33v-8z" />
    <glyph glyph-name="onequarter" unicode="&#xbc;" horiz-adv-x="946" 
d="M379 0l317 1432h84l-317 -1432h-84zM225 829h51v541q-49 -18 -57 -18l-6 12q45 14 69.5 27.5t57.5 40.5h43v-603h53v-14h-211v14zM788 424h-4l-129 -297v-2h133v299zM750 14h38v99h-153v10l217 493h43v-491h51v-12h-51v-99h39v-14h-184v14z" />
    <glyph glyph-name="onehalf" unicode="&#xbd;" horiz-adv-x="983" 
d="M356 0l318 1432h84l-318 -1432h-84zM225 829h51v541q-49 -18 -57 -18l-6 12q45 14 69.5 27.5t57.5 40.5h43v-603h53v-14h-211v14zM733 457q-35 -11 -56.5 10.5t-21.5 56.5q0 44 39.5 72.5t108.5 28.5q80 0 119 -38.5t39 -97.5q0 -88 -64 -155q-15 -16 -58 -52t-74.5 -65
t-61 -79.5t-35.5 -106.5q8 23 14.5 36.5t18.5 31.5t30.5 27t42.5 9q26 0 62 -16q4 -1 16.5 -6t18.5 -7t17.5 -4t22.5 -2q19 0 31.5 4.5t17.5 12.5t7 14t2 16v11h10q4 -16 5.5 -40t-13 -60.5t-49.5 -51.5q-15 -6 -29.5 -7.5t-31 3t-27 8.5t-29.5 13q-46 20 -72 20
q-21 0 -38.5 -9.5t-24 -17t-8.5 -12.5h-3q0 60 9.5 112t31 96t33.5 65.5t41 58.5l29 37q49 70 49 147q0 40 -16.5 65t-47.5 25q-46 0 -26 -67q26 -70 -29 -86z" />
    <glyph glyph-name="threequarters" unicode="&#xbe;" horiz-adv-x="903" 
d="M264 1139h58q30 0 40.5 23t10.5 69v117q0 73 -66 73q-27 0 -41 -10.5t-6 -42.5q0 -1 6 -19t6.5 -25.5t0 -21.5t-10 -22.5t-26.5 -13.5q-35 -10 -55.5 11t-20.5 56q0 43 35.5 73t99.5 30q78 0 133 -43.5t55 -116.5v-14q0 -52 -28 -84t-78 -43q54 -9 84.5 -40.5t30.5 -82.5
v-45q0 -70 -56 -114t-127 -44q-57 0 -97 27.5t-40 78.5q0 39 25.5 56t56.5 6q15 -6 22.5 -16t10 -20t-0.5 -25.5t-5.5 -24.5t-8.5 -25q-5 -15 5 -29t34 -14q22 0 35.5 4t25 21.5t11.5 50.5v137q0 40 -15.5 66t-45.5 26h-58v11zM389 0l318 1432h84l-318 -1432h-84zM750 424
h-5l-129 -297v-2h134v299zM711 14h39v99h-154v10l217 493h43v-491h51v-12h-51v-99h39v-14h-184v14z" />
    <glyph glyph-name="questiondown" unicode="&#xbf;" horiz-adv-x="921" 
d="M827 887q0 -60 -39.5 -99.5t-99.5 -39.5t-100.5 39.5t-40.5 99.5t40.5 100.5t100.5 40.5t99.5 -40.5t39.5 -100.5zM739 47q83 26 133 -24.5t50 -133.5q0 -113 -100 -174t-251 -61q-177 0 -267.5 81.5t-90.5 203.5q0 54 9.5 104.5t22.5 92t39 85t47.5 75t60 70t64 62
t72 60t71.5 54.5l75 54v106h33v-319q-14 -10 -34 -27.5t-58 -62.5t-68 -97t-53 -132t-23 -166q0 -99 29.5 -158t89.5 -62q13 0 26.5 2t30.5 8t29 20t16 34q4 22 -5 60t-18 72t-11.5 69t17 62.5t64.5 41.5z" />
    <glyph glyph-name="Agrave" unicode="&#xc0;" horiz-adv-x="1026" 
d="M582 1513q-68 39 -127 100.5t-93 133.5h146q19 -123 84 -234h-10zM82 33h96l305 1399h52l391 -1399h100v-33h-463v33h86l-112 403h-234l-88 -403h90v-33h-223v33zM311 469h217l-122 438z" />
    <glyph glyph-name="Aacute" unicode="&#xc1;" horiz-adv-x="1026" 
d="M434 1513h-10q65 111 84 234h145q-34 -72 -92.5 -133.5t-126.5 -100.5zM82 33h96l305 1399h52l391 -1399h100v-33h-463v33h86l-112 403h-234l-88 -403h90v-33h-223v33zM311 469h217l-122 438z" />
    <glyph glyph-name="Acircumflex" unicode="&#xc2;" horiz-adv-x="1026" 
d="M322 1513l-5 3q41 36 75 74.5t52.5 66t32.5 54.5t18.5 38.5t6.5 19.5h4l6.5 -19.5t17.5 -38t32.5 -55t52.5 -66t75 -74.5l-4 -3q-55 12 -98.5 35.5t-59 38.5t-24.5 27q-9 -12 -24.5 -27t-59 -38.5t-98.5 -35.5zM82 33h96l305 1399h52l391 -1399h100v-33h-463v33h86
l-112 403h-234l-88 -403h90v-33h-223v33zM311 469h217l-122 438z" />
    <glyph glyph-name="Atilde" unicode="&#xc3;" horiz-adv-x="1026" 
d="M694 1681q-4 -82 -33 -114.5t-67 -32.5q-35 0 -95.5 30.5t-90.5 30.5q-59 0 -86 -63l-9 2q6 64 39.5 102t75.5 41q35 3 101 -27t83 -30q37 0 76 63zM82 33h96l305 1399h52l391 -1399h100v-33h-463v33h86l-112 403h-234l-88 -403h90v-33h-223v33zM311 469h217l-122 438z
" />
    <glyph glyph-name="Adieresis" unicode="&#xc4;" horiz-adv-x="1026" 
d="M299 1620q0 37 24.5 60.5t61.5 23.5t62.5 -24t25.5 -60q0 -38 -25.5 -62t-62.5 -24t-61.5 24t-24.5 62zM539 1620q0 36 25 60t61 24q38 0 63 -23.5t25 -60.5q0 -38 -25 -62t-63 -24q-36 0 -61 24t-25 62zM82 33h96l305 1399h52l391 -1399h100v-33h-463v33h86l-112 403
h-234l-88 -403h90v-33h-223v33zM311 469h217l-122 438z" />
    <glyph glyph-name="Aring" unicode="&#xc5;" horiz-adv-x="1026" 
d="M393 1626q0 51 31.5 83t81.5 32t82.5 -32t32.5 -83q0 -49 -32.5 -81t-82.5 -32t-81.5 31.5t-31.5 81.5zM440 1626q0 -28 18.5 -46.5t47.5 -18.5q30 0 48.5 18.5t18.5 46.5q0 31 -18 49.5t-49 18.5q-29 0 -47.5 -18.5t-18.5 -49.5zM82 33h96l305 1399h52l391 -1399h100
v-33h-463v33h86l-112 403h-234l-88 -403h90v-33h-223v33zM311 469h217l-122 438z" />
    <glyph glyph-name="AE" unicode="&#xc6;" horiz-adv-x="1263" 
d="M82 33h98l451 1366h-92v33h665v-304h-33q0 156 -33 213.5t-132 57.5h-109v-651h84q23 0 40 2t31.5 4t24 9.5t17 13.5t12 20.5t7 25t3.5 33.5t1.5 40t0.5 50h35v-430h-35q0 37 -0.5 55.5t-2 43.5t-5 35.5t-10.5 25t-16.5 19.5t-24.5 11t-33.5 7.5t-44.5 1.5h-84v-682h129
q102 0 139 64.5t37 246.5h33v-344h-696v33h92v403h-279l-133 -403h86v-33h-223v33zM362 469h269v813z" />
    <glyph glyph-name="Ccedilla" unicode="&#xc7;" horiz-adv-x="819" 
d="M453 -225l18 20q25 -46 86 -59t84 33q6 15 7.5 33t-3 39t-25.5 34.5t-57 13.5h-37l54 101q-112 11 -197.5 81t-127.5 167t-42 202v570q0 114 53.5 214t148.5 160t208 60q106 0 168 -53q20 1 25 10t5 31h35v-345h-35v136q0 80 -52 134t-144 54q-86 0 -115 -55.5
t-29 -177.5v-930q0 -72 9 -118.5t27.5 -70t41 -31.5t57.5 -8q36 0 67.5 7.5t65 26.5t53 58.5t19.5 96.5v176h35v-385h-35q0 20 -7 29t-26 12q-62 -53 -170 -53h-8l-24 -64q65 9 122.5 -25.5t57.5 -93.5q0 -47 -39.5 -77.5t-91.5 -36t-105 16t-77 67.5z" />
    <glyph glyph-name="Egrave" unicode="&#xc8;" horiz-adv-x="790" 
d="M481 1513q-68 40 -126 101.5t-91 132.5h144q18 -118 86 -234h-13zM45 0v33h92v1366h-92v33h668v-304h-35q0 156 -33.5 213.5t-132.5 57.5h-106v-651h81q30 0 50.5 3t36.5 7.5t25 17t15 24t8.5 37t3.5 47.5t1 62h32v-430h-32q0 35 -0.5 55.5t-2.5 44t-5.5 35t-11 25
t-17 19.5t-24.5 11.5t-34 7t-45 1.5h-81v-682h129q102 0 138 64.5t36 246.5h34v-344h-698z" />
    <glyph glyph-name="Eacute" unicode="&#xc9;" horiz-adv-x="790" 
d="M334 1513h-8q38 65 55 116.5t27 117.5h147q-36 -73 -94.5 -134t-126.5 -100zM45 0v33h92v1366h-92v33h668v-304h-35q0 156 -33.5 213.5t-132.5 57.5h-106v-651h81q30 0 50.5 3t36.5 7.5t25 17t15 24t8.5 37t3.5 47.5t1 62h32v-430h-32q0 35 -0.5 55.5t-2.5 44t-5.5 35
t-11 25t-17 19.5t-24.5 11.5t-34 7t-45 1.5h-81v-682h129q102 0 138 64.5t36 246.5h34v-344h-698z" />
    <glyph glyph-name="Ecircumflex" unicode="&#xca;" horiz-adv-x="790" 
d="M225 1513l-4 3q41 36 75 74.5t52.5 66t32.5 54.5t18.5 38.5t6.5 19.5h4l6.5 -19.5t17.5 -38t32.5 -55t52.5 -66t75 -74.5l-4 -3q-55 12 -98.5 35.5t-59 38.5t-24.5 27q-9 -12 -24.5 -27t-59.5 -38.5t-99 -35.5zM45 0v33h92v1366h-92v33h668v-304h-35q0 156 -33.5 213.5
t-132.5 57.5h-106v-651h81q30 0 50.5 3t36.5 7.5t25 17t15 24t8.5 37t3.5 47.5t1 62h32v-430h-32q0 35 -0.5 55.5t-2.5 44t-5.5 35t-11 25t-17 19.5t-24.5 11.5t-34 7t-45 1.5h-81v-682h129q102 0 138 64.5t36 246.5h34v-344h-698z" />
    <glyph glyph-name="Edieresis" unicode="&#xcb;" horiz-adv-x="790" 
d="M199 1620q0 37 24.5 60.5t61.5 23.5t63.5 -24t26.5 -60q0 -38 -26 -62t-64 -24q-37 0 -61.5 24t-24.5 62zM438 1620q0 36 25.5 60t60.5 24q40 0 65 -23.5t25 -60.5q0 -38 -25 -62t-65 -24q-35 0 -60.5 24.5t-25.5 61.5zM45 0v33h92v1366h-92v33h668v-304h-35
q0 156 -33.5 213.5t-132.5 57.5h-106v-651h81q30 0 50.5 3t36.5 7.5t25 17t15 24t8.5 37t3.5 47.5t1 62h32v-430h-32q0 35 -0.5 55.5t-2.5 44t-5.5 35t-11 25t-17 19.5t-24.5 11.5t-34 7t-45 1.5h-81v-682h129q102 0 138 64.5t36 246.5h34v-344h-698z" />
    <glyph glyph-name="Igrave" unicode="&#xcc;" horiz-adv-x="495" 
d="M346 1513q-68 39 -126.5 100.5t-92.5 133.5h145q19 -123 84 -234h-10zM45 0v33h92v1366h-92v33h451v-33h-93v-1366h93v-33h-451z" />
    <glyph glyph-name="Iacute" unicode="&#xcd;" horiz-adv-x="495" 
d="M199 1513h-11q65 111 84 234h146q-34 -72 -92.5 -133.5t-126.5 -100.5zM45 0v33h92v1366h-92v33h451v-33h-93v-1366h93v-33h-451z" />
    <glyph glyph-name="Icircumflex" unicode="&#xce;" horiz-adv-x="495" 
d="M86 1513l-4 3q41 36 75 74.5t52.5 66t32.5 55t17.5 38l6.5 19.5h4q2 -8 6.5 -19.5t18.5 -38.5t32.5 -54.5t52.5 -66t75 -74.5l-4 -3q-55 12 -99 35.5t-59.5 38.5t-24.5 27q-9 -12 -24.5 -27t-59 -38.5t-98.5 -35.5zM45 0v33h92v1366h-92v33h451v-33h-93v-1366h93v-33
h-451z" />
    <glyph glyph-name="Idieresis" unicode="&#xcf;" horiz-adv-x="495" 
d="M63 1620q0 36 25 60t62 24t62.5 -24t25.5 -60q0 -38 -25.5 -62t-62.5 -24t-62 24t-25 62zM303 1620q0 36 25 60t61 24q38 0 63 -23.5t25 -60.5q0 -38 -25 -62t-63 -24q-36 0 -61 24t-25 62zM45 0v33h92v1366h-92v33h451v-33h-93v-1366h93v-33h-451z" />
    <glyph glyph-name="Eth" unicode="&#xd0;" horiz-adv-x="974" 
d="M45 33h92v665h-82v39h82v662h-92v33h496q81 0 163.5 -59.5t134.5 -150.5t52 -178v-630q0 -66 -29.5 -140t-76 -134t-109 -100t-123.5 -40h-508v33zM408 1399v-662h114v-39h-114v-665h122q29 0 48 17t28 51.5t12 72.5t3 94v899q0 49 -3.5 84.5t-14 72t-34 56t-59.5 19.5
h-102z" />
    <glyph glyph-name="Ntilde" unicode="&#xd1;" horiz-adv-x="903" 
d="M731 1681q-12 -147 -102 -147q-35 0 -96 30.5t-91 30.5q-59 0 -86 -63l-6 2q4 63 38 101.5t75 41.5q37 3 102 -27t82 -30q44 0 74 63zM45 33h92v1366h-92v33h344l381 -846h4v813h-92v33h221v-33h-92v-1399h-59l-574 1274h-4v-1241h92v-33h-221v33z" />
    <glyph glyph-name="Ograve" unicode="&#xd2;" horiz-adv-x="1024" 
d="M692 1513q-68 39 -126 100.5t-91 133.5h143q19 -123 84 -234h-10zM213 438v576q0 174 119 302t284 128q166 0 287 -127t121 -303v-576q0 -189 -119.5 -319.5t-286.5 -130.5t-286 130.5t-119 319.5zM483 1219v-1004q0 -111 31.5 -153t103.5 -42t104 41.5t32 153.5v1004
q0 100 -33 146t-103 46t-102.5 -46t-32.5 -146z" />
    <glyph glyph-name="Oacute" unicode="&#xd3;" horiz-adv-x="1024" 
d="M545 1513h-8q38 65 54.5 116t26.5 118h146q-35 -73 -93 -134t-126 -100zM213 438v576q0 174 119 302t284 128q166 0 287 -127t121 -303v-576q0 -189 -119.5 -319.5t-286.5 -130.5t-286 130.5t-119 319.5zM483 1219v-1004q0 -111 31.5 -153t103.5 -42t104 41.5t32 153.5
v1004q0 100 -33 146t-103 46t-102.5 -46t-32.5 -146z" />
    <glyph glyph-name="Ocircumflex" unicode="&#xd4;" horiz-adv-x="1024" 
d="M436 1513l-4 3q41 36 75 74.5t52.5 66t32.5 55t17.5 38l6.5 19.5h5l6.5 -19.5t17.5 -38t32.5 -55t52.5 -66t75 -74.5l-4 -3q-55 12 -99 35.5t-59.5 38.5t-24.5 27q-9 -12 -24.5 -27t-59 -38.5t-98.5 -35.5zM213 438v576q0 174 119 302t284 128q166 0 287 -127t121 -303
v-576q0 -189 -119.5 -319.5t-286.5 -130.5t-286 130.5t-119 319.5zM483 1219v-1004q0 -111 31.5 -153t103.5 -42t104 41.5t32 153.5v1004q0 100 -33 146t-103 46t-102.5 -46t-32.5 -146z" />
    <glyph glyph-name="Otilde" unicode="&#xd5;" horiz-adv-x="1024" 
d="M807 1681q-12 -147 -102 -147q-35 0 -96 30.5t-91 30.5q-59 0 -86 -63l-6 2q4 63 38 101.5t75 41.5q37 3 102 -27t82 -30q44 0 74 63zM213 438v576q0 174 119 302t284 128q166 0 287 -127t121 -303v-576q0 -189 -119.5 -319.5t-286.5 -130.5t-286 130.5t-119 319.5z
M483 1219v-1004q0 -111 31.5 -153t103.5 -42t104 41.5t32 153.5v1004q0 100 -33 146t-103 46t-102.5 -46t-32.5 -146z" />
    <glyph glyph-name="Odieresis" unicode="&#xd6;" horiz-adv-x="1024" 
d="M410 1620q0 37 24.5 60.5t61.5 23.5t63.5 -24t26.5 -60q0 -38 -26 -62t-64 -24q-37 0 -61.5 24t-24.5 62zM649 1620q0 36 25.5 60t60.5 24q40 0 65 -23.5t25 -60.5q0 -38 -25 -62t-65 -24q-35 0 -60.5 24.5t-25.5 61.5zM213 438v576q0 174 119 302t284 128
q166 0 287 -127t121 -303v-576q0 -189 -119.5 -319.5t-286.5 -130.5t-286 130.5t-119 319.5zM483 1219v-1004q0 -111 31.5 -153t103.5 -42t104 41.5t32 153.5v1004q0 100 -33 146t-103 46t-102.5 -46t-32.5 -146z" />
    <glyph glyph-name="multiply" unicode="&#xd7;" horiz-adv-x="806" 
d="M213 483l215 215l-215 215l82 82l215 -215l215 215l82 -82l-215 -215l215 -215l-82 -82l-215 215l-215 -215z" />
    <glyph glyph-name="Oslash" unicode="&#xd8;" horiz-adv-x="1024" 
d="M229 16l72 142q-88 122 -88 280v576q0 174 119 302t284 128q82 0 156 -33.5t131 -93.5l58 106l49 -26l-68 -127q82 -116 82 -256v-576q0 -189 -119.5 -319.5t-286.5 -130.5q-161 0 -278 123l-61 -121zM483 1219v-711l271 520v191q0 100 -33 146t-103 46t-102.5 -46
t-32.5 -146zM483 215q0 -111 31.5 -153t103.5 -42t104 41.5t32 153.5v690l-271 -520v-170z" />
    <glyph glyph-name="Ugrave" unicode="&#xd9;" horiz-adv-x="897" 
d="M586 1513q-68 39 -126.5 100.5t-92.5 133.5h145q19 -123 84 -234h-10zM137 1399h-92v33h451v-33h-93v-1139q0 -99 14.5 -152.5t40 -70.5t70.5 -17q23 0 46 3.5t61.5 24t66 55t49 105.5t21.5 167v1024h-92v33h217v-33h-92v-1022q0 -90 -15 -158t-49 -121.5t-95.5 -81.5
t-149.5 -28q-48 0 -93 8t-95 31.5t-86.5 60.5t-60.5 101.5t-24 148.5v1061z" />
    <glyph glyph-name="Uacute" unicode="&#xda;" horiz-adv-x="897" 
d="M438 1513h-10q65 111 84 234h145q-34 -72 -92.5 -133.5t-126.5 -100.5zM137 1399h-92v33h451v-33h-93v-1139q0 -99 14.5 -152.5t40 -70.5t70.5 -17q23 0 46 3.5t61.5 24t66 55t49 105.5t21.5 167v1024h-92v33h217v-33h-92v-1022q0 -90 -15 -158t-49 -121.5t-95.5 -81.5
t-149.5 -28q-48 0 -93 8t-95 31.5t-86.5 60.5t-60.5 101.5t-24 148.5v1061z" />
    <glyph glyph-name="Ucircumflex" unicode="&#xdb;" horiz-adv-x="897" 
d="M328 1513l-4 3q41 36 75 74.5t52.5 66t32.5 55t17.5 38l6.5 19.5h4l6.5 -19.5t17.5 -38t32.5 -55t52.5 -66t75 -74.5l-4 -3q-55 12 -98.5 35.5t-59 38.5t-24.5 27q-9 -12 -24.5 -27t-59 -38.5t-98.5 -35.5zM137 1399h-92v33h451v-33h-93v-1139q0 -99 14.5 -152.5
t40 -70.5t70.5 -17q23 0 46 3.5t61.5 24t66 55t49 105.5t21.5 167v1024h-92v33h217v-33h-92v-1022q0 -90 -15 -158t-49 -121.5t-95.5 -81.5t-149.5 -28q-48 0 -93 8t-95 31.5t-86.5 60.5t-60.5 101.5t-24 148.5v1061z" />
    <glyph glyph-name="Udieresis" unicode="&#xdc;" horiz-adv-x="897" 
d="M303 1620q0 37 24.5 60.5t61.5 23.5t62.5 -24t25.5 -60q0 -38 -25.5 -62t-62.5 -24t-61.5 24t-24.5 62zM543 1620q0 36 25 60t61 24q38 0 63 -23.5t25 -60.5q0 -38 -25 -62t-63 -24q-36 0 -61 24t-25 62zM137 1399h-92v33h451v-33h-93v-1139q0 -99 14.5 -152.5t40 -70.5
t70.5 -17q23 0 46 3.5t61.5 24t66 55t49 105.5t21.5 167v1024h-92v33h217v-33h-92v-1022q0 -90 -15 -158t-49 -121.5t-95.5 -81.5t-149.5 -28q-48 0 -93 8t-95 31.5t-86.5 60.5t-60.5 101.5t-24 148.5v1061z" />
    <glyph glyph-name="Yacute" unicode="&#xdd;" horiz-adv-x="997" 
d="M530 1513h-12q68 116 86 234h146q-34 -71 -93 -132.5t-127 -101.5zM362 0v33h95v626l-277 748h-98v25h467v-25h-90l243 -659h5l155 659h-88v25h223v-25h-98l-174 -745v-629h88v-33h-451z" />
    <glyph glyph-name="Thorn" unicode="&#xde;" horiz-adv-x="958" 
d="M608 610v242q0 103 -27 158t-73 55h-105v-688h117q88 0 88 233zM45 0v33h92v1366h-92v33h358v-334h134q151 0 244 -95t93 -249v-52q0 -167 -94.5 -262.5t-236.5 -95.5h-140v-311h89v-33h-447z" />
    <glyph glyph-name="germandbls" unicode="&#xdf;" horiz-adv-x="1054" 
d="M45 0v33h86v688h-86v33h86v370q0 146 101.5 227t267.5 81q149 0 245.5 -63t96.5 -173q0 -50 -25.5 -95t-59.5 -76t-84 -81.5t-83 -99.5q-23 -34 -26 -65.5t14 -62t44 -59.5t68.5 -65.5t83 -71.5t92.5 -85.5t92 -100.5q51 -64 43.5 -126.5t-50.5 -112t-113 -80.5t-142 -31
q-90 0 -168 47q-34 -7 -34 -31h-33v287h33v-135q0 -51 62 -95.5t124 -44.5q35 0 58.5 17t31.5 54.5t-12 96.5q-17 51 -51 108t-68 100.5t-66 99t-50.5 107.5t-15.5 121.5t34 145.5q1 2 10.5 23.5t14 32t15 36t17 43t15.5 44.5t15 49t12 47.5t9 48.5q28 213 -143 213
q-72 0 -100.5 -39.5t-28.5 -126.5v-1233h-332z" />
    <glyph glyph-name="agrave" unicode="&#xe0;" horiz-adv-x="882" 
d="M565 1096q-68 40 -126.5 101t-92.5 132h146q18 -117 86 -233h-13zM178 795q0 99 85 165t229 66q86 0 153.5 -26t106 -68.5t58 -90.5t19.5 -98v-600q0 -90 39 -90q20 0 33.5 25t13.5 51h33q0 -66 -48.5 -106.5t-131.5 -40.5q-75 0 -130 32t-65 88q-24 -56 -74.5 -85
t-115.5 -29q-32 0 -67.5 11.5t-72 35.5t-60 69.5t-23.5 104.5v104q0 60 23.5 105.5t60 71.5t84 48t91.5 35.5t86.5 33.5t65.5 42v238q0 50 -26 79t-72 29q-32 -1 -48 -16t-15.5 -38.5t5 -41.5t11.5 -35q14 -29 18.5 -65.5t-3 -72.5t-39 -60.5t-83.5 -24.5q-34 0 -59.5 10.5
t-40.5 26.5t-24.5 37.5t-13 40.5t-3.5 39zM571 612q-14 -12 -47.5 -31t-55.5 -34t-41 -50t-19 -83v-271q0 -100 55 -100q34 0 71 49.5t37 108.5v411z" />
    <glyph glyph-name="aacute" unicode="&#xe1;" horiz-adv-x="882" 
d="M418 1096h-10q39 66 56.5 117.5t27.5 115.5h147q-36 -72 -94.5 -133t-126.5 -100zM178 795q0 99 85 165t229 66q86 0 153.5 -26t106 -68.5t58 -90.5t19.5 -98v-600q0 -90 39 -90q20 0 33.5 25t13.5 51h33q0 -66 -48.5 -106.5t-131.5 -40.5q-75 0 -130 32t-65 88
q-24 -56 -74.5 -85t-115.5 -29q-32 0 -67.5 11.5t-72 35.5t-60 69.5t-23.5 104.5v104q0 60 23.5 105.5t60 71.5t84 48t91.5 35.5t86.5 33.5t65.5 42v238q0 50 -26 79t-72 29q-32 -1 -48 -16t-15.5 -38.5t5 -41.5t11.5 -35q14 -29 18.5 -65.5t-3 -72.5t-39 -60.5t-83.5 -24.5
q-34 0 -59.5 10.5t-40.5 26.5t-24.5 37.5t-13 40.5t-3.5 39zM571 612q-14 -12 -47.5 -31t-55.5 -34t-41 -50t-19 -83v-271q0 -100 55 -100q34 0 71 49.5t37 108.5v411z" />
    <glyph glyph-name="acircumflex" unicode="&#xe2;" horiz-adv-x="882" 
d="M305 1096l-4 2q66 58 111.5 121t56 88.5t16.5 44.5h4q2 -9 6.5 -20t18.5 -38.5t32.5 -55t52.5 -66t75 -74.5l-4 -2q-55 12 -98.5 35t-60 38t-24.5 27q-9 -12 -24.5 -26.5t-59 -38t-98.5 -35.5zM178 795q0 99 85 165t229 66q86 0 153.5 -26t106 -68.5t58 -90.5t19.5 -98
v-600q0 -90 39 -90q20 0 33.5 25t13.5 51h33q0 -66 -48.5 -106.5t-131.5 -40.5q-75 0 -130 32t-65 88q-24 -56 -74.5 -85t-115.5 -29q-32 0 -67.5 11.5t-72 35.5t-60 69.5t-23.5 104.5v104q0 60 23.5 105.5t60 71.5t84 48t91.5 35.5t86.5 33.5t65.5 42v238q0 50 -26 79
t-72 29q-32 0 -48 -15t-15.5 -39t5 -42t11.5 -35q14 -29 18.5 -65.5t-3 -72.5t-39 -60.5t-83.5 -24.5q-34 0 -59.5 10.5t-40.5 26.5t-24.5 37.5t-13 40.5t-3.5 39zM571 612q-14 -12 -47.5 -31t-55.5 -34t-41 -50t-19 -83v-271q0 -100 55 -100q34 0 71 49.5t37 108.5v411z
" />
    <glyph glyph-name="atilde" unicode="&#xe3;" horiz-adv-x="882" 
d="M688 1264q-4 -82 -33 -115t-69 -33q-32 0 -93.5 31t-91.5 31q-32 0 -54 -18.5t-32 -45.5l-8 2q6 64 39.5 102.5t73.5 41.5q36 3 102 -27.5t86 -30.5q22 0 39 17t35 47zM178 795q0 99 85 165t229 66q86 0 153.5 -26t106 -68.5t58 -90.5t19.5 -98v-600q0 -90 39 -90
q20 0 33.5 25t13.5 51h33q0 -66 -48.5 -106.5t-131.5 -40.5q-75 0 -130 32t-65 88q-24 -56 -74.5 -85t-115.5 -29q-32 0 -67.5 11.5t-72 35.5t-60 69.5t-23.5 104.5v104q0 60 23.5 105.5t60 71.5t84 48t91.5 35.5t86.5 33.5t65.5 42v238q0 50 -26 79t-72 29q-32 -1 -48 -16
t-15.5 -38.5t5 -41.5t11.5 -35q14 -29 18.5 -65.5t-3 -72.5t-39 -60.5t-83.5 -24.5q-34 0 -59.5 10.5t-40.5 26.5t-24.5 37.5t-13 40.5t-3.5 39zM571 612q-14 -12 -47.5 -31t-55.5 -34t-41 -50t-19 -83v-271q0 -100 55 -100q34 0 71 49.5t37 108.5v411z" />
    <glyph glyph-name="adieresis" unicode="&#xe4;" horiz-adv-x="882" 
d="M283 1202q0 37 24.5 60.5t61.5 23.5t62.5 -24t25.5 -60q0 -38 -25.5 -62t-62.5 -24t-61.5 24t-24.5 62zM522 1202q0 36 25 60t61 24q38 0 63 -23.5t25 -60.5q0 -38 -25 -62t-63 -24q-36 0 -61 24t-25 62zM178 795q0 99 85 165t229 66q86 0 153.5 -26t106 -68.5t58 -90.5
t19.5 -98v-600q0 -90 39 -90q20 0 33.5 25t13.5 51h33q0 -66 -48.5 -106.5t-131.5 -40.5q-75 0 -130 32t-65 88q-24 -56 -74.5 -85t-115.5 -29q-32 0 -67.5 11.5t-72 35.5t-60 69.5t-23.5 104.5v104q0 60 23.5 105.5t60 71.5t84 48t91.5 35.5t86.5 33.5t65.5 42v238
q0 50 -26 79t-72 29q-32 -1 -48 -16t-15.5 -38.5t5 -41.5t11.5 -35q14 -29 18.5 -65.5t-3 -72.5t-39 -60.5t-83.5 -24.5q-34 0 -59.5 10.5t-40.5 26.5t-24.5 37.5t-13 40.5t-3.5 39zM571 612q-14 -12 -47.5 -31t-55.5 -34t-41 -50t-19 -83v-271q0 -100 55 -100q34 0 71 49.5
t37 108.5v411z" />
    <glyph glyph-name="aring" unicode="&#xe5;" horiz-adv-x="882" 
d="M377 1208q0 51 32 83t83 32q48 0 80 -32.5t32 -82.5q0 -49 -32 -80.5t-80 -31.5q-51 0 -83 31t-32 81zM424 1208q0 -28 19 -46.5t49 -18.5q29 0 48 18.5t19 46.5q0 30 -18.5 49t-48.5 19q-31 0 -49.5 -18.5t-18.5 -49.5zM178 795q0 99 85 165t229 66q86 0 153.5 -26
t106 -68.5t58 -90.5t19.5 -98v-600q0 -90 39 -90q20 0 33.5 25t13.5 51h33q0 -66 -48.5 -106.5t-131.5 -40.5q-75 0 -130 32t-65 88q-24 -56 -74.5 -85t-115.5 -29q-32 0 -67.5 11.5t-72 35.5t-60 69.5t-23.5 104.5v104q0 60 23.5 105.5t60 71.5t84 48t91.5 35.5t86.5 33.5
t65.5 42v238q0 50 -26 79t-72 29q-32 -1 -48 -16t-15.5 -38.5t5 -41.5t11.5 -35q14 -29 18.5 -65.5t-3 -72.5t-39 -60.5t-83.5 -24.5q-34 0 -59.5 10.5t-40.5 26.5t-24.5 37.5t-13 40.5t-3.5 39zM571 612q-14 -12 -47.5 -31t-55.5 -34t-41 -50t-19 -83v-271q0 -100 55 -100
q34 0 71 49.5t37 108.5v411z" />
    <glyph glyph-name="ae" unicode="&#xe6;" horiz-adv-x="1220" 
d="M178 791q0 101 85 168t229 67q132 0 219 -61q87 61 198 61q144 0 236 -94.5t92 -218.5v-213h-406v-346q0 -64 23.5 -99t87.5 -35q107 0 184.5 85.5t77.5 191.5v74h33v-74q0 -52 -19 -104.5t-55 -99.5t-98.5 -76t-140.5 -29q-117 0 -205 61.5t-125 155.5h-2
q0 -105 -58.5 -161t-150.5 -56q-32 0 -67.5 11.5t-72 35.5t-60 69.5t-23.5 104.5v104q0 71 34.5 122t88 79.5t108.5 48.5t107 42t73 46v236q0 50 -26 78.5t-70 27.5q-27 0 -44.5 -13.5t-21 -43t20.5 -76.5q41 -98 3 -158.5t-114 -60.5q-72 0 -106.5 44.5t-34.5 105.5z
M831 889v-357h148v357q0 104 -68 104q-41 0 -60.5 -34.5t-19.5 -69.5zM571 612q-14 -12 -47.5 -31t-55.5 -34t-41 -50t-19 -83v-271q0 -100 55 -100q34 0 71 49.5t37 108.5v411z" />
    <glyph glyph-name="ccedilla" unicode="&#xe7;" horiz-adv-x="804" 
d="M375 -225l20 20q25 -46 85 -59t85 33q6 15 7.5 33.5t-3.5 38.5t-26.5 34t-57.5 14h-34l53 99q-140 2 -242 91.5t-102 231.5v432q0 41 23.5 89t66 92t112.5 73t152 29q133 0 214 -69.5t81 -172.5q0 -72 -39.5 -109.5t-95.5 -37.5q-49 0 -87 24.5t-51.5 72t21.5 118.5
q26 51 20.5 82.5t-24 45t-45.5 13.5q-42 0 -67 -32.5t-25 -79.5v-727q0 -76 26.5 -105t77.5 -29q108 0 188 86t80 191v74h33v-74q0 -50 -17.5 -100.5t-51 -96t-90 -76.5t-127.5 -36l-25 -64q65 9 121.5 -25.5t56.5 -93.5q0 -47 -39.5 -77.5t-91 -36t-104.5 16t-78 67.5z" />
    <glyph glyph-name="egrave" unicode="&#xe8;" horiz-adv-x="806" 
d="M569 1096q-68 39 -126.5 100t-92.5 133h146q10 -64 27.5 -115.5t56.5 -117.5h-11zM160 719q0 51 23.5 104.5t65 99t106.5 74.5t141 29q143 0 234 -94t91 -219v-213h-403v-346q0 -65 23.5 -99.5t88.5 -34.5q106 0 182 85.5t76 191.5v74h35v-74q0 -52 -19 -104.5
t-55.5 -99.5t-98.5 -76t-140 -29q-152 0 -251 98.5t-99 224.5v408zM418 889v-357h147v357q0 23 -4 43.5t-20.5 40.5t-44.5 20t-47 -19.5t-25 -41.5t-6 -43z" />
    <glyph glyph-name="eacute" unicode="&#xe9;" horiz-adv-x="806" 
d="M422 1096h-10q39 66 56.5 117.5t27.5 115.5h145q-34 -72 -92.5 -133t-126.5 -100zM160 719q0 51 23.5 104.5t65 99t106.5 74.5t141 29q143 0 234 -94t91 -219v-213h-403v-346q0 -65 23.5 -99.5t88.5 -34.5q106 0 182 85.5t76 191.5v74h35v-74q0 -52 -19 -104.5
t-55.5 -99.5t-98.5 -76t-140 -29q-152 0 -251 98.5t-99 224.5v408zM418 889v-357h147v357q0 23 -4 43.5t-20.5 40.5t-44.5 20t-47 -19.5t-25 -41.5t-6 -43z" />
    <glyph glyph-name="ecircumflex" unicode="&#xea;" horiz-adv-x="806" 
d="M309 1096l-4 2q66 58 111.5 121t56 88.5t16.5 44.5h5q6 -19 16.5 -44.5t56 -88.5t111.5 -121l-4 -2q-55 12 -98.5 35.5t-59 38t-24.5 26.5q-8 -12 -24.5 -27t-60 -38t-98.5 -35zM160 719q0 51 23.5 104.5t65 99t106.5 74.5t141 29q143 0 234 -94t91 -219v-213h-403v-346
q0 -65 23.5 -99.5t88.5 -34.5q106 0 182 85.5t76 191.5v74h35v-74q0 -52 -19 -104.5t-55.5 -99.5t-98.5 -76t-140 -29q-152 0 -251 98.5t-99 224.5v408zM418 889v-357h147v357q0 23 -4 43.5t-20.5 40.5t-44.5 20t-47 -19.5t-25 -41.5t-6 -43z" />
    <glyph glyph-name="edieresis" unicode="&#xeb;" horiz-adv-x="806" 
d="M287 1202q0 37 24.5 60.5t61.5 23.5t62.5 -24t25.5 -60q0 -38 -25.5 -62t-62.5 -24t-61.5 24t-24.5 62zM526 1202q0 36 25 60t61 24q38 0 63 -23.5t25 -60.5q0 -38 -25 -62t-63 -24q-36 0 -61 24t-25 62zM160 719q0 51 23.5 104.5t65 99t106.5 74.5t141 29q143 0 234 -94
t91 -219v-213h-403v-346q0 -65 23.5 -99.5t88.5 -34.5q106 0 182 85.5t76 191.5v74h35v-74q0 -52 -19 -104.5t-55.5 -99.5t-98.5 -76t-140 -29q-152 0 -251 98.5t-99 224.5v408zM418 889v-357h147v357q0 23 -4 43.5t-20.5 40.5t-44.5 20t-47 -19.5t-25 -41.5t-6 -43z" />
    <glyph glyph-name="igrave" unicode="&#xec;" horiz-adv-x="440" 
d="M319 1096q-68 39 -126.5 100t-92.5 133h146q10 -64 27.5 -115.5t56.5 -117.5h-11zM33 0v33h80v948h-80v33h334v-981h79v-33h-413z" />
    <glyph glyph-name="iacute" unicode="&#xed;" horiz-adv-x="440" 
d="M172 1096h-10q39 66 56.5 117.5t27.5 115.5h145q-34 -72 -92.5 -133t-126.5 -100zM33 0v33h80v948h-80v33h334v-981h79v-33h-413z" />
    <glyph glyph-name="icircumflex" unicode="&#xee;" horiz-adv-x="440" 
d="M57 1100l-4 2q41 36 75 74.5t52.5 66t32.5 55t18.5 38.5t6.5 20h4q6 -19 16.5 -44.5t56 -88.5t111.5 -121l-4 -2q-55 12 -98.5 35.5t-59 38t-24.5 26.5q-8 -12 -24.5 -27t-60 -38t-98.5 -35zM33 0v33h80v948h-80v33h334v-981h79v-33h-413z" />
    <glyph glyph-name="idieresis" unicode="&#xef;" horiz-adv-x="440" 
d="M33 1202q0 37 24.5 60.5t61.5 23.5t62.5 -24t25.5 -60q0 -38 -25.5 -62t-62.5 -24t-61.5 24t-24.5 62zM272 1202q0 36 25 60t61 24q38 0 63 -23.5t25 -60.5q0 -38 -25 -62t-63 -24q-36 0 -61 24t-25 62zM29 0v33h80v948h-80v33h333v-981h80v-33h-413z" />
    <glyph glyph-name="eth" unicode="&#xf0;" horiz-adv-x="741" 
d="M160 270v471q0 66 40.5 131.5t111.5 108.5t151 43q45 0 86 -14q-4 113 -21 186l-116 -41l-13 35l119 43q-42 122 -145 184l55 17q126 -54 207 -160l141 51l12 -37l-129 -45q139 -207 148 -561v-16v-396q0 -107 -88 -194.5t-225 -87.5q-133 0 -233.5 82t-100.5 200z
M414 915v-823q0 -29 19.5 -50.5t51.5 -21.5t49 21t17 51v823v11l-2 2v6q-5 24 -22.5 39.5t-41.5 15.5q-31 1 -51 -23t-20 -51z" />
    <glyph glyph-name="ntilde" unicode="&#xf1;" 
d="M637 1264q-4 -82 -33 -115t-69 -33q-35 0 -95 31t-90 31q-61 0 -88 -64l-6 2q4 63 38 102t75 42q36 3 102 -27.5t86 -30.5q22 0 39 17t35 47zM25 0v33h79v948h-79v33h329v-123q28 65 77.5 97t109.5 32q36 0 73.5 -10.5t76.5 -33t64 -67.5t25 -106v-770h80v-33h-399v33h61
v841q0 89 -43 89q-41 0 -83 -58t-42 -127v-745h62v-33h-391z" />
    <glyph glyph-name="ograve" unicode="&#xf2;" horiz-adv-x="839" 
d="M573 1096q-68 40 -126 101t-91 132h144q10 -64 27.5 -115.5t56.5 -117.5h-11zM160 311v389q0 80 39 153.5t118 123t181 49.5q150 0 248 -100.5t98 -225.5v-389q0 -82 -39 -154.5t-117 -120.5t-178 -48q-76 0 -142.5 28t-111.5 73.5t-70.5 103.5t-25.5 118zM418 879v-746
q0 -44 25.5 -78.5t62.5 -34.5q35 0 57.5 34t22.5 79v746q0 44 -23.5 79t-58.5 35q-38 0 -62 -35t-24 -79z" />
    <glyph glyph-name="oacute" unicode="&#xf3;" horiz-adv-x="839" 
d="M426 1096h-8q63 107 82 233h145q-35 -72 -92.5 -133t-126.5 -100zM160 311v389q0 80 39 153.5t118 123t181 49.5q150 0 248 -100.5t98 -225.5v-389q0 -82 -39 -154.5t-117 -120.5t-178 -48q-76 0 -142.5 28t-111.5 73.5t-70.5 103.5t-25.5 118zM418 879v-746
q0 -44 25.5 -78.5t62.5 -34.5q35 0 57.5 34t22.5 79v746q0 44 -23.5 79t-58.5 35q-38 0 -62 -35t-24 -79z" />
    <glyph glyph-name="ocircumflex" unicode="&#xf4;" horiz-adv-x="839" 
d="M315 1096l-4 2q41 36 75 74.5t52.5 66t32.5 55t18.5 38.5t6.5 20h4q6 -19 16.5 -44.5t56 -88.5t111.5 -121l-4 -2q-55 12 -98.5 35.5t-59 38t-24.5 26.5q-8 -12 -24.5 -27t-60 -38t-98.5 -35zM160 311v389q0 80 39 153.5t118 123t181 49.5q150 0 248 -100.5t98 -225.5
v-389q0 -82 -39 -154.5t-117 -120.5t-178 -48q-76 0 -142.5 28t-111.5 73.5t-70.5 103.5t-25.5 118zM418 879v-746q0 -44 25.5 -78.5t62.5 -34.5q35 0 57.5 34t22.5 79v746q0 44 -23.5 79t-58.5 35q-38 0 -62 -35t-24 -79z" />
    <glyph glyph-name="otilde" unicode="&#xf5;" horiz-adv-x="839" 
d="M688 1264q-12 -148 -102 -148q-35 0 -96 31t-91 31q-59 0 -86 -64l-6 2q4 63 38 102t75 42q37 3 102 -27.5t82 -30.5q43 0 74 64zM160 311v389q0 80 39 153.5t118 123t181 49.5q150 0 248 -100.5t98 -225.5v-389q0 -82 -39 -154.5t-117 -120.5t-178 -48q-76 0 -142.5 28
t-111.5 73.5t-70.5 103.5t-25.5 118zM418 879v-746q0 -44 25.5 -78.5t62.5 -34.5q35 0 57.5 34t22.5 79v746q0 44 -23.5 79t-58.5 35q-38 0 -62 -35t-24 -79z" />
    <glyph glyph-name="odieresis" unicode="&#xf6;" horiz-adv-x="839" 
d="M291 1202q0 37 24.5 60.5t61.5 23.5t63.5 -24t26.5 -60q0 -38 -26 -62t-64 -24q-37 0 -61.5 24t-24.5 62zM530 1202q0 36 25.5 60t60.5 24q40 0 65.5 -23.5t25.5 -60.5q0 -38 -25.5 -62t-65.5 -24q-35 0 -60.5 24.5t-25.5 61.5zM160 311v389q0 80 39 153.5t118 123
t181 49.5q150 0 248 -100.5t98 -225.5v-389q0 -82 -39 -154.5t-117 -120.5t-178 -48q-76 0 -142.5 28t-111.5 73.5t-70.5 103.5t-25.5 118zM418 879v-746q0 -44 25.5 -78.5t62.5 -34.5q35 0 57.5 34t22.5 79v746q0 44 -23.5 79t-58.5 35q-38 0 -62 -35t-24 -79z" />
    <glyph glyph-name="divide" unicode="&#xf7;" horiz-adv-x="978" 
d="M457 1065q0 60 39.5 99.5t99.5 39.5t100.5 -39.5t40.5 -99.5t-40.5 -100.5t-100.5 -40.5t-99.5 40.5t-39.5 100.5zM979 719h-766v123h766v-123zM457 496q0 60 39.5 99.5t99.5 39.5t100.5 -39.5t40.5 -99.5t-40.5 -101t-100.5 -41t-99.5 41t-39.5 101z" />
    <glyph glyph-name="oslash" unicode="&#xf8;" horiz-adv-x="704" 
d="M29 29l59 94q-68 83 -68 188v389q0 80 39 153.5t117.5 123t179.5 49.5q143 0 242 -92l51 80l47 -29l-59 -94q68 -87 68 -191v-389q0 -82 -39 -154.5t-117 -120.5t-178 -48q-142 0 -244 92l-49 -80zM279 879v-455l167 268v187q0 44 -23 79t-58 35q-38 0 -62 -35t-24 -79z
M279 133q0 -44 25.5 -78.5t62.5 -34.5q35 0 57 34t22 79v455l-167 -269v-186z" />
    <glyph glyph-name="ugrave" unicode="&#xf9;" 
d="M489 1096q-68 39 -126.5 100t-92.5 133h146q10 -64 27.5 -115.5t56.5 -117.5h-11zM860 33v-33h-328v125q-28 -66 -78 -98.5t-110 -32.5q-35 0 -73 10.5t-77 33t-64.5 67.5t-25.5 106v770h-79v33h337v-875q0 -88 37 -88q49 0 91 61.5t42 123.5v745h-79v33h327v-981h80z
" />
    <glyph glyph-name="uacute" unicode="&#xfa;" 
d="M342 1096h-10q39 66 56.5 117.5t27.5 115.5h145q-34 -72 -92.5 -133t-126.5 -100zM860 33v-33h-328v125q-28 -66 -78 -98.5t-110 -32.5q-35 0 -73 10.5t-77 33t-64.5 67.5t-25.5 106v770h-79v33h337v-875q0 -88 37 -88q49 0 91 61.5t42 123.5v745h-79v33h327v-981h80z
" />
    <glyph glyph-name="ucircumflex" unicode="&#xfb;" 
d="M229 1096l-4 2q41 36 75 74.5t52.5 66t32.5 55t18.5 38.5t6.5 20h4q6 -19 16.5 -44.5t56 -88.5t111.5 -121l-4 -2q-55 12 -98.5 35.5t-59 38t-24.5 26.5q-8 -12 -24.5 -27t-60 -38t-98.5 -35zM860 33v-33h-328v125q-28 -66 -78 -98.5t-110 -32.5q-35 0 -73 10.5t-77 33
t-64.5 67.5t-25.5 106v770h-79v33h337v-875q0 -88 37 -88q49 0 91 61.5t42 123.5v745h-79v33h327v-981h80z" />
    <glyph glyph-name="udieresis" unicode="&#xfc;" 
d="M207 1202q0 37 24.5 60.5t61.5 23.5t62.5 -24t25.5 -60q0 -38 -25.5 -62t-62.5 -24t-61.5 24t-24.5 62zM446 1202q0 36 25 60t61 24q38 0 63.5 -23.5t25.5 -60.5q0 -38 -25 -62t-64 -24q-36 0 -61 24t-25 62zM860 33v-33h-328v125q-28 -66 -78 -98.5t-110 -32.5
q-35 0 -73 10.5t-77 33t-64.5 67.5t-25.5 106v770h-79v33h337v-875q0 -88 37 -88q49 0 91 61.5t42 123.5v745h-79v33h327v-981h80z" />
    <glyph glyph-name="yacute" unicode="&#xfd;" horiz-adv-x="813" 
d="M389 1096h-10q39 66 56.5 117.5t27.5 115.5h147q-36 -72 -94.5 -133t-126.5 -100zM397 -244q-19 -73 -60.5 -110t-88.5 -37t-79 33t-32 92q0 54 37.5 89.5t136.5 47.5q18 3 29 6t27.5 10.5t27 21.5t15.5 34l16 63l-299 975h-86v33h424v-33h-72l164 -481l129 481h-70v33
h197v-33h-86z" />
    <glyph glyph-name="thorn" unicode="&#xfe;" horiz-adv-x="835" 
d="M367 193q0 -71 32.5 -111.5t65.5 -40.5q26 0 43.5 25t17.5 69v746q0 44 -18 71t-43 27q-34 0 -66 -42.5t-32 -117.5v-626zM41 -313h80v1712h-80v33h326v-504q38 98 141 98q37 0 74.5 -11.5t73.5 -37t63.5 -61.5t44 -89t16.5 -116v-400q0 -125 -80.5 -221t-193.5 -96
q-102 0 -139 94v-401h79v-33h-405v33z" />
    <glyph glyph-name="ydieresis" unicode="&#xff;" horiz-adv-x="813" 
d="M254 1202q0 37 24.5 60.5t61.5 23.5t62.5 -24t25.5 -60q0 -38 -25.5 -62t-62.5 -24t-61.5 24t-24.5 62zM494 1202q0 36 25 60t61 24q38 0 63 -23.5t25 -60.5q0 -38 -25 -62t-63 -24q-36 0 -61 24t-25 62zM397 -244q-19 -73 -60.5 -110t-88.5 -37t-79 33t-32 92
q0 54 37.5 89.5t136.5 47.5q18 3 29 6t27.5 10.5t27 21.5t15.5 34l16 63l-299 975h-86v33h424v-33h-72l164 -481l129 481h-70v33h197v-33h-86z" />
    <glyph glyph-name="Amacron" unicode="&#x100;" horiz-adv-x="1026" 
d="M715 1616v-62h-422v62h422zM82 33h96l305 1399h52l391 -1399h100v-33h-463v33h86l-112 403h-234l-88 -403h90v-33h-223v33zM311 469h217l-122 438z" />
    <glyph glyph-name="amacron" unicode="&#x101;" horiz-adv-x="882" 
d="M696 1198v-61h-420v61h420zM178 795q0 99 85 165t229 66q86 0 153.5 -26t106 -68.5t58 -90.5t19.5 -98v-600q0 -90 39 -90q20 0 33.5 25t13.5 51h33q0 -66 -48.5 -106.5t-131.5 -40.5q-75 0 -130 32t-65 88q-24 -56 -74.5 -85t-115.5 -29q-32 0 -67.5 11.5t-72 35.5
t-60 69.5t-23.5 104.5v104q0 60 23.5 105.5t60 71.5t84 48t91.5 35.5t86.5 33.5t65.5 42v238q0 50 -26 79t-72 29q-32 -1 -48 -16t-15.5 -38.5t5 -41.5t11.5 -35q14 -29 18.5 -65.5t-3 -72.5t-39 -60.5t-83.5 -24.5q-34 0 -59.5 10.5t-40.5 26.5t-24.5 37.5t-13 40.5
t-3.5 39zM571 612q-14 -12 -47.5 -31t-55.5 -34t-41 -50t-19 -83v-271q0 -100 55 -100q34 0 71 49.5t37 108.5v411z" />
    <glyph glyph-name="Abreve" unicode="&#x102;" horiz-adv-x="1026" 
d="M664 1712h12q-11 -74 -59 -126t-111 -52q-62 0 -111.5 52.5t-58.5 125.5h12q6 -33 27.5 -54.5t50.5 -29.5t46 -10t34 -2q138 0 158 96zM82 33h96l305 1399h52l391 -1399h100v-33h-463v33h86l-112 403h-234l-88 -403h90v-33h-223v33zM311 469h217l-122 438z" />
    <glyph glyph-name="abreve" unicode="&#x103;" horiz-adv-x="882" 
d="M647 1294h12q-11 -74 -57.5 -126t-109.5 -52q-64 0 -114 52.5t-59 125.5h13q5 -27 21.5 -46t35 -28.5t42.5 -14.5t36 -6t25 -1q16 0 31.5 2t44.5 9.5t50.5 29.5t28.5 55zM178 795q0 99 85 165t229 66q86 0 153.5 -26t106 -68.5t58 -90.5t19.5 -98v-600q0 -90 39 -90
q20 0 33.5 25t13.5 51h33q0 -66 -48.5 -106.5t-131.5 -40.5q-75 0 -130 32t-65 88q-24 -56 -74.5 -85t-115.5 -29q-32 0 -67.5 11.5t-72 35.5t-60 69.5t-23.5 104.5v104q0 60 23.5 105.5t60 71.5t84 48t91.5 35.5t86.5 33.5t65.5 42v238q0 50 -26 79t-72 29q-32 -1 -48 -16
t-15.5 -38.5t5 -41.5t11.5 -35q14 -29 18.5 -65.5t-3 -72.5t-39 -60.5t-83.5 -24.5q-34 0 -59.5 10.5t-40.5 26.5t-24.5 37.5t-13 40.5t-3.5 39zM571 612q-14 -12 -47.5 -31t-55.5 -34t-41 -50t-19 -83v-271q0 -100 55 -100q34 0 71 49.5t37 108.5v411z" />
    <glyph glyph-name="Aogonek" unicode="&#x104;" horiz-adv-x="1026" 
d="M82 33h96l305 1399h52l391 -1399h100v-33h-444q-47 -25 -68.5 -58.5t-20 -61t16.5 -50.5q17 -27 48.5 -39t67 2.5t56.5 56.5l6 -2q-21 -51 -59 -77.5t-75.5 -27t-69 11t-46.5 30.5q-75 111 125 215v33h86l-112 403h-234l-88 -403h90v-33h-223v33zM311 469h217l-122 438z
" />
    <glyph glyph-name="aogonek" unicode="&#x105;" horiz-adv-x="882" 
d="M838 -150l6 -2q-21 -51 -59.5 -77.5t-76 -27t-69 11t-45.5 30.5q-70 107 106 205q-51 11 -85.5 40t-41.5 72q-24 -56 -74.5 -85t-115.5 -29q-32 0 -67.5 11.5t-72 35.5t-60 69.5t-23.5 104.5v104q0 60 23.5 105.5t60 71.5t84 48t91.5 35.5t86.5 33.5t65.5 42v238
q0 50 -26 79t-72 29q-32 -1 -48 -16t-15.5 -38.5t5 -41.5t11.5 -35q14 -29 18.5 -65.5t-3 -72.5t-39 -60.5t-83.5 -24.5q-34 0 -59.5 10.5t-40.5 26.5t-24.5 37.5t-13 40.5t-3.5 39q0 99 85 165t229 66q86 0 153.5 -26t106 -68.5t58 -90.5t19.5 -98v-600q0 -90 39 -90
q20 0 33.5 25t13.5 51h33q0 -67 -49 -107t-133 -40q-17 0 -49 4q-36 -24 -52 -55t-14 -56t15 -45q18 -27 50 -39t67 2.5t55 56.5zM571 612q-14 -12 -47.5 -31t-55.5 -34t-41 -50t-19 -83v-271q0 -100 55 -100q34 0 71 49.5t37 108.5v411z" />
    <glyph glyph-name="Cacute" unicode="&#x106;" horiz-adv-x="819" 
d="M526 1513h-12q68 116 86 234h145q-34 -71 -93 -132.5t-126 -101.5zM213 440v570q0 114 53.5 214t148.5 160t208 60q106 0 168 -53q20 1 25 10t5 31h35v-345h-35v136q0 80 -52 134t-144 54q-86 0 -115 -55.5t-29 -177.5v-930q0 -72 9 -118.5t27.5 -70t41 -31.5t57.5 -8
q36 0 67.5 7.5t65 26.5t53 58.5t19.5 96.5v176h35v-385h-35q0 20 -7 29t-26 12q-62 -53 -170 -53q-93 0 -171.5 40t-128.5 105.5t-77.5 145t-27.5 161.5z" />
    <glyph glyph-name="cacute" unicode="&#x107;" horiz-adv-x="804" 
d="M373 1096h-11q39 66 56.5 117.5t27.5 115.5h146q-34 -72 -92.5 -133t-126.5 -100zM160 743q0 41 23.5 89t66 92t112.5 73t152 29q133 0 214 -69.5t81 -172.5q0 -72 -39.5 -109.5t-95.5 -37.5q-49 0 -87 24.5t-51.5 72t21.5 118.5q26 51 20.5 82.5t-24 45t-45.5 13.5
q-42 0 -67 -32.5t-25 -79.5v-727q0 -76 26.5 -105t77.5 -29q108 0 188 86t80 191v74h33v-74q0 -52 -19 -104.5t-55.5 -99.5t-98 -76t-138.5 -29q-141 0 -245.5 89.5t-104.5 233.5v432z" />
    <glyph glyph-name="Ccircumflex" unicode="&#x108;" horiz-adv-x="819" 
d="M412 1513l-4 3q41 36 75 74.5t52.5 66t32.5 55t17.5 38l6.5 19.5h4l6.5 -19.5t17.5 -38t32.5 -55t52.5 -66t75 -74.5l-4 -3q-55 12 -98.5 35.5t-59 38.5t-24.5 27q-9 -12 -24.5 -27t-59 -38.5t-98.5 -35.5zM213 440v570q0 114 53.5 214t148.5 160t208 60q106 0 168 -53
q20 1 25 10t5 31h35v-345h-35v136q0 80 -52 134t-144 54q-86 0 -115 -55.5t-29 -177.5v-930q0 -72 9 -118.5t27.5 -70t41 -31.5t57.5 -8q36 0 67.5 7.5t65 26.5t53 58.5t19.5 96.5v176h35v-385h-35q0 20 -7 29t-26 12q-62 -53 -170 -53q-93 0 -171.5 40t-128.5 105.5
t-77.5 145t-27.5 161.5z" />
    <glyph glyph-name="ccircumflex" unicode="&#x109;" horiz-adv-x="804" 
d="M303 1096l-4 2q66 58 111.5 121t56 88.5t16.5 44.5h4q2 -9 6.5 -20t18.5 -38.5t32.5 -55t52.5 -66t75 -74.5l-4 -2q-55 12 -98.5 35t-60 38t-24.5 27q-9 -12 -24.5 -26.5t-59 -38t-98.5 -35.5zM160 743q0 41 23.5 89t66 92t112.5 73t152 29q133 0 214 -69.5t81 -172.5
q0 -72 -39.5 -109.5t-95.5 -37.5q-49 0 -87 24.5t-51.5 72t21.5 118.5q26 51 20.5 82.5t-24 45t-45.5 13.5q-42 0 -67 -32.5t-25 -79.5v-727q0 -76 26.5 -105t77.5 -29q108 0 188 86t80 191v74h33v-74q0 -52 -19 -104.5t-55.5 -99.5t-98 -76t-138.5 -29q-141 0 -245.5 89.5
t-104.5 233.5v432z" />
    <glyph glyph-name="Cdotaccent" unicode="&#x10a;" horiz-adv-x="819" 
d="M512 1620q0 37 23.5 60.5t62.5 23.5q37 0 59.5 -23.5t22.5 -60.5q0 -38 -22.5 -62t-59.5 -24q-39 0 -62.5 23.5t-23.5 62.5zM213 440v570q0 114 53.5 214t148.5 160t208 60q106 0 168 -53q20 1 25 10t5 31h35v-345h-35v136q0 80 -52 134t-144 54q-86 0 -115 -55.5
t-29 -177.5v-930q0 -72 9 -118.5t27.5 -70t41 -31.5t57.5 -8q36 0 67.5 7.5t65 26.5t53 58.5t19.5 96.5v176h35v-385h-35q0 20 -7 29t-26 12q-62 -53 -170 -53q-93 0 -171.5 40t-128.5 105.5t-77.5 145t-27.5 161.5z" />
    <glyph glyph-name="cdotaccent" unicode="&#x10b;" horiz-adv-x="804" 
d="M420 1202q0 37 23 60.5t61 23.5t62 -23.5t24 -60.5q0 -38 -24 -62t-62 -24t-61 24t-23 62zM160 743q0 41 23.5 89t66 92t112.5 73t152 29q133 0 214 -69.5t81 -172.5q0 -72 -39.5 -109.5t-95.5 -37.5q-49 0 -87 24.5t-51.5 72t21.5 118.5q26 51 20.5 82.5t-24 45
t-45.5 13.5q-42 0 -67 -32.5t-25 -79.5v-727q0 -76 26.5 -105t77.5 -29q108 0 188 86t80 191v74h33v-74q0 -52 -19 -104.5t-55.5 -99.5t-98 -76t-138.5 -29q-141 0 -245.5 89.5t-104.5 233.5v432z" />
    <glyph glyph-name="Ccaron" unicode="&#x10c;" horiz-adv-x="819" 
d="M416 1767q54 -12 97 -35t59 -37.5t26 -27.5q10 13 26 27.5t59 37.5t97 35l4 -2q-35 -31 -64.5 -63t-47.5 -57.5t-33 -50.5t-21.5 -40.5t-11.5 -29.5l-6 -13h-4l-6 13q-5 14 -11.5 29.5t-21.5 40.5t-33 50.5t-47.5 57.5t-64.5 63zM213 440v570q0 114 53.5 214t148.5 160
t208 60q106 0 168 -53q20 1 25 10t5 31h35v-345h-35v136q0 80 -52 134t-144 54q-86 0 -115 -55.5t-29 -177.5v-930q0 -72 9 -118.5t27.5 -70t41 -31.5t57.5 -8q36 0 67.5 7.5t65 26.5t53 58.5t19.5 96.5v176h35v-385h-35q0 20 -7 29t-26 12q-62 -53 -170 -53
q-93 0 -171.5 40t-128.5 105.5t-77.5 145t-27.5 161.5z" />
    <glyph glyph-name="ccaron" unicode="&#x10d;" horiz-adv-x="804" 
d="M307 1346q54 -12 97 -35t59 -38t26 -28q10 13 26 28t59.5 38t97.5 35l4 -3q-35 -31 -64.5 -63t-47.5 -57t-33 -50.5t-21.5 -40.5t-11.5 -28l-6 -14h-5l-5 14q-6 13 -12.5 28t-21.5 40.5t-33 50.5t-47.5 57t-64.5 63zM160 743q0 41 23.5 89t66 92t112.5 73t152 29
q133 0 214 -69.5t81 -172.5q0 -72 -39.5 -109.5t-95.5 -37.5q-49 0 -87 24.5t-51.5 72t21.5 118.5q26 51 20.5 82.5t-24 45t-45.5 13.5q-42 0 -67 -32.5t-25 -79.5v-727q0 -76 26.5 -105t77.5 -29q108 0 188 86t80 191v74h33v-74q0 -52 -19 -104.5t-55.5 -99.5t-98 -76
t-138.5 -29q-141 0 -245.5 89.5t-104.5 233.5v432z" />
    <glyph glyph-name="Dcaron" unicode="&#x10e;" horiz-adv-x="974" 
d="M248 1767q54 -12 97 -35t59 -37.5t26 -27.5q10 13 26 27.5t59 37.5t97 35l4 -2q-35 -31 -64.5 -63t-47.5 -57.5t-33 -50.5t-21.5 -40.5t-11.5 -29.5l-6 -13h-4l-6 13q-5 14 -11.5 29.5t-21.5 40.5t-33 50.5t-47.5 57.5t-64.5 63zM45 33h92v1366h-92v33h496
q81 0 163.5 -59.5t134.5 -150.5t52 -178v-630q0 -66 -29.5 -140t-76 -134t-109 -100t-123.5 -40h-508v33zM408 1399v-1366h122q29 0 48 17t28 51.5t12 72.5t3 94v899q0 49 -3.5 84.5t-14 72t-34 56t-59.5 19.5h-102z" />
    <glyph glyph-name="dcaron" unicode="&#x10f;" horiz-adv-x="864" 
d="M874 1278q-46 -19 -83 4t-37 72q0 39 26 62.5t60 23.5q38 0 64 -30t26 -93q0 -148 -139 -164l-5 21q46 8 67 37t21 67zM422 807q0 72 -33 119t-65 47q-26 0 -44 -25t-18 -69v-746q0 -44 18.5 -71t43.5 -27q32 0 65 50t33 126v596zM748 0h-326v84q-38 -96 -137 -96
q-33 0 -69 9.5t-73.5 32t-67 55.5t-48.5 84.5t-19 113.5v419q0 129 80.5 223.5t194.5 94.5q102 0 139 -92v471h-80v33h326v-1399h80v-33z" />
    <glyph glyph-name="Dcroat" unicode="&#x110;" horiz-adv-x="974" 
d="M45 33h92v665h-82v39h82v662h-92v33h496q81 0 163.5 -59.5t134.5 -150.5t52 -178v-630q0 -66 -29.5 -140t-76 -134t-109 -100t-123.5 -40h-508v33zM408 1399v-662h114v-39h-114v-665h122q29 0 48 17t28 51.5t12 72.5t3 94v899q0 49 -3.5 84.5t-14 72t-34 56t-59.5 19.5
h-102z" />
    <glyph glyph-name="dcroat" unicode="&#x111;" horiz-adv-x="864" 
d="M573 807q0 72 -33 119t-65 47q-26 0 -43.5 -25t-17.5 -69v-746q0 -44 18 -71t43 -27q32 0 65 50t33 126v596zM899 0h-326v84q-38 -96 -137 -96q-42 0 -87.5 16.5t-89 49t-71.5 92.5t-28 137v419q0 129 80 223.5t194 94.5q102 0 139 -92v266h-155v33h155v172h-79v33h325
v-205h111v-33h-111v-1161h80v-33z" />
    <glyph glyph-name="Emacron" unicode="&#x112;" horiz-adv-x="790" 
d="M614 1616v-62h-421v62h421zM45 0v33h92v1366h-92v33h668v-304h-35q0 156 -33.5 213.5t-132.5 57.5h-106v-651h81q30 0 50.5 3t36.5 7.5t25 17t15 24t8.5 37t3.5 47.5t1 62h32v-430h-32q0 35 -0.5 55.5t-2.5 44t-5.5 35t-11 25t-17 19.5t-24.5 11.5t-34 7t-45 1.5h-81
v-682h129q102 0 138 64.5t36 246.5h34v-344h-698z" />
    <glyph glyph-name="emacron" unicode="&#x113;" horiz-adv-x="806" 
d="M702 1198v-61h-421v61h421zM160 719q0 51 23.5 104.5t65 99t106.5 74.5t141 29q143 0 234 -94t91 -219v-213h-403v-346q0 -65 23.5 -99.5t88.5 -34.5q106 0 182 85.5t76 191.5v74h35v-74q0 -52 -19 -104.5t-55.5 -99.5t-98.5 -76t-140 -29q-152 0 -251 98.5t-99 224.5
v408zM418 889v-357h147v357q0 23 -4 43.5t-20.5 40.5t-44.5 20t-47 -19.5t-25 -41.5t-6 -43z" />
    <glyph glyph-name="Ebreve" unicode="&#x114;" horiz-adv-x="790" 
d="M565 1712h13q-12 -74 -59.5 -126t-110.5 -52q-64 0 -113.5 52.5t-58.5 125.5h12q5 -27 21.5 -46t35 -28.5t42.5 -14.5t36 -6t25 -1q134 0 157 96zM45 0v33h92v1366h-92v33h668v-304h-35q0 156 -33.5 213.5t-132.5 57.5h-106v-651h81q30 0 50.5 3t36.5 7.5t25 17t15 24
t8.5 37t3.5 47.5t1 62h32v-430h-32q0 35 -0.5 55.5t-2.5 44t-5.5 35t-11 25t-17 19.5t-24.5 11.5t-34 7t-45 1.5h-81v-682h129q102 0 138 64.5t36 246.5h34v-344h-698z" />
    <glyph glyph-name="ebreve" unicode="&#x115;" horiz-adv-x="806" 
d="M651 1294h13q-11 -74 -59 -126t-111 -52q-62 0 -111.5 52.5t-58.5 125.5h12q6 -33 27.5 -54.5t50.5 -29.5t46 -10t34 -2q137 0 157 96zM160 719q0 51 23.5 104.5t65 99t106.5 74.5t141 29q143 0 234 -94t91 -219v-213h-403v-346q0 -65 23.5 -99.5t88.5 -34.5
q106 0 182 85.5t76 191.5v74h35v-74q0 -52 -19 -104.5t-55.5 -99.5t-98.5 -76t-140 -29q-152 0 -251 98.5t-99 224.5v408zM418 889v-357h147v357q0 23 -4 43.5t-20.5 40.5t-44.5 20t-47 -19.5t-25 -41.5t-6 -43z" />
    <glyph glyph-name="Edotaccent" unicode="&#x116;" horiz-adv-x="790" 
d="M322 1620q0 37 23.5 60.5t60.5 23.5q38 0 62 -23.5t24 -60.5q0 -38 -24 -62t-62 -24q-37 0 -60.5 24t-23.5 62zM45 0v33h92v1366h-92v33h668v-304h-35q0 156 -33.5 213.5t-132.5 57.5h-106v-651h81q30 0 50.5 3t36.5 7.5t25 17t15 24t8.5 37t3.5 47.5t1 62h32v-430h-32
q0 35 -0.5 55.5t-2.5 44t-5.5 35t-11 25t-17 19.5t-24.5 11.5t-34 7t-45 1.5h-81v-682h129q102 0 138 64.5t36 246.5h34v-344h-698z" />
    <glyph glyph-name="edotaccent" unicode="&#x117;" horiz-adv-x="806" 
d="M408 1202q0 37 23 60.5t61 23.5t62 -23.5t24 -60.5q0 -38 -24 -62t-62 -24t-61 24t-23 62zM160 719q0 51 23.5 104.5t65 99t106.5 74.5t141 29q143 0 234 -94t91 -219v-213h-403v-346q0 -65 23.5 -99.5t88.5 -34.5q106 0 182 85.5t76 191.5v74h35v-74q0 -52 -19 -104.5
t-55.5 -99.5t-98.5 -76t-140 -29q-152 0 -251 98.5t-99 224.5v408zM418 889v-357h147v357q0 23 -4 43.5t-20.5 40.5t-44.5 20t-47 -19.5t-25 -41.5t-6 -43z" />
    <glyph glyph-name="Eogonek" unicode="&#x118;" horiz-adv-x="790" 
d="M45 0v33h92v1366h-92v33h668v-304h-35q0 156 -33.5 213.5t-132.5 57.5h-106v-651h81q30 0 50.5 3t36.5 7.5t25 17t15 24t8.5 37t3.5 47.5t1 62h32v-430h-32q0 35 -0.5 55.5t-2.5 44t-5.5 35t-11 25t-17 19.5t-24.5 11.5t-34 7t-45 1.5h-81v-682h129q102 0 138 64.5
t36 246.5h34v-344h-165q-48 -25 -69.5 -58.5t-20 -61t15.5 -50.5q17 -27 49 -39t67.5 2.5t55.5 56.5l6 -2q-21 -51 -59.5 -77.5t-76 -27t-69 11t-45.5 30.5q-76 112 127 215h-514z" />
    <glyph glyph-name="eogonek" unicode="&#x119;" horiz-adv-x="806" 
d="M664 -156l6 -2q-21 -51 -59 -77.5t-75.5 -27t-69 11t-46.5 30.5q-75 112 115 209h-25q-152 0 -251 98.5t-99 224.5v408q0 51 23.5 104.5t65 99t106.5 74.5t141 29q143 0 234 -94t91 -219v-213h-403v-346q0 -65 23.5 -99.5t88.5 -34.5q106 0 182 85.5t76 191.5v74h35v-74
q0 -48 -16.5 -97t-48 -93t-84 -76t-117.5 -41q-44 -24 -64 -56.5t-18 -59.5t17 -50q17 -27 48.5 -39t67 2.5t56.5 56.5zM418 889v-357h147v357q0 23 -4 43.5t-20.5 40.5t-44.5 20t-47 -19.5t-25 -41.5t-6 -43z" />
    <glyph glyph-name="Ecaron" unicode="&#x11a;" horiz-adv-x="790" 
d="M225 1767q54 -12 97.5 -35t59.5 -37.5t26 -27.5q10 13 26 27.5t59 37.5t97 35l4 -2q-35 -31 -64.5 -63t-47.5 -57.5t-33 -50.5t-21.5 -40.5t-11.5 -29.5l-6 -13h-4l-6 14q-5 14 -12 29t-22 40t-33 50.5t-47.5 57.5t-64.5 63zM45 0v33h92v1366h-92v33h668v-304h-35
q0 156 -33.5 213.5t-132.5 57.5h-106v-651h81q30 0 50.5 3t36.5 7.5t25 17t15 24t8.5 37t3.5 47.5t1 62h32v-430h-32q0 35 -0.5 55.5t-2.5 44t-5.5 35t-11 25t-17 19.5t-24.5 11.5t-34 7t-45 1.5h-81v-682h129q102 0 138 64.5t36 246.5h34v-344h-698z" />
    <glyph glyph-name="ecaron" unicode="&#x11b;" horiz-adv-x="806" 
d="M311 1350q54 -12 97.5 -35t59.5 -38t26 -28q10 13 26 28t59 38t97 35l4 -2q-35 -31 -64.5 -63t-47.5 -57.5t-33 -50.5t-21.5 -40.5t-11.5 -28.5l-6 -14h-4l-6 14q-5 14 -12 29t-22 40t-33 50.5t-47.5 57.5t-64.5 63zM160 719q0 51 23.5 104.5t65 99t106.5 74.5t141 29
q143 0 234 -94t91 -219v-213h-403v-346q0 -65 23.5 -99.5t88.5 -34.5q106 0 182 85.5t76 191.5v74h35v-74q0 -52 -19 -104.5t-55.5 -99.5t-98.5 -76t-140 -29q-152 0 -251 98.5t-99 224.5v408zM418 889v-357h147v357q0 23 -4 43.5t-20.5 40.5t-44.5 20t-47 -19.5t-25 -41.5
t-6 -43z" />
    <glyph glyph-name="Gcircumflex" unicode="&#x11c;" horiz-adv-x="915" 
d="M406 1513l-5 3q41 36 75 74.5t52.5 66t32.5 54.5t18.5 38.5t6.5 19.5h4l6.5 -19.5t17.5 -38t32.5 -55t52.5 -66t75 -74.5l-4 -3q-55 12 -98.5 35.5t-59 38.5t-24.5 27q-9 -12 -24.5 -27t-59 -38.5t-98.5 -35.5zM213 1030q0 100 52 195t148 157t210 62q109 0 168 -53
q18 3 23 12t5 29h33v-345h-33v136q0 81 -52.5 134.5t-143.5 53.5q-73 0 -107.5 -48t-34.5 -149v-991q0 -98 27.5 -150.5t95.5 -52.5q82 0 82 80v426h-68v33h381v-33h-67v-526h-33q0 74 -35 74q-18 0 -57 -21.5t-94 -43t-113 -21.5q-71 0 -140.5 34t-124 92t-88.5 143.5
t-34 182.5v590z" />
    <glyph glyph-name="gcircumflex" unicode="&#x11d;" horiz-adv-x="851" 
d="M137 1094l-4 2q66 58 111.5 121t56 88.5t16.5 44.5h5q6 -19 16.5 -44.5t56 -88.5t111.5 -121l-4 -2q-55 12 -98.5 35t-60 38t-24.5 27q-9 -12 -24.5 -26.5t-59 -38t-98.5 -35.5zM2 627v102q0 72 36 138t110 111.5t169 45.5q99 0 181 -45q0 33 18 70q25 45 69 73.5
t89 28.5q53 0 92 -39q37 -42 36 -83t-30 -72t-67 -31t-68 30q-4 4 -17 20t-20.5 22.5t-19 13.5t-22 2.5t-19.5 -19.5q-11 -19 -11 -34q59 -41 93 -98.5t34 -121.5v-125q0 -78 -27 -140t-72.5 -98.5t-99.5 -55.5t-112 -19q-92 0 -170 41q-51 -39 -64.5 -70.5t19 -51
t111.5 -19.5h315q87 0 141 -65t54 -156q0 -48 -15.5 -94.5t-50.5 -91t-85.5 -78t-127 -54t-168.5 -20.5q-159 0 -243.5 54.5t-84.5 125.5q0 44 35.5 81t98.5 54q-66 22 -97 75t-25.5 113t47 119.5t109.5 93.5q-141 86 -141 267zM260 928v-529q0 -63 72 -63q65 0 65 63v529
q0 28 -17 45.5t-52 17.5t-51.5 -17.5t-16.5 -45.5zM111 -152q0 -63 59.5 -112t177.5 -49q119 0 182.5 50t63.5 113q0 40 -29 68.5t-78 28.5h-286q-40 0 -65 -29t-25 -70z" />
    <glyph glyph-name="Gbreve" unicode="&#x11e;" horiz-adv-x="915" 
d="M748 1712h12q-11 -74 -58 -126t-110 -52q-64 0 -113.5 52.5t-58.5 125.5h12q5 -27 21.5 -46t35 -28.5t42.5 -14.5t36 -6t25 -1q16 0 31.5 2t45 9.5t51 29.5t28.5 55zM213 1030q0 100 52 195t148 157t210 62q109 0 168 -53q18 3 23 12t5 29h33v-345h-33v136
q0 81 -52.5 134.5t-143.5 53.5q-73 0 -107.5 -48t-34.5 -149v-991q0 -98 27.5 -150.5t95.5 -52.5q82 0 82 80v426h-68v33h381v-33h-67v-526h-33q0 74 -35 74q-18 0 -57 -21.5t-94 -43t-113 -21.5q-71 0 -140.5 34t-124 92t-88.5 143.5t-34 182.5v590z" />
    <glyph glyph-name="gbreve" unicode="&#x11f;" horiz-adv-x="851" 
d="M477 1294h12q-11 -74 -57.5 -126t-109.5 -52q-62 0 -111.5 52.5t-58.5 125.5h12q6 -33 27 -54.5t50 -29.5t46.5 -10t34.5 -2q16 0 31.5 2t45 9.5t51 29.5t27.5 55zM2 627v102q0 72 36 138t110 111.5t169 45.5q99 0 181 -45q0 33 18 70q25 45 69 73.5t89 28.5q53 0 92 -39
q37 -42 36 -83t-30 -72t-67 -31t-68 30q-4 4 -17 20t-20.5 22.5t-19 13.5t-22 2.5t-19.5 -19.5q-11 -19 -11 -34q59 -41 93 -98.5t34 -121.5v-125q0 -78 -27 -140t-72.5 -98.5t-99.5 -55.5t-112 -19q-92 0 -170 41q-51 -39 -64.5 -70.5t19 -51t111.5 -19.5h315q87 0 141 -65
t54 -156q0 -48 -15.5 -94.5t-50.5 -91t-85.5 -78t-127 -54t-168.5 -20.5q-159 0 -243.5 54.5t-84.5 125.5q0 44 35.5 81t98.5 54q-66 22 -97 75t-25.5 113t47 119.5t109.5 93.5q-141 86 -141 267zM260 928v-529q0 -63 72 -63q65 0 65 63v529q0 28 -17 45.5t-52 17.5
t-51.5 -17.5t-16.5 -45.5zM111 -152q0 -63 59.5 -112t177.5 -49q119 0 182.5 50t63.5 113q0 40 -29 68.5t-78 28.5h-286q-40 0 -65 -29t-25 -70z" />
    <glyph glyph-name="Gdotaccent" unicode="&#x120;" horiz-adv-x="915" 
d="M506 1620q0 37 22.5 60.5t59.5 23.5q39 0 62.5 -23.5t23.5 -60.5q0 -39 -23.5 -62.5t-62.5 -23.5q-37 0 -59.5 24t-22.5 62zM213 1030q0 100 52 195t148 157t210 62q109 0 168 -53q18 3 23 12t5 29h33v-345h-33v136q0 81 -52.5 134.5t-143.5 53.5q-73 0 -107.5 -48
t-34.5 -149v-991q0 -98 27.5 -150.5t95.5 -52.5q82 0 82 80v426h-68v33h381v-33h-67v-526h-33q0 74 -35 74q-18 0 -57 -21.5t-94 -43t-113 -21.5q-71 0 -140.5 34t-124 92t-88.5 143.5t-34 182.5v590z" />
    <glyph glyph-name="gdotaccent" unicode="&#x121;" horiz-adv-x="851" 
d="M236 1202q0 37 22.5 60.5t60.5 23.5t61 -23.5t23 -60.5q0 -38 -23 -62t-61 -24t-60.5 23.5t-22.5 62.5zM2 627v102q0 72 36 138t110 111.5t169 45.5q99 0 181 -45q0 33 18 70q25 45 69 73.5t89 28.5q53 0 92 -39q37 -42 36 -83t-30 -72t-67 -31t-68 30q-4 4 -17 20
t-20.5 22.5t-19 13.5t-22 2.5t-19.5 -19.5q-11 -19 -11 -34q59 -41 93 -98.5t34 -121.5v-125q0 -78 -27 -140t-72.5 -98.5t-99.5 -55.5t-112 -19q-92 0 -170 41q-51 -39 -64.5 -70.5t19 -51t111.5 -19.5h315q87 0 141 -65t54 -156q0 -48 -15.5 -94.5t-50.5 -91t-85.5 -78
t-127 -54t-168.5 -20.5q-159 0 -243.5 54.5t-84.5 125.5q0 44 35.5 81t98.5 54q-66 22 -97 75t-25.5 113t47 119.5t109.5 93.5q-141 86 -141 267zM260 928v-529q0 -63 72 -63q65 0 65 63v529q0 28 -17 45.5t-52 17.5t-51.5 -17.5t-16.5 -45.5zM111 -152q0 -63 59.5 -112
t177.5 -49q119 0 182.5 50t63.5 113q0 40 -29 68.5t-78 28.5h-286q-40 0 -65 -29t-25 -70z" />
    <glyph glyph-name="uni0122" unicode="&#x122;" horiz-adv-x="915" 
d="M213 1030q0 100 52 195t148 157t210 62q109 0 168 -53q18 3 23 12t5 29h33v-345h-33v136q0 81 -52.5 134.5t-143.5 53.5q-73 0 -107.5 -48t-34.5 -149v-991q0 -98 27.5 -150.5t95.5 -52.5q82 0 82 80v426h-68v33h381v-33h-67v-526h-33q0 74 -35 74q-18 0 -57 -21.5
t-94 -43t-113 -21.5q-71 0 -140.5 34t-124 92t-88.5 143.5t-34 182.5v590zM616 -246q-46 -20 -83 3.5t-37 72.5q0 39 26 63.5t60 24.5q39 0 65.5 -31t26.5 -94q0 -152 -142 -168l-6 23q47 7 68.5 36.5t21.5 69.5z" />
    <glyph glyph-name="uni0123" unicode="&#x123;" horiz-adv-x="851" 
d="M297 1260q47 20 84 -3t37 -73q0 -41 -25 -64.5t-61 -23.5q-38 0 -65 30.5t-27 94.5q0 26 5.5 49.5t19.5 49.5t44 43.5t74 22.5l4 -20q-47 -8 -68.5 -38t-21.5 -68zM2 627v102q0 72 36 138t110 111.5t169 45.5q99 0 181 -45q0 33 18 70q25 45 69 73.5t89 28.5q53 0 92 -39
q37 -42 36 -83t-30 -72t-67 -31t-68 30q-4 4 -17 20t-20.5 22.5t-19 13.5t-22 2.5t-19.5 -19.5q-11 -19 -11 -34q59 -41 93 -98.5t34 -121.5v-125q0 -78 -27 -140t-72.5 -98.5t-99.5 -55.5t-112 -19q-92 0 -170 41q-51 -39 -64.5 -70.5t19 -51t111.5 -19.5h315q87 0 141 -65
t54 -156q0 -48 -15.5 -94.5t-50.5 -91t-85.5 -78t-127 -54t-168.5 -20.5q-159 0 -243.5 54.5t-84.5 125.5q0 44 35.5 81t98.5 54q-66 22 -97 75t-25.5 113t47 119.5t109.5 93.5q-141 86 -141 267zM260 928v-529q0 -63 72 -63q65 0 65 63v529q0 28 -17 45.5t-52 17.5
t-51.5 -17.5t-16.5 -45.5zM111 -152q0 -63 59.5 -112t177.5 -49q119 0 182.5 50t63.5 113q0 40 -29 68.5t-78 28.5h-286q-40 0 -65 -29t-25 -70z" />
    <glyph glyph-name="Hcircumflex" unicode="&#x124;" horiz-adv-x="1028" 
d="M354 1513l-4 3q41 36 75 74.5t52.5 66t32.5 54.5t18.5 38.5t6.5 19.5h4l6.5 -19.5t17.5 -38t32.5 -55t52.5 -66t75 -74.5l-4 -3q-55 12 -98.5 35.5t-59 38.5t-24.5 27q-9 -12 -24.5 -27t-59.5 -38.5t-99 -35.5zM45 1432h451v-33h-93v-668h267v668h-92v33h450v-33h-92
v-1366h92v-33h-450v33h92v665h-267v-665h93v-33h-451v33h92v1366h-92v33z" />
    <glyph glyph-name="hcircumflex" unicode="&#x125;" horiz-adv-x="854" 
d="M324 1493l-5 2q41 36 75 74.5t52.5 66t32.5 55t18.5 38.5t6.5 20h4q6 -19 16.5 -44.5t56 -88.5t111.5 -121l-4 -2q-55 12 -98.5 35.5t-59 38t-24.5 26.5q-9 -12 -24.5 -26.5t-59 -38t-98.5 -35.5zM41 0v33h80v1378h-80v33h326v-549q30 62 79.5 93.5t106.5 31.5
q35 0 72 -12t73 -36t59 -68t23 -101v-770h80v-33h-395v33h61v862q0 66 -32 66q-38 0 -82.5 -55.5t-44.5 -127.5v-745h61v-33h-387z" />
    <glyph glyph-name="Hbar" unicode="&#x126;" horiz-adv-x="1028" 
d="M45 1432h451v-33h-93v-342h267v342h-92v33h450v-33h-92v-342h92v-43h-92v-981h92v-33h-450v33h92v665h-267v-665h93v-33h-451v33h92v981h-92v43h92v342h-92v33zM403 731h267v283h-267v-283z" />
    <glyph glyph-name="hbar" unicode="&#x127;" horiz-adv-x="854" 
d="M41 0v33h80v1173h-68v41h68v164h-80v33h326v-197h112v-41h-112v-311q30 62 79.5 93.5t106.5 31.5q35 0 72 -12t73 -36t59 -68t23 -101v-770h80v-33h-395v33h61v862q0 66 -32 66q-38 0 -82.5 -55.5t-44.5 -127.5v-745h61v-33h-387z" />
    <glyph glyph-name="Itilde" unicode="&#x128;" horiz-adv-x="495" 
d="M459 1681q-4 -82 -33.5 -114.5t-67.5 -32.5q-35 0 -95.5 30.5t-90.5 30.5q-59 0 -86 -63l-8 2q6 64 39.5 102t75.5 41q35 3 101 -27t83 -30q37 0 76 63zM45 0v33h92v1366h-92v33h451v-33h-93v-1366h93v-33h-451z" />
    <glyph glyph-name="itilde" unicode="&#x129;" horiz-adv-x="440" 
d="M432 1264q-10 -148 -102 -148q-33 0 -94.5 31t-92.5 31q-59 0 -86 -64l-6 2q4 63 38 102t75 42q37 3 102.5 -27.5t83.5 -30.5q39 0 74 64zM33 0v33h80v948h-80v33h334v-981h79v-33h-413z" />
    <glyph glyph-name="Imacron" unicode="&#x12a;" horiz-adv-x="495" 
d="M479 1616v-62h-422v62h422zM45 0v33h92v1366h-92v33h451v-33h-93v-1366h93v-33h-451z" />
    <glyph glyph-name="imacron" unicode="&#x12b;" horiz-adv-x="440" 
d="M446 1198v-61h-421v61h421zM29 0v33h80v948h-80v33h333v-981h80v-33h-413z" />
    <glyph glyph-name="Ibreve" unicode="&#x12c;" horiz-adv-x="495" 
d="M428 1712h12q-11 -74 -59 -126t-111 -52q-62 0 -111.5 52.5t-58.5 125.5h13q5 -27 21.5 -46t34 -28.5t41 -14.5t35.5 -6t25 -1q138 0 158 96zM45 0v33h92v1366h-92v33h451v-33h-93v-1366h93v-33h-451z" />
    <glyph glyph-name="ibreve" unicode="&#x12d;" horiz-adv-x="440" 
d="M399 1294h13q-11 -74 -58 -126t-110 -52q-62 0 -111.5 52.5t-58.5 125.5h12q6 -33 27 -54.5t50 -29.5t46.5 -10t34.5 -2q16 0 31.5 2t45 9.5t51 29.5t27.5 55zM33 0v33h80v948h-80v33h334v-981h79v-33h-413z" />
    <glyph glyph-name="Iogonek" unicode="&#x12e;" horiz-adv-x="495" 
d="M45 0v33h92v1366h-92v33h451v-33h-93v-1366h93v-33h-150q-47 -25 -68.5 -58.5t-20 -61t16.5 -50.5q17 -27 48.5 -39t67 2.5t56.5 56.5l7 -2q-21 -51 -59 -77.5t-75.5 -27t-69 11t-46.5 30.5q-75 111 125 215h-283z" />
    <glyph glyph-name="iogonek" unicode="&#x12f;" horiz-adv-x="440" 
d="M106 1278q0 60 40 99.5t100 39.5t100.5 -39.5t40.5 -99.5t-40.5 -100.5t-100.5 -40.5t-100 40.5t-40 100.5zM41 0v33h80v948h-80v33h326v-981h79v-33h-176q-47 -25 -68 -58.5t-19.5 -61t16.5 -50.5q17 -27 48.5 -39t67 2.5t56.5 56.5l6 -2q-21 -51 -59 -77.5t-75.5 -27
t-69 11t-46.5 30.5q-72 113 127 215h-213z" />
    <glyph glyph-name="Idotaccent" unicode="&#x130;" horiz-adv-x="495" 
d="M184 1620q0 37 23 60.5t61 23.5t62 -23.5t24 -60.5q0 -38 -24 -62t-62 -24t-61 24t-23 62zM45 0v33h92v1366h-92v33h451v-33h-93v-1366h93v-33h-451z" />
    <glyph glyph-name="dotlessi" unicode="&#x131;" horiz-adv-x="440" 
d="M33 0v33h80v948h-80v33h334v-981h79v-33h-413z" />
    <glyph glyph-name="Jcircumflex" unicode="&#x134;" horiz-adv-x="804" 
d="M414 1513l-4 3q41 36 75 74.5t52.5 66t32.5 55t17.5 38l6.5 19.5h4l6.5 -19.5t17.5 -38t32.5 -55t52.5 -66t75 -74.5l-4 -3q-55 12 -98.5 35.5t-59 38.5t-24.5 27q-9 -12 -24.5 -27t-59 -38.5t-98.5 -35.5zM379 -12q-52 0 -102 14.5t-95 43t-72.5 79.5t-27.5 117
q0 68 48.5 111.5t110.5 41t97 -52.5q20 -28 20 -61.5t-11 -60.5t-22.5 -63.5t-11.5 -64.5q0 -72 70 -72q82 0 82 105v1274h-92v33h450v-33h-92v-1145q0 -54 -23.5 -99.5t-61 -75.5t-84.5 -51t-93.5 -30.5t-89.5 -9.5z" />
    <glyph glyph-name="jcircumflex" unicode="&#x135;" horiz-adv-x="688" 
d="M324 1081l-5 2q41 36 75 74.5t52.5 66t32.5 55t18.5 38.5t6.5 20h4q6 -19 16.5 -44.5t56 -88.5t111.5 -121l-4 -2q-55 12 -98.5 35.5t-59 38.5t-24.5 27q-9 -12 -24.5 -27t-59 -38.5t-98.5 -35.5zM625 -88q0 -77 -28.5 -131.5t-77.5 -82.5t-102 -40t-116 -12q-52 0 -98 9
t-87.5 28.5t-66 57t-24.5 89.5t24.5 87.5t59 47t73.5 2t66 -40.5q56 -62 6 -166q-9 -17 -14 -30.5t-6.5 -22t1 -14.5t4.5 -9t9.5 -4.5t11 -2t12.5 0t11 0.5q33 0 54.5 20.5t29.5 54t10 54t2 43.5v1131h-80v33h326v-1102z" />
    <glyph glyph-name="uni0136" unicode="&#x136;" horiz-adv-x="1040" 
d="M45 0v33h92v1366h-92v33h453v-33h-92v-662l378 662h-84v33h228v-33h-103l-235 -414l334 -952h98v-33h-457v33h82l-241 694v-694h92v-33h-453zM559 -246q-46 -20 -82.5 3.5t-36.5 72.5q0 41 25.5 64.5t60.5 23.5q38 0 65 -30.5t27 -94.5q0 -150 -141 -166l-4 21
q86 16 86 106z" />
    <glyph glyph-name="uni0137" unicode="&#x137;" horiz-adv-x="942" 
d="M53 0v33h80v1366h-92v33h434v-33h-92v-785l285 367h-64v33h187v-33h-86l-142 -188l291 -760h88v-33h-424v33h78l-213 571v-571h92v-33h-422zM524 -246q-46 -20 -82 3t-36 73q0 41 24.5 64.5t61.5 23.5q38 0 65 -30.5t27 -94.5q0 -26 -6 -49.5t-20.5 -49.5t-45 -44
t-74.5 -23l-2 21q88 16 88 106z" />
    <glyph glyph-name="Lacute" unicode="&#x139;" horiz-adv-x="755" 
d="M199 1513h-11q65 111 84 234h146q-34 -72 -92.5 -133.5t-126.5 -100.5zM45 0v33h92v1366h-92v33h451v-33h-93v-1366h132q99 0 133 63.5t34 247.5h33v-344h-690z" />
    <glyph glyph-name="lacute" unicode="&#x13a;" horiz-adv-x="440" 
d="M174 1513h-10q65 111 84 234h145q-34 -72 -92.5 -133.5t-126.5 -100.5zM41 0v33h80v1378h-80v33h326v-1411h79v-33h-405z" />
    <glyph glyph-name="uni013B" unicode="&#x13b;" horiz-adv-x="753" 
d="M45 0v33h92v1366h-92v33h451v-33h-93v-1366h132q99 0 133 63.5t34 247.5h33v-344h-690zM403 -246q-46 -20 -83 3.5t-37 72.5q0 41 25.5 64.5t60.5 23.5q39 0 65.5 -30.5t26.5 -94.5q0 -26 -5.5 -49.5t-19.5 -49.5t-44 -44t-73 -23l-4 21q46 8 67 38t21 68z" />
    <glyph glyph-name="uni013C" unicode="&#x13c;" horiz-adv-x="440" 
d="M41 0v33h80v1378h-80v33h326v-1411h79v-33h-405zM279 -246q-47 -20 -85 3.5t-38 72.5q0 41 25.5 64.5t60.5 23.5q40 0 67 -30.5t27 -94.5q0 -26 -5.5 -49.5t-19.5 -49.5t-44 -44t-74 -23l-5 21q47 8 69 38t22 68z" />
    <glyph glyph-name="Lcaron" unicode="&#x13d;" horiz-adv-x="765" 
d="M690 1276q-46 -19 -83.5 4.5t-37.5 73.5q0 39 26 62.5t60 23.5q39 0 66 -30.5t27 -94.5q0 -26 -5.5 -49.5t-19.5 -49.5t-44 -44t-73 -23l-4 20q46 8 67 38.5t21 68.5zM45 0v33h92v1366h-92v33h451v-33h-93v-1366h132q99 0 133 63.5t34 247.5h33v-344h-690z" />
    <glyph glyph-name="lcaron" unicode="&#x13e;" horiz-adv-x="606" 
d="M555 1278q-46 -19 -82.5 4t-36.5 72q0 39 25 62.5t59 23.5q38 0 65 -30t27 -93q0 -26 -5.5 -49.5t-19.5 -49t-43.5 -43t-72.5 -22.5l-4 21q46 8 67 37t21 67zM41 0v33h80v1378h-80v33h326v-1411h79v-33h-405z" />
    <glyph glyph-name="Ldot" unicode="&#x13f;" horiz-adv-x="806" 
d="M45 0v33h92v1366h-92v33h451v-33h-93v-1366h132q99 0 133 63.5t34 247.5h33v-344h-690zM578 690q0 44 30 74.5t74 30.5t75 -30.5t31 -74.5t-31 -75t-75 -31t-74 31t-30 75z" />
    <glyph glyph-name="ldot" unicode="&#x140;" horiz-adv-x="647" 
d="M442 793q0 44 30.5 74t74.5 30q46 0 76 -30t30 -74q0 -45 -30.5 -76t-75.5 -31q-44 0 -74.5 31.5t-30.5 75.5zM41 0v33h80v1378h-80v33h326v-1411h79v-33h-405z" />
    <glyph glyph-name="Lslash" unicode="&#x141;" horiz-adv-x="776" 
d="M68 0v33h92v600l-94 -55l-21 38l115 66v717h-92v33h450v-33h-92v-563l141 82l19 -39l-160 -93v-753h131q100 0 134 64t34 247h33v-344h-690z" />
    <glyph glyph-name="lslash" unicode="&#x142;" horiz-adv-x="520" 
d="M74 0v33h80v688l-95 -53l-18 37l113 65v641h-80v33h325v-533l109 62l18 -37l-127 -74v-829h80v-33h-405z" />
    <glyph glyph-name="Nacute" unicode="&#x143;" horiz-adv-x="903" 
d="M469 1513h-8q38 65 55 116.5t27 117.5h145q-35 -73 -93 -134t-126 -100zM45 33h92v1366h-92v33h344l381 -846h4v813h-92v33h221v-33h-92v-1399h-59l-574 1274h-4v-1241h92v-33h-221v33z" />
    <glyph glyph-name="nacute" unicode="&#x144;" 
d="M375 1096h-8q63 107 82 233h147q-36 -73 -94.5 -133.5t-126.5 -99.5zM25 0v33h79v948h-79v33h329v-123q28 65 77.5 97t109.5 32q36 0 73.5 -10.5t76.5 -33t64 -67.5t25 -106v-770h80v-33h-399v33h61v841q0 89 -43 89q-41 0 -83 -58t-42 -127v-745h62v-33h-391z" />
    <glyph glyph-name="uni0145" unicode="&#x145;" horiz-adv-x="903" 
d="M45 33h92v1366h-92v33h344l381 -846h4v813h-92v33h221v-33h-92v-1399h-59l-574 1274h-4v-1241h92v-33h-221v33zM487 -246q-47 -20 -84.5 3t-37.5 73q0 41 25.5 64.5t60.5 23.5q39 0 65.5 -30.5t26.5 -94.5q0 -26 -5.5 -49.5t-19 -49.5t-43.5 -44t-74 -23l-2 21
q44 8 66 38.5t22 67.5z" />
    <glyph glyph-name="uni0146" unicode="&#x146;" 
d="M25 0v33h79v948h-79v33h329v-123q28 65 77.5 97t109.5 32q36 0 73.5 -10.5t76.5 -33t64 -67.5t25 -106v-770h80v-33h-399v33h61v841q0 89 -43 89q-41 0 -83 -58t-42 -127v-745h62v-33h-391zM467 -246q-46 -20 -82.5 3.5t-36.5 72.5q0 41 25.5 64.5t60.5 23.5
q38 0 65 -30.5t27 -94.5q0 -150 -141 -166l-4 21q86 16 86 106z" />
    <glyph glyph-name="Ncaron" unicode="&#x147;" horiz-adv-x="903" 
d="M358 1767q54 -12 97.5 -35t59.5 -37.5t26 -27.5q10 13 26 27.5t59 37.5t97 35l4 -2q-35 -31 -64.5 -63t-47.5 -57.5t-33 -50.5t-21.5 -40.5t-12.5 -29.5l-5 -13h-4l-5 14q-6 14 -13 29t-22 40t-33 50.5t-47.5 57.5t-64.5 63zM45 33h92v1366h-92v33h344l381 -846h4v813
h-92v33h221v-33h-92v-1399h-59l-574 1274h-4v-1241h92v-33h-221v33z" />
    <glyph glyph-name="ncaron" unicode="&#x148;" 
d="M262 1350q54 -12 97 -35t59 -38t26 -28q10 13 26 28t59.5 38t97.5 35l4 -2q-35 -31 -64.5 -63t-47.5 -57.5t-33 -50.5t-22 -40t-12 -29l-6 -14h-4l-6 14q-5 13 -11.5 28.5t-21.5 40.5t-33 50.5t-47.5 57.5t-64.5 63zM25 0v33h79v948h-79v33h329v-123q28 65 77.5 97
t109.5 32q36 0 73.5 -10.5t76.5 -33t64 -67.5t25 -106v-770h80v-33h-399v33h61v841q0 89 -43 89q-41 0 -83 -58t-42 -127v-745h62v-33h-391z" />
    <glyph glyph-name="Eng" unicode="&#x14a;" horiz-adv-x="903" 
d="M45 33h92v1366h-92v33h344l381 -846h4v813h-92v33h221v-33h-92v-1489v-20q1 -28 0.5 -44t-3.5 -45.5t-9.5 -47t-20 -40.5t-33 -36t-49.5 -22t-69 -9q-84 0 -153.5 39.5t-80.5 124.5q-5 39 6 72.5t33.5 54t50 30t59 3t58.5 -28.5q79 -65 18 -185q-21 -50 -14.5 -64
t35.5 -14q31 0 52.5 14.5t33 35.5t18 56t8 64t1.5 72v80l-574 1274h-4v-1241h92v-33h-221v33z" />
    <glyph glyph-name="eng" unicode="&#x14b;" horiz-adv-x="843" 
d="M25 0v33h79v948h-79v33h329v-121q27 64 76.5 95.5t110.5 31.5q36 0 73.5 -10.5t76.5 -33t64 -67.5t25 -106v-891q0 -62 -20.5 -110t-53.5 -77t-79 -47t-90.5 -25t-94.5 -7q-52 0 -98 9t-87.5 28.5t-66 57t-24.5 89.5t25 87.5t60 47t74 2t66 -40.5q59 -65 2 -170
q-9 -19 -14 -33t-4 -22t2.5 -13.5t9.5 -7.5t11 -2.5t14 0t12 0.5q33 0 55 20.5t30 54t10.5 54t2.5 43.5v1024q0 89 -37 89q-40 0 -71.5 -35t-45.5 -76t-14 -74v-745h62v-33h-391z" />
    <glyph glyph-name="Omacron" unicode="&#x14c;" horiz-adv-x="1024" 
d="M825 1616v-62h-422v62h422zM213 438v576q0 174 119 302t284 128q166 0 287 -127t121 -303v-576q0 -189 -119.5 -319.5t-286.5 -130.5t-286 130.5t-119 319.5zM483 1219v-1004q0 -111 31.5 -153t103.5 -42t104 41.5t32 153.5v1004q0 100 -33 146t-103 46t-102.5 -46
t-32.5 -146z" />
    <glyph glyph-name="omacron" unicode="&#x14d;" horiz-adv-x="839" 
d="M707 1198v-61h-422v61h422zM160 311v389q0 80 39 153.5t118 123t181 49.5q150 0 248 -100.5t98 -225.5v-389q0 -82 -39 -154.5t-117 -120.5t-178 -48q-76 0 -142.5 28t-111.5 73.5t-70.5 103.5t-25.5 118zM418 879v-746q0 -44 25.5 -78.5t62.5 -34.5q35 0 57.5 34
t22.5 79v746q0 44 -23.5 79t-58.5 35q-38 0 -62 -35t-24 -79z" />
    <glyph glyph-name="Obreve" unicode="&#x14e;" horiz-adv-x="1024" 
d="M776 1712h12q-12 -74 -60.5 -126t-111.5 -52q-62 0 -111.5 52.5t-58.5 125.5h13q5 -27 21.5 -46t34 -28.5t41 -14.5t35.5 -6t25 -1q137 0 160 96zM213 438v576q0 174 119 302t284 128q166 0 287 -127t121 -303v-576q0 -189 -119.5 -319.5t-286.5 -130.5t-286 130.5
t-119 319.5zM483 1219v-1004q0 -111 31.5 -153t103.5 -42t104 41.5t32 153.5v1004q0 100 -33 146t-103 46t-102.5 -46t-32.5 -146z" />
    <glyph glyph-name="obreve" unicode="&#x14f;" horiz-adv-x="839" 
d="M657 1294h13q-12 -74 -60.5 -126t-111.5 -52q-62 0 -111.5 52.5t-58.5 125.5h12q6 -33 27.5 -54.5t50.5 -29.5t46 -10t34 -2q136 0 159 96zM160 311v389q0 80 39 153.5t118 123t181 49.5q150 0 248 -100.5t98 -225.5v-389q0 -82 -39 -154.5t-117 -120.5t-178 -48
q-76 0 -142.5 28t-111.5 73.5t-70.5 103.5t-25.5 118zM418 879v-746q0 -44 25.5 -78.5t62.5 -34.5q35 0 57.5 34t22.5 79v746q0 44 -23.5 79t-58.5 35q-38 0 -62 -35t-24 -79z" />
    <glyph glyph-name="Ohungarumlaut" unicode="&#x150;" horiz-adv-x="1024" 
d="M481 1516h-10q39 66 56.5 117.5t27.5 115.5h147q-36 -72 -94.5 -133t-126.5 -100zM666 1516h-11q39 66 56.5 117.5t27.5 115.5h148q-36 -72 -94.5 -133t-126.5 -100zM213 438v576q0 174 119 302t284 128q166 0 287 -127t121 -303v-576q0 -189 -119.5 -319.5
t-286.5 -130.5t-286 130.5t-119 319.5zM483 1219v-1004q0 -111 31.5 -153t103.5 -42t104 41.5t32 153.5v1004q0 100 -33 146t-103 46t-102.5 -46t-32.5 -146z" />
    <glyph glyph-name="ohungarumlaut" unicode="&#x151;" horiz-adv-x="839" 
d="M362 1098h-10q39 66 56.5 117.5t27.5 115.5h148q-36 -72 -95 -133t-127 -100zM547 1098h-10q39 66 56.5 117.5t27.5 115.5h147q-36 -72 -94.5 -133t-126.5 -100zM160 311v389q0 80 39 153.5t118 123t181 49.5q150 0 248 -100.5t98 -225.5v-389q0 -82 -39 -154.5
t-117 -120.5t-178 -48q-76 0 -142.5 28t-111.5 73.5t-70.5 103.5t-25.5 118zM418 879v-746q0 -44 25.5 -78.5t62.5 -34.5q35 0 57.5 34t22.5 79v746q0 44 -23.5 79t-58.5 35q-38 0 -62 -35t-24 -79z" />
    <glyph glyph-name="OE" unicode="&#x152;" horiz-adv-x="1325" 
d="M213 449v565q0 67 14 124t38 97t54.5 72.5t64.5 53t68 35t64.5 21.5t54.5 10.5t38 4.5t14 0h708v-304h-33q0 156 -33 213.5t-132 57.5h-109v-651h84q23 0 40 2t31.5 4t24 9.5t17 13.5t12 20.5t7 25t3.5 33.5t1.5 40t0.5 50h35v-430h-35q0 37 -0.5 55.5t-2 43.5t-5 35.5
t-10.5 25t-16.5 19.5t-24.5 11t-33.5 7.5t-44.5 1.5h-84v-682h129q102 0 139 64.5t37 246.5h33v-344h-733q-15 0 -37 2.5t-64 13t-81.5 27.5t-83 51.5t-76 80t-53.5 116.5t-21 158zM483 1208v-985q0 -52 13.5 -90.5t30 -57t39 -29t33.5 -12t19 -1.5h140v1366h-140
q-13 0 -27 -2.5t-34.5 -14t-36 -31t-26.5 -56.5t-11 -87z" />
    <glyph glyph-name="oe" unicode="&#x153;" horiz-adv-x="1236" 
d="M160 311v389q0 80 39 153.5t118 123t181 49.5q120 0 215 -72q89 72 211 72q97 0 172.5 -45.5t114 -116.5t38.5 -151v-213h-401v-346q0 -65 23 -99.5t87 -34.5q107 0 183 85.5t76 191.5v74h36v-74q0 -52 -19.5 -104.5t-56.5 -99.5t-100 -76t-141 -29q-124 0 -215 69
q-88 -69 -211 -69q-76 0 -142.5 28t-111.5 73.5t-70.5 103.5t-25.5 118zM418 879v-746q0 -44 25.5 -78.5t62.5 -34.5q35 0 57.5 34t22.5 79v746q0 44 -23.5 79t-58.5 35q-38 0 -62 -35t-24 -79zM848 889v-357h147v357q0 23 -4.5 43.5t-21.5 40.5t-45 20q-40 0 -58 -34
t-18 -70z" />
    <glyph glyph-name="Racute" unicode="&#x154;" horiz-adv-x="1026" 
d="M344 1513h-10q65 111 84 234h145q-34 -72 -92.5 -133.5t-126.5 -100.5zM608 944v242q0 32 -3.5 63t-13.5 68t-31.5 59.5t-53.5 22.5h-103v-668h115q44 0 67 58.5t23 154.5zM45 0v33h92v1366h-92v33h496q83 0 149.5 -33t105 -84.5t58.5 -108.5t20 -112v-58q0 -53 -20 -110
t-57.5 -109t-101 -85.5t-140.5 -33.5h-4q11 0 26.5 -1.5t55 -13t71.5 -31.5t64 -64.5t45 -104.5l98 -450h97v-33h-363l-106 518q-23 114 -42 147t-73 33h-21v-665h93v-33h-451z" />
    <glyph glyph-name="racute" unicode="&#x155;" horiz-adv-x="745" 
d="M313 1096h-10q39 66 56.5 117.5t27.5 115.5h145q-34 -72 -92.5 -133t-126.5 -100zM25 0v33h79v948h-79v33h325v-111q40 105 154 105q97 0 165 -64.5t68 -155.5q0 -73 -38.5 -112t-102.5 -39q-48 0 -79 22.5t-41 57t-6 74.5t22 77q42 99 -25 99q-31 0 -55 -23t-36.5 -57.5
t-19 -67t-6.5 -59.5v-727h80v-33h-405z" />
    <glyph glyph-name="uni0156" unicode="&#x156;" horiz-adv-x="1026" 
d="M608 944v242q0 32 -3.5 63t-13.5 68t-31.5 59.5t-53.5 22.5h-103v-668h115q44 0 67 58.5t23 154.5zM45 0v33h92v1366h-92v33h496q83 0 149.5 -33t105 -84.5t58.5 -108.5t20 -112v-58q0 -53 -20 -110t-57.5 -109t-101 -85.5t-140.5 -33.5h-4q11 0 26.5 -1.5t55 -13
t71.5 -31.5t64 -64.5t45 -104.5l98 -450h97v-33h-363l-106 518q-23 114 -42 147t-73 33h-21v-665h93v-33h-451zM530 -246q-47 -20 -84.5 3t-37.5 73q0 41 26 64.5t62 23.5q38 0 65 -30.5t27 -94.5q0 -26 -5.5 -49.5t-20 -49.5t-44.5 -44t-74 -23l-4 21q47 8 68.5 38t21.5 68
z" />
    <glyph glyph-name="uni0157" unicode="&#x157;" horiz-adv-x="745" 
d="M25 0v33h79v948h-79v33h325v-111q40 105 154 105q97 0 165 -64.5t68 -155.5q0 -73 -38.5 -112t-102.5 -39q-48 0 -79 22.5t-41 57t-6 74.5t22 77q42 99 -25 99q-31 0 -55 -23t-36.5 -57.5t-19 -67t-6.5 -59.5v-727h80v-33h-405zM256 -246q-46 -20 -83.5 3.5t-37.5 72.5
q0 41 25.5 64.5t60.5 23.5q39 0 65.5 -30.5t26.5 -94.5q0 -26 -5.5 -49.5t-19.5 -49.5t-43.5 -44t-72.5 -23l-4 21q46 8 67 38t21 68z" />
    <glyph glyph-name="Rcaron" unicode="&#x158;" horiz-adv-x="1026" 
d="M231 1767q54 -12 97.5 -35t59.5 -37.5t26 -27.5q10 13 26 27.5t59 37.5t97 35l4 -2q-35 -31 -64.5 -63t-47.5 -57.5t-33 -50.5t-21.5 -40.5t-11.5 -29.5l-6 -13h-4l-6 14q-5 14 -12 29t-22 40t-33 50.5t-47.5 57.5t-64.5 63zM608 944v242q0 32 -3.5 63t-13.5 68
t-31.5 59.5t-53.5 22.5h-103v-668h115q44 0 67 58.5t23 154.5zM45 0v33h92v1366h-92v33h496q83 0 149.5 -33t105 -84.5t58.5 -108.5t20 -112v-58q0 -53 -20 -110t-57.5 -109t-101 -85.5t-140.5 -33.5h-4q11 0 26.5 -1.5t55 -13t71.5 -31.5t64 -64.5t45 -104.5l98 -450h97
v-33h-363l-106 518q-23 114 -42 147t-73 33h-21v-665h93v-33h-451z" />
    <glyph glyph-name="rcaron" unicode="&#x159;" horiz-adv-x="745" 
d="M223 1350q54 -12 97.5 -35t59.5 -38t26 -28q10 13 26 28t59 38t97 35l4 -2q-35 -31 -64.5 -63t-47.5 -57.5t-33 -50.5t-21.5 -40.5t-11.5 -28.5l-6 -14h-5l-5 14q-6 13 -12.5 28.5t-21.5 40.5t-33 50.5t-47.5 57.5t-64.5 63zM25 0v33h79v948h-79v33h325v-111
q40 105 154 105q97 0 165 -64.5t68 -155.5q0 -73 -38.5 -112t-102.5 -39q-48 0 -79 22.5t-41 57t-6 74.5t22 77q42 99 -25 99q-31 0 -55 -23t-36.5 -57.5t-19 -67t-6.5 -59.5v-727h80v-33h-405z" />
    <glyph glyph-name="Sacute" unicode="&#x15a;" horiz-adv-x="854" 
d="M344 1513h-10q65 111 84 234h145q-34 -72 -92.5 -133.5t-126.5 -100.5zM158 938q-61 124 -58 219.5t53 161t120.5 99.5t144.5 34q133 0 209 -70q41 5 41 50h32v-334h-32v104q0 101 -53.5 149t-127.5 48q-65 0 -104 -35.5t-42 -103.5t44 -166q41 -83 137 -277t172 -348
q63 -137 39.5 -245.5t-107.5 -175t-194 -66.5q-60 0 -127 20t-117 57q-24 0 -36 -9.5t-13.5 -19.5t-1.5 -30h-33v375h33v-148q0 -87 68.5 -144.5t144.5 -57.5q58 0 93 32t44 90t-14 144.5t-78 189.5q-54 103 -237 457z" />
    <glyph glyph-name="sacute" unicode="&#x15b;" horiz-adv-x="716" 
d="M279 1096h-13q39 66 56.5 117.5t27.5 115.5h146q-34 -71 -92 -132t-125 -101zM94 307v-135q0 -59 60 -99t127 -40q37 0 61 14t33.5 43t-5 81t-55.5 120q-65 115 -200 338q-54 93 -49 166.5t52 125t111 78.5t127 27q90 0 160 -49q27 0 41 6.5t14 30.5h33v-277h-33v68
q0 83 -45.5 125.5t-107.5 42.5q-42 0 -72.5 -21t-38.5 -65.5t31 -112.5q124 -211 250 -430q54 -101 26.5 -181t-107.5 -129.5t-177 -49.5q-117 0 -197 57q-19 0 -29 -8.5t-10 -32.5h-33v307h33z" />
    <glyph glyph-name="Scircumflex" unicode="&#x15c;" horiz-adv-x="854" 
d="M231 1513l-4 3q41 36 75 74.5t52.5 66t32.5 54.5t18.5 38.5t6.5 19.5h4l6.5 -19.5t17.5 -38t32.5 -55t52.5 -66t75 -74.5l-4 -3q-55 12 -98.5 35.5t-59 38.5t-24.5 27q-9 -12 -24.5 -27t-59.5 -38.5t-99 -35.5zM158 938q-61 124 -58 219.5t53 161t120.5 99.5t144.5 34
q133 0 209 -70q41 5 41 50h32v-334h-32v104q0 101 -53.5 149t-127.5 48q-65 0 -104 -35.5t-42 -103.5t44 -166q41 -83 137 -277t172 -348q63 -137 39.5 -245.5t-107.5 -175t-194 -66.5q-60 0 -127 20t-117 57q-24 0 -36 -9.5t-13.5 -19.5t-1.5 -30h-33v375h33v-148
q0 -87 68.5 -144.5t144.5 -57.5q58 0 93 32t44 90t-14 144.5t-78 189.5q-54 103 -237 457z" />
    <glyph glyph-name="scircumflex" unicode="&#x15d;" horiz-adv-x="718" 
d="M168 1096l-4 2q66 58 111.5 121t56 88.5t16.5 44.5h4q2 -9 6.5 -20t18.5 -38.5t32.5 -55t52.5 -66t75 -74.5l-5 -2q-121 27 -184 100q-9 -12 -24 -26.5t-58 -38t-98 -35.5zM96 307v-135q0 -59 61 -99t128 -40q36 0 59.5 14t33.5 43t-4.5 81t-54.5 120q-112 192 -200 338
q-54 93 -49.5 166.5t51 125t110.5 78.5t127 27q90 0 160 -49q27 0 41 6.5t14 30.5h35v-277h-35v68q0 83 -45 125.5t-106 42.5q-43 0 -74 -21t-39 -65.5t31 -112.5q124 -211 250 -430q55 -101 28 -181t-107 -129.5t-177 -49.5q-117 0 -197 57q-20 0 -30.5 -8.5t-10.5 -32.5
h-33v307h33z" />
    <glyph glyph-name="Scedilla" unicode="&#x15e;" horiz-adv-x="854" 
d="M283 -231l20 20q27 -46 86.5 -59.5t83.5 32.5q6 15 7.5 33.5t-3 39t-26.5 34.5t-58 14h-35l54 99q-57 3 -118 23t-106 54q-24 0 -36 -9.5t-13.5 -19.5t-1.5 -30h-33v375h33v-148q0 -87 68.5 -144.5t144.5 -57.5q58 0 93 32t44 90t-14 144.5t-78 189.5q-54 103 -237 457
q-61 124 -58 219.5t53 161t120.5 99.5t144.5 34q133 0 209 -70q41 5 41 50h32v-334h-32v104q0 101 -53.5 149t-127.5 48q-65 0 -104 -35.5t-42 -103.5t44 -166q41 -83 137 -277t172 -348q62 -135 40.5 -242t-102.5 -174t-188 -71l-26 -64q66 9 122 -25.5t56 -93.5
q0 -47 -39 -77.5t-90.5 -36t-104.5 16t-79 67.5z" />
    <glyph glyph-name="scedilla" unicode="&#x15f;" horiz-adv-x="716" 
d="M178 -229l21 20q25 -46 86 -59.5t84 32.5q6 15 7.5 33.5t-3 39t-26.5 34.5t-58 14h-35l53 99q-104 7 -174 57q-19 0 -29 -8.5t-10 -32.5h-33v307h33v-135q0 -59 60 -99t127 -40q37 0 61 14t33.5 43t-5 81t-55.5 120q-65 115 -200 338q-54 93 -49 166.5t52 125t111 78.5
t127 27q90 0 160 -49q27 0 41 6.5t14 30.5h33v-277h-33v68q0 83 -45.5 125.5t-107.5 42.5q-42 0 -72.5 -21t-38.5 -65.5t31 -112.5q124 -211 250 -430q54 -101 27 -181t-105 -129.5t-170 -49.5l-29 -64q66 9 123.5 -25.5t57.5 -93.5q0 -47 -39.5 -77.5t-91 -36t-105 16
t-78.5 67.5z" />
    <glyph glyph-name="Scaron" unicode="&#x160;" horiz-adv-x="854" 
d="M233 1767q54 -12 97.5 -35t59.5 -37.5t26 -27.5q10 13 26 27.5t59 37.5t97 35l4 -2q-35 -31 -64.5 -63t-47.5 -57.5t-33 -50.5t-21.5 -40.5t-11.5 -29.5l-6 -13h-4l-6 14q-5 14 -12 29t-22 40t-33 50.5t-47.5 57.5t-64.5 63zM158 938q-61 124 -58 219.5t53 161
t120.5 99.5t144.5 34q133 0 209 -70q41 5 41 50h32v-334h-32v104q0 101 -53.5 149t-127.5 48q-65 0 -104 -35.5t-42 -103.5t44 -166q41 -83 137 -277t172 -348q63 -137 39.5 -245.5t-107.5 -175t-194 -66.5q-60 0 -127 20t-117 57q-24 0 -36 -9.5t-13.5 -19.5t-1.5 -30h-33
v375h33v-148q0 -87 68.5 -144.5t144.5 -57.5q58 0 93 32t44 90t-14 144.5t-78 189.5q-54 103 -237 457z" />
    <glyph glyph-name="scaron" unicode="&#x161;" horiz-adv-x="718" 
d="M170 1348q55 -12 98 -35t59.5 -38.5t24.5 -27.5q10 13 26 28t60 38t99 35l4 -2q-35 -31 -64.5 -63t-47.5 -57.5t-33 -50.5t-22 -40t-12 -29l-6 -14h-4l-6 14q-5 13 -11.5 28.5t-21.5 40.5t-33 50.5t-47.5 57.5t-64.5 63zM96 307v-135q0 -59 61 -99t128 -40q36 0 59.5 14
t33.5 43t-4.5 81t-54.5 120q-112 192 -200 338q-54 93 -49.5 166.5t51 125t110.5 78.5t127 27q90 0 160 -49q27 0 41 6.5t14 30.5h35v-277h-35v68q0 83 -45 125.5t-106 42.5q-43 0 -74 -21t-39 -65.5t31 -112.5q124 -211 250 -430q55 -101 28 -181t-107 -129.5t-177 -49.5
q-117 0 -197 57q-20 0 -30.5 -8.5t-10.5 -32.5h-33v307h33z" />
    <glyph glyph-name="uni0162" unicode="&#x162;" horiz-adv-x="921" 
d="M276 0v33h93v1366h-111q-71 0 -107 -61.5t-36 -207.5h-33v302h840v-302h-33q0 146 -36.5 207.5t-107.5 61.5h-110v-1366h92v-33h-209l-24 -63q65 9 121.5 -25.5t56.5 -93.5q0 -47 -39.5 -77.5t-91 -36t-105 15.5t-78.5 67l21 20q25 -46 85 -59t85 33q6 14 7.5 33
t-3.5 39.5t-26.5 34.5t-57.5 14h-35l53 98h-211z" />
    <glyph glyph-name="uni0163" unicode="&#x163;" horiz-adv-x="583" 
d="M250 -227l20 20q25 -46 86 -59t84 33q6 15 7.5 33t-3 39t-26.5 34.5t-58 13.5h-34l53 99q-38 3 -75 14.5t-74 35.5t-60 69t-23 104v772h-122v33h122v233l250 84v-317h185v-33h-185v-856q0 -86 58 -86q31 0 55.5 28t24.5 83h34q0 -75 -44.5 -117t-112.5 -47l-27 -64
q65 9 121.5 -25.5t56.5 -93.5q0 -47 -39.5 -77.5t-91 -36t-104.5 16t-78 67.5z" />
    <glyph glyph-name="Tcaron" unicode="&#x164;" horiz-adv-x="921" 
d="M319 1767q54 -12 97.5 -35t59.5 -37.5t26 -27.5q10 13 26 27.5t59 37.5t97 35l4 -2q-35 -31 -64.5 -63t-47.5 -57.5t-33 -50.5t-21.5 -40.5t-11.5 -29.5l-6 -13h-4l-6 14q-5 14 -12 29t-22 40t-33 50.5t-47.5 57.5t-64.5 63zM276 0v33h93v1366h-111q-71 0 -107 -61.5
t-36 -207.5h-33v302h840v-302h-33q0 146 -36.5 207.5t-107.5 61.5h-110v-1366h92v-33h-451z" />
    <glyph glyph-name="tcaron" unicode="&#x165;" horiz-adv-x="583" 
d="M526 1276q-46 -19 -83 4t-37 72q0 39 24.5 62.5t58.5 23.5q38 0 65.5 -30.5t27.5 -92.5q0 -148 -142 -164l-4 20q46 8 68 37.5t22 67.5zM-49 981v33h123v233l250 84v-317h184v-33h-184v-856q0 -86 57 -86q31 0 55.5 28t24.5 83h35q0 -80 -49 -122t-123 -42q-30 0 -61 6
t-65.5 21.5t-61.5 39.5t-44.5 64.5t-17.5 91.5v772h-123z" />
    <glyph glyph-name="Tbar" unicode="&#x166;" horiz-adv-x="921" 
d="M276 0v33h93v737h-168v43h168v586h-111q-71 0 -107 -61.5t-36 -207.5h-33v302h840v-302h-33q0 146 -36.5 207.5t-107.5 61.5h-110v-586h170v-43h-170v-737h92v-33h-451z" />
    <glyph glyph-name="tbar" unicode="&#x167;" horiz-adv-x="583" 
d="M20 981v33h123v233l250 84v-317h185v-33h-185v-66h187v-32h-187v-758q0 -86 58 -86q31 0 55 28t24 83h35q0 -80 -49 -122t-123 -42q-30 0 -61 6t-65.5 21.5t-61.5 39.5t-44.5 64.5t-17.5 91.5v674h-118v32h118v66h-123z" />
    <glyph glyph-name="Utilde" unicode="&#x168;" horiz-adv-x="897" 
d="M698 1681q-4 -82 -33 -114.5t-67 -32.5q-35 0 -95.5 30.5t-90.5 30.5q-59 0 -86 -63l-9 2q6 64 39.5 102t75.5 41q35 3 101 -27t83 -30q37 0 76 63zM137 1399h-92v33h451v-33h-93v-1139q0 -99 14.5 -152.5t40 -70.5t70.5 -17q23 0 46 3.5t61.5 24t66 55t49 105.5
t21.5 167v1024h-92v33h217v-33h-92v-1022q0 -90 -15 -158t-49 -121.5t-95.5 -81.5t-149.5 -28q-48 0 -93 8t-95 31.5t-86.5 60.5t-60.5 101.5t-24 148.5v1061z" />
    <glyph glyph-name="utilde" unicode="&#x169;" 
d="M602 1264q-4 -82 -33 -115t-67 -33q-35 0 -96 31t-91 31q-59 0 -86 -64l-8 2q6 64 40 102.5t75 41.5q35 3 101 -27.5t83 -30.5q16 0 31.5 11t24 22.5t20.5 30.5zM860 33v-33h-328v125q-28 -66 -78 -98.5t-110 -32.5q-35 0 -73 10.5t-77 33t-64.5 67.5t-25.5 106v770h-79
v33h337v-875q0 -88 37 -88q49 0 91 61.5t42 123.5v745h-79v33h327v-981h80z" />
    <glyph glyph-name="Umacron" unicode="&#x16a;" horiz-adv-x="897" 
d="M719 1616v-62h-422v62h422zM137 1399h-92v33h451v-33h-93v-1139q0 -99 14.5 -152.5t40 -70.5t70.5 -17q23 0 46 3.5t61.5 24t66 55t49 105.5t21.5 167v1024h-92v33h217v-33h-92v-1022q0 -90 -15 -158t-49 -121.5t-95.5 -81.5t-149.5 -28q-48 0 -93 8t-95 31.5t-86.5 60.5
t-60.5 101.5t-24 148.5v1061z" />
    <glyph glyph-name="umacron" unicode="&#x16b;" 
d="M623 1198v-61h-422v61h422zM860 33v-33h-328v125q-28 -66 -78 -98.5t-110 -32.5q-35 0 -73 10.5t-77 33t-64.5 67.5t-25.5 106v770h-79v33h337v-875q0 -88 37 -88q49 0 91 61.5t42 123.5v745h-79v33h327v-981h80z" />
    <glyph glyph-name="Ubreve" unicode="&#x16c;" horiz-adv-x="897" 
d="M668 1712h12q-11 -74 -59 -126t-111 -52q-62 0 -111.5 52.5t-58.5 125.5h12q6 -33 27.5 -54.5t50.5 -29.5t46 -10t34 -2q138 0 158 96zM137 1399h-92v33h451v-33h-93v-1139q0 -99 14.5 -152.5t40 -70.5t70.5 -17q23 0 46 3.5t61.5 24t66 55t49 105.5t21.5 167v1024h-92
v33h217v-33h-92v-1022q0 -90 -15 -158t-49 -121.5t-95.5 -81.5t-149.5 -28q-48 0 -93 8t-95 31.5t-86.5 60.5t-60.5 101.5t-24 148.5v1061z" />
    <glyph glyph-name="ubreve" unicode="&#x16d;" 
d="M571 1294h13q-11 -74 -59 -126t-111 -52q-62 0 -111.5 52.5t-58.5 125.5h12q6 -33 27.5 -54.5t50.5 -29.5t46 -10t34 -2q137 0 157 96zM860 33v-33h-328v125q-28 -66 -78 -98.5t-110 -32.5q-35 0 -73 10.5t-77 33t-64.5 67.5t-25.5 106v770h-79v33h337v-875q0 -88 37 -88
q49 0 91 61.5t42 123.5v745h-79v33h327v-981h80z" />
    <glyph glyph-name="Uring" unicode="&#x16e;" horiz-adv-x="897" 
d="M397 1626q0 51 31.5 83t81.5 32t82.5 -32t32.5 -83q0 -49 -32.5 -81t-82.5 -32t-81.5 31.5t-31.5 81.5zM444 1626q0 -28 18.5 -46.5t47.5 -18.5q30 0 49 18.5t19 46.5q0 31 -18.5 49.5t-49.5 18.5q-29 0 -47.5 -18.5t-18.5 -49.5zM137 1399h-92v33h451v-33h-93v-1139
q0 -99 14.5 -152.5t40 -70.5t70.5 -17q23 0 46 3.5t61.5 24t66 55t49 105.5t21.5 167v1024h-92v33h217v-33h-92v-1022q0 -90 -15 -158t-49 -121.5t-95.5 -81.5t-149.5 -28q-48 0 -93 8t-95 31.5t-86.5 60.5t-60.5 101.5t-24 148.5v1061z" />
    <glyph glyph-name="uring" unicode="&#x16f;" 
d="M301 1208q0 51 31.5 83t81.5 32t82 -32t32 -83q0 -49 -32 -80.5t-82 -31.5t-81.5 31.5t-31.5 80.5zM348 1208q0 -28 18.5 -46.5t47.5 -18.5q30 0 48.5 18.5t18.5 46.5q0 31 -18 49.5t-49 18.5q-29 0 -47.5 -18.5t-18.5 -49.5zM860 33v-33h-328v125q-28 -66 -78 -98.5
t-110 -32.5q-35 0 -73 10.5t-77 33t-64.5 67.5t-25.5 106v770h-79v33h337v-875q0 -88 37 -88q49 0 91 61.5t42 123.5v745h-79v33h327v-981h80z" />
    <glyph glyph-name="Uhungarumlaut" unicode="&#x170;" horiz-adv-x="897" 
d="M375 1516h-10q39 66 56.5 117.5t27.5 115.5h145q-34 -72 -92.5 -133t-126.5 -100zM559 1516h-10q39 66 56.5 117.5t27.5 115.5h145q-34 -72 -92.5 -133t-126.5 -100zM137 1399h-92v33h451v-33h-93v-1139q0 -99 14.5 -152.5t40 -70.5t70.5 -17q23 0 46 3.5t61.5 24t66 55
t49 105.5t21.5 167v1024h-92v33h217v-33h-92v-1022q0 -90 -15 -158t-49 -121.5t-95.5 -81.5t-149.5 -28q-48 0 -93 8t-95 31.5t-86.5 60.5t-60.5 101.5t-24 148.5v1061z" />
    <glyph glyph-name="uhungarumlaut" unicode="&#x171;" 
d="M279 1098h-11q39 66 56.5 117.5t27.5 115.5h146q-34 -72 -92.5 -133t-126.5 -100zM463 1098h-10q39 66 56.5 117.5t27.5 115.5h145q-34 -72 -92.5 -133t-126.5 -100zM860 33v-33h-328v125q-28 -66 -78 -98.5t-110 -32.5q-35 0 -73 10.5t-77 33t-64.5 67.5t-25.5 106v770
h-79v33h337v-875q0 -88 37 -88q49 0 91 61.5t42 123.5v745h-79v33h327v-981h80z" />
    <glyph glyph-name="Uogonek" unicode="&#x172;" horiz-adv-x="897" 
d="M647 -158l6 -2q-21 -51 -59 -77.5t-75.5 -27t-69 11t-46.5 30.5q-75 112 119 211h-26q-48 0 -93 8t-95 31.5t-86.5 60.5t-60.5 101.5t-24 148.5v1061h-92v33h451v-33h-93v-1139q0 -99 14.5 -152.5t40 -70.5t70.5 -17q23 0 46 3.5t61.5 24t66 55t49 105.5t21.5 167v1024
h-92v33h217v-33h-92v-1022q0 -84 -12.5 -148.5t-42 -117t-81.5 -83.5t-126 -38q-45 -25 -65.5 -58t-19 -60t16.5 -50q17 -27 48.5 -39t67 2.5t56.5 56.5z" />
    <glyph glyph-name="uogonek" unicode="&#x173;" 
d="M797 -145l6 -2q-21 -51 -59 -77.5t-75.5 -27.5t-69 10.5t-46.5 30.5q-75 111 117 211h-138v125q-28 -66 -78 -98.5t-110 -32.5q-35 0 -73 10.5t-77 33t-64.5 67.5t-25.5 106v770h-79v33h337v-875q0 -88 37 -88q49 0 91 61.5t42 123.5v745h-79v33h327v-981h80v-33h-172
q-43 -25 -62.5 -57.5t-17.5 -59t17 -49.5q17 -27 48.5 -38.5t67 3t56.5 56.5z" />
    <glyph glyph-name="Wcircumflex" unicode="&#x174;" horiz-adv-x="1419" 
d="M592 1513l-4 3q41 36 75 74.5t52.5 66t32.5 55t17.5 38l6.5 19.5h4q2 -8 6.5 -19.5t18.5 -38.5t32.5 -54.5t52.5 -66t75 -74.5l-5 -3q-55 12 -98.5 35.5t-59 38.5t-24.5 27q-9 -12 -24.5 -27t-59 -38.5t-98.5 -35.5zM578 0h-31l-369 1399h-96v33h459v-33h-88l206 -799
l89 451l-89 348h-98v33h440v-33h-83l215 -801l153 801h-92v33h225v-33h-98l-266 -1399h-39l-246 965z" />
    <glyph glyph-name="wcircumflex" unicode="&#x175;" horiz-adv-x="1249" 
d="M518 1096l-4 2q66 58 111.5 121t56 88.5t16.5 44.5h4q2 -9 6.5 -20t18.5 -38.5t32.5 -55t52.5 -66t75 -74.5l-4 -2q-55 12 -98.5 35t-60 38t-24.5 27q-9 -12 -24.5 -26.5t-59 -38t-98.5 -35.5zM451 0h-25l-303 981h-86v33h424v-33h-74l152 -477l88 385l-29 92h-82v33h424
v-33h-76l148 -463l108 463h-73v33h200v-33h-90l-229 -981h-25l-254 819z" />
    <glyph glyph-name="Ycircumflex" unicode="&#x176;" horiz-adv-x="997" 
d="M416 1513l-4 3q41 36 75 74.5t52.5 66t32.5 55t17.5 38l6.5 19.5h4l6.5 -19.5t17.5 -38t32.5 -55t52.5 -66t75 -74.5l-4 -3q-55 12 -98.5 35.5t-59 38.5t-24.5 27q-9 -12 -24.5 -27t-59 -38.5t-98.5 -35.5zM362 0v33h95v626l-277 748h-98v25h467v-25h-90l243 -659h5
l155 659h-88v25h223v-25h-98l-174 -745v-629h88v-33h-451z" />
    <glyph glyph-name="ycircumflex" unicode="&#x177;" horiz-adv-x="813" 
d="M276 1096l-4 2q41 36 75 74.5t52.5 66t32.5 55t18.5 38.5t6.5 20h4q6 -19 16.5 -44.5t56 -88.5t111.5 -121l-4 -2q-55 12 -98.5 35.5t-59 38t-24.5 26.5q-8 -12 -24.5 -27t-60 -38t-98.5 -35zM397 -244q-19 -73 -60.5 -110t-88.5 -37t-79 33t-32 92q0 54 37.5 89.5
t136.5 47.5q18 3 29 6t27.5 10.5t27 21.5t15.5 34l16 63l-299 975h-86v33h424v-33h-72l164 -481l129 481h-70v33h197v-33h-86z" />
    <glyph glyph-name="Ydieresis" unicode="&#x178;" horiz-adv-x="997" 
d="M375 1620q0 37 24.5 60.5t61.5 23.5t62.5 -24t25.5 -60q0 -38 -25.5 -62t-62.5 -24t-61.5 24t-24.5 62zM614 1620q0 36 25 60t61 24q38 0 63 -23.5t25 -60.5q0 -38 -25 -62t-63 -24q-36 0 -61 24t-25 62zM362 0v33h95v626l-277 748h-98v25h467v-25h-90l243 -659h5
l155 659h-88v25h223v-25h-98l-174 -745v-629h88v-33h-451z" />
    <glyph glyph-name="Zacute" unicode="&#x179;" horiz-adv-x="952" 
d="M510 1516h-8q63 107 82 233h145q-35 -72 -92.5 -133t-126.5 -100zM627 1399h-205q-38 0 -61 -4t-47 -20t-36 -47t-20 -85.5t-8 -134.5h-35v324h713l-492 -1399h289q27 0 44 1t38 6t34 15t27.5 26.5t22.5 42.5t15.5 62.5t10.5 86t3 112.5h32v-385h-813z" />
    <glyph glyph-name="zacute" unicode="&#x17a;" horiz-adv-x="743" 
d="M319 1096h-10q39 66 56.5 117.5t27.5 115.5h146q-35 -72 -93 -133t-127 -100zM641 256h33v-256h-649l362 981h-113q-42 0 -65 -5t-41 -23.5t-24.5 -54t-6.5 -97.5h-33v213h576l-363 -981h195q55 0 79 12.5t37 60t13 150.5z" />
    <glyph glyph-name="Zdotaccent" unicode="&#x17b;" horiz-adv-x="952" 
d="M496 1622q0 37 23.5 60.5t62.5 23.5q38 0 60 -23.5t22 -60.5q0 -39 -22 -62.5t-60 -23.5q-39 0 -62.5 23.5t-23.5 62.5zM627 1399h-205q-38 0 -61 -4t-47 -20t-36 -47t-20 -85.5t-8 -134.5h-35v324h713l-492 -1399h289q27 0 44 1t38 6t34 15t27.5 26.5t22.5 42.5
t15.5 62.5t10.5 86t3 112.5h32v-385h-813z" />
    <glyph glyph-name="zdotaccent" unicode="&#x17c;" horiz-adv-x="743" 
d="M307 1202q0 37 22.5 60.5t59.5 23.5q39 0 62.5 -23.5t23.5 -60.5q0 -39 -23.5 -62.5t-62.5 -23.5q-37 0 -59.5 24t-22.5 62zM641 256h33v-256h-649l362 981h-113q-42 0 -65 -5t-41 -23.5t-24.5 -54t-6.5 -97.5h-33v213h576l-363 -981h195q55 0 79 12.5t37 60t13 150.5z
" />
    <glyph glyph-name="Zcaron" unicode="&#x17d;" horiz-adv-x="952" 
d="M399 1772q54 -12 97.5 -35t59.5 -38t26 -28q10 13 26 28t59 38t97 35l4 -3q-35 -31 -64.5 -63t-47.5 -57t-33 -50.5t-21.5 -40.5t-11.5 -28l-6 -14h-4l-6 14q-5 13 -12 28t-22 40.5t-33 50.5t-47.5 57t-64.5 63zM627 1399h-205q-38 0 -61 -4t-47 -20t-36 -47t-20 -85.5
t-8 -134.5h-35v324h713l-492 -1399h289q27 0 44 1t38 6t34 15t27.5 26.5t22.5 42.5t15.5 62.5t10.5 86t3 112.5h32v-385h-813z" />
    <glyph glyph-name="zcaron" unicode="&#x17e;" horiz-adv-x="743" 
d="M211 1350q54 -12 97 -35t59 -38t26 -28q10 13 26 28t59 38t97 35l5 -2q-35 -31 -64.5 -63t-47.5 -57.5t-33 -50.5t-22 -40t-13 -29l-5 -14h-4l-5 14q-6 13 -12.5 28.5t-21.5 40.5t-33 50.5t-47.5 57.5t-64.5 63zM641 256h33v-256h-649l362 981h-113q-42 0 -65 -5
t-41 -23.5t-24.5 -54t-6.5 -97.5h-33v213h576l-363 -981h195q55 0 79 12.5t37 60t13 150.5z" />
    <glyph glyph-name="florin" unicode="&#x192;" horiz-adv-x="983" 
d="M627 -86q0 -124 -79.5 -193t-230.5 -69q-292 0 -292 180q0 46 18.5 80t46.5 49t61.5 14.5t63.5 -18.5q44 -25 58.5 -73.5t-5.5 -90.5q-3 -8 -10 -22.5t-11.5 -24t-9 -23t-3 -20t8 -14t23 -6.5t41.5 4q24 4 40 25.5t22 51.5t8 49.5t2 36.5v959h-123v41h123v332
q0 124 79 193t230 69q293 0 293 -180q0 -46 -18.5 -80t-46.5 -49t-61.5 -14.5t-63.5 18.5q-45 26 -59.5 74t5.5 90q3 8 10 22.5t11.5 24t9 23t3 20t-8 14t-23 6.5t-41.5 -4q-24 -4 -39.5 -25.5t-21.5 -52t-8 -50t-2 -36.5v-395h182v-41h-182v-895z" />
    <glyph glyph-name="AEacute" unicode="&#x1fc;" horiz-adv-x="1263" 
d="M801 1513h-10q64 109 83 234h146q-34 -72 -92.5 -133.5t-126.5 -100.5zM82 33h98l451 1366h-92v33h665v-304h-33q0 156 -33 213.5t-132 57.5h-109v-651h84q23 0 40 2t31.5 4t24 9.5t17 13.5t12 20.5t7 25t3.5 33.5t1.5 40t0.5 50h35v-430h-35q0 37 -0.5 55.5t-2 43.5
t-5 35.5t-10.5 25t-16.5 19.5t-24.5 11t-33.5 7.5t-44.5 1.5h-84v-682h129q102 0 139 64.5t37 246.5h33v-344h-696v33h92v403h-279l-133 -403h86v-33h-223v33zM362 469h269v813z" />
    <glyph glyph-name="aeacute" unicode="&#x1fd;" horiz-adv-x="1220" 
d="M584 1096h-11q39 66 56.5 117.5t27.5 115.5h148q-36 -72 -94.5 -133t-126.5 -100zM178 791q0 101 85 168t229 67q132 0 219 -61q87 61 198 61q144 0 236 -94.5t92 -218.5v-213h-406v-346q0 -64 23.5 -99t87.5 -35q107 0 184.5 85.5t77.5 191.5v74h33v-74
q0 -52 -19 -104.5t-55 -99.5t-98.5 -76t-140.5 -29q-117 0 -205 61.5t-125 155.5h-2q0 -105 -58.5 -161t-150.5 -56q-32 0 -67.5 11.5t-72 35.5t-60 69.5t-23.5 104.5v104q0 71 34.5 122t88 79.5t108.5 48.5t107 42t73 46v236q0 50 -26 78.5t-70 27.5q-27 0 -44.5 -13.5
t-21 -43t20.5 -76.5q41 -98 3 -158.5t-114 -60.5q-72 0 -106.5 44.5t-34.5 105.5zM831 889v-357h148v357q0 104 -68 104q-41 0 -60.5 -34.5t-19.5 -69.5zM571 612q-14 -12 -47.5 -31t-55.5 -34t-41 -50t-19 -83v-271q0 -100 55 -100q34 0 71 49.5t37 108.5v411z" />
    <glyph glyph-name="Oslashacute" unicode="&#x1fe;" horiz-adv-x="1024" 
d="M545 1513h-10q64 109 83 234h146q-34 -72 -92.5 -133.5t-126.5 -100.5zM229 16l72 142q-88 122 -88 280v576q0 174 119 302t284 128q82 0 156 -33.5t131 -93.5l58 106l49 -26l-68 -127q82 -116 82 -256v-576q0 -189 -119.5 -319.5t-286.5 -130.5q-161 0 -278 123
l-61 -121zM483 1219v-711l271 520v191q0 100 -33 146t-103 46t-102.5 -46t-32.5 -146zM483 215q0 -111 31.5 -153t103.5 -42t104 41.5t32 153.5v690l-271 -520v-170z" />
    <glyph glyph-name="oslashacute" unicode="&#x1ff;" horiz-adv-x="839" 
d="M426 1096h-10q39 66 56.5 117.5t27.5 115.5h145q-34 -72 -92.5 -133t-126.5 -100zM168 29l59 94q-67 82 -67 188v389q0 80 39 153.5t117.5 123t179.5 49.5q142 0 241 -92l51 80l48 -29l-60 -94q68 -87 68 -191v-389q0 -82 -39 -154.5t-117 -120.5t-178 -48
q-142 0 -244 92l-49 -80zM418 879v-455l168 268v187q0 44 -23.5 79t-58.5 35q-38 0 -62 -35t-24 -79zM418 133q0 -44 25.5 -78.5t62.5 -34.5q35 0 57.5 34t22.5 79v455l-168 -269v-186z" />
    <glyph glyph-name="uni0218" unicode="&#x218;" horiz-adv-x="854" 
d="M162 938q-61 124 -58 219.5t53 161t120.5 99.5t144.5 34q133 0 209 -70q41 5 41 50h33v-334h-33v104q0 102 -53 149.5t-127 47.5q-65 0 -104.5 -35.5t-42.5 -103.5t44 -166q41 -83 137 -277t172 -348q63 -137 39.5 -245.5t-107.5 -175t-194 -66.5q-60 0 -126 20t-117 57
q-18 0 -29.5 -4.5t-16 -14t-5.5 -17.5t-1 -23h-32v375h32v-148q0 -87 68.5 -144.5t144.5 -57.5q58 0 93 32t44 90t-14 144.5t-78 189.5q-54 103 -237 457zM446 -246q-47 -20 -83.5 3t-36.5 73q0 41 25.5 64.5t60.5 23.5q38 0 65 -30.5t27 -94.5q0 -26 -5.5 -49.5t-20 -49.5
t-44.5 -44t-74 -23l-2 21q46 8 67 38t21 68z" />
    <glyph glyph-name="uni0219" unicode="&#x219;" horiz-adv-x="716" 
d="M94 307v-135q0 -59 60 -99t127 -40q37 0 61 14t33.5 43t-5 81t-55.5 120q-65 115 -200 338q-54 93 -49 166.5t52 125t111 78.5t127 27q90 0 160 -49q27 0 41 6.5t14 30.5h33v-277h-33v68q0 83 -45.5 125.5t-107.5 42.5q-42 0 -72.5 -21t-38.5 -65.5t31 -112.5
q124 -211 250 -430q54 -101 26.5 -181t-107.5 -129.5t-177 -49.5q-117 0 -197 57q-19 0 -29 -8.5t-10 -32.5h-33v307h33zM342 -246q-47 -20 -84 3t-37 73q0 41 25 64.5t61 23.5q38 0 65 -30.5t27 -94.5q0 -26 -5.5 -49.5t-19.5 -49.5t-43.5 -44t-72.5 -23l-6 21
q47 8 68.5 38t21.5 68z" />
    <glyph glyph-name="uni021A" unicode="&#x21a;" horiz-adv-x="921" 
d="M276 0v33h93v1366h-111q-71 0 -107 -61.5t-36 -207.5h-33v302h840v-302h-33q0 146 -36.5 207.5t-107.5 61.5h-110v-1366h92v-33h-451zM532 -246q-46 -20 -83 3.5t-37 72.5q0 41 25.5 64.5t60.5 23.5q39 0 65.5 -30.5t26.5 -94.5q0 -26 -5.5 -49.5t-19.5 -49.5t-43.5 -44
t-72.5 -23l-5 21q46 8 67 38t21 68z" />
    <glyph glyph-name="uni021B" unicode="&#x21b;" horiz-adv-x="583" 
d="M25 981v33h122v233l250 84v-317h185v-33h-185v-856q0 -86 58 -86q31 0 55.5 28t24.5 83h34q0 -80 -49 -122t-123 -42q-30 0 -61 6t-65.5 21.5t-61.5 39.5t-44.5 64.5t-17.5 91.5v772h-122zM369 -246q-46 -20 -82.5 3.5t-36.5 72.5q0 41 25.5 64.5t60.5 23.5
q38 0 65 -30.5t27 -94.5q0 -150 -141 -166l-4 21q86 16 86 106z" />
    <glyph glyph-name="uni0237" unicode="&#x237;" horiz-adv-x="688" 
d="M625 -80q0 -62 -19.5 -109.5t-50.5 -76.5t-74.5 -47t-87 -24.5t-92.5 -6.5q-53 0 -98.5 8.5t-87 27.5t-66 56.5t-24.5 89.5t24.5 87.5t59 47t73.5 2t66 -40.5q56 -62 6 -165q-9 -17 -14 -30.5t-6.5 -22t1 -14.5t4.5 -9t9.5 -4.5t11 -2t12.5 0t11 0.5q33 0 54.5 20.5
t29.5 54t10 54t2 43.5v1130h-80v25h326v-1094z" />
    <glyph glyph-name="circumflex" unicode="&#x2c6;" horiz-adv-x="423" 
d="M61 1165l-4 2q41 36 75 74.5t52.5 66t32.5 55t18.5 38.5t6.5 20h4q6 -19 16.5 -44.5t56 -88.5t111.5 -121l-4 -2q-55 12 -98.5 35.5t-59 38.5t-24.5 27q-9 -12 -24.5 -27t-59.5 -38.5t-99 -35.5z" />
    <glyph glyph-name="caron" unicode="&#x2c7;" horiz-adv-x="425" 
d="M57 1419q54 -12 97.5 -35t59.5 -37.5t26 -27.5q10 13 26 27.5t59 37.5t97 35l4 -2q-35 -31 -64.5 -63t-47.5 -57.5t-33 -50.5t-21.5 -40.5t-11.5 -29.5l-6 -13h-4l-6 14q-5 14 -12 29t-22 40t-33 50.5t-47.5 57.5t-64.5 63z" />
    <glyph glyph-name="breve" unicode="&#x2d8;" horiz-adv-x="399" 
d="M389 1423h12q-11 -74 -59 -126t-111 -52q-62 0 -111.5 52.5t-58.5 125.5h13q5 -27 21.5 -46t34 -28.5t41 -14.5t35.5 -6t25 -1q138 0 158 96z" />
    <glyph glyph-name="dotaccent" unicode="&#x2d9;" horiz-adv-x="204" 
d="M37 1321q0 37 23 60.5t61 23.5t62 -23.5t24 -60.5q0 -38 -24 -62t-62 -24t-61 24t-23 62z" />
    <glyph glyph-name="ring" unicode="&#x2da;" horiz-adv-x="274" 
d="M49 1303q0 51 31.5 82.5t81.5 31.5t82 -31.5t32 -82.5q0 -49 -32 -81t-82 -32t-81.5 32t-31.5 81zM96 1303q0 -28 18.5 -47t47.5 -19q30 0 48.5 19t18.5 47q0 31 -18 49t-49 18q-30 0 -48 -18t-18 -49z" />
    <glyph glyph-name="ogonek" unicode="&#x2db;" horiz-adv-x="323" 
d="M305 -150l6 -2q-21 -51 -59 -77.5t-75.5 -27t-69 11t-46.5 30.5q-75 111 125 215h19q-47 -25 -68.5 -58.5t-20 -61t16.5 -50.5q17 -27 48.5 -39t67 2.5t56.5 56.5z" />
    <glyph glyph-name="tilde" unicode="&#x2dc;" horiz-adv-x="593" 
d="M594 1397q-4 -82 -33 -115t-67 -33q-35 0 -96 31t-91 31q-59 0 -86 -64l-8 2q6 64 40 102.5t75 41.5q35 3 101 -27.5t83 -30.5q16 0 31.5 11t24 22.5t20.5 30.5z" />
    <glyph glyph-name="hungarumlaut" unicode="&#x2dd;" horiz-adv-x="452" 
d="M63 1165h-10q65 111 84 234h146q-34 -72 -93 -133.5t-127 -100.5zM248 1165h-10q65 111 84 234h145q-34 -72 -92.5 -133.5t-126.5 -100.5z" />
    <glyph glyph-name="Wgrave" unicode="&#x1e80;" horiz-adv-x="1419" 
d="M856 1513q-68 39 -126.5 100.5t-92.5 133.5h145q19 -122 82 -234h-8zM578 0h-31l-369 1399h-96v33h459v-33h-88l206 -799l89 451l-89 348h-98v33h440v-33h-83l215 -801l153 801h-92v33h225v-33h-98l-266 -1399h-39l-246 965z" />
    <glyph glyph-name="wgrave" unicode="&#x1e81;" horiz-adv-x="1249" 
d="M776 1096q-68 40 -126.5 101t-92.5 132h145q18 -117 86 -233h-12zM451 0h-25l-303 981h-86v33h424v-33h-74l152 -477l88 385l-29 92h-82v33h424v-33h-76l148 -463l108 463h-73v33h200v-33h-90l-229 -981h-25l-254 819z" />
    <glyph glyph-name="Wacute" unicode="&#x1e82;" horiz-adv-x="1419" 
d="M748 1513h-9q38 65 55 115.5t29 118.5h146q-36 -73 -94.5 -134t-126.5 -100zM578 0h-31l-369 1399h-96v33h459v-33h-88l206 -799l89 451l-89 348h-98v33h440v-33h-83l215 -801l153 801h-92v33h225v-33h-98l-266 -1399h-39l-246 965z" />
    <glyph glyph-name="wacute" unicode="&#x1e83;" horiz-adv-x="1249" 
d="M629 1096h-11q39 66 56.5 117.5t27.5 115.5h148q-36 -72 -94.5 -133t-126.5 -100zM451 0h-25l-303 981h-86v33h424v-33h-74l152 -477l88 385l-29 92h-82v33h424v-33h-76l148 -463l108 463h-73v33h200v-33h-90l-229 -981h-25l-254 819z" />
    <glyph glyph-name="Wdieresis" unicode="&#x1e84;" horiz-adv-x="1419" 
d="M612 1620q0 36 25.5 60t62.5 24q36 0 62 -24t26 -60q0 -37 -26 -61.5t-62 -24.5q-37 0 -62.5 24t-25.5 62zM852 1620q0 36 26 60t62 24q37 0 62.5 -24t25.5 -60q0 -38 -25.5 -62t-62.5 -24q-36 0 -62 24.5t-26 61.5zM578 0h-31l-369 1399h-96v33h459v-33h-88l206 -799
l89 451l-89 348h-98v33h440v-33h-83l215 -801l153 801h-92v33h225v-33h-98l-266 -1399h-39l-246 965z" />
    <glyph glyph-name="wdieresis" unicode="&#x1e85;" horiz-adv-x="1251" 
d="M498 1202q0 37 24.5 60.5t61.5 23.5t63.5 -24t26.5 -60q0 -38 -26 -62t-64 -24q-37 0 -61.5 24t-24.5 62zM737 1202q0 36 25.5 60t60.5 24q40 0 65 -23.5t25 -60.5q0 -38 -25 -62t-65 -24q-35 0 -60.5 24.5t-25.5 61.5zM457 0h-25l-305 981h-86v33h424v-33h-72l150 -477
l90 385l-29 92h-84v33h424v-33h-76l148 -463l110 463h-73v33h198v-33h-88l-231 -981h-25l-254 819z" />
    <glyph glyph-name="Ygrave" unicode="&#x1ef2;" horiz-adv-x="997" 
d="M678 1513q-68 39 -126.5 100.5t-94.5 133.5h147q19 -123 84 -234h-10zM362 0v33h95v626l-277 748h-98v25h467v-25h-90l243 -659h5l155 659h-88v25h223v-25h-98l-174 -745v-629h88v-33h-451z" />
    <glyph glyph-name="ygrave" unicode="&#x1ef3;" horiz-adv-x="813" 
d="M537 1096q-68 40 -127 101t-93 132h146q18 -117 86 -233h-12zM397 -244q-19 -73 -60.5 -110t-88.5 -37t-79 33t-32 92q0 54 37.5 89.5t136.5 47.5q18 3 29 6t27.5 10.5t27 21.5t15.5 34l16 63l-299 975h-86v33h424v-33h-72l164 -481l129 481h-70v33h197v-33h-86z" />
    <glyph glyph-name="zerowidthspace" unicode="&#x200b;" horiz-adv-x="2048" 
 />
    <glyph glyph-name="endash" unicode="&#x2013;" horiz-adv-x="1009" 
d="M160 711h854v-144h-854v144z" />
    <glyph glyph-name="emdash" unicode="&#x2014;" horiz-adv-x="1400" 
d="M160 711h1245v-144h-1245v144z" />
    <glyph glyph-name="quoteleft" unicode="&#x2018;" horiz-adv-x="505" 
d="M307 1223q77 32 138 -6t61 -119q0 -66 -42 -105t-99 -39q-64 0 -108 50t-44 155q0 33 4.5 64t19.5 67.5t39.5 64t68 49t101.5 28.5l7 -35q-76 -13 -111 -61.5t-35 -112.5z" />
    <glyph glyph-name="quoteright" unicode="&#x2019;" horiz-adv-x="448" 
d="M358 1176q-77 -32 -137.5 5.5t-60.5 118.5q0 66 42 105t99 39q64 0 108 -50t44 -155q0 -33 -5 -64t-20 -67t-39.5 -63.5t-68 -49t-101.5 -28.5l-6 34q76 13 110.5 61.5t34.5 113.5z" />
    <glyph glyph-name="quotesinglbase" unicode="&#x201a;" horiz-adv-x="505" 
d="M412 4q-77 -32 -138 6t-61 119q0 66 42 104.5t99 38.5q64 0 108 -50t44 -154q0 -33 -5 -64t-20 -67.5t-39.5 -64t-68 -49t-101.5 -28.5l-6 35q76 13 111 61.5t35 112.5z" />
    <glyph glyph-name="quotedblleft" unicode="&#x201c;" horiz-adv-x="899" 
d="M307 1223q77 32 138 -6t61 -119q0 -66 -42 -105t-99 -39q-64 0 -108 50t-44 155q0 33 4.5 64t19.5 67.5t39.5 64t68 49t101.5 28.5l7 -35q-76 -13 -111 -61.5t-35 -112.5zM700 1223q77 32 138 -6t61 -119q0 -66 -42 -105t-99 -39q-64 0 -108 50t-44 155q0 33 5 64
t20 67.5t39.5 64t68 49t101.5 28.5l6 -35q-76 -13 -111 -61.5t-35 -112.5z" />
    <glyph glyph-name="quotedblright" unicode="&#x201d;" horiz-adv-x="800" 
d="M358 1176q-77 -32 -137.5 5.5t-60.5 118.5q0 66 42 105t99 39q64 0 108 -50t44 -155q0 -33 -5 -64t-20 -67t-39.5 -63.5t-68 -49t-101.5 -28.5l-6 34q76 13 110.5 61.5t34.5 113.5zM711 1176q-77 -32 -138 5.5t-61 118.5q0 66 42 105t99 39q64 0 108 -50t44 -155
q0 -33 -5 -64t-20 -67t-39.5 -63.5t-68 -49t-101.5 -28.5l-6 34q76 13 111 62t35 113z" />
    <glyph glyph-name="quotedblbase" unicode="&#x201e;" horiz-adv-x="858" 
d="M412 4q-77 -32 -138 6t-61 119q0 66 42 104.5t99 38.5q64 0 108 -50t44 -154q0 -33 -5 -64t-20 -67.5t-39.5 -64t-68 -49t-101.5 -28.5l-6 35q76 13 111 61.5t35 112.5zM764 4q-77 -32 -138 6t-61 119q0 66 42 104.5t100 38.5q64 0 107.5 -49.5t43.5 -154.5
q0 -33 -4.5 -64t-19.5 -67.5t-39.5 -64t-68 -49t-101.5 -28.5l-7 35q76 13 111 61.5t35 112.5z" />
    <glyph glyph-name="dagger" unicode="&#x2020;" horiz-adv-x="1083" 
d="M631 -338v776q-23 67 -90 111v4q67 44 90 111v299q-78 0 -142 -39q-39 -22 -89.5 -40t-84.5 -18q-43 0 -72.5 31t-29.5 80t29.5 79.5t72.5 30.5q34 0 85 -18t87 -39q67 -39 144 -39v33q0 80 -39 145q-21 35 -39 84t-18 84q0 44 30.5 73.5t79.5 29.5t80 -30t31 -75
q0 -35 -17 -85.5t-39 -86.5q-34 -57 -34 -139v-33q77 0 141 39q39 21 89.5 39t84.5 18q43 0 72.5 -30.5t29.5 -79.5t-29.5 -80t-72.5 -31q-34 0 -84.5 18t-89.5 40q-64 39 -141 39v-306q21 -60 88 -104v-4q-66 -44 -88 -105v-782h-35z" />
    <glyph glyph-name="daggerdbl" unicode="&#x2021;" horiz-adv-x="1083" 
d="M487 96q-35 -22 -86 -40.5t-86 -18.5q-43 0 -72.5 30.5t-29.5 79.5q0 50 29 80.5t71 30.5q35 0 86 -18.5t86 -40.5q66 -37 146 -37v241q-10 85 -99 146v4q89 61 99 145v230q-78 0 -142 -39q-39 -22 -89.5 -40t-84.5 -18q-43 0 -72.5 31t-29.5 80t29.5 80t72.5 31
q34 0 84.5 -18.5t87.5 -39.5q67 -39 144 -39v64q0 82 -37 145q-21 33 -40 84t-19 86q0 43 30.5 72t79.5 29t80 -29t31 -74q0 -35 -17 -86.5t-39 -87.5q-34 -55 -34 -139v-64q77 0 141 39q39 22 89.5 40t84.5 18q43 0 72.5 -31t29.5 -80t-29.5 -80t-72.5 -31q-34 0 -84.5 18
t-89.5 40q-64 39 -141 39v-230q10 -85 98 -145v-4q-88 -60 -98 -146v-241q79 0 145 37q35 22 86 40.5t86 18.5q42 0 71 -30.5t29 -80.5q0 -49 -29.5 -79.5t-72.5 -30.5q-35 0 -86 18.5t-86 40.5q-59 37 -143 37v-63q0 -85 34 -140q21 -36 38.5 -87t17.5 -85q0 -45 -31 -74.5
t-80 -29.5t-79.5 29t-30.5 73q0 34 19 84.5t40 83.5q37 63 37 146v63q-85 0 -144 -37z" />
    <glyph glyph-name="bullet" unicode="&#x2022;" horiz-adv-x="477" 
d="M344 500q-56 0 -93.5 40.5t-37.5 90.5q0 61 40 97t91 36q60 0 96.5 -42t36.5 -91q0 -60 -41.5 -95.5t-91.5 -35.5z" />
    <glyph glyph-name="ellipsis" unicode="&#x2026;" horiz-adv-x="1198" 
d="M213 131q0 60 39.5 99.5t99.5 39.5t101 -39.5t41 -99.5t-41 -100.5t-101 -40.5t-99.5 40.5t-39.5 100.5zM565 131q0 60 40 99.5t100 39.5t100.5 -39.5t40.5 -99.5t-40.5 -100.5t-100.5 -40.5t-100 40.5t-40 100.5zM918 131q0 60 39.5 99.5t99.5 39.5t100.5 -39.5
t40.5 -99.5t-40.5 -100.5t-100.5 -40.5t-99.5 40.5t-39.5 100.5z" />
    <glyph glyph-name="perthousand" unicode="&#x2030;" horiz-adv-x="2465" 
d="M213 1038v82q0 80 39.5 153.5t118.5 123t180 49.5q150 0 249 -100.5t99 -225.5v-82q0 -82 -39.5 -154.5t-118 -120.5t-178.5 -48q-76 0 -142.5 28t-111.5 73.5t-70.5 103.5t-25.5 118zM721 0l350 1432h131l-350 -1432h-131zM471 1298v-438q0 -44 25.5 -78t62.5 -34
t59.5 33.5t22.5 78.5v438q0 43 -24.5 79t-59.5 36q-37 0 -61.5 -35.5t-24.5 -79.5zM1032 326v82q0 80 39.5 153.5t118.5 122.5t180 49q150 0 249 -100t99 -225v-82q0 -82 -39.5 -155t-118 -121t-178.5 -48q-76 0 -142.5 28t-111.5 74t-70.5 104t-25.5 118zM1810 326v82
q0 80 39.5 153.5t118.5 122.5t180 49q150 0 249.5 -100t99.5 -225v-82q0 -82 -39.5 -155t-118 -121t-178.5 -48q-76 0 -142.5 28t-111.5 74t-71 104t-26 118zM1290 586v-439q0 -44 25.5 -78t62.5 -34t59.5 33.5t22.5 78.5v439q0 43 -24.5 78.5t-59.5 35.5q-37 0 -61.5 -35.5
t-24.5 -78.5zM2068 586v-439q0 -44 26 -78t63 -34t59 33.5t22 78.5v439q0 43 -24.5 78.5t-59.5 35.5q-37 0 -61.5 -35.5t-24.5 -78.5z" />
    <glyph glyph-name="guilsinglleft" unicode="&#x2039;" horiz-adv-x="579" 
d="M213 623v8q19 8 65 33t109.5 64t111 87t50.5 86h31q-13 -91 -46.5 -151t-103.5 -119v-8q69 -57 103 -118t47 -153h-31q-3 39 -50.5 87t-111 87.5t-109 64t-65.5 32.5z" />
    <glyph glyph-name="guilsinglright" unicode="&#x203a;" horiz-adv-x="579" 
d="M580 623q-13 -5 -46 -22t-83 -46.5t-94.5 -61.5t-78 -70.5t-36.5 -70.5h-29q12 92 45.5 153t103.5 118v8q-70 59 -103.5 119t-45.5 151h29q3 -38 51.5 -86t111 -87t110 -64.5t65.5 -32.5v-8z" />
    <glyph glyph-name="fraction" unicode="&#x2044;" horiz-adv-x="614" 
d="M213 0l317 1432h84l-317 -1432h-84z" />
    <glyph glyph-name="uni2074" unicode="&#x2074;" horiz-adv-x="524" 
d="M367 1239h-5l-131 -297v-2h136v299zM328 829h39v97h-154v10l217 496h43v-492h51v-14h-51v-97h39v-14h-184v14z" />
    <glyph glyph-name="franc" unicode="&#x20a3;" horiz-adv-x="755" 
d="M51 0v33h90v268h-96v43h96v1057h-90v31h658v-304h-33q0 154 -38 213.5t-138 59.5h-92v-653h67q61 0 89.5 12.5t42.5 55.5t14 134h32v-438h-32q0 122 -30 162.5t-116 40.5h-67v-371h94v-43h-94v-268h92v-33h-449z" />
    <glyph glyph-name="uni20A6" unicode="&#x20a6;" horiz-adv-x="954" 
d="M74 33h92v774h-121v43h121v96h-121v41h121v412h-92v33h344l198 -445h185v412h-92v33h221v-33h-92v-412h116v-41h-116v-96h116v-43h-116v-807h-58l-364 807h-213v-774h92v-33h-221v33zM203 1274v-287h131l-129 287h-2zM203 850h192l-43 96h-149v-96zM678 850h123v96h-166z
M799 586h2v221h-103z" />
    <glyph glyph-name="peseta" unicode="&#x20a7;" horiz-adv-x="1099" 
d="M430 1399v-336h205v123q0 103 -27 158t-73 55h-105zM635 944v78h-205v-311h117q88 0 88 233zM72 0v33h92v989h-119v41h119v336h-92v33h491q151 0 244.5 -95.5t93.5 -249.5v-24h115v-41h-115q-4 -162 -98.5 -253t-233.5 -91h-139v-645h92v-33h-450z" />
    <glyph glyph-name="uni20A9" unicode="&#x20a9;" horiz-adv-x="1419" 
d="M578 0h-31l-174 659h-197v43h184l-24 97h-160v43h148l-146 557h-96v33h459v-33h-88l143 -557h111l41 209l-89 348h-98v33h440v-33h-83l149 -557h113l106 557h-92v33h225v-33h-98l-107 -557h144v-43h-152l-18 -97h170v-43h-178l-125 -659h-39l-168 659h-139zM745 842h56
l-31 123zM633 702h47l18 97h-90zM717 702h121l-25 97h-76zM1104 702h49l18 97h-94zM643 659l16 -59l13 59h-29zM1116 659l17 -61l12 61h-29z" />
    <glyph glyph-name="Euro" unicode="&#x20ac;" horiz-adv-x="944" 
d="M301 440v254h-88v37h88v90h-88v37h88v152q0 114 53.5 214t148.5 160t208 60q106 0 168 -53q20 1 25 10t5 31h35v-345h-35v136q0 80 -52 134t-144 54q-86 0 -115 -55.5t-29 -177.5v-320h121v-37h-121v-90h121v-37h-121v-446q0 -72 9 -118.5t28 -70t41.5 -31.5t57.5 -8
q36 0 67.5 7.5t64.5 26.5t52.5 58.5t19.5 96.5v176h35v-385h-35q0 20 -6.5 29t-25.5 12q-62 -53 -170 -53q-123 0 -218 69t-141.5 170.5t-46.5 212.5z" />
    <glyph glyph-name="trademark" unicode="&#x2122;" horiz-adv-x="980" 
d="M281 1016v20h32v377h-26q-49 0 -49 -78h-25v99h295v-99h-25q0 43 -12.5 60.5t-38.5 17.5h-24v-377h30v-20h-157zM557 1014v20h33v377h-33v21h154l63 -203l45 203h162v-21h-33v-377h33v-20h-158v20h33v377h-2l-88 -397h-16l-121 375h-2v-355h30v-20h-100z" />
    <glyph glyph-name="minus" unicode="&#x2212;" horiz-adv-x="884" 
d="M213 844h672v-123h-672v123z" />
    <glyph glyph-name="uni2215" unicode="&#x2215;" horiz-adv-x="614" 
d="M213 0l317 1432h84l-317 -1432h-84z" />
    <glyph glyph-name="uniF8FF" unicode="&#xf8ff;" horiz-adv-x="2048" 
 />
    <glyph glyph-name="U00A0" horiz-adv-x="897" 
 />
    <glyph glyph-name="commaaccent" horiz-adv-x="397" 
d="M305 422q-77 -32 -138 6t-61 119q0 66 42 104.5t100 38.5q64 0 107.5 -50t43.5 -155q0 -33 -4.5 -64t-19.5 -67t-39.5 -63.5t-68 -49t-101.5 -28.5l-6 35q76 13 110.5 61.5t34.5 112.5z" />
    <glyph glyph-name="commaaccent.salt" horiz-adv-x="397" 
d="M305 422q-77 -32 -138 6t-61 119q0 66 42 104.5t100 38.5q64 0 107.5 -50t43.5 -155q0 -33 -4.5 -64t-19.5 -67t-39.5 -63.5t-68 -49t-101.5 -28.5l-6 35q76 13 110.5 61.5t34.5 112.5z" />
    </font>
</defs>
</svg>
