<?xml version="1.0" standalone="no"?>
<!DOCTYPE svg PUBLIC "-//W3C//DTD SVG 1.1//EN" "http://www.w3.org/Graphics/SVG/1.1/DTD/svg11.dtd" >
<svg xmlns="http://www.w3.org/2000/svg" xmlns:xlink="http://www.w3.org/1999/xlink" version="1.1">
<metadata>
Created by FontForge 20170731 at Sat Sep  5 19:55:16 2020
 By Aleksey,,,
Copyright 2011 The Emberly Project Authors (https://github.com/rajputrajesh448/Fonts)
</metadata>
<defs>
<font id="Emberly-BlackNarrow" horiz-adv-x="751" >
  <font-face 
    font-family="Emberly Black Narrow"
    font-weight="900"
    font-stretch="semi-condensed"
    units-per-em="2048"
    panose-1="0 0 0 0 0 0 0 0 0 0"
    ascent="1638"
    descent="-410"
    x-height="1014"
    cap-height="1432"
    bbox="-295 -391 2241 1751"
    underline-thickness="0"
    underline-position="0"
    unicode-range="U+000D-FB03"
  />
<missing-glyph horiz-adv-x="2048" 
d="M1061 1432h971v-1432h-971v1432zM1165 1348v-1248h764v1248h-764z" />
    <glyph glyph-name="f_f" unicode="ff" horiz-adv-x="1120" 
d="M354 1266v-252h211v106q-48 0 -82 37q-56 60 -12 150q24 54 13.5 79t-46.5 25q-20 0 -35 -6.5t-24 -20t-14.5 -25.5t-7.5 -32t-2.5 -31t-0.5 -30zM61 0v33h66v948h-102v33h102v188q0 117 78 179.5t215 62.5q145 0 215 -70q76 70 221 70q128 0 196 -52.5t68 -136.5
q0 -64 -35.5 -101t-82.5 -35.5t-82 38.5q-58 61 -11 150q22 54 11.5 79t-46.5 25q-20 0 -35 -6.5t-24 -20t-14 -25.5t-7 -32.5t-2.5 -30.5t-0.5 -30v-252h153v-33h-153v-948h67v-33h-360v33h67v948h-211v-948h66v-33h-359z" />
    <glyph glyph-name="fi" unicode="fi" horiz-adv-x="811" 
d="M61 0v33h66v948h-102v33h102v188q0 117 78 179.5t215 62.5q127 0 194.5 -53t67.5 -136q0 -64 -35.5 -101t-82.5 -35.5t-81 38.5q-56 60 -12 150q24 54 13.5 79t-46.5 25q-20 0 -35 -6.5t-24 -20t-14.5 -25.5t-7.5 -32t-2.5 -31t-0.5 -30v-252h389v-981h68v-33h-367v33h66
v948h-156v-948h66v-33h-359z" />
    <glyph glyph-name="fl" unicode="fl" horiz-adv-x="997" 
d="M61 0v33h66v948h-102v33h102v188q0 117 78 179.5t215 62.5q127 0 194.5 -53t67.5 -136q0 -64 -35.5 -101t-82.5 -35.5t-81 38.5q-56 60 -12 150q24 54 13.5 79t-46.5 25q-20 0 -35 -6.5t-24 -20t-14.5 -25.5t-7.5 -32t-2.5 -31t-0.5 -30v-252h152v-33h-152v-948h66v-33
h-359zM639 0v33h66v1378h-66v33h291v-1411h67v-33h-358z" />
    <glyph glyph-name="f_f_i" unicode="ffi" horiz-adv-x="1269" 
d="M354 1266v-252h211v106q-48 0 -82 37q-56 60 -12 150q24 54 13.5 79t-46.5 25q-20 0 -35 -6.5t-24 -20t-14.5 -25.5t-7.5 -32t-2.5 -31t-0.5 -30zM61 0v33h66v948h-102v33h102v188q0 117 78 179.5t215 62.5q145 0 215 -70q76 70 221 70q128 0 196 -52.5t68 -136.5
q0 -64 -35.5 -101t-82.5 -35.5t-82 38.5q-58 61 -11 150q22 54 11.5 79t-46.5 25q-20 0 -35 -6.5t-24 -20t-14 -25.5t-7 -32.5t-2.5 -30.5t-0.5 -30v-252h411v-981h66v-33h-367v33h68v948h-178v-948h67v-33h-360v33h67v948h-211v-948h66v-33h-359z" />
    <glyph glyph-name=".notdef" horiz-adv-x="2048" 
d="M1061 1432h971v-1432h-971v1432zM1165 1348v-1248h764v1248h-764z" />
    <glyph glyph-name=".null" horiz-adv-x="0" 
 />
    <glyph glyph-name="nonmarkingreturn" horiz-adv-x="682" 
 />
    <glyph glyph-name="NULL" horiz-adv-x="0" 
 />
    <glyph glyph-name="NULL" horiz-adv-x="0" 
 />
    <glyph glyph-name="CR" unicode="&#xd;" horiz-adv-x="512" 
 />
    <glyph glyph-name="space" unicode=" " horiz-adv-x="348" 
 />
    <glyph glyph-name="exclam" unicode="!" horiz-adv-x="434" 
d="M328 297h-39q-7 151 -58 506.5t-51 529.5q0 42 26.5 70.5t64 35.5t75 0t64 -36t26.5 -72q0 -158 -51 -520.5t-57 -513.5zM182 119q0 55 36 91t91 36q54 0 90.5 -36t36.5 -91t-36.5 -91t-90.5 -36q-55 0 -91 36t-36 91z" />
    <glyph glyph-name="quotedbl" unicode="&#x22;" horiz-adv-x="612" 
d="M176 1348q0 45 30.5 65.5t65.5 20.5t67 -20.5t32 -65.5q0 -2 -95 -334h-4q-2 8 -28 96.5t-47 162t-21 75.5zM418 1348q0 45 30.5 65.5t65.5 20.5t66.5 -20.5t31.5 -65.5q0 -5 -94 -334h-4q-2 8 -28 96.5t-47 162t-21 75.5z" />
    <glyph glyph-name="numbersign" unicode="#" horiz-adv-x="749" 
d="M713 565l-6 -71h-105l-41 -494h-74l41 494h-174l-41 -494h-73l41 494h-105l6 71h105l30 361h-104l8 71h103l36 435h74l-37 -435h174l37 435h74l-37 -435h105l-7 -71h-104l-31 -361h105zM360 565h175l30 361h-174z" />
    <glyph glyph-name="dollar" unicode="$" horiz-adv-x="747" 
d="M141 948q-39 95 -48 175.5t7.5 135.5t51.5 95.5t78 61.5t92 28l-54 108h185l-52 -106q89 -9 144 -64q19 3 24.5 15t5.5 35h33v-318h-30v88q0 103 -45.5 150t-108.5 47q-87 0 -106.5 -84t38.5 -225q23 -51 125.5 -313t147.5 -359q48 -119 24 -210.5t-90 -148.5t-153 -71
l55 -99h-184l53 97q-103 14 -168 71q-14 -1 -22.5 -5t-12 -13.5t-4 -16.5t-0.5 -22h-33v360h33v-133q0 -93 56 -144.5t128 -51.5q70 0 100 48t17.5 137t-66.5 208q-20 44 -102.5 247.5t-118.5 276.5z" />
    <glyph glyph-name="percent" unicode="%" horiz-adv-x="1554" 
d="M176 1006v141q0 124 90 211.5t209 87.5t211 -87.5t92 -211.5v-141q0 -122 -89.5 -206.5t-207.5 -84.5q-119 0 -212 85t-93 206zM633 0l334 1432h127l-334 -1432h-127zM412 1319v-481q0 -38 19.5 -64t47.5 -26t46 26t18 64v481q0 38 -19 66t-45 28q-29 0 -48 -27.5
t-19 -66.5zM952 287v141q0 124 90 211.5t209 87.5t211 -87.5t92 -211.5v-141q0 -122 -89.5 -206.5t-207.5 -84.5q-120 0 -212.5 84.5t-92.5 206.5zM1188 600v-481q0 -38 19 -64t48 -26q28 0 46 26t18 64v481q0 39 -19 66.5t-47 27.5q-27 0 -46 -27.5t-19 -66.5z" />
    <glyph glyph-name="ampersand" unicode="&#x26;" horiz-adv-x="1083" 
d="M653 801v-33h-80q-70 0 -110.5 -45.5t-40.5 -104.5v-450q0 -65 33 -106.5t110 -41.5q58 0 101.5 25.5t67.5 68t35.5 90.5t10.5 101q2 14 2 234q-8 -1 -34 -3.5t-35.5 -4t-30.5 -5t-33.5 -7.5t-28 -11t-28.5 -16q-30 -21 -28 -46q1 -16 13 -11q6 2 13 11q23 26 53.5 25.5
t59 -23.5t36.5 -55q11 -49 -25 -93.5t-96 -35.5q-46 5 -76.5 41t-37.5 88.5t2 109.5t43 111t86 86q39 24 160.5 44.5t152.5 33.5q51 21 64 57q8 19 -4 21q-4 1 -9 -2q-36 -19 -68.5 -13t-48.5 29t-21 53t13 60q29 53 90.5 52t92.5 -56q27 -40 24.5 -112.5t-34.5 -153.5
q-31 -77 -78.5 -113.5t-110.5 -50.5v-244q0 -56 -17.5 -109.5t-52.5 -101.5t-96 -77t-139 -29q-51 0 -101.5 11.5t-101 38t-88.5 65.5t-62 99.5t-24 133.5v82q0 150 78 242t199 124q-102 30 -164 106.5t-62 188.5v78q0 81 53 148t138 103t182 36q52 0 100 -11.5t90 -35.5
t67.5 -68t25.5 -102q0 -97 -60.5 -140.5t-130.5 -9.5q-17 8 -29 19.5t-19 22.5t-10 27t-3.5 26.5t2 28t4.5 25.5t6.5 24.5t5.5 19.5q40 141 -61 141q-34 0 -58 -14.5t-35.5 -38t-16.5 -46t-5 -46.5v-316q0 -29 0.5 -44t6 -38.5t15 -35.5t29.5 -21.5t49 -9.5h80z" />
    <glyph glyph-name="quotesingle" unicode="'" horiz-adv-x="370" 
d="M176 1348q0 45 30.5 65.5t65.5 20.5t67 -20.5t32 -65.5q0 -2 -95 -334h-4q-2 8 -28 96.5t-47 162t-21 75.5z" />
    <glyph glyph-name="parenleft" unicode="(" horiz-adv-x="602" 
d="M473 -74q-148 0 -222.5 77t-74.5 251v913q0 176 75 257t222 81h129v-32h-29q-32 0 -56 -7.5t-40 -17t-27 -32t-16.5 -38.5t-8 -51t-3 -55.5t-0.5 -65.5v-991v-50t1.5 -44t4 -41.5t7.5 -34t12.5 -31t19 -23t26.5 -18.5t35 -9.5t45 -4.5h29v-33h-129z" />
    <glyph glyph-name="parenright" unicode=")" horiz-adv-x="602" 
d="M305 -74h-129v33h29q25 0 45 4.5t35 9.5t26.5 18.5t19 23t12.5 31t7.5 34t4 41.5t1.5 44v50v991q0 45 -0.5 65.5t-3 55.5t-8 51t-16.5 38.5t-27 32t-40 17t-56 7.5h-29v32h129q147 0 222 -81t75 -257v-913q0 -174 -74.5 -251t-222.5 -77z" />
    <glyph glyph-name="asterisk" unicode="*" horiz-adv-x="552" 
d="M176 1305l60 86l122 -136l-45 177h105l-45 -177l123 136l57 -86l-172 -62l172 -63l-57 -86l-123 135l45 -178h-105l45 178l-122 -135l-60 86l174 63z" />
    <glyph glyph-name="plus" unicode="+" horiz-adv-x="806" 
d="M176 774h256v281h115v-281h258v-102h-258v-269h-115v269h-256v102z" />
    <glyph glyph-name="comma" unicode="," horiz-adv-x="395" 
d="M313 6q-69 -32 -125.5 3t-56.5 110q0 60 39 94.5t92 34.5q60 0 96.5 -46.5t36.5 -133.5q0 -32 -5.5 -62.5t-20.5 -64t-38.5 -60t-62.5 -47.5t-90 -29l-6 31q77 16 109 63.5t32 106.5z" />
    <glyph glyph-name="hyphen" unicode="-" horiz-adv-x="602" 
d="M176 707h426v-134h-426v134z" />
    <glyph glyph-name="period" unicode="." horiz-adv-x="387" 
d="M131 119q0 55 35.5 91t91.5 36t92.5 -36t36.5 -91t-36.5 -91t-92.5 -36t-91.5 36t-35.5 91z" />
    <glyph glyph-name="slash" unicode="/" horiz-adv-x="636" 
d="M176 0l334 1432h127l-334 -1432h-127z" />
    <glyph glyph-name="zero" unicode="0" horiz-adv-x="759" 
d="M176 346v739q0 143 96.5 251t227.5 108t229 -106.5t98 -252.5v-739q0 -150 -96.5 -254t-228.5 -104q-134 0 -230 103.5t-96 254.5zM412 1241v-1059q0 -82 19.5 -122t70.5 -40q52 0 72 39.5t20 122.5v1059q0 170 -92 170q-90 0 -90 -170z" />
    <glyph glyph-name="one" unicode="1" horiz-adv-x="573" 
d="M211 33h102v1257q-74 -33 -129 -43l-8 31q94 28 159.5 63.5t131.5 90.5h72v-1399h102v-33h-430v33z" />
    <glyph glyph-name="two" unicode="2" horiz-adv-x="796" 
d="M354 1071q-73 -27 -125.5 21.5t-52.5 134.5q0 102 82.5 159.5t220.5 57.5q103 0 176 -34.5t107.5 -90.5t46 -126.5t-2 -144.5t-42.5 -142.5t-70 -121.5q-31 -41 -94.5 -102.5t-121.5 -120.5t-117 -133t-99.5 -170.5t-50.5 -204.5l4 2q9 31 26.5 64.5t46 73t72.5 65
t95 25.5q48 0 127 -39t139 -41q25 -1 44.5 2.5t31.5 10t21 17t13 20t6 22.5t2 20.5t-0.5 18.5t-0.5 12h18q3 -18 4.5 -32.5t3 -49.5t-4 -64.5t-16 -63.5t-35 -62t-58.5 -46q-47 -28 -107.5 -18.5t-104.5 32t-101 46.5t-97 24q-84 0 -139 -92h-4q0 118 16 228t37 184
t57.5 154.5t59 119t61.5 99t47 73.5q40 68 65.5 146.5t31 149t-2.5 129.5t-35 93.5t-67 34.5q-9 0 -16.5 -1t-21 -6.5t-19 -17t-9.5 -31.5t7 -50q1 -9 6.5 -36.5t8.5 -44.5t2.5 -43.5t-6.5 -44.5t-22.5 -36t-42.5 -29z" />
    <glyph glyph-name="three" unicode="3" horiz-adv-x="780" 
d="M395 758h101q61 0 79.5 39.5t18.5 134.5v340q0 137 -111 139q-46 2 -70.5 -24t-11.5 -80q2 -15 11 -47.5t12 -54t1.5 -49t-19.5 -49t-52 -36.5q-66 -25 -122 20t-56 134q0 100 78.5 159.5t204.5 59.5q97 0 180 -36t136.5 -110t53.5 -172v-118q0 -211 -206 -265
q225 -50 225 -258v-170q0 -96 -54.5 -172.5t-138 -115.5t-176.5 -39q-50 0 -98 12.5t-91.5 37.5t-70 70.5t-26.5 104.5q0 97 61 136t129 5q25 -12 39 -29t19.5 -33t3.5 -41t-5.5 -41t-12 -45t-11.5 -42q-8 -44 11.5 -73.5t66.5 -29.5q55 0 86.5 30t31.5 104v401
q0 174 -116 174h-101v29z" />
    <glyph glyph-name="four" unicode="4" horiz-adv-x="729" 
d="M467 942h-6l-240 -647v-4h246v651zM391 33h76v225h-291v25l420 1149h96v-1141h103l2 -33h-105v-225h78v-33h-379v33z" />
    <glyph glyph-name="five" unicode="5" horiz-adv-x="696" 
d="M428 -12q-106 0 -179 57.5t-73 165.5q0 66 40.5 108t98.5 29q115 -21 74 -225q-12 -49 3 -76t52 -27q43 0 63.5 32t20.5 104v530q0 25 -0.5 40.5t-6 45t-14.5 47t-29 31.5t-48 14q-54 0 -100.5 -44t-46.5 -95v-45h-35v752h491v-5q-22 -69 -60.5 -114t-99 -68.5
t-128.5 -32t-168 -8.5v-409q20 36 49 60t60 33.5t52 13t41 3.5q112 0 195.5 -73t83.5 -193v-289q0 -65 -21.5 -128.5t-61.5 -116t-106 -85t-147 -32.5z" />
    <glyph glyph-name="six" unicode="6" horiz-adv-x="778" 
d="M526 -12q-142 0 -246 103.5t-104 244.5v780q0 141 103 234.5t266 93.5q52 0 99.5 -11t91 -34.5t69.5 -66.5t26 -101q0 -39 -10 -74.5t-41 -65.5t-78 -30q-74 0 -106 55.5t0 138.5q25 60 14 94.5t-34.5 48t-55.5 13.5q-106 0 -106 -139v-467q49 100 190 100
q123 0 182.5 -75t59.5 -201v-324q0 -143 -95 -230t-225 -87zM524 852q-47 0 -78.5 -54t-31.5 -151v-487q0 -74 24.5 -107t73.5 -33q96 0 96 140v485q0 207 -84 207z" />
    <glyph glyph-name="seven" unicode="7" horiz-adv-x="774" 
d="M354 119q0 122 12 213.5t34.5 155t50.5 114t64 106.5t71 116.5t74.5 159.5t72.5 220h-420q-112 0 -112 -129h-25v357h666l-62 -199q-35 -110 -59.5 -196.5t-42.5 -161t-28.5 -136t-17 -122.5t-8.5 -120t-3 -128.5t0 -148.5v-101q0 -65 -41.5 -102.5t-92 -37.5t-92 37
t-41.5 103z" />
    <glyph glyph-name="eight" unicode="8" horiz-adv-x="813" 
d="M428 735q-98 28 -166.5 100.5t-68.5 172.5v139q0 122 98.5 209.5t234.5 87.5t238 -85.5t102 -211.5v-139q0 -103 -69.5 -175t-167.5 -98q105 -29 178.5 -103.5t73.5 -178.5v-158q0 -86 -51 -157.5t-132 -110.5t-170 -39q-140 0 -246 89.5t-106 217.5v158q0 109 74 182.5
t178 99.5zM528 754q50 0 72.5 36.5t22.5 120.5v344q0 156 -95 156q-51 0 -71.5 -40.5t-20.5 -115.5v-344q0 -84 21.5 -120.5t70.5 -36.5zM528 20q52 0 75.5 35.5t23.5 112.5v399q0 70 -25 109t-74 39t-73.5 -39t-24.5 -109v-399q0 -77 23.5 -112.5t74.5 -35.5z" />
    <glyph glyph-name="nine" unicode="9" horiz-adv-x="784" 
d="M508 1444q142 0 246 -103.5t104 -244.5v-760q0 -85 -45.5 -164t-132 -131.5t-191.5 -52.5q-47 0 -93.5 10.5t-93 34t-75 68.5t-28.5 106q0 85 50.5 128.5t117.5 24.5q35 -8 54.5 -28.5t24 -50t1 -61t-14.5 -70.5q-20 -63 -0.5 -96.5t74.5 -33.5q53 0 84 32.5t31 99.5v587
q-49 -100 -191 -100q-123 0 -182.5 75t-59.5 201v211q0 143 95 230.5t225 87.5zM510 692q47 0 79 54t32 151v375q0 139 -97 139q-49 0 -73.5 -32.5t-24.5 -106.5v-373q0 -207 84 -207z" />
    <glyph glyph-name="colon" unicode=":" horiz-adv-x="432" 
d="M176 733q0 55 36 91t91 36q56 0 92.5 -36t36.5 -91t-36.5 -91t-92.5 -36q-55 0 -91 36t-36 91zM176 119q0 55 36 91t91 36q56 0 92.5 -36t36.5 -91t-36.5 -91t-92.5 -36q-55 0 -91 36t-36 91z" />
    <glyph glyph-name="semicolon" unicode=";" horiz-adv-x="448" 
d="M180 733q0 55 36 91t91 36q56 0 92.5 -36t36.5 -91t-36.5 -91t-92.5 -36q-55 0 -91 36t-36 91zM369 6q-69 -32 -126 3t-57 110q0 60 39 94.5t92 34.5q60 0 97 -46.5t37 -133.5q0 -41 -10 -79t-32.5 -77.5t-67.5 -68t-108 -38.5l-6 31q77 16 109.5 63.5t32.5 106.5z" />
    <glyph glyph-name="less" unicode="&#x3c;" horiz-adv-x="759" 
d="M760 502l-12 -2l-572 229v51l567 234l11 -2v-115l-4 -4l-353 -133v-4l353 -133l4 -5z" />
    <glyph glyph-name="equal" unicode="=" horiz-adv-x="813" 
d="M813 969v-107h-637v107h637zM813 696v-106h-637v106h637z" />
    <glyph glyph-name="greater" unicode="&#x3e;" horiz-adv-x="759" 
d="M176 502l4 116l4 5l355 133v4l-355 133l-4 4v115l10 2l570 -234v-51l-574 -229z" />
    <glyph glyph-name="question" unicode="?" horiz-adv-x="815" 
d="M354 1071q-76 -27 -127 21.5t-51 132.5q0 109 88 164t221 55q162 0 246 -81.5t84 -203.5q0 -68 -13.5 -132.5t-34 -115.5t-55.5 -103.5t-65.5 -89t-78 -80.5t-79 -70.5t-81.5 -65.5v-207h-33v420q14 12 28.5 27t48 61.5t58 97t44 131t19.5 166.5q0 210 -104 213
q-14 0 -27.5 -3.5t-28.5 -20t-16 -44.5q-1 -21 7 -55.5t14.5 -64t7 -60t-16.5 -55t-55 -37.5zM264 119q0 55 36 91t91 36q56 0 92.5 -36t36.5 -91t-36.5 -91t-92.5 -36q-55 0 -91 36t-36 91z" />
    <glyph glyph-name="at" unicode="@" horiz-adv-x="1202" 
d="M399 199v497q0 104 66 183t168 79q78 0 112.5 -48.5t42.5 -137.5l148 166h41v-719q0 -102 42 -148t84 -2.5t42 158.5v508q0 97 -39 173t-105 121.5t-147.5 69t-173.5 23.5q-129 0 -228.5 -43t-159 -131.5t-59.5 -212.5v-575q0 -175 127.5 -267t335.5 -92q82 0 150 15.5
t92 27.5t35 21l16 -31q-120 -72 -299 -72q-103 0 -195 26.5t-163.5 75.5t-113.5 125.5t-42 170.5v579q0 98 41 178t111 132t160 80t190 28q98 0 189.5 -26.5t167 -76.5t121.5 -132t46 -183v-510q0 -67 -26 -121t-66 -85t-89.5 -46t-96 -11t-86 27t-58.5 62
q-15 -62 -49.5 -91.5t-95.5 -29.5q-105 0 -170.5 73t-65.5 192zM633 815v-711q0 -129 47 -129q32 0 58 41.5t26 73.5v658q0 68 -21.5 116.5t-56.5 48.5q-21 0 -33.5 -18.5t-16 -38t-3.5 -41.5z" />
    <glyph glyph-name="A" unicode="A" horiz-adv-x="884" 
d="M82 33h82l262 1399h51l324 -1399h84v-33h-416v33h80l-94 403h-179l-75 -403h75v-33h-194v33zM283 469h163l-92 387z" />
    <glyph glyph-name="B" unicode="B" horiz-adv-x="798" 
d="M41 0v33h78v1366h-78v33h387q59 0 112.5 -19.5t97 -57.5t69.5 -100.5t26 -140.5v-104q0 -118 -67 -190.5t-150 -82.5q92 -3 163 -83t71 -208v-110q0 -71 -18 -129t-48.5 -96t-72 -63.5t-85.5 -36.5t-92 -11h-393zM354 754h56q43 0 60 46.5t17 151.5v230q0 119 -17.5 168
t-66.5 49h-49v-645zM504 268v254q0 105 -21 152t-67 47h-62v-688h66q45 0 64.5 56.5t19.5 178.5z" />
    <glyph glyph-name="C" unicode="C" horiz-adv-x="706" 
d="M176 358v725q0 145 102.5 253t239.5 108q95 0 148 -53q16 1 21 10.5t5 30.5h33v-328h-33v119q0 79 -44 133.5t-118 54.5q-66 0 -87 -44t-21 -138v-1039q0 -97 22.5 -133.5t77.5 -36.5q29 0 55.5 7.5t54 26.5t44 58.5t16.5 96.5v162h33v-371h-33q0 20 -5 29t-21 12
q-53 -53 -146 -53q-96 0 -176.5 54t-124 139t-43.5 177z" />
    <glyph glyph-name="D" unicode="D" horiz-adv-x="839" 
d="M41 33h78v1366h-78v33h412q70 0 143.5 -43t123.5 -117.5t50 -155.5v-786q0 -61 -29 -122t-73.5 -106t-100.5 -73.5t-108 -28.5h-418v33zM367 1399v-1366h82q42 0 57.5 38.5t15.5 114.5v1061q0 152 -84 152h-71z" />
    <glyph glyph-name="E" unicode="E" horiz-adv-x="686" 
d="M41 0v33h78v1366h-78v33h569v-287h-32q0 152 -28.5 203t-113.5 51h-71v-651h51q19 0 34.5 3t27 6t20.5 12.5t14.5 15.5t9.5 22t6 25t3 31.5t1 34v40.5h35v-414h-35v45t-1 36.5t-2 31.5t-4 24t-7 20t-10.5 13t-14.5 11t-20 5.5t-25.5 4t-31.5 0.5h-51v-682h96q58 0 88 26
t42.5 90t12.5 189h33v-338h-596z" />
    <glyph glyph-name="F" unicode="F" horiz-adv-x="651" 
d="M41 0v33h76v1368h-76v31h561v-287h-33q0 152 -29 204t-114 52h-64v-653h44q40 0 60.5 5t34.5 27t17.5 57t3.5 103h33v-418h-33q0 124 -20.5 158.5t-95.5 34.5h-44v-682h78v-33h-399z" />
    <glyph glyph-name="G" unicode="G" horiz-adv-x="800" 
d="M176 1102q0 79 43 157t124.5 131.5t178.5 53.5q91 0 144 -53q16 3 20 11.5t4 29.5h33v-328h-33v119q0 80 -44.5 134t-115.5 54q-61 0 -84.5 -41t-23.5 -125v-1083q0 -142 88 -142q34 0 52 21t18 59v426h-66v33h354v-33h-63v-526h-35q0 74 -31 74q-18 0 -53.5 -21.5
t-84 -43t-97.5 -21.5q-57 0 -115.5 28.5t-105.5 76.5t-77 118t-30 147v744z" />
    <glyph glyph-name="H" unicode="H" horiz-adv-x="880" 
d="M41 1432h393v-33h-69v-668h194v668h-72v33h394v-33h-76v-1366h76v-33h-394v33h72v665h-194v-665h69v-33h-393v33h78v1366h-78v33z" />
    <glyph glyph-name="I" unicode="I" horiz-adv-x="440" 
d="M41 0v33h78v1366h-78v33h399v-33h-75v-1366h75v-33h-399z" />
    <glyph glyph-name="J" unicode="J" horiz-adv-x="727" 
d="M354 -12q-67 0 -127 23t-102.5 76t-42.5 126q0 48 26 85t62 52t76 7.5t65 -40.5q20 -26 21.5 -59t-7.5 -59.5t-19 -60.5t-11 -56q0 -31 16.5 -46.5t44.5 -15.5q68 0 68 84v1295h-76v33h400v-33h-78v-1166q0 -57 -30 -105t-77 -78t-101.5 -46t-107.5 -16z" />
    <glyph glyph-name="K" unicode="K" horiz-adv-x="925" 
d="M41 0v33h78v1366h-78v33h399v-33h-75v-662l333 662h-67v33h192v-33h-86l-209 -418l297 -948h80v-33h-405v33h71l-206 694v-694h75v-33h-399z" />
    <glyph glyph-name="L" unicode="L" horiz-adv-x="649" 
d="M41 0v33h78v1366h-78v33h399v-33h-75v-1366h96q57 0 85 24.5t39 85.5t11 187h33v-330h-588z" />
    <glyph glyph-name="M" unicode="M" horiz-adv-x="1050" 
d="M651 0v33h78v1327h-6l-211 -1360h-45l-313 1282h-2v-1249h75v-33h-186v33h78v1366h-78v33h332l194 -807h2l129 807h353v-33h-76v-1366h76v-33h-400z" />
    <glyph glyph-name="N" unicode="N" horiz-adv-x="794" 
d="M41 33h78v1366h-78v33h317l322 -803h2v770h-78v33h189v-33h-76v-1399h-51l-510 1284h-2v-1251h75v-33h-188v33z" />
    <glyph glyph-name="O" unicode="O" horiz-adv-x="868" 
d="M176 356v729q0 143 103 251t241 108q139 0 243.5 -107t104.5 -252v-729q0 -151 -103.5 -259.5t-242.5 -108.5t-242.5 108.5t-103.5 259.5zM424 1249v-1075q0 -80 21.5 -117t76.5 -37q56 0 77.5 36t21.5 118v1075q0 77 -22 119.5t-77 42.5q-98 0 -98 -162z" />
    <glyph glyph-name="P" unicode="P" horiz-adv-x="821" 
d="M508 872v375q0 152 -82 152h-61v-688h67q76 0 76 161zM41 0v33h78v1366h-78v33h401q127 0 219.5 -86t92.5 -218v-157q0 -140 -89 -216.5t-221 -76.5h-79v-645h75v-33h-399z" />
    <glyph glyph-name="Q" unicode="Q" horiz-adv-x="868" 
d="M176 356v729q0 143 103.5 251t242.5 108q138 0 242 -107t104 -252v-729q0 -151 -103.5 -259.5t-242.5 -108.5h-2q-67 -2 -153 -88q58 35 103 37t70.5 -14.5t67 -43.5t78.5 -37q54 -16 86 3.5t62 70.5l20 -6q-8 -19 -21 -38.5t-33 -43t-47 -40.5t-59 -28.5t-73.5 -9
t-85.5 20.5q-12 4 -42 15.5t-45.5 16.5t-42.5 9.5t-45.5 0.5t-41.5 -16t-44 -35l-26 7q39 83 88.5 140t126.5 85q-122 24 -204.5 126.5t-82.5 235.5zM424 1249v-1075q0 -80 22 -117t78 -37q55 0 76 36.5t21 117.5v1075q0 77 -22 119.5t-77 42.5q-98 0 -98 -162z" />
    <glyph glyph-name="R" unicode="R" horiz-adv-x="888" 
d="M508 883v364q0 39 -6 70.5t-25.5 56.5t-50.5 25h-61v-668h67q76 0 76 152zM41 0v33h78v1366h-78v33h403q131 0 220.5 -92.5t89.5 -209.5v-131q0 -106 -72 -193t-186 -104q22 -3 45 -10t52.5 -24t54 -40t45 -62t28.5 -87l65 -446h82v-33h-327l-80 539q-15 101 -31.5 130
t-54.5 29h-10v-665h75v-33h-399z" />
    <glyph glyph-name="S" unicode="S" horiz-adv-x="747" 
d="M131 948q-44 104 -51 190.5t15.5 142.5t64.5 95t91 55.5t101 16.5q117 0 180 -66q19 3 25 15t6 35h33v-318h-31v88q0 103 -45 150t-108 47q-87 0 -106.5 -84t38.5 -225q23 -51 125 -313t147 -359q50 -129 19.5 -225t-109 -151.5t-172.5 -55.5q-117 0 -200 71
q-14 -1 -22.5 -5t-12 -13.5t-4 -16.5t-0.5 -22h-33v360h33v-133q0 -93 56 -144.5t128 -51.5q70 0 100 48t17.5 137t-66.5 208q-23 51 -104 252t-115 272z" />
    <glyph glyph-name="T" unicode="T" horiz-adv-x="798" 
d="M242 0v33h75v1366h-69q-71 0 -102 -53t-31 -199h-33v285h717v-285h-33q0 146 -31 199t-102 53h-70v-1366h78v-33h-399z" />
    <glyph glyph-name="U" unicode="U" horiz-adv-x="753" 
d="M119 1399h-78v33h399v-33h-75v-1202q0 -98 20.5 -136t79.5 -38q28 0 54.5 9.5t56.5 34t48.5 79.5t18.5 133v1120h-76v33h187v-33h-78v-1104q0 -151 -53 -229t-189 -78q-45 0 -87 8.5t-84.5 29t-73.5 52.5t-50.5 83t-19.5 115v1123z" />
    <glyph glyph-name="V" unicode="V" horiz-adv-x="874" 
d="M520 0h-51l-307 1399h-80v33h401v-33h-67l178 -807l160 807h-74v33h194v-33h-83z" />
    <glyph glyph-name="W" unicode="W" horiz-adv-x="1284" 
d="M518 0h-39l-315 1399h-82v33h407v-33h-73l176 -795l88 483l-68 312h-82v33h390v-33h-72l180 -783l137 783h-75v33h192v-33h-82l-244 -1399l-2 25l-4 -25h-35l-215 993z" />
    <glyph glyph-name="X" unicode="X" horiz-adv-x="878" 
d="M104 0v33h80l176 655l-196 711h-82v33h410v-33h-74l133 -477l131 477h-74v33h193v-33h-82l-150 -545l228 -821h82v-33h-408v33h72l-162 583l-160 -583h72v-33h-189z" />
    <glyph glyph-name="Y" unicode="Y" horiz-adv-x="872" 
d="M322 0v33h79v622l-235 748h-84v29h412v-29h-74l205 -651h2l127 651h-74v29h192v-29h-81l-144 -741v-629h76v-33h-401z" />
    <glyph glyph-name="Z" unicode="Z" horiz-adv-x="829" 
d="M526 1399h-161q-34 0 -52.5 -3.5t-38.5 -18t-29.5 -43.5t-15.5 -80.5t-6 -129.5h-33v308h607l-410 -1399h244q37 0 56 3.5t41 21t32 53t17 99.5t7 161h33v-371h-698z" />
    <glyph glyph-name="bracketleft" unicode="[" horiz-adv-x="528" 
d="M176 -115v1661h352v-33h-106v-1595h106v-33h-352z" />
    <glyph glyph-name="backslash" unicode="\" horiz-adv-x="636" 
d="M637 0h-127l-334 1432h127z" />
    <glyph glyph-name="bracketright" unicode="]" horiz-adv-x="528" 
d="M528 -115h-352v33h105v1595h-105v33h352v-1661z" />
    <glyph glyph-name="asciicircum" unicode="^" horiz-adv-x="579" 
d="M580 1219l-5 -21q-63 9 -120.5 35.5t-77 42t-31.5 27.5q-5 -7 -20 -20t-55 -38t-89 -45l-6 14q49 27 87 63.5t58 71.5t27.5 52t11.5 31h33q4 -13 7 -22.5t18 -41t33.5 -55t53 -51t75.5 -43.5z" />
    <glyph glyph-name="underscore" unicode="_" horiz-adv-x="679" 
d="M131 133h549v-133h-549v133z" />
    <glyph glyph-name="grave" unicode="`" horiz-adv-x="272" 
d="M170 1163q-62 36 -115 91.5t-84 121.5h133q9 -104 76 -213h-10z" />
    <glyph glyph-name="a" unicode="a" horiz-adv-x="784" 
d="M494 649v254q0 42 -20.5 67t-57.5 25q-28 0 -42 -13.5t-14 -35t4.5 -40.5t12.5 -36q14 -28 17.5 -62t-5 -65.5t-37 -53t-73.5 -21.5q-64 0 -96.5 41t-32.5 104q0 101 81 157t201 56q147 0 222 -79t75 -204v-600q0 -90 35 -90q16 0 27.5 20.5t11.5 45.5h35
q0 -62 -47 -98.5t-121 -36.5q-60 0 -109.5 29t-62.5 83q-20 -52 -63 -80t-97 -28q-34 0 -68.5 12t-66.5 35.5t-52 66t-20 97.5v114q0 61 20.5 106.5t51.5 70.5t73 46t80.5 34t77 34t60.5 45zM494 608q-12 -13 -37.5 -30t-42.5 -30t-31 -43t-14 -71v-303q0 -36 12 -55t31 -19
q29 0 55.5 45t26.5 105v401z" />
    <glyph glyph-name="b" unicode="b" horiz-adv-x="729" 
d="M25 0v33h67v1366h-67v33h292v-500q32 90 121 90q92 0 165 -78t73 -190v-508q0 -59 -23.5 -108.5t-59.5 -80.5t-78 -48t-81 -17q-86 0 -117 86v-78h-292zM317 815v-612q0 -74 25.5 -120t56.5 -46q43 0 43 76v786q0 74 -43 74q-29 0 -55.5 -45.5t-26.5 -112.5z" />
    <glyph glyph-name="c" unicode="c" horiz-adv-x="706" 
d="M131 752q0 105 90 189.5t225 84.5q109 0 187 -58t78 -159q0 -70 -38.5 -106.5t-90.5 -36.5q-44 0 -77 22t-44 65.5t20 108.5q24 48 18.5 77.5t-22 41.5t-39.5 12q-34 0 -52.5 -27.5t-18.5 -66.5v-756q0 -67 18 -92.5t61 -25.5q90 0 164 73.5t74 177.5v95h33v-97
q0 -112 -79.5 -197t-201.5 -85q-120 0 -212.5 83.5t-92.5 211.5v465z" />
    <glyph glyph-name="d" unicode="d" horiz-adv-x="731" 
d="M492 815q0 68 -27 113t-57 45q-43 0 -43 -74v-786q0 -36 12 -56t31 -20q31 0 57.5 46.5t26.5 119.5v612zM782 0h-290v78q-31 -86 -119 -86q-39 0 -81 17t-78 48t-59.5 80.5t-23.5 108.5v508q0 112 73.5 190t166.5 78q89 0 121 -90v467h-68v33h293v-1399h65v-33z" />
    <glyph glyph-name="e" unicode="e" horiz-adv-x="706" 
d="M131 737q0 115 85.5 202t207.5 87q120 0 206.5 -84.5t86.5 -206.5v-235h-350v-357q0 -63 16.5 -90.5t67.5 -27.5q89 0 161 73.5t72 177.5v95h33v-97q0 -112 -79 -197t-202 -85q-125 0 -215 86.5t-90 206.5v452zM367 897v-365h114v365q0 96 -53 96q-61 0 -61 -96z" />
    <glyph glyph-name="f" unicode="f" horiz-adv-x="684" 
d="M61 0v33h66v948h-102v33h102v188q0 117 78 179.5t215 62.5q127 0 194.5 -53t67.5 -136q0 -64 -35.5 -101t-82.5 -35.5t-81 38.5q-56 60 -12 150q24 54 13.5 79t-46.5 25q-20 0 -35 -6.5t-24 -20t-14.5 -25.5t-7.5 -32t-2.5 -31t-0.5 -30v-252h152v-33h-152v-948h66v-33
h-359z" />
    <glyph glyph-name="g" unicode="g" horiz-adv-x="780" 
d="M33 596v139q0 70 34 136t101 110.5t149 44.5q88 0 162 -49q0 29 17 63q22 40 60.5 65t78.5 25q52 0 86 -40q29 -38 25.5 -73t-30 -60t-59.5 -25q-38 0 -63 35q-52 71 -78 20q-12 -18 -8 -29q110 -88 110 -217v-149q0 -129 -84 -214t-198 -85q-80 0 -148 39
q-84 -69 -75 -110.5t114 -41.5h297q85 0 136 -62.5t51 -150.5q0 -58 -24 -113t-70.5 -103t-127.5 -77.5t-184 -29.5q-147 0 -230 56t-83 126q0 43 34 77.5t97 49.5q-80 29 -104 103.5t15 158t128 133.5q-129 89 -129 248zM268 926v-535q0 -65 60 -65q55 0 55 65v535
q0 29 -14 48t-43 19q-58 0 -58 -67zM117 -160q0 -59 56.5 -105t168.5 -46q115 0 176.5 49.5t61.5 109.5q0 38 -26.5 64.5t-70.5 26.5h-270q-43 0 -69.5 -29t-26.5 -70z" />
    <glyph glyph-name="h" unicode="h" 
d="M41 0v33h68v1378h-68v33h293v-543q46 121 155 121q33 0 67 -13t65 -37.5t51 -68.5t20 -100v-770h68v-33h-352v33h51v862q0 66 -27 66q-32 0 -65 -55t-33 -128v-745h51v-33h-344z" />
    <glyph glyph-name="i" unicode="i" horiz-adv-x="393" 
d="M94 1278q0 54 36 90.5t91 36.5t92 -36.5t37 -90.5q0 -56 -37 -92.5t-92 -36.5t-91 36.5t-36 92.5zM41 0v33h68v948h-68v33h293v-981h65v-33h-358z" />
    <glyph glyph-name="j" unicode="j" horiz-adv-x="647" 
d="M340 1278q0 54 36 90.5t91 36.5q54 0 90.5 -36.5t36.5 -90.5q0 -55 -36.5 -92t-90.5 -37q-55 0 -91 36.5t-36 92.5zM580 -113q0 -124 -81.5 -183.5t-217.5 -59.5q-66 0 -121.5 18t-95 61.5t-39.5 106.5q0 45 19.5 78.5t48.5 48t62.5 11t59.5 -26.5q25 -22 33 -53.5
t3.5 -58t-15.5 -50.5q-23 -40 -17.5 -63t19.5 -31.5t34 -8.5q43 0 62.5 45.5t19.5 104.5v1155h-67v33h293v-1127z" />
    <glyph glyph-name="k" unicode="k" horiz-adv-x="837" 
d="M51 0v33h68v1366h-78v33h381v-33h-78v-785l234 367h-54v33h162v-33h-70l-108 -172l256 -776h74v-33h-373v33h65l-186 571v-571h78v-33h-371z" />
    <glyph glyph-name="l" unicode="l" horiz-adv-x="393" 
d="M41 0v33h68v1378h-68v33h293v-1411h65v-33h-358z" />
    <glyph glyph-name="m" unicode="m" horiz-adv-x="1093" 
d="M25 0v33h67v948h-67v33h292v-113q42 121 148 121q60 0 118.5 -39.5t78.5 -112.5q18 71 59 111.5t100 40.5q75 0 140 -57.5t65 -161.5v-770h66v-33h-351v33h52v841q0 89 -31 89q-27 0 -58.5 -58t-31.5 -127v-745h51v-33h-336v33h51v862q0 68 -30 68q-26 0 -58.5 -58.5
t-32.5 -126.5v-745h52v-33h-344z" />
    <glyph glyph-name="n" unicode="n" 
d="M25 0v33h67v948h-67v33h292v-115q49 123 158 123q33 0 67 -12t67 -36t54 -69t21 -102v-770h68v-33h-355v33h52v852q0 78 -33 78q-31 0 -65 -59t-34 -126v-745h52v-33h-344z" />
    <glyph glyph-name="o" unicode="o" horiz-adv-x="733" 
d="M131 281v448q0 124 90 210.5t209 86.5t211 -87t92 -210v-448q0 -121 -89.5 -205t-207.5 -84q-119 0 -212 84.5t-93 204.5zM367 897v-784q0 -38 20 -64t49 -26q26 0 44 26t18 64v784q0 38 -19 66t-45 28q-29 0 -48 -27.5t-19 -66.5z" />
    <glyph glyph-name="p" unicode="p" horiz-adv-x="737" 
d="M334 193q0 -67 26.5 -109.5t55.5 -42.5q43 0 43 74v786q0 78 -43 78q-31 0 -56.5 -43t-25.5 -117v-626zM41 -315h68v1296h-68v33h293v-78q32 88 119 88q88 0 163.5 -73t75.5 -193v-496q0 -106 -72 -188t-167 -82q-90 0 -119 88v-395h65v-33h-358v33z" />
    <glyph glyph-name="q" unicode="q" horiz-adv-x="731" 
d="M492 193v626q0 74 -26.5 117t-57.5 43q-19 0 -31 -21t-12 -57v-786q0 -74 43 -74q31 0 57.5 42.5t26.5 109.5zM492 -315v395q-32 -88 -121 -88q-94 0 -167 82t-73 188v496q0 81 38.5 144t92.5 92.5t111 29.5q87 0 119 -88v78h290v-33h-65v-1296h65v-33h-358v33h68z" />
    <glyph glyph-name="r" unicode="r" horiz-adv-x="665" 
d="M25 0v33h67v948h-67v33h292v-101q34 97 136 97q81 0 142.5 -55.5t61.5 -143.5q0 -68 -34 -106.5t-95 -38.5q-44 0 -72.5 21t-37.5 52.5t-5.5 67t19.5 65.5q7 14 11.5 30t5 32t-8.5 26t-28 9q-33 -1 -56 -37.5t-31 -76.5t-8 -73v-749h66v-33h-358z" />
    <glyph glyph-name="s" unicode="s" horiz-adv-x="663" 
d="M74 307v-135q0 -60 56 -100.5t122 -40.5q36 0 60.5 14.5t35 44t-3 81.5t-53.5 120q-66 113 -201 338q-55 93 -52 166.5t46 125t104.5 78.5t124.5 27q88 0 152 -49q15 0 24 2t16 10.5t7 24.5h35v-277h-35v68q0 84 -44.5 128t-105.5 44q-42 0 -73.5 -22t-39.5 -67.5
t32 -113.5q47 -82 98 -170t94 -162t57 -98q54 -101 30 -181t-99.5 -129.5t-167.5 -49.5q-104 0 -178 51q-41 0 -41 -35h-33v307h33z" />
    <glyph glyph-name="t" unicode="t" horiz-adv-x="512" 
d="M25 981v33h102v233l227 84v-317h154v-33h-154v-856q0 -90 47 -90q26 0 48 26.5t22 77.5h33q0 -76 -41 -113.5t-113 -37.5q-38 0 -74 10.5t-71 34t-56.5 69t-21.5 107.5v772h-102z" />
    <glyph glyph-name="u" unicode="u" 
d="M752 33v-33h-293v115q-49 -123 -158 -123q-33 0 -67 12t-67 36t-54 69t-21 102v770h-67v33h303v-885q0 -78 28 -78q35 0 69 60.5t34 124.5v745h-68v33h293v-981h68z" />
    <glyph glyph-name="v" unicode="v" horiz-adv-x="673" 
d="M401 0h-24l-264 981h-72v33h373v-33h-62l121 -438l92 442h-63v29h172v-33h-72z" />
    <glyph glyph-name="w" unicode="w" horiz-adv-x="1087" 
d="M401 0h-24l-262 981h-74v33h373v-33h-60l123 -442l74 348l-25 94h-71v33h372v-33h-61l121 -434l90 434h-62v33h172v-33h-73l-201 -981h-25l-217 807z" />
    <glyph glyph-name="x" unicode="x" horiz-adv-x="733" 
d="M47 0v33h74l166 428l-170 520h-72v33h365v-33h-60l84 -254l103 254h-60v33h172v-33h-76l-122 -305l211 -643h73v-33h-366v33h59l-121 368l-149 -368h59v-33h-170z" />
    <glyph glyph-name="y" unicode="y" horiz-adv-x="714" 
d="M358 -244q-18 -73 -57 -110t-84 -37q-44 0 -75 32t-31 87q0 52 35.5 81t113.5 41q26 6 41 11t34.5 23.5t26.5 47.5l17 72l-264 977h-74v33h373v-33h-60l146 -455l104 455h-61v33h172v-33h-72z" />
    <glyph glyph-name="z" unicode="z" horiz-adv-x="661" 
d="M573 246h33v-246h-581l317 979h-94q-38 0 -58 -4.5t-36.5 -21.5t-22.5 -50.5t-6 -91.5h-33v203h512l-315 -979h172q36 0 54.5 5t33.5 26.5t19.5 63t4.5 116.5z" />
    <glyph glyph-name="braceleft" unicode="{" horiz-adv-x="675" 
d="M205 719h-29v24h29q36 0 57.5 9.5t30 29t10.5 34t2 40.5v430q0 157 48 219t157 62h164v-33h-2q-70 0 -95.5 -34.5t-25.5 -98.5v-383q0 -69 -20.5 -121.5t-52.5 -83.5t-76.5 -50t-86 -25.5t-88.5 -6.5q47 0 88.5 -6.5t86 -25.5t76.5 -50t52.5 -83.5t20.5 -121.5v-383
q0 -64 25.5 -98.5t95.5 -34.5h2v-32h-164q-109 0 -157 61.5t-48 218.5v430q0 26 -2 40.5t-10.5 34t-30 29t-57.5 9.5z" />
    <glyph glyph-name="bar" unicode="|" horiz-adv-x="350" 
d="M176 -61v1554h174v-1554h-174z" />
    <glyph glyph-name="braceright" unicode="}" horiz-adv-x="675" 
d="M623 731q-46 0 -87 6.5t-85.5 25.5t-76.5 50t-52.5 83.5t-20.5 121.5v383q0 64 -26.5 98.5t-96.5 34.5h-2v33h166q109 0 157 -62t48 -219v-430q0 -26 2 -40.5t10.5 -34t30 -29t57.5 -9.5h27v-24h-27q-36 0 -57.5 -9.5t-30 -29t-10.5 -34t-2 -40.5v-430q0 -157 -48 -218.5
t-157 -61.5h-166v32h2q70 0 96.5 34.5t26.5 98.5v383q0 69 20.5 121.5t52.5 83.5t76.5 50t85.5 25.5t87 6.5z" />
    <glyph glyph-name="asciitilde" unicode="~" horiz-adv-x="800" 
d="M176 676q10 31 16.5 49.5t21 47.5t30 47t41 35t55.5 24q42 11 85.5 0.5t73.5 -27.5t66 -33t62 -16q29 0 51.5 4.5t36.5 10.5t26 16.5t18 18.5t14 20t13 18l15 -4q-8 -73 -43.5 -130t-100.5 -79q-41 -15 -89 -5.5t-82 27t-77 35t-75 17.5q-93 0 -144 -82z" />
    <glyph glyph-name="uni00A0" unicode="&#xa0;" horiz-adv-x="348" 
 />
    <glyph glyph-name="exclamdown" unicode="&#xa1;" horiz-adv-x="434" 
d="M430 899q0 -55 -36 -91t-91 -36q-54 0 -90.5 36t-36.5 91t36.5 91t90.5 36q55 0 91 -36t36 -91zM322 713q9 -197 54.5 -477t53.5 -472q3 -74 -62.5 -104t-131 0t-62.5 104q7 195 53 475.5t56 473.5h39z" />
    <glyph glyph-name="cent" unicode="&#xa2;" horiz-adv-x="761" 
d="M176 752q0 95 74.5 175.5t191.5 94.5v78h33v-74h17q109 0 186.5 -58t77.5 -159q0 -70 -38.5 -106.5t-90.5 -36.5q-44 0 -77 22t-44 65.5t20 108.5q24 48 18.5 77.5t-22 41.5t-39.5 12h-8v-968h17q90 0 163.5 73.5t73.5 177.5v95h33v-97q0 -112 -79.5 -197t-201.5 -85h-6
v-62h-33v64q-109 13 -187.5 94t-78.5 199v465zM410 143q3 -88 32 -106v942q-30 -23 -30 -80z" />
    <glyph glyph-name="sterling" unicode="&#xa3;" horiz-adv-x="854" 
d="M184 764v24h103v414q0 104 79.5 173t217.5 69q125 0 197.5 -58t72.5 -153q0 -47 -18.5 -80.5t-45 -47.5t-58 -12.5t-56.5 19.5q-30 21 -40.5 55.5t-6 62t15.5 48.5q28 60 15 99.5t-62 39.5q-41 0 -59.5 -26.5t-18.5 -65.5v-537h205v-24h-205v-113q0 -270 -127 -440
q9 4 31 8q43 9 81 -1t60.5 -24.5t61 -17.5t82.5 19l39 18l47 -160l-25 -20q-41 -30 -83 -38t-79.5 1t-71.5 22.5t-72.5 26t-68.5 12.5q-80 0 -188 -55l-31 72q69 94 90 184.5t21 310.5v195h-103z" />
    <glyph glyph-name="currency" unicode="&#xa4;" horiz-adv-x="843" 
d="M176 696q0 120 84 217l-80 80l29 33l82 -82q96 86 219 86q122 0 219 -84l80 80l31 -33l-80 -80q84 -97 84 -217q0 -123 -86 -219l82 -80l-31 -28l-82 77q-94 -84 -217 -84t-217 84l-82 -77l-29 28l80 80q-86 96 -86 219zM229 696q0 -123 79 -201.5t202 -78.5t202 78.5
t79 201.5t-79 202t-202 79t-202 -79t-79 -202z" />
    <glyph glyph-name="yen" unicode="&#xa5;" horiz-adv-x="872" 
d="M322 0v33h79v450h-120v45h120v95h-120v43h116l-231 737h-84v29h412v-29h-74l205 -651h2l127 651h-74v29h192v-29h-81l-142 -737h125v-43h-127v-95h127v-45h-127v-450h76v-33h-401z" />
    <glyph glyph-name="brokenbar" unicode="&#xa6;" horiz-adv-x="309" 
d="M176 1493h133v-657h-133v657zM309 -61h-133v661h133v-661z" />
    <glyph glyph-name="section" unicode="&#xa7;" horiz-adv-x="833" 
d="M72 98v-135q0 -60 57 -100.5t123 -40.5q36 0 60.5 14.5t35 44t-3 81.5t-53.5 120q-155 263 -201 338q-55 93 -52 166.5t46 125t104.5 78.5t124.5 27q45 0 95 -16q-88 150 -148 246q-55 93 -52 166.5t46 125t105 78.5t126 27q88 0 152 -49q47 0 47 37h33v-277h-33v68
q0 84 -44 128t-105 44q-43 0 -74.5 -22t-40 -67.5t30.5 -113.5q59 -101 249 -430q54 -101 30.5 -181t-99 -130t-168.5 -50q-47 0 -96 15q35 -60 90.5 -156.5t72.5 -124.5q54 -101 30 -181t-99.5 -129.5t-167.5 -49.5q-107 0 -178 51q-27 -1 -35 -9.5t-8 -25.5h-33v307h33z
M281 565q8 -15 18 -31.5t21.5 -36.5t17.5 -30q40 -18 84 -18q37 0 61.5 14.5t35 44t-3.5 81.5t-54 120q-15 25 -25 41q-34 18 -74 18q-42 0 -73.5 -22t-39.5 -67.5t32 -113.5z" />
    <glyph glyph-name="dieresis" unicode="&#xa8;" horiz-adv-x="342" 
d="M-37 1257q0 34 22 55t56 21q35 0 57.5 -21t22.5 -55q0 -35 -22.5 -57t-57.5 -22q-34 0 -56 22t-22 57zM184 1257q0 34 22 55t56 21q35 0 57.5 -21t22.5 -55q0 -35 -22.5 -57t-57.5 -22q-34 0 -56 22t-22 57z" />
    <glyph glyph-name="copyright" unicode="&#xa9;" horiz-adv-x="1538" 
d="M176 705q0 216 85 381t239.5 255.5t355.5 90.5q307 0 494.5 -200t187.5 -527t-187.5 -527.5t-494.5 -200.5q-201 0 -355.5 90.5t-239.5 256t-85 381.5zM303 705q0 -205 65.5 -361.5t191.5 -245t296 -88.5q171 0 298 88.5t193 245t66 361.5t-66 361.5t-193 244.5t-298 88
q-170 0 -296 -88t-191.5 -244.5t-65.5 -361.5zM565 948q0 105 90.5 190t225.5 85q109 0 186.5 -58t77.5 -159q0 -70 -38.5 -107t-90.5 -37q-43 0 -76.5 22.5t-44.5 66t20 108.5q24 48 18.5 77.5t-22 41.5t-39.5 12q-34 0 -52.5 -27.5t-18.5 -66.5v-756q0 -67 18.5 -93
t61.5 -26q90 0 163.5 74t73.5 178v94h33v-96q0 -112 -79.5 -197.5t-201.5 -85.5q-120 0 -212.5 83.5t-92.5 211.5v465z" />
    <glyph glyph-name="ordfeminine" unicode="&#xaa;" horiz-adv-x="600" 
d="M393 1210v152q0 55 -47 55q-16 0 -24.5 -8t-8 -20.5t3 -23.5t7.5 -22q10 -24 11.5 -50.5t-17.5 -48t-54 -21.5q-38 0 -58 24.5t-20 61.5q0 61 49 95t121 34q88 0 133.5 -48t45.5 -122v-361q0 -53 20 -53q10 0 17.5 12.5t7.5 26.5h20q0 -38 -28 -60t-72 -22q-36 0 -66 18
t-39 50q-25 -66 -96 -66q-45 0 -84 32t-39 95v70q0 52 26.5 86t59.5 46.5t73 30t58 37.5zM393 1186q-7 -8 -29.5 -22t-34.5 -32.5t-12 -50.5v-182q0 -22 8 -33.5t19 -11.5q18 0 33.5 27t15.5 63v242z" />
    <glyph glyph-name="guillemotleft" unicode="&#xab;" horiz-adv-x="778" 
d="M176 625v6q19 10 59.5 35.5t99.5 66.5t103 88t47 82h27q-12 -87 -43 -150.5t-94 -121.5v-6q62 -57 93.5 -121t43.5 -152h-27q-4 46 -80.5 113.5t-136.5 105t-92 54.5zM442 625v6q20 10 60.5 35t100 66.5t103 88.5t46.5 82h26q-12 -87 -43 -150.5t-94 -121.5v-6
q62 -57 93.5 -121t43.5 -152h-26q-3 35 -46.5 82.5t-103 88.5t-100 66.5t-60.5 35.5z" />
    <glyph glyph-name="logicalnot" unicode="&#xac;" horiz-adv-x="991" 
d="M991 436h-133v234h-682v123h815v-357z" />
    <glyph glyph-name="uni00AD" unicode="&#xad;" horiz-adv-x="804" 
d="M176 840h629v-113h-629v113z" />
    <glyph glyph-name="registered" unicode="&#xae;" horiz-adv-x="720" 
d="M176 1192q0 107 77 179.5t200 72.5q124 0 196 -72t72 -180q0 -107 -72.5 -179.5t-195.5 -72.5t-200 73t-77 179zM238 1192q0 -102 51.5 -165.5t163.5 -63.5q206 0 206 229t-206 229q-112 0 -163.5 -63t-51.5 -166zM473 1245v60q0 34 -24 34h-15v-129h17q22 0 22 35z
M342 1028v21h23v290h-23v21h113q36 0 61 -21.5t25 -48.5v-30q0 -26 -22 -48t-50 -22q17 0 37.5 -12.5t25.5 -38.5l15 -90h24v-21h-90l-22 125q-3 23 -8 30t-15 7h-2v-141h21v-21h-113z" />
    <glyph glyph-name="macron" unicode="&#xaf;" horiz-adv-x="528" 
d="M526 1352v-62h-350v62h350z" />
    <glyph glyph-name="degree" unicode="&#xb0;" horiz-adv-x="395" 
d="M285 1212q-43 0 -76 33t-33 76q0 45 33 78t76 33q46 0 78 -32.5t32 -78.5q0 -43 -32.5 -76t-77.5 -33zM285 1380q-23 0 -39.5 -17t-16.5 -42q0 -23 16.5 -39t39.5 -16q25 0 42 16t17 39q0 25 -17 42t-42 17z" />
    <glyph glyph-name="plusminus" unicode="&#xb1;" horiz-adv-x="806" 
d="M176 774h256v281h115v-281h258v-102h-258v-269h-115v269h-256v102zM176 356h629v-112h-629v112z" />
    <glyph glyph-name="twosuperior" unicode="&#xb2;" horiz-adv-x="471" 
d="M252 1274q-31 -12 -53.5 9.5t-22.5 57.5q0 44 35 69.5t94 25.5q66 0 102.5 -31.5t41 -77.5t-9 -93.5t-40.5 -82.5q-15 -19 -53 -55.5t-67.5 -67t-56.5 -82t-32 -108.5h3q9 32 35.5 65t66.5 33q21 0 55.5 -17t59.5 -18q11 -1 19.5 0.5t13.5 4.5t9 7.5t5.5 8.5t2.5 10t1 9
v8v5h8q13 -105 -47 -137q-20 -12 -45.5 -8t-44.5 14t-44 20.5t-42 10.5q-40 0 -60 -39h-2q0 51 7.5 98.5t15.5 78.5t25 67t25.5 50t27.5 42.5t20 30.5q17 30 28 64t13.5 64.5t-1.5 55.5t-15.5 40t-28.5 15q-7 0 -13 -2t-14 -12.5t0 -32.5q0 -1 3.5 -15.5t4 -19.5t1 -17.5
t-2.5 -19.5t-10 -15t-18 -13z" />
    <glyph glyph-name="threesuperior" unicode="&#xb3;" horiz-adv-x="464" 
d="M270 1141h43q27 0 35 16.5t8 56.5v148q0 57 -49 59q-46 0 -35 -45q1 -6 5 -20.5t5 -23t0.5 -20.5t-8 -20.5t-22.5 -15.5q-29 -11 -52.5 7.5t-23.5 57.5q0 42 34 68.5t87 26.5q65 0 112.5 -37.5t47.5 -100.5v-51q0 -89 -88 -112q44 -10 70 -38t26 -73v-74
q0 -62 -48.5 -101.5t-111.5 -39.5q-48 0 -85.5 23.5t-37.5 72.5q0 42 26 59t56 3q13 -6 20 -14t7 -20.5t-1 -20t-5.5 -24t-5.5 -22.5q-3 -18 5 -30.5t27 -12.5q51 0 51 58v172q0 75 -49 75h-43v13z" />
    <glyph glyph-name="acute" unicode="&#xb4;" horiz-adv-x="258" 
d="M59 1163h-10q39 64 55 111.5t21 103.5h133q-63 -135 -199 -215z" />
    <glyph glyph-name="mu" unicode="&#xb5;" 
d="M92 -348v1329h-67v33h303v-885q0 -78 28 -78q35 0 69 60.5t34 124.5v745h-68v33h293v-981h68v-33h-293v115q-42 -105 -131 -121v-342h-236z" />
    <glyph glyph-name="paragraph" unicode="&#xb6;" horiz-adv-x="944" 
d="M471 -217q-110 0 -182.5 61.5t-75.5 155.5q-1 45 18.5 81t49.5 55t68 19t71 -22q39 -27 42.5 -66t-15.5 -95t-21 -76q-4 -76 53 -78q28 -3 58 10q21 16 25.5 42.5t4.5 100.5v852h-86q-138 0 -221.5 83.5t-83.5 221.5q0 137 83.5 220.5t221.5 83.5h463v-33h-82v-1186
q0 -105 -30 -186t-73 -125.5t-99.5 -73t-101.5 -37t-87 -8.5zM596 -31q0 -79 -8 -104q69 73 69 219v1315h-61v-1430z" />
    <glyph glyph-name="periodcentered" unicode="&#xb7;" horiz-adv-x="368" 
d="M176 633q0 41 27.5 68.5t68.5 27.5q40 0 67.5 -27.5t27.5 -68.5t-27.5 -67.5t-67.5 -26.5q-41 0 -68.5 26.5t-27.5 67.5z" />
    <glyph glyph-name="cedilla" unicode="&#xb8;" horiz-adv-x="335" 
d="M53 -197l19 19q22 -41 76.5 -53.5t76.5 30.5q6 13 7.5 30.5t-3 36.5t-24 31.5t-51.5 12.5h-33l53 98h29l-29 -67q60 9 112 -22.5t52 -86.5q0 -57 -58 -86t-127.5 -14t-99.5 71z" />
    <glyph glyph-name="onesuperior" unicode="&#xb9;" horiz-adv-x="376" 
d="M193 831h43v539q-10 -4 -23 -8t-22.5 -6.5t-10.5 -3.5l-4 14q69 19 125 66h31v-601h45v-14h-184v14z" />
    <glyph glyph-name="ordmasculine" unicode="&#xba;" horiz-adv-x="538" 
d="M176 989v268q0 74 54 126.5t126 52.5q71 0 126 -53t55 -126v-268q0 -73 -54 -123.5t-125 -50.5t-126.5 50.5t-55.5 123.5zM317 1358v-471q0 -23 12 -38t29 -15q15 0 26 15t11 38v471q0 23 -11 39t-26 16q-18 0 -29.5 -15.5t-11.5 -39.5z" />
    <glyph glyph-name="guillemotright" unicode="&#xbb;" horiz-adv-x="778" 
d="M512 625q-32 -17 -92 -54.5t-136.5 -105t-80.5 -113.5h-27q12 88 43.5 152t93.5 121v6q-63 58 -94 121.5t-43 150.5h27q3 -35 47 -82t103 -88t99.5 -66.5t59.5 -35.5v-6zM778 625q-32 -17 -92 -54.5t-136.5 -105t-80.5 -113.5h-27q12 87 44 151.5t94 121.5v6
q-62 59 -94 122.5t-44 149.5h27q3 -35 47 -82t103 -88t99.5 -66.5t59.5 -35.5v-6z" />
    <glyph glyph-name="onequarter" unicode="&#xbc;" horiz-adv-x="831" 
d="M313 0l318 1432h84l-318 -1432h-84zM193 831h43v539q-10 -4 -23 -8t-22.5 -6.5t-10.5 -3.5l-4 14q69 19 125 66h31v-601h45v-14h-184v14zM690 406h-4l-102 -279v-2h106v281zM657 14h33v99h-125v10l180 493h41v-491h45v-12h-45v-99h33v-14h-162v14z" />
    <glyph glyph-name="onehalf" unicode="&#xbd;" horiz-adv-x="878" 
d="M289 0l317 1432h84l-317 -1432h-84zM193 831h43v539q-10 -4 -23 -8t-22.5 -6.5t-10.5 -3.5l-4 14q69 19 125 66h31v-601h45v-14h-184v14zM657 465q-31 -12 -53 9t-22 58q0 43 35.5 68t95.5 25q73 0 108 -37.5t35 -95.5q0 -85 -53 -152q-14 -19 -51.5 -55.5t-66.5 -67
t-55.5 -82t-31.5 -108.5v2q36 98 102 98q22 0 54 -16q44 -19 61 -19q25 -1 37 8.5t13 18t1 26.5h8q4 -14 4.5 -36t-11.5 -54.5t-40 -46.5q-37 -19 -104 12q-6 2 -18 7.5t-18.5 8t-16 5t-17.5 2.5q-41 0 -61 -39h-2q0 60 8 112t25.5 96t28.5 66t34.5 58.5t24.5 38.5
q43 70 43 151q0 37 -12.5 60.5t-36.5 23.5q-32 0 -25 -45q0 -2 3 -13.5t3.5 -16t1.5 -15.5t-0.5 -17.5t-4.5 -14.5t-9.5 -13.5t-16.5 -9.5z" />
    <glyph glyph-name="threequarters" unicode="&#xbe;" horiz-adv-x="794" 
d="M225 1141h43q27 0 35 16.5t8 56.5v148q0 59 -47 59q-45 0 -37 -45q1 -6 5 -20t5.5 -23t1 -20.5t-8.5 -20.5t-23 -16q-28 -12 -52 7t-24 58q0 42 34 68.5t87 26.5q66 0 113 -37.5t47 -100.5v-51q0 -92 -88 -112q44 -10 70 -38t26 -73v-74q0 -62 -48 -101.5t-110 -39.5
q-48 0 -85.5 23.5t-37.5 72.5q0 42 26 59t56 3q12 -6 19 -14t7 -20.5t-0.5 -19.5t-5 -25l-5.5 -22q-5 -18 3 -30.5t29 -12.5q51 0 51 58v172q0 75 -51 75h-43v13zM319 0l318 1432h84l-320 -1432h-82zM653 406h-2l-104 -279v-2h106v281zM621 14h32v99h-125v10l181 493h41
v-491h45v-12h-45v-99h32v-14h-161v14z" />
    <glyph glyph-name="questiondown" unicode="&#xbf;" horiz-adv-x="815" 
d="M731 899q0 -55 -35.5 -91t-91.5 -36t-92.5 36t-36.5 91t36.5 91t92.5 36t91.5 -36t35.5 -91zM639 25q76 28 126 -20t50 -134q0 -108 -88 -163.5t-219 -55.5q-163 0 -247.5 82t-84.5 203q0 70 14 136t33.5 116t56.5 103.5t66 88t79.5 79.5t79.5 69t83 65v129h33v-342
q-16 -14 -29.5 -27t-49 -60.5t-59.5 -97t-44.5 -130.5t-20.5 -168q0 -212 100 -215q16 0 31.5 4.5t30.5 21.5t16 45q1 21 -7 55.5t-15 63.5t-7.5 59.5t17 55t55.5 37.5z" />
    <glyph glyph-name="Agrave" unicode="&#xc0;" horiz-adv-x="884" 
d="M516 1513q-62 36 -115 91.5t-84 121.5h134q9 -106 75 -213h-10zM82 33h82l262 1399h51l324 -1399h84v-33h-416v33h80l-94 403h-179l-75 -403h75v-33h-194v33zM283 469h163l-92 387z" />
    <glyph glyph-name="Aacute" unicode="&#xc1;" horiz-adv-x="884" 
d="M385 1513h-8q37 61 53 108.5t23 104.5h133q-31 -66 -84.5 -121.5t-116.5 -91.5zM82 33h82l262 1399h51l324 -1399h84v-33h-416v33h80l-94 403h-179l-75 -403h75v-33h-194v33zM283 469h163l-92 387z" />
    <glyph glyph-name="Acircumflex" unicode="&#xc2;" horiz-adv-x="884" 
d="M279 1516l-3 2q128 111 168 231h5q2 -13 13 -39t52 -83t102 -109l-4 -2q-111 23 -168 90q-8 -12 -22.5 -25t-54 -34t-88.5 -31zM82 33h82l262 1399h51l324 -1399h84v-33h-416v33h80l-94 403h-179l-75 -403h75v-33h-194v33zM283 469h163l-92 387z" />
    <glyph glyph-name="Atilde" unicode="&#xc3;" horiz-adv-x="884" 
d="M621 1675q-7 -141 -93 -141q-31 0 -86.5 29.5t-83.5 29.5q-53 0 -77 -61l-9 2q6 61 37 97.5t68 39.5q33 3 93 -26t77 -29q33 0 67 61zM82 33h82l262 1399h51l324 -1399h84v-33h-416v33h80l-94 403h-179l-75 -403h75v-33h-194v33zM283 469h163l-92 387z" />
    <glyph glyph-name="Adieresis" unicode="&#xc4;" horiz-adv-x="884" 
d="M260 1614q0 34 22 55t56 21t57 -21.5t23 -54.5q0 -35 -23 -57.5t-57 -22.5t-56 22.5t-22 57.5zM479 1614q0 33 22.5 54.5t55.5 21.5q35 0 57.5 -21t22.5 -55q0 -35 -22.5 -57.5t-57.5 -22.5q-33 0 -55.5 22.5t-22.5 57.5zM82 33h82l262 1399h51l324 -1399h84v-33h-416v33
h80l-94 403h-179l-75 -403h75v-33h-194v33zM283 469h163l-92 387z" />
    <glyph glyph-name="Aring" unicode="&#xc5;" horiz-adv-x="884" 
d="M346 1616q0 46 28.5 75t74.5 29q45 0 74.5 -29.5t29.5 -74.5q0 -44 -30 -73.5t-74 -29.5q-45 0 -74 29t-29 74zM389 1616q0 -27 16.5 -43.5t43.5 -16.5t44 17t17 43q0 28 -16.5 44.5t-44.5 16.5t-44 -16.5t-16 -44.5zM82 33h82l262 1399h51l324 -1399h84v-33h-416v33h80
l-94 403h-179l-75 -403h75v-33h-194v33zM283 469h163l-92 387z" />
    <glyph glyph-name="AE" unicode="&#xc6;" horiz-adv-x="1148" 
d="M84 33h84l432 1364v2h-76v33h570v-287h-33q0 152 -29 203t-114 51h-72v-651h51q30 0 48.5 2.5t32.5 11.5t21 19.5t11 35.5t5 50t1 71h33v-414h-33q0 46 -1 71t-5 50t-11 36t-21 20t-32.5 11.5t-48.5 2.5h-51v-682h96q58 0 88 26t42.5 90t12.5 189h33v-338h-594v33h76v403
h-266l-127 -403h74l-2 -33h-197zM344 469h256v805z" />
    <glyph glyph-name="Ccedilla" unicode="&#xc7;" horiz-adv-x="708" 
d="M367 -207l18 19q23 -41 78.5 -53.5t75.5 28.5q6 13 7.5 30.5t-3.5 36.5t-24.5 31.5t-51.5 12.5h-31l49 92q-133 15 -221 124t-88 244v725q0 145 102.5 253t239.5 108q95 0 148 -53q16 1 21 10.5t5 30.5h33v-328h-33v119q0 79 -44 133.5t-118 54.5q-66 0 -87 -44t-21 -138
v-1039q0 -97 22.5 -133.5t77.5 -36.5q29 0 55.5 7.5t54 26.5t44 58.5t16.5 96.5v162h33v-371h-33q0 20 -5 29t-21 12q-53 -53 -146 -53h-6l-27 -60q60 9 113 -22t53 -86q0 -57 -58 -85.5t-128 -13t-100 71.5z" />
    <glyph glyph-name="Egrave" unicode="&#xc8;" horiz-adv-x="688" 
d="M420 1513q-62 36 -115 91.5t-84 121.5h133q9 -104 76 -213h-10zM41 0v33h78v1366h-78v33h569v-287h-32q0 152 -28.5 203t-113.5 51h-71v-651h51q19 0 34.5 3t27 6t20.5 12.5t14.5 15.5t9.5 22t6 25t3 31.5t1 34v40.5h35v-414h-35v45t-1 36.5t-2 31.5t-4 24t-7 20
t-10.5 13t-14.5 11t-20 5.5t-25.5 4t-31.5 0.5h-51v-682h96q58 0 88 26t42.5 90t12.5 189h33v-338h-596z" />
    <glyph glyph-name="Eacute" unicode="&#xc9;" horiz-adv-x="688" 
d="M289 1513h-8q37 60 52.5 107.5t22.5 105.5h133q-65 -135 -200 -213zM41 0v33h78v1366h-78v33h569v-287h-32q0 152 -28.5 203t-113.5 51h-71v-651h51q19 0 34.5 3t27 6t20.5 12.5t14.5 15.5t9.5 22t6 25t3 31.5t1 34v40.5h35v-414h-35v45t-1 36.5t-2 31.5t-4 24t-7 20
t-10.5 13t-14.5 11t-20 5.5t-25.5 4t-31.5 0.5h-51v-682h96q58 0 88 26t42.5 90t12.5 189h33v-338h-596z" />
    <glyph glyph-name="Ecircumflex" unicode="&#xca;" horiz-adv-x="688" 
d="M186 1516l-4 2q61 52 102 109t52.5 83t13.5 39h4q40 -120 168 -231l-2 -2q-50 10 -90 31t-55 34.5t-23 24.5q-8 -11 -23 -25t-54.5 -34.5t-88.5 -30.5zM41 0v33h78v1366h-78v33h569v-287h-32q0 152 -28.5 203t-113.5 51h-71v-651h51q19 0 34.5 3t27 6t20.5 12.5
t14.5 15.5t9.5 22t6 25t3 31.5t1 34v40.5h35v-414h-35v45t-1 36.5t-2 31.5t-4 24t-7 20t-10.5 13t-14.5 11t-20 5.5t-25.5 4t-31.5 0.5h-51v-682h96q58 0 88 26t42.5 90t12.5 189h33v-338h-596z" />
    <glyph glyph-name="Edieresis" unicode="&#xcb;" horiz-adv-x="688" 
d="M164 1614q0 34 22 55t56 21t57 -21.5t23 -54.5q0 -35 -23 -57.5t-57 -22.5t-56 22.5t-22 57.5zM383 1614q0 33 22.5 54.5t55.5 21.5q35 0 57.5 -21t22.5 -55q0 -35 -22.5 -57.5t-57.5 -22.5q-33 0 -55.5 22.5t-22.5 57.5zM41 0v33h78v1366h-78v33h569v-287h-32
q0 152 -28.5 203t-113.5 51h-71v-651h51q19 0 34.5 3t27 6t20.5 12.5t14.5 15.5t9.5 22t6 25t3 31.5t1 34v40.5h35v-414h-35v45t-1 36.5t-2 31.5t-4 24t-7 20t-10.5 13t-14.5 11t-20 5.5t-25.5 4t-31.5 0.5h-51v-682h96q58 0 88 26t42.5 90t12.5 189h33v-338h-596z" />
    <glyph glyph-name="Igrave" unicode="&#xcc;" horiz-adv-x="440" 
d="M309 1513q-134 79 -198 213h133q9 -106 75 -213h-10zM41 0v33h78v1366h-78v33h399v-33h-75v-1366h75v-33h-399z" />
    <glyph glyph-name="Iacute" unicode="&#xcd;" horiz-adv-x="440" 
d="M178 1513h-8q37 61 53 108.5t23 104.5h133q-31 -66 -84.5 -121.5t-116.5 -91.5zM41 0v33h78v1366h-78v33h399v-33h-75v-1366h75v-33h-399z" />
    <glyph glyph-name="Icircumflex" unicode="&#xce;" horiz-adv-x="440" 
d="M72 1516l-2 2q128 111 168 231h4q2 -13 13.5 -39t52.5 -83t102 -109l-4 -2q-111 23 -168 90q-8 -11 -23 -25t-54.5 -34.5t-88.5 -30.5zM41 0v33h78v1366h-78v33h399v-33h-75v-1366h75v-33h-399z" />
    <glyph glyph-name="Idieresis" unicode="&#xcf;" horiz-adv-x="440" 
d="M53 1614q0 34 22 55t56 21t57 -21.5t23 -54.5q0 -35 -23 -57.5t-57 -22.5t-56 22.5t-22 57.5zM272 1614q0 33 22.5 54.5t55.5 21.5q35 0 57.5 -21t22.5 -55q0 -35 -22.5 -57.5t-57.5 -22.5q-33 0 -55.5 22.5t-22.5 57.5zM41 0v33h78v1366h-78v33h399v-33h-75v-1366h75
v-33h-399z" />
    <glyph glyph-name="Eth" unicode="&#xd0;" horiz-adv-x="839" 
d="M41 33h78v667h-64v37h64v662h-78v33h412q70 0 143.5 -43t123.5 -117.5t50 -155.5v-786q0 -61 -29 -122t-73.5 -106t-100.5 -73.5t-108 -28.5h-418v33zM367 1399v-662h88v-37h-88v-667h82q42 0 57.5 38.5t15.5 114.5v1061q0 152 -84 152h-71z" />
    <glyph glyph-name="Ntilde" unicode="&#xd1;" horiz-adv-x="794" 
d="M633 1675q-10 -141 -92 -141q-31 0 -87.5 29.5t-84.5 29.5q-50 0 -78 -61l-6 2q4 60 35.5 97t68.5 40q32 3 92 -26t76 -29q39 0 68 61zM41 33h78v1366h-78v33h317l322 -803h2v770h-78v33h189v-33h-76v-1399h-51l-510 1284h-2v-1251h75v-33h-188v33z" />
    <glyph glyph-name="Ograve" unicode="&#xd2;" horiz-adv-x="868" 
d="M590 1513q-134 77 -199 213h133q9 -108 74 -213h-8zM176 356v729q0 143 103 251t241 108q139 0 243.5 -107t104.5 -252v-729q0 -151 -103.5 -259.5t-242.5 -108.5t-242.5 108.5t-103.5 259.5zM424 1249v-1075q0 -80 21.5 -117t76.5 -37q56 0 77.5 36t21.5 118v1075
q0 77 -22 119.5t-77 42.5q-98 0 -98 -162z" />
    <glyph glyph-name="Oacute" unicode="&#xd3;" horiz-adv-x="868" 
d="M459 1513h-8q37 60 52.5 107.5t22.5 105.5h131q-30 -66 -82.5 -121.5t-115.5 -91.5zM176 356v729q0 143 103 251t241 108q139 0 243.5 -107t104.5 -252v-729q0 -151 -103.5 -259.5t-242.5 -108.5t-242.5 108.5t-103.5 259.5zM424 1249v-1075q0 -80 21.5 -117t76.5 -37
q56 0 77.5 36t21.5 118v1075q0 77 -22 119.5t-77 42.5q-98 0 -98 -162z" />
    <glyph glyph-name="Ocircumflex" unicode="&#xd4;" horiz-adv-x="868" 
d="M354 1516l-2 2q128 111 168 231h4q2 -13 13.5 -39t52.5 -83t102 -109l-4 -2q-111 23 -168 90q-8 -11 -23 -25t-54.5 -34.5t-88.5 -30.5zM176 356v729q0 143 103 251t241 108q139 0 243.5 -107t104.5 -252v-729q0 -151 -103.5 -259.5t-242.5 -108.5t-242.5 108.5
t-103.5 259.5zM424 1249v-1075q0 -80 21.5 -117t76.5 -37q56 0 77.5 36t21.5 118v1075q0 77 -22 119.5t-77 42.5q-98 0 -98 -162z" />
    <glyph glyph-name="Otilde" unicode="&#xd5;" horiz-adv-x="868" 
d="M694 1675q-7 -141 -92 -141q-31 0 -87 29.5t-83 29.5q-52 0 -80 -61l-6 2q4 60 36 97t69 40q33 3 93 -26t77 -29q22 0 36.5 15.5t30.5 45.5zM176 356v729q0 143 103 251t241 108q139 0 243.5 -107t104.5 -252v-729q0 -151 -103.5 -259.5t-242.5 -108.5t-242.5 108.5
t-103.5 259.5zM424 1249v-1075q0 -80 21.5 -117t76.5 -37q56 0 77.5 36t21.5 118v1075q0 77 -22 119.5t-77 42.5q-98 0 -98 -162z" />
    <glyph glyph-name="Odieresis" unicode="&#xd6;" horiz-adv-x="868" 
d="M334 1614q0 34 22 55t56 21t57 -21.5t23 -54.5q0 -35 -23 -57.5t-57 -22.5t-56 22.5t-22 57.5zM553 1614q0 33 22.5 54.5t55.5 21.5q35 0 57.5 -21t22.5 -55q0 -35 -22.5 -57.5t-57.5 -22.5q-33 0 -55.5 22.5t-22.5 57.5zM176 356v729q0 143 103 251t241 108
q139 0 243.5 -107t104.5 -252v-729q0 -151 -103.5 -259.5t-242.5 -108.5t-242.5 108.5t-103.5 259.5zM424 1249v-1075q0 -80 21.5 -117t76.5 -37q56 0 77.5 36t21.5 118v1075q0 77 -22 119.5t-77 42.5q-98 0 -98 -162z" />
    <glyph glyph-name="multiply" unicode="&#xd7;" horiz-adv-x="722" 
d="M176 532l197 197l-197 197l78 78l197 -197l196 197l76 -78l-197 -197l197 -197l-76 -75l-196 196l-197 -196z" />
    <glyph glyph-name="Oslash" unicode="&#xd8;" horiz-adv-x="868" 
d="M178 12l62 135q-64 97 -64 209v729q0 143 103 251t241 108q148 0 254 -119l45 100l47 -22l-55 -123q57 -93 57 -195v-729q0 -151 -103.5 -259.5t-242.5 -108.5q-145 0 -246 112l-51 -108zM424 1249v-696l197 434v262q0 77 -22 119.5t-77 42.5q-98 0 -98 -162zM424 174
q0 -80 21.5 -117t76.5 -37q56 0 77.5 36t21.5 118v686l-197 -432v-254z" />
    <glyph glyph-name="Ugrave" unicode="&#xd9;" horiz-adv-x="753" 
d="M489 1513q-134 79 -198 213h133q9 -104 76 -213h-11zM119 1399h-78v33h399v-33h-75v-1202q0 -98 20.5 -136t79.5 -38q28 0 54.5 9.5t56.5 34t48.5 79.5t18.5 133v1120h-76v33h187v-33h-78v-1104q0 -151 -53 -229t-189 -78q-45 0 -87 8.5t-84.5 29t-73.5 52.5t-50.5 83
t-19.5 115v1123z" />
    <glyph glyph-name="Uacute" unicode="&#xda;" horiz-adv-x="753" 
d="M358 1513h-8q37 61 53 108.5t23 104.5h133q-31 -66 -84.5 -121.5t-116.5 -91.5zM119 1399h-78v33h399v-33h-75v-1202q0 -98 20.5 -136t79.5 -38q28 0 54.5 9.5t56.5 34t48.5 79.5t18.5 133v1120h-76v33h187v-33h-78v-1104q0 -151 -53 -229t-189 -78q-45 0 -87 8.5
t-84.5 29t-73.5 52.5t-50.5 83t-19.5 115v1123z" />
    <glyph glyph-name="Ucircumflex" unicode="&#xdb;" horiz-adv-x="753" 
d="M254 1516l-4 2q61 52 102 109t52.5 83t13.5 39h4q40 -120 168 -231l-2 -2q-50 10 -90 31t-55 34.5t-23 24.5q-8 -11 -23 -25t-54.5 -34.5t-88.5 -30.5zM119 1399h-78v33h399v-33h-75v-1202q0 -98 20.5 -136t79.5 -38q28 0 54.5 9.5t56.5 34t48.5 79.5t18.5 133v1120h-76
v33h187v-33h-78v-1104q0 -151 -53 -229t-189 -78q-45 0 -87 8.5t-84.5 29t-73.5 52.5t-50.5 83t-19.5 115v1123z" />
    <glyph glyph-name="Udieresis" unicode="&#xdc;" horiz-adv-x="753" 
d="M233 1614q0 34 22 55t56 21t57 -21.5t23 -54.5q0 -35 -23 -57.5t-57 -22.5t-56 22.5t-22 57.5zM453 1614q0 33 22 54.5t55 21.5q35 0 57.5 -21t22.5 -55q0 -35 -22.5 -57.5t-57.5 -22.5q-33 0 -55 22.5t-22 57.5zM119 1399h-78v33h399v-33h-75v-1202q0 -98 20.5 -136
t79.5 -38q28 0 54.5 9.5t56.5 34t48.5 79.5t18.5 133v1120h-76v33h187v-33h-78v-1104q0 -151 -53 -229t-189 -78q-45 0 -87 8.5t-84.5 29t-73.5 52.5t-50.5 83t-19.5 115v1123z" />
    <glyph glyph-name="Yacute" unicode="&#xdd;" horiz-adv-x="872" 
d="M475 1513h-10q66 107 78 213h131q-60 -131 -199 -213zM322 0v33h79v622l-235 748h-84v29h412v-29h-74l205 -651h2l127 651h-74v29h192v-29h-81l-144 -741v-629h76v-33h-401z" />
    <glyph glyph-name="Thorn" unicode="&#xde;" horiz-adv-x="821" 
d="M508 539v374q0 152 -82 152h-61v-688h67q76 0 76 162zM41 0v33h78v1366h-78v33h324v-334h77q127 0 219.5 -86t92.5 -217v-158q0 -140 -89 -216.5t-221 -76.5h-79v-311h73v-33h-397z" />
    <glyph glyph-name="germandbls" unicode="&#xdf;" horiz-adv-x="970" 
d="M41 0v33h100v688h-100v33h100v391q0 73 28.5 129.5t76.5 90t106.5 50.5t122.5 17q78 0 145 -22t113.5 -73.5t46.5 -124.5q0 -49 -24 -96t-56 -81.5t-77 -88t-74 -102.5q-20 -34 -21.5 -65.5t15 -61.5t42 -59.5t63.5 -65.5t76 -71.5t83.5 -85.5t81.5 -101
q45 -63 37 -125.5t-47.5 -112.5t-102.5 -81t-127 -31q-76 0 -147 45q-33 -4 -33 -29h-33v287h33v-135q0 -51 55 -95.5t111 -44.5q30 0 50.5 17t27.5 54.5t-11 96.5q-15 51 -46 109t-62.5 102t-61 99.5t-46.5 107t-13.5 119t33.5 139.5q90 198 102 352q11 191 -125 191
q-58 0 -87 -35t-29 -115v-1249h-326z" />
    <glyph glyph-name="agrave" unicode="&#xe0;" horiz-adv-x="784" 
d="M510 1096q-62 36 -115 91.5t-84 121.5h133q9 -104 76 -213h-10zM494 649v254q0 42 -20.5 67t-57.5 25q-28 -1 -42 -14.5t-14 -34.5t4.5 -39.5t12.5 -36.5q14 -28 17.5 -62t-5 -65.5t-37 -53t-73.5 -21.5q-64 0 -96.5 41t-32.5 104q0 101 81 157t201 56q147 0 222 -79
t75 -204v-600q0 -90 35 -90q16 0 27.5 20.5t11.5 45.5h35q0 -62 -47 -98.5t-121 -36.5q-60 0 -109.5 29t-62.5 83q-20 -52 -63 -80t-97 -28q-34 0 -68.5 12t-66.5 35.5t-52 66t-20 97.5v114q0 61 20.5 106.5t51.5 70.5t73 46t80.5 34t77 34t60.5 45zM494 608
q-12 -13 -37.5 -30t-42.5 -30t-31 -43t-14 -71v-303q0 -36 12 -55t31 -19q29 0 55.5 45t26.5 105v401z" />
    <glyph glyph-name="aacute" unicode="&#xe1;" horiz-adv-x="784" 
d="M369 1096h-9q37 61 53 108.5t23 104.5h133q-65 -135 -200 -213zM494 649v254q0 42 -20.5 67t-57.5 25q-28 -1 -42 -14.5t-14 -34.5t4.5 -39.5t12.5 -36.5q14 -28 17.5 -62t-5 -65.5t-37 -53t-73.5 -21.5q-64 0 -96.5 41t-32.5 104q0 101 81 157t201 56q147 0 222 -79
t75 -204v-600q0 -90 35 -90q16 0 27.5 20.5t11.5 45.5h35q0 -62 -47 -98.5t-121 -36.5q-60 0 -109.5 29t-62.5 83q-20 -52 -63 -80t-97 -28q-34 0 -68.5 12t-66.5 35.5t-52 66t-20 97.5v114q0 61 20.5 106.5t51.5 70.5t73 46t80.5 34t77 34t60.5 45zM494 608
q-12 -13 -37.5 -30t-42.5 -30t-31 -43t-14 -71v-303q0 -36 12 -55t31 -19q29 0 55.5 45t26.5 105v401z" />
    <glyph glyph-name="acircumflex" unicode="&#xe2;" horiz-adv-x="784" 
d="M264 1096l-4 2q61 53 102 109.5t52.5 82.5t13.5 39h4q39 -117 168 -231l-2 -2q-114 26 -168 90q-53 -64 -166 -90zM494 649v254q0 42 -20.5 67t-57.5 25q-28 0 -42 -13.5t-14 -35t4.5 -40.5t12.5 -36q14 -28 17.5 -62t-5 -65.5t-37 -53t-73.5 -21.5q-64 0 -96.5 41
t-32.5 104q0 101 81 157t201 56q147 0 222 -79t75 -204v-600q0 -90 35 -90q16 0 27.5 20.5t11.5 45.5h35q0 -62 -47 -98.5t-121 -36.5q-60 0 -109.5 29t-62.5 83q-20 -52 -63 -80t-97 -28q-34 0 -68.5 12t-66.5 35.5t-52 66t-20 97.5v114q0 61 20.5 106.5t51.5 70.5t73 46
t80.5 34t77 34t60.5 45zM494 608q-12 -13 -37.5 -30t-42.5 -30t-31 -43t-14 -71v-303q0 -36 12 -55t31 -19q29 0 55.5 45t26.5 105v401z" />
    <glyph glyph-name="atilde" unicode="&#xe3;" horiz-adv-x="784" 
d="M610 1257q-7 -141 -92 -141q-31 0 -86.5 30t-83.5 30q-54 0 -78 -62l-8 2q6 61 37 97.5t68 39.5q31 3 92 -26t78 -29q33 0 67 62zM494 649v254q0 42 -20.5 67t-57.5 25q-28 -1 -42 -14.5t-14 -34.5t4.5 -39.5t12.5 -36.5q14 -28 17.5 -62t-5 -65.5t-37 -53t-73.5 -21.5
q-64 0 -96.5 41t-32.5 104q0 101 81 157t201 56q147 0 222 -79t75 -204v-600q0 -90 35 -90q16 0 27.5 20.5t11.5 45.5h35q0 -62 -47 -98.5t-121 -36.5q-60 0 -109.5 29t-62.5 83q-20 -52 -63 -80t-97 -28q-34 0 -68.5 12t-66.5 35.5t-52 66t-20 97.5v114q0 61 20.5 106.5
t51.5 70.5t73 46t80.5 34t77 34t60.5 45zM494 608q-12 -13 -37.5 -30t-42.5 -30t-31 -43t-14 -71v-303q0 -36 12 -55t31 -19q29 0 55.5 45t26.5 105v401z" />
    <glyph glyph-name="adieresis" unicode="&#xe4;" horiz-adv-x="784" 
d="M244 1196q0 34 22 55t56 21t56.5 -21.5t22.5 -54.5q0 -35 -22.5 -57.5t-56.5 -22.5t-56 22.5t-22 57.5zM463 1196q0 33 22.5 54.5t55.5 21.5q37 0 59.5 -21t22.5 -55q0 -35 -22.5 -57.5t-59.5 -22.5q-33 0 -55.5 22.5t-22.5 57.5zM494 649v254q0 42 -20.5 67t-57.5 25
q-28 -1 -42 -14.5t-14 -34.5t4.5 -39.5t12.5 -36.5q14 -28 17.5 -62t-5 -65.5t-37 -53t-73.5 -21.5q-64 0 -96.5 41t-32.5 104q0 101 81 157t201 56q147 0 222 -79t75 -204v-600q0 -90 35 -90q16 0 27.5 20.5t11.5 45.5h35q0 -62 -47 -98.5t-121 -36.5q-60 0 -109.5 29
t-62.5 83q-20 -52 -63 -80t-97 -28q-34 0 -68.5 12t-66.5 35.5t-52 66t-20 97.5v114q0 61 20.5 106.5t51.5 70.5t73 46t80.5 34t77 34t60.5 45zM494 608q-12 -13 -37.5 -30t-42.5 -30t-31 -43t-14 -71v-303q0 -36 12 -55t31 -19q29 0 55.5 45t26.5 105v401z" />
    <glyph glyph-name="aring" unicode="&#xe5;" horiz-adv-x="784" 
d="M324 1198q0 46 28.5 75.5t73.5 29.5q46 0 75 -29.5t29 -75.5q0 -44 -29 -73t-75 -29q-45 0 -73.5 28.5t-28.5 73.5zM367 1198q0 -26 16.5 -42.5t42.5 -16.5q28 0 44.5 16.5t16.5 42.5q0 28 -16.5 45t-44.5 17q-26 0 -42.5 -17t-16.5 -45zM494 649v254q0 42 -20.5 67
t-57.5 25q-28 -1 -42 -14.5t-14 -34.5t4.5 -39.5t12.5 -36.5q14 -28 17.5 -62t-5 -65.5t-37 -53t-73.5 -21.5q-64 0 -96.5 41t-32.5 104q0 101 81 157t201 56q147 0 222 -79t75 -204v-600q0 -90 35 -90q16 0 27.5 20.5t11.5 45.5h35q0 -62 -47 -98.5t-121 -36.5
q-60 0 -109.5 29t-62.5 83q-20 -52 -63 -80t-97 -28q-34 0 -68.5 12t-66.5 35.5t-52 66t-20 97.5v114q0 61 20.5 106.5t51.5 70.5t73 46t80.5 34t77 34t60.5 45zM494 608q-12 -13 -37.5 -30t-42.5 -30t-31 -43t-14 -71v-303q0 -36 12 -55t31 -19q29 0 55.5 45t26.5 105v401z
" />
    <glyph glyph-name="ae" unicode="&#xe6;" horiz-adv-x="1071" 
d="M494 651v252q0 42 -19.5 66.5t-54.5 23.5q-40 2 -55 -28.5t14 -96.5q40 -88 7 -144t-105 -56q-62 0 -96.5 41t-34.5 104q0 101 81 157t201 56q116 0 191 -53q75 53 165 53q120 0 206.5 -84.5t86.5 -206.5v-235h-350v-357q0 -63 16.5 -90.5t67.5 -27.5q89 0 161.5 73.5
t72.5 177.5v95h32v-97q0 -112 -78.5 -197t-201.5 -85q-96 0 -175 54t-112 140q-1 -94 -51.5 -146t-124.5 -52q-31 0 -64 10.5t-66.5 33t-55 66t-21.5 101.5v114q0 61 21 106.5t53.5 71t74.5 47.5t80.5 35.5t76 33.5t57.5 44zM731 897v-365h115v365q0 96 -53 96
q-32 0 -47 -29t-15 -67zM494 608q-12 -13 -37.5 -30t-42.5 -30t-31 -43t-14 -71v-303q0 -36 12 -55t31 -19q29 0 55.5 45t26.5 105v401z" />
    <glyph glyph-name="ccedilla" unicode="&#xe7;" horiz-adv-x="706" 
d="M319 -205l19 19q24 -42 78 -53.5t78 30.5q5 14 6 31t-4 36t-24.5 31.5t-51.5 12.5h-31l49 90h-2q-120 0 -212.5 83.5t-92.5 211.5v465q0 105 90 189.5t225 84.5q109 0 187 -58t78 -159q0 -70 -38.5 -106.5t-90.5 -36.5q-44 0 -77 22t-44 65.5t20 108.5q24 48 18.5 77.5
t-22 41.5t-39.5 12q-34 0 -52.5 -27.5t-18.5 -66.5v-756q0 -67 18 -92.5t61 -25.5q90 0 164 73.5t74 177.5v95h33v-97q0 -105 -69.5 -187.5t-180.5 -94.5l-25 -60q59 10 110.5 -21.5t51.5 -86.5q0 -58 -58 -87t-127.5 -13.5t-99.5 71.5z" />
    <glyph glyph-name="egrave" unicode="&#xe8;" horiz-adv-x="706" 
d="M492 1096q-62 36 -115 91.5t-84 121.5h133q9 -104 76 -213h-10zM131 737q0 115 85.5 202t207.5 87q120 0 206.5 -84.5t86.5 -206.5v-235h-350v-357q0 -63 16.5 -90.5t67.5 -27.5q89 0 161 73.5t72 177.5v95h33v-97q0 -112 -79 -197t-202 -85q-125 0 -215 86.5t-90 206.5
v452zM367 897v-365h114v365q0 96 -53 96q-61 0 -61 -96z" />
    <glyph glyph-name="eacute" unicode="&#xe9;" horiz-adv-x="706" 
d="M360 1096h-8q37 61 53 108.5t23 104.5h133q-31 -66 -84.5 -121.5t-116.5 -91.5zM131 737q0 115 85.5 202t207.5 87q120 0 206.5 -84.5t86.5 -206.5v-235h-350v-357q0 -63 16.5 -90.5t67.5 -27.5q89 0 161 73.5t72 177.5v95h33v-97q0 -112 -79 -197t-202 -85
q-125 0 -215 86.5t-90 206.5v452zM367 897v-365h114v365q0 96 -53 96q-61 0 -61 -96z" />
    <glyph glyph-name="ecircumflex" unicode="&#xea;" horiz-adv-x="706" 
d="M256 1098l-2 2q129 114 168 231h4q2 -13 13.5 -39t52.5 -82.5t102 -109.5l-4 -2q-101 23 -168 90q-53 -64 -166 -90zM131 737q0 115 85.5 202t207.5 87q120 0 206.5 -84.5t86.5 -206.5v-235h-350v-357q0 -63 16.5 -90.5t67.5 -27.5q89 0 161 73.5t72 177.5v95h33v-97
q0 -112 -79 -197t-202 -85q-125 0 -215 86.5t-90 206.5v452zM367 897v-365h114v365q0 96 -53 96q-61 0 -61 -96z" />
    <glyph glyph-name="edieresis" unicode="&#xeb;" horiz-adv-x="706" 
d="M236 1196q0 34 21.5 55t55.5 21t57 -21.5t23 -54.5q0 -35 -23 -57.5t-57 -22.5t-55.5 22.5t-21.5 57.5zM455 1196q0 33 22 54.5t55 21.5q35 0 57.5 -21t22.5 -55q0 -35 -22.5 -57.5t-57.5 -22.5q-33 0 -55 22.5t-22 57.5zM131 737q0 115 85.5 202t207.5 87
q120 0 206.5 -84.5t86.5 -206.5v-235h-350v-357q0 -63 16.5 -90.5t67.5 -27.5q89 0 161 73.5t72 177.5v95h33v-97q0 -112 -79 -197t-202 -85q-125 0 -215 86.5t-90 206.5v452zM367 897v-365h114v365q0 96 -53 96q-61 0 -61 -96z" />
    <glyph glyph-name="igrave" unicode="&#xec;" horiz-adv-x="393" 
d="M311 1096q-134 79 -198 213h133q9 -104 76 -213h-11zM57 0v33h68v948h-68v33h301v-981h66v-33h-367z" />
    <glyph glyph-name="iacute" unicode="&#xed;" horiz-adv-x="393" 
d="M156 1096h-9q37 61 53 108.5t23 104.5h133q-65 -135 -200 -213zM33 0v33h67v948h-67v33h301v-981h65v-33h-366z" />
    <glyph glyph-name="icircumflex" unicode="&#xee;" horiz-adv-x="393" 
d="M47 1100l-2 2q129 114 168 231h4q2 -13 13.5 -39t52.5 -82.5t102 -109.5l-4 -2q-101 23 -168 90q-53 -64 -166 -90zM33 0v33h67v948h-67v33h301v-981h65v-33h-366z" />
    <glyph glyph-name="idieresis" unicode="&#xef;" horiz-adv-x="391" 
d="M25 1196q0 34 21.5 55t55.5 21t57 -21.5t23 -54.5q0 -35 -23 -57.5t-57 -22.5t-55.5 22.5t-21.5 57.5zM244 1196q0 33 22.5 54.5t55.5 21.5q35 0 57 -21t22 -55q0 -35 -22 -57.5t-57 -22.5q-33 0 -55.5 22.5t-22.5 57.5zM27 0v33h67v948h-67v33h301v-981h65v-33h-366z
" />
    <glyph glyph-name="eth" unicode="&#xf0;" horiz-adv-x="663" 
d="M135 260v492q0 102 81 187t187 85q43 0 78 -14q-4 115 -20 184l-101 -37l-12 35l103 37q-37 120 -146 188l33 17q129 -53 215 -170l117 43l12 -35l-107 -39q133 -204 142 -549v-18v-406q0 -105 -80.5 -188.5t-202.5 -83.5q-118 0 -208.5 78t-90.5 194zM369 922v-830
q0 -30 15.5 -51t43.5 -21q27 0 41 21t14 51v830l-2 6v6q-3 23 -19 39t-38 16q-27 0 -41 -20.5t-14 -46.5z" />
    <glyph glyph-name="ntilde" unicode="&#xf1;" 
d="M549 1257q-7 -141 -92 -141q-31 0 -86.5 30t-83.5 30q-52 0 -80 -62l-6 2q4 60 35.5 97t68.5 40q31 3 92 -26t78 -29q34 0 68 62zM25 0v33h67v948h-67v33h292v-115q49 123 158 123q33 0 67 -12t67 -36t54 -69t21 -102v-770h68v-33h-355v33h52v852q0 78 -33 78
q-31 0 -65 -59t-34 -126v-745h52v-33h-344z" />
    <glyph glyph-name="ograve" unicode="&#xf2;" horiz-adv-x="733" 
d="M500 1096q-134 77 -199 213h133q9 -108 74 -213h-8zM131 281v448q0 124 90 210.5t209 86.5t211 -87t92 -210v-448q0 -121 -89.5 -205t-207.5 -84q-119 0 -212 84.5t-93 204.5zM367 897v-784q0 -38 20 -64t49 -26q26 0 44 26t18 64v784q0 38 -19 66t-45 28
q-29 0 -48 -27.5t-19 -66.5z" />
    <glyph glyph-name="oacute" unicode="&#xf3;" horiz-adv-x="733" 
d="M369 1096h-9q37 61 53 108.5t23 104.5h131q-30 -66 -82.5 -121.5t-115.5 -91.5zM131 281v448q0 124 90 210.5t209 86.5t211 -87t92 -210v-448q0 -121 -89.5 -205t-207.5 -84q-119 0 -212 84.5t-93 204.5zM367 897v-784q0 -38 20 -64t49 -26q26 0 44 26t18 64v784
q0 38 -19 66t-45 28q-29 0 -48 -27.5t-19 -66.5z" />
    <glyph glyph-name="ocircumflex" unicode="&#xf4;" horiz-adv-x="733" 
d="M264 1098l-2 2q128 111 168 231h4q2 -13 13.5 -39t52.5 -83t102 -109l-4 -2q-111 23 -168 90q-8 -11 -23 -25t-54.5 -34.5t-88.5 -30.5zM131 281v448q0 124 90 210.5t209 86.5t211 -87t92 -210v-448q0 -121 -89.5 -205t-207.5 -84q-119 0 -212 84.5t-93 204.5zM367 897
v-784q0 -38 20 -64t49 -26q26 0 44 26t18 64v784q0 38 -19 66t-45 28q-29 0 -48 -27.5t-19 -66.5z" />
    <glyph glyph-name="otilde" unicode="&#xf5;" horiz-adv-x="733" 
d="M604 1257q-7 -141 -92 -141q-31 0 -87 30t-83 30q-52 0 -80 -62l-6 2q4 60 35.5 97t68.5 40q33 3 93 -26t77 -29q15 0 29 10.5t21 21.5t18 30zM131 281v448q0 124 90 210.5t209 86.5t211 -87t92 -210v-448q0 -121 -89.5 -205t-207.5 -84q-119 0 -212 84.5t-93 204.5z
M367 897v-784q0 -38 20 -64t49 -26q26 0 44 26t18 64v784q0 38 -19 66t-45 28q-29 0 -48 -27.5t-19 -66.5z" />
    <glyph glyph-name="odieresis" unicode="&#xf6;" horiz-adv-x="733" 
d="M244 1196q0 34 22 55t56 21t56.5 -21.5t22.5 -54.5q0 -35 -22.5 -57.5t-56.5 -22.5t-56 22.5t-22 57.5zM463 1196q0 33 22.5 54.5t55.5 21.5q35 0 57.5 -21t22.5 -55q0 -35 -22.5 -57.5t-57.5 -22.5q-33 0 -55.5 22.5t-22.5 57.5zM131 281v448q0 124 90 210.5t209 86.5
t211 -87t92 -210v-448q0 -121 -89.5 -205t-207.5 -84q-119 0 -212 84.5t-93 204.5zM367 897v-784q0 -38 20 -64t49 -26q26 0 44 26t18 64v784q0 38 -19 66t-45 28q-29 0 -48 -27.5t-19 -66.5z" />
    <glyph glyph-name="divide" unicode="&#xf7;" horiz-adv-x="911" 
d="M416 1049q0 54 36 90.5t91 36.5t92 -36.5t37 -90.5q0 -55 -37 -92t-92 -37t-91 36.5t-36 92.5zM911 725h-735v113h735v-113zM416 514q0 56 36 91.5t91 35.5q56 0 92.5 -36t36.5 -91t-36.5 -91t-92.5 -36q-55 0 -91 35.5t-36 91.5z" />
    <glyph glyph-name="oslash" unicode="&#xf8;" horiz-adv-x="665" 
d="M76 25l47 86q-62 75 -62 170v448q0 124 90 210.5t209 86.5q115 0 207 -82l37 70l45 -25l-45 -86q60 -79 60 -174v-448q0 -120 -89.5 -204.5t-207.5 -86.5q-115 0 -207 82l-37 -70zM297 897v-457l131 244v213q0 38 -18.5 66t-44.5 28q-29 0 -48.5 -27.5t-19.5 -66.5z
M297 113q0 -38 20.5 -64t49.5 -26q26 0 43.5 26t17.5 64v460l-131 -245v-215z" />
    <glyph glyph-name="ugrave" unicode="&#xf9;" 
d="M428 1096q-134 79 -201 213h135q9 -104 76 -213h-10zM752 33v-33h-293v115q-49 -123 -158 -123q-33 0 -67 12t-67 36t-54 69t-21 102v770h-67v33h303v-885q0 -78 28 -78q35 0 69 60.5t34 124.5v745h-68v33h293v-981h68z" />
    <glyph glyph-name="uacute" unicode="&#xfa;" 
d="M297 1096h-8q37 61 53 108.5t23 104.5h133q-31 -66 -84.5 -121.5t-116.5 -91.5zM752 33v-33h-293v115q-49 -123 -158 -123q-33 0 -67 12t-67 36t-54 69t-21 102v770h-67v33h303v-885q0 -78 28 -78q35 0 69 60.5t34 124.5v745h-68v33h293v-981h68z" />
    <glyph glyph-name="ucircumflex" unicode="&#xfb;" 
d="M190 1098l-2 2q128 111 168 231h4q2 -13 13.5 -39t52.5 -83t102 -109l-4 -2q-111 23 -168 90q-8 -11 -23 -25t-54.5 -34.5t-88.5 -30.5zM752 33v-33h-293v115q-49 -123 -158 -123q-33 0 -67 12t-67 36t-54 69t-21 102v770h-67v33h303v-885q0 -78 28 -78q35 0 69 60.5
t34 124.5v745h-68v33h293v-981h68z" />
    <glyph glyph-name="udieresis" unicode="&#xfc;" 
d="M172 1196q0 34 22 55t56 21t57 -21.5t23 -54.5q0 -35 -23 -57.5t-57 -22.5t-56 22.5t-22 57.5zM391 1196q0 33 22.5 54.5t55.5 21.5q35 0 57.5 -21t22.5 -55q0 -35 -22.5 -57.5t-57.5 -22.5q-33 0 -55.5 22.5t-22.5 57.5zM752 33v-33h-293v115q-49 -123 -158 -123
q-33 0 -67 12t-67 36t-54 69t-21 102v770h-67v33h303v-885q0 -78 28 -78q35 0 69 60.5t34 124.5v745h-68v33h293v-981h68z" />
    <glyph glyph-name="yacute" unicode="&#xfd;" horiz-adv-x="714" 
d="M348 1096h-8q65 105 74 213h135q-69 -137 -201 -213zM358 -244q-18 -73 -57 -110t-84 -37q-44 0 -75 32t-31 87q0 52 35.5 81t113.5 41q26 6 41 11t34.5 23.5t26.5 47.5l17 72l-264 977h-74v33h373v-33h-60l146 -455l104 455h-61v33h172v-33h-72z" />
    <glyph glyph-name="thorn" unicode="&#xfe;" horiz-adv-x="737" 
d="M334 193q0 -67 26.5 -109.5t55.5 -42.5q43 0 43 74v786q0 78 -43 78q-31 0 -56.5 -43t-25.5 -117v-626zM41 -315h68v1714h-68v33h293v-496q32 88 119 88q88 0 163.5 -73t75.5 -193v-496q0 -106 -72 -188t-167 -82q-90 0 -119 88v-395h65v-33h-358v33z" />
    <glyph glyph-name="ydieresis" unicode="&#xff;" horiz-adv-x="714" 
d="M221 1196q0 34 22 55t56 21q36 0 59 -21.5t23 -54.5q0 -35 -23.5 -57.5t-58.5 -22.5q-34 0 -56 22.5t-22 57.5zM442 1196q0 33 22.5 54.5t55.5 21.5q35 0 57.5 -21t22.5 -55q0 -35 -22.5 -57.5t-57.5 -22.5q-33 0 -55.5 22.5t-22.5 57.5zM358 -244q-18 -73 -57 -110
t-84 -37q-44 0 -75 32t-31 87q0 52 35.5 81t113.5 41q26 6 41 11t34.5 23.5t26.5 47.5l17 72l-264 977h-74v33h373v-33h-60l146 -455l104 455h-61v33h172v-33h-72z" />
    <glyph glyph-name="Amacron" unicode="&#x100;" horiz-adv-x="884" 
d="M623 1616v-62h-353v62h353zM82 33h82l262 1399h51l324 -1399h84v-33h-416v33h80l-94 403h-179l-75 -403h75v-33h-194v33zM283 469h163l-92 387z" />
    <glyph glyph-name="amacron" unicode="&#x101;" horiz-adv-x="784" 
d="M596 1198v-61h-352v61h352zM494 649v254q0 42 -20.5 67t-57.5 25q-28 -1 -42 -14.5t-14 -34.5t4.5 -39.5t12.5 -36.5q14 -28 17.5 -62t-5 -65.5t-37 -53t-73.5 -21.5q-64 0 -96.5 41t-32.5 104q0 101 81 157t201 56q147 0 222 -79t75 -204v-600q0 -90 35 -90
q16 0 27.5 20.5t11.5 45.5h35q0 -62 -47 -98.5t-121 -36.5q-60 0 -109.5 29t-62.5 83q-20 -52 -63 -80t-97 -28q-34 0 -68.5 12t-66.5 35.5t-52 66t-20 97.5v114q0 61 20.5 106.5t51.5 70.5t73 46t80.5 34t77 34t60.5 45zM494 608q-12 -13 -37.5 -30t-42.5 -30t-31 -43
t-14 -71v-303q0 -36 12 -55t31 -19q29 0 55.5 45t26.5 105v401z" />
    <glyph glyph-name="Abreve" unicode="&#x102;" horiz-adv-x="884" 
d="M592 1696h10q-9 -68 -52.5 -115t-100.5 -47q-58 0 -103 47.5t-53 114.5h10q6 -30 26 -49.5t46.5 -27t42 -9.5t31.5 -2q15 0 29 2t41 9t47 27t26 50zM82 33h82l262 1399h51l324 -1399h84v-33h-416v33h80l-94 403h-179l-75 -403h75v-33h-194v33zM283 469h163l-92 387z" />
    <glyph glyph-name="abreve" unicode="&#x103;" horiz-adv-x="784" 
d="M578 1278h10q-11 -68 -54.5 -115t-101.5 -47t-103 47.5t-53 114.5h11q6 -30 25.5 -49.5t46 -27t42.5 -9.5t31 -2q126 0 146 88zM494 649v254q0 42 -20.5 67t-57.5 25q-28 -1 -42 -14.5t-14 -34.5t4.5 -39.5t12.5 -36.5q14 -28 17.5 -62t-5 -65.5t-37 -53t-73.5 -21.5
q-64 0 -96.5 41t-32.5 104q0 101 81 157t201 56q147 0 222 -79t75 -204v-600q0 -90 35 -90q16 0 27.5 20.5t11.5 45.5h35q0 -62 -47 -98.5t-121 -36.5q-60 0 -109.5 29t-62.5 83q-20 -52 -63 -80t-97 -28q-34 0 -68.5 12t-66.5 35.5t-52 66t-20 97.5v114q0 61 20.5 106.5
t51.5 70.5t73 46t80.5 34t77 34t60.5 45zM494 608q-12 -13 -37.5 -30t-42.5 -30t-31 -43t-14 -71v-303q0 -36 12 -55t31 -19q29 0 55.5 45t26.5 105v401z" />
    <glyph glyph-name="Aogonek" unicode="&#x104;" horiz-adv-x="884" 
d="M82 33h82l262 1399h51l324 -1399h84v-33h-400q-45 -24 -66 -54.5t-20 -57t17 -50.5q17 -26 47.5 -37t64 3.5t52.5 54.5l6 -4q-26 -63 -77.5 -88t-97 -14.5t-67.5 38.5q-14 20 -17.5 42.5t6.5 49.5t44.5 57.5t91.5 59.5v33h80l-94 403h-179l-75 -403h75v-33h-194v33z
M283 469h163l-92 387z" />
    <glyph glyph-name="aogonek" unicode="&#x105;" horiz-adv-x="784" 
d="M758 -141l6 -4q-21 -48 -57 -74.5t-72 -29t-67 7.5t-46 30q-14 19 -17.5 40.5t4 47t37 54.5t79.5 57q-47 10 -82 38t-45 70q-20 -52 -63 -80t-97 -28q-34 0 -68.5 12t-66.5 35.5t-52 66t-20 97.5v114q0 61 20.5 106.5t51.5 70.5t73 46t80.5 34t77 34t60.5 45v254
q0 42 -20.5 67t-57.5 25q-28 -1 -42 -14.5t-14 -34.5t4.5 -39.5t12.5 -36.5q14 -28 17.5 -62t-5 -65.5t-37 -53t-73.5 -21.5q-64 0 -96.5 41t-32.5 104q0 101 81 157t201 56q147 0 222 -79t75 -204v-600q0 -90 35 -90q16 0 27.5 20.5t11.5 45.5h35q0 -62 -47 -98.5
t-121 -36.5q-21 0 -31 2q-35 -23 -50 -51.5t-12.5 -52t17.5 -44.5q16 -26 46.5 -37t64.5 3.5t53 54.5zM494 608q-12 -13 -37.5 -30t-42.5 -30t-31 -43t-14 -71v-303q0 -36 12 -55t31 -19q29 0 55.5 45t26.5 105v401z" />
    <glyph glyph-name="Cacute" unicode="&#x106;" horiz-adv-x="708" 
d="M436 1513h-10q67 109 76 213h133q-31 -66 -84 -121.5t-115 -91.5zM176 358v725q0 145 102.5 253t239.5 108q95 0 148 -53q16 1 21 10.5t5 30.5h33v-328h-33v119q0 79 -44 133.5t-118 54.5q-66 0 -87 -44t-21 -138v-1039q0 -97 22.5 -133.5t77.5 -36.5q29 0 55.5 7.5
t54 26.5t44 58.5t16.5 96.5v162h33v-371h-33q0 20 -5 29t-21 12q-53 -53 -146 -53q-96 0 -176.5 54t-124 139t-43.5 177z" />
    <glyph glyph-name="cacute" unicode="&#x107;" horiz-adv-x="706" 
d="M328 1096h-9q37 61 53 108.5t23 104.5h133q-65 -135 -200 -213zM131 752q0 105 90 189.5t225 84.5q109 0 187 -58t78 -159q0 -70 -38.5 -106.5t-90.5 -36.5q-44 0 -77 22t-44 65.5t20 108.5q24 48 18.5 77.5t-22 41.5t-39.5 12q-34 0 -52.5 -27.5t-18.5 -66.5v-756
q0 -67 18 -92.5t61 -25.5q90 0 164 73.5t74 177.5v95h33v-97q0 -112 -79.5 -197t-201.5 -85q-120 0 -212.5 83.5t-92.5 211.5v465z" />
    <glyph glyph-name="Ccircumflex" unicode="&#x108;" horiz-adv-x="708" 
d="M328 1516l-2 2q128 111 168 231h4q2 -13 13.5 -39t52.5 -83t102 -109l-4 -2q-111 23 -168 90q-8 -11 -23 -25t-54.5 -34.5t-88.5 -30.5zM176 358v725q0 145 102.5 253t239.5 108q95 0 148 -53q16 1 21 10.5t5 30.5h33v-328h-33v119q0 79 -44 133.5t-118 54.5
q-66 0 -87 -44t-21 -138v-1039q0 -97 22.5 -133.5t77.5 -36.5q29 0 55.5 7.5t54 26.5t44 58.5t16.5 96.5v162h33v-371h-33q0 20 -5 29t-21 12q-53 -53 -146 -53q-96 0 -176.5 54t-124 139t-43.5 177z" />
    <glyph glyph-name="ccircumflex" unicode="&#x109;" horiz-adv-x="706" 
d="M256 1100l-4 2q61 52 102 109t52.5 83t13.5 39h4q40 -120 168 -231l-2 -2q-50 10 -90 31t-55 34.5t-23 24.5q-8 -11 -23 -25t-54.5 -34.5t-88.5 -30.5zM131 752q0 105 90 189.5t225 84.5q109 0 187 -58t78 -159q0 -70 -38.5 -106.5t-90.5 -36.5q-44 0 -77 22t-44 65.5
t20 108.5q24 48 18.5 77.5t-22 41.5t-39.5 12q-34 0 -52.5 -27.5t-18.5 -66.5v-756q0 -67 18 -92.5t61 -25.5q90 0 164 73.5t74 177.5v95h33v-97q0 -112 -79.5 -197t-201.5 -85q-120 0 -212.5 83.5t-92.5 211.5v465z" />
    <glyph glyph-name="Cdotaccent" unicode="&#x10a;" horiz-adv-x="708" 
d="M420 1614q0 33 21.5 54.5t56.5 21.5q33 0 54 -21.5t21 -54.5q0 -35 -20.5 -57.5t-54.5 -22.5q-35 0 -56.5 22.5t-21.5 57.5zM176 358v725q0 145 102.5 253t239.5 108q95 0 148 -53q16 1 21 10.5t5 30.5h33v-328h-33v119q0 79 -44 133.5t-118 54.5q-66 0 -87 -44t-21 -138
v-1039q0 -97 22.5 -133.5t77.5 -36.5q29 0 55.5 7.5t54 26.5t44 58.5t16.5 96.5v162h33v-371h-33q0 20 -5 29t-21 12q-53 -53 -146 -53q-96 0 -176.5 54t-124 139t-43.5 177z" />
    <glyph glyph-name="cdotaccent" unicode="&#x10b;" horiz-adv-x="706" 
d="M354 1196q0 34 21.5 55t56.5 21t56.5 -21t21.5 -55q0 -35 -21.5 -57.5t-56.5 -22.5t-56.5 22.5t-21.5 57.5zM131 752q0 105 90 189.5t225 84.5q109 0 187 -58t78 -159q0 -70 -38.5 -106.5t-90.5 -36.5q-44 0 -77 22t-44 65.5t20 108.5q24 48 18.5 77.5t-22 41.5t-39.5 12
q-34 0 -52.5 -27.5t-18.5 -66.5v-756q0 -67 18 -92.5t61 -25.5q90 0 164 73.5t74 177.5v95h33v-97q0 -112 -79.5 -197t-201.5 -85q-120 0 -212.5 83.5t-92.5 211.5v465z" />
    <glyph glyph-name="Ccaron" unicode="&#x10c;" horiz-adv-x="708" 
d="M332 1747q49 -11 88.5 -31.5t54.5 -34t23 -24.5q55 64 168 90l4 -2q-128 -111 -168 -232h-4q-40 121 -168 232zM176 358v725q0 145 102.5 253t239.5 108q95 0 148 -53q16 1 21 10.5t5 30.5h33v-328h-33v119q0 79 -44 133.5t-118 54.5q-66 0 -87 -44t-21 -138v-1039
q0 -97 22.5 -133.5t77.5 -36.5q29 0 55.5 7.5t54 26.5t44 58.5t16.5 96.5v162h33v-371h-33q0 20 -5 29t-21 12q-53 -53 -146 -53q-96 0 -176.5 54t-124 139t-43.5 177z" />
    <glyph glyph-name="ccaron" unicode="&#x10d;" horiz-adv-x="706" 
d="M258 1327q50 -11 90 -32t55 -35t23 -25q8 11 23 25t55 35t90 32l2 -2q-20 -17 -37.5 -35t-31.5 -33.5t-26 -32t-21 -29.5t-17 -26.5t-13 -23t-9.5 -19.5t-6.5 -15.5t-4 -10.5l-2 -6h-4l-2 6q-2 5 -4 10.5t-6.5 15.5t-9.5 19.5t-13 23t-17 26.5t-21 29.5t-26 32
t-31.5 33.5t-37.5 35zM131 752q0 105 90 189.5t225 84.5q109 0 187 -58t78 -159q0 -70 -38.5 -106.5t-90.5 -36.5q-44 0 -77 22t-44 65.5t20 108.5q24 48 18.5 77.5t-22 41.5t-39.5 12q-34 0 -52.5 -27.5t-18.5 -66.5v-756q0 -67 18 -92.5t61 -25.5q90 0 164 73.5t74 177.5
v95h33v-97q0 -112 -79.5 -197t-201.5 -85q-120 0 -212.5 83.5t-92.5 211.5v465z" />
    <glyph glyph-name="Dcaron" unicode="&#x10e;" horiz-adv-x="839" 
d="M209 1747q50 -11 90 -31.5t55 -34t23 -24.5q8 11 23 24.5t55 34t90 31.5l2 -2q-127 -111 -168 -232h-4q-41 121 -168 232zM41 33h78v1366h-78v33h412q70 0 143.5 -43t123.5 -117.5t50 -155.5v-786q0 -61 -29 -122t-73.5 -106t-100.5 -73.5t-108 -28.5h-418v33zM367 1399
v-1366h82q42 0 57.5 38.5t15.5 114.5v1061q0 152 -84 152h-71z" />
    <glyph glyph-name="dcaron" unicode="&#x10f;" horiz-adv-x="757" 
d="M764 1294q-41 -19 -76 2.5t-35 67.5q0 36 23.5 56t56.5 20q35 0 56.5 -27.5t21.5 -79.5q0 -56 -29 -101t-100 -56l-4 18q86 18 86 100zM350 815q0 67 -26.5 112.5t-55.5 45.5q-43 0 -43 -74v-786q0 -76 43 -76q30 0 56 46.5t26 119.5v612zM643 0h-293v78
q-31 -86 -117 -86t-163.5 70t-77.5 184v508q0 112 72.5 190t164.5 78q89 0 121 -90v467h-65v33h290v-1399h68v-33z" />
    <glyph glyph-name="Dcroat" unicode="&#x110;" horiz-adv-x="839" 
d="M41 33h78v667h-64v37h64v662h-78v33h412q70 0 143.5 -43t123.5 -117.5t50 -155.5v-786q0 -61 -29 -122t-73.5 -106t-100.5 -73.5t-108 -28.5h-418v33zM367 1399v-662h88v-37h-88v-667h82q42 0 57.5 38.5t15.5 114.5v1061q0 152 -84 152h-71z" />
    <glyph glyph-name="dcroat" unicode="&#x111;" horiz-adv-x="757" 
d="M492 815q0 68 -27 113t-57 45q-43 0 -43 -74v-786q0 -36 12 -56t31 -20q31 0 57.5 46.5t26.5 119.5v612zM782 0h-290v78q-31 -86 -119 -86q-39 0 -81 17t-78 48t-59.5 80.5t-23.5 108.5v508q0 112 73.5 190t166.5 78q89 0 121 -90v264h-140v33h140v170h-68v33h293v-203
h92v-33h-92v-1163h65v-33z" />
    <glyph glyph-name="Emacron" unicode="&#x112;" horiz-adv-x="688" 
d="M524 1616v-62h-350v62h350zM41 0v33h78v1366h-78v33h569v-287h-32q0 152 -28.5 203t-113.5 51h-71v-651h51q19 0 34.5 3t27 6t20.5 12.5t14.5 15.5t9.5 22t6 25t3 31.5t1 34v40.5h35v-414h-35v45t-1 36.5t-2 31.5t-4 24t-7 20t-10.5 13t-14.5 11t-20 5.5t-25.5 4
t-31.5 0.5h-51v-682h96q58 0 88 26t42.5 90t12.5 189h33v-338h-596z" />
    <glyph glyph-name="emacron" unicode="&#x113;" horiz-adv-x="706" 
d="M598 1198v-61h-352v61h352zM131 737q0 115 85.5 202t207.5 87q120 0 206.5 -84.5t86.5 -206.5v-235h-350v-357q0 -63 16.5 -90.5t67.5 -27.5q89 0 161 73.5t72 177.5v95h33v-97q0 -112 -79 -197t-202 -85q-125 0 -215 86.5t-90 206.5v452zM367 897v-365h114v365
q0 96 -53 96q-61 0 -61 -96z" />
    <glyph glyph-name="Ebreve" unicode="&#x114;" horiz-adv-x="688" 
d="M496 1696h10q-9 -68 -52 -115t-102 -47q-58 0 -102.5 47.5t-52.5 114.5h10q6 -30 25.5 -49.5t46 -27t42.5 -9.5t31 -2t29 2t41.5 9t47.5 27t26 50zM41 0v33h78v1366h-78v33h569v-287h-32q0 152 -28.5 203t-113.5 51h-71v-651h51q19 0 34.5 3t27 6t20.5 12.5t14.5 15.5
t9.5 22t6 25t3 31.5t1 34v40.5h35v-414h-35v45t-1 36.5t-2 31.5t-4 24t-7 20t-10.5 13t-14.5 11t-20 5.5t-25.5 4t-31.5 0.5h-51v-682h96q58 0 88 26t42.5 90t12.5 189h33v-338h-596z" />
    <glyph glyph-name="ebreve" unicode="&#x115;" horiz-adv-x="706" 
d="M571 1278h11q-11 -68 -54.5 -115t-101.5 -47q-57 0 -101.5 48t-52.5 114h11q6 -30 25 -49.5t45 -27t42 -9.5t31 -2q125 0 145 88zM135 737q0 115 85.5 202t207.5 87q120 0 205.5 -84.5t85.5 -206.5v-235h-348v-357q0 -63 16.5 -90.5t67.5 -27.5q88 0 159.5 73.5
t71.5 177.5v95h35v-97q0 -112 -79.5 -197t-201.5 -85q-126 0 -215.5 86.5t-89.5 206.5v452zM371 897v-365h114v365q0 96 -55 96q-32 0 -45.5 -28.5t-13.5 -67.5z" />
    <glyph glyph-name="Edotaccent" unicode="&#x116;" horiz-adv-x="688" 
d="M274 1614q0 33 21.5 54.5t54.5 21.5q35 0 56.5 -21.5t21.5 -54.5q0 -35 -21.5 -57.5t-56.5 -22.5q-34 0 -55 22.5t-21 57.5zM41 0v33h78v1366h-78v33h569v-287h-32q0 152 -28.5 203t-113.5 51h-71v-651h51q19 0 34.5 3t27 6t20.5 12.5t14.5 15.5t9.5 22t6 25t3 31.5t1 34
v40.5h35v-414h-35v45t-1 36.5t-2 31.5t-4 24t-7 20t-10.5 13t-14.5 11t-20 5.5t-25.5 4t-31.5 0.5h-51v-682h96q58 0 88 26t42.5 90t12.5 189h33v-338h-596z" />
    <glyph glyph-name="edotaccent" unicode="&#x117;" horiz-adv-x="706" 
d="M346 1196q0 33 21.5 54.5t54.5 21.5q35 0 56.5 -21.5t21.5 -54.5q0 -35 -21.5 -57.5t-56.5 -22.5q-34 0 -55 22.5t-21 57.5zM131 737q0 115 85.5 202t207.5 87q120 0 206.5 -84.5t86.5 -206.5v-235h-350v-357q0 -63 16.5 -90.5t67.5 -27.5q89 0 161 73.5t72 177.5v95h33
v-97q0 -112 -79 -197t-202 -85q-125 0 -215 86.5t-90 206.5v452zM367 897v-365h114v365q0 96 -53 96q-61 0 -61 -96z" />
    <glyph glyph-name="Eogonek" unicode="&#x118;" horiz-adv-x="688" 
d="M41 0v33h78v1366h-78v33h569v-287h-32q0 152 -28.5 203t-113.5 51h-71v-651h51q19 0 34.5 3t27 6t20.5 12.5t14.5 15.5t9.5 22t6 25t3 31.5t1 34v40.5h35v-414h-35v45t-1 36.5t-2 31.5t-4 24t-7 20t-10.5 13t-14.5 11t-20 5.5t-25.5 4t-31.5 0.5h-51v-682h96q58 0 88 26
t42.5 90t12.5 189h33v-338h-154q-46 -24 -67 -54.5t-20 -56.5t16 -51q12 -19 33.5 -30t45 -11t46.5 15.5t38 46.5l7 -4q-20 -48 -55.5 -74.5t-71.5 -29t-67 8.5t-46 31q-14 20 -17.5 42.5t5.5 49.5t43.5 57.5t91.5 59.5h-424z" />
    <glyph glyph-name="eogonek" unicode="&#x119;" horiz-adv-x="706" 
d="M580 -147l6 -5q-20 -48 -55.5 -74.5t-71.5 -28.5t-67.5 9t-47.5 31q-14 20 -17.5 42.5t6 49t43 56.5t89.5 59h-29q-125 0 -215 86.5t-90 206.5v452q0 115 85.5 202t207.5 87q120 0 206.5 -84.5t86.5 -206.5v-235h-350v-357q0 -63 16.5 -90.5t67.5 -27.5q89 0 161 73.5
t72 177.5v95h33v-97q0 -102 -66 -183.5t-172 -96.5h6q-45 -24 -66 -54.5t-20 -57t17 -50.5q17 -26 47.5 -37t64 3.5t52.5 54.5zM367 897v-365h114v365q0 96 -53 96q-61 0 -61 -96z" />
    <glyph glyph-name="Ecaron" unicode="&#x11a;" horiz-adv-x="688" 
d="M184 1747q50 -11 90 -32t55 -35t23 -25q8 11 23 25t55 35t90 32l2 -2q-22 -19 -41 -39t-34 -37.5t-27.5 -34t-22 -32t-16.5 -27.5t-12 -24t-7.5 -18.5t-5.5 -12.5l-2 -7h-4l-2 7q-3 6 -5.5 12.5t-7.5 18.5t-12 24t-16.5 27.5t-22 32t-27.5 34t-34 37.5t-41 39zM41 0v33
h78v1366h-78v33h569v-287h-32q0 152 -28.5 203t-113.5 51h-71v-651h51q19 0 34.5 3t27 6t20.5 12.5t14.5 15.5t9.5 22t6 25t3 31.5t1 34v40.5h35v-414h-35v45t-1 36.5t-2 31.5t-4 24t-7 20t-10.5 13t-14.5 11t-20 5.5t-25.5 4t-31.5 0.5h-51v-682h96q58 0 88 26t42.5 90
t12.5 189h33v-338h-596z" />
    <glyph glyph-name="ecaron" unicode="&#x11b;" horiz-adv-x="706" 
d="M258 1329q50 -11 90 -31.5t55 -34t23 -24.5q8 11 23 24.5t55 34t90 31.5l2 -2q-128 -111 -168 -231h-4q-40 120 -168 231zM131 737q0 115 85.5 202t207.5 87q120 0 206.5 -84.5t86.5 -206.5v-235h-350v-357q0 -63 16.5 -90.5t67.5 -27.5q89 0 161 73.5t72 177.5v95h33
v-97q0 -112 -79 -197t-202 -85q-125 0 -215 86.5t-90 206.5v452zM367 897v-365h114v365q0 96 -53 96q-61 0 -61 -96z" />
    <glyph glyph-name="Gcircumflex" unicode="&#x11c;" horiz-adv-x="800" 
d="M330 1516l-4 2q61 52 102 109t52.5 83t13.5 39h4q40 -120 168 -231l-2 -2q-50 10 -90 31t-55 34.5t-23 24.5q-8 -11 -23 -25t-54.5 -34.5t-88.5 -30.5zM176 1102q0 79 43 157t124.5 131.5t178.5 53.5q91 0 144 -53q16 3 20 11.5t4 29.5h33v-328h-33v119q0 80 -44.5 134
t-115.5 54q-61 0 -84.5 -41t-23.5 -125v-1083q0 -142 88 -142q34 0 52 21t18 59v426h-66v33h354v-33h-63v-526h-35q0 74 -31 74q-18 0 -53.5 -21.5t-84 -43t-97.5 -21.5q-57 0 -115.5 28.5t-105.5 76.5t-77 118t-30 147v744z" />
    <glyph glyph-name="gcircumflex" unicode="&#x11d;" horiz-adv-x="780" 
d="M152 1096l-5 2q61 52 102 109t52.5 83t13.5 39h4q40 -120 168 -231l-2 -2q-50 10 -90 31t-55 34.5t-23 24.5q-8 -12 -22.5 -25t-54 -34t-88.5 -31zM33 596v139q0 70 34 136t101 110.5t149 44.5q88 0 162 -49q0 29 17 63q22 40 60.5 65t78.5 25q52 0 86 -40
q29 -38 25.5 -73t-30 -60t-59.5 -25q-38 0 -63 35q-52 71 -78 20q-12 -18 -8 -29q110 -88 110 -217v-149q0 -129 -84 -214t-198 -85q-80 0 -148 39q-84 -69 -75 -110.5t114 -41.5h297q85 0 136 -62.5t51 -150.5q0 -58 -24 -113t-70.5 -103t-127.5 -77.5t-184 -29.5
q-147 0 -230 56t-83 126q0 43 34 77.5t97 49.5q-80 29 -104 103.5t15 158t128 133.5q-129 89 -129 248zM268 926v-535q0 -65 60 -65q55 0 55 65v535q0 29 -14 48t-43 19q-58 0 -58 -67zM117 -160q0 -59 56.5 -105t168.5 -46q115 0 176.5 49.5t61.5 109.5q0 38 -26.5 64.5
t-70.5 26.5h-270q-43 0 -69.5 -29t-26.5 -70z" />
    <glyph glyph-name="Gbreve" unicode="&#x11e;" horiz-adv-x="800" 
d="M643 1696h10q-11 -68 -54 -115t-101 -47t-103 47.5t-53 114.5h10q6 -30 26 -49.5t46.5 -27t42 -9.5t31.5 -2q125 0 145 88zM176 1102q0 79 43 157t124.5 131.5t178.5 53.5q91 0 144 -53q16 3 20 11.5t4 29.5h33v-328h-33v119q0 80 -44.5 134t-115.5 54q-61 0 -84.5 -41
t-23.5 -125v-1083q0 -142 88 -142q34 0 52 21t18 59v426h-66v33h354v-33h-63v-526h-35q0 74 -31 74q-18 0 -53.5 -21.5t-84 -43t-97.5 -21.5q-57 0 -115.5 28.5t-105.5 76.5t-77 118t-30 147v744z" />
    <glyph glyph-name="gbreve" unicode="&#x11f;" horiz-adv-x="780" 
d="M463 1278h10q-9 -68 -52 -115t-102 -47q-57 0 -101 47.5t-52 114.5h10q6 -30 25 -49.5t45 -27t42 -9.5t31 -2t29 2t41.5 9t47.5 27t26 50zM33 596v139q0 70 34 136t101 110.5t149 44.5q88 0 162 -49q0 29 17 63q22 40 60.5 65t78.5 25q52 0 86 -40q29 -38 25.5 -73
t-30 -60t-59.5 -25q-38 0 -63 35q-52 71 -78 20q-12 -18 -8 -29q110 -88 110 -217v-149q0 -129 -84 -214t-198 -85q-80 0 -148 39q-84 -69 -75 -110.5t114 -41.5h297q85 0 136 -62.5t51 -150.5q0 -58 -24 -113t-70.5 -103t-127.5 -77.5t-184 -29.5q-147 0 -230 56t-83 126
q0 43 34 77.5t97 49.5q-80 29 -104 103.5t15 158t128 133.5q-129 89 -129 248zM268 926v-535q0 -65 60 -65q55 0 55 65v535q0 29 -14 48t-43 19q-58 0 -58 -67zM117 -160q0 -59 56.5 -105t168.5 -46q115 0 176.5 49.5t61.5 109.5q0 38 -26.5 64.5t-70.5 26.5h-270
q-43 0 -69.5 -29t-26.5 -70z" />
    <glyph glyph-name="Gdotaccent" unicode="&#x120;" horiz-adv-x="800" 
d="M420 1614q0 32 22 54t56 22t55.5 -22t21.5 -54q0 -35 -21.5 -57.5t-55.5 -22.5t-56 22.5t-22 57.5zM176 1102q0 79 43 157t124.5 131.5t178.5 53.5q91 0 144 -53q16 3 20 11.5t4 29.5h33v-328h-33v119q0 80 -44.5 134t-115.5 54q-61 0 -84.5 -41t-23.5 -125v-1083
q0 -142 88 -142q34 0 52 21t18 59v426h-66v33h354v-33h-63v-526h-35q0 74 -31 74q-18 0 -53.5 -21.5t-84 -43t-97.5 -21.5q-57 0 -115.5 28.5t-105.5 76.5t-77 118t-30 147v744z" />
    <glyph glyph-name="gdotaccent" unicode="&#x121;" horiz-adv-x="780" 
d="M242 1196q0 33 21 54.5t56 21.5q33 0 54.5 -21.5t21.5 -54.5q0 -35 -21 -57.5t-55 -22.5q-35 0 -56 22t-21 58zM33 596v139q0 70 34 136t101 110.5t149 44.5q88 0 162 -49q0 29 17 63q22 40 60.5 65t78.5 25q52 0 86 -40q29 -38 25.5 -73t-30 -60t-59.5 -25q-38 0 -63 35
q-52 71 -78 20q-12 -18 -8 -29q110 -88 110 -217v-149q0 -129 -84 -214t-198 -85q-80 0 -148 39q-84 -69 -75 -110.5t114 -41.5h297q85 0 136 -62.5t51 -150.5q0 -58 -24 -113t-70.5 -103t-127.5 -77.5t-184 -29.5q-147 0 -230 56t-83 126q0 43 34 77.5t97 49.5
q-80 29 -104 103.5t15 158t128 133.5q-129 89 -129 248zM268 926v-535q0 -65 60 -65q55 0 55 65v535q0 29 -14 48t-43 19q-58 0 -58 -67zM117 -160q0 -59 56.5 -105t168.5 -46q115 0 176.5 49.5t61.5 109.5q0 38 -26.5 64.5t-70.5 26.5h-270q-43 0 -69.5 -29t-26.5 -70z" />
    <glyph glyph-name="uni0122" unicode="&#x122;" horiz-adv-x="800" 
d="M176 1102q0 79 43 157t124.5 131.5t178.5 53.5q91 0 144 -53q16 3 20 11.5t4 29.5h33v-328h-33v119q0 80 -44.5 134t-115.5 54q-61 0 -84.5 -41t-23.5 -125v-1083q0 -142 88 -142q34 0 52 21t18 59v426h-66v33h354v-33h-63v-526h-35q0 74 -31 74q-18 0 -53.5 -21.5
t-84 -43t-97.5 -21.5q-57 0 -115.5 28.5t-105.5 76.5t-77 118t-30 147v744zM530 -231q-43 -20 -77.5 1.5t-34.5 67.5q0 38 24.5 60t57.5 22q38 0 61 -29.5t23 -83.5q0 -36 -9.5 -67t-41.5 -60.5t-84 -37.5l-7 20q88 17 88 107z" />
    <glyph glyph-name="uni0123" unicode="&#x123;" horiz-adv-x="780" 
d="M295 1247q44 20 78.5 -1.5t34.5 -67.5q0 -38 -23.5 -60t-56.5 -22q-38 0 -60 29t-22 83q0 36 9.5 66.5t41.5 60t84 37.5l4 -20q-49 -10 -69.5 -39.5t-20.5 -65.5zM33 596v139q0 70 34 136t101 110.5t149 44.5q88 0 162 -49q0 29 17 63q22 40 60.5 65t78.5 25q52 0 86 -40
q29 -38 25.5 -73t-30 -60t-59.5 -25q-38 0 -63 35q-52 71 -78 20q-12 -18 -8 -29q110 -88 110 -217v-149q0 -129 -84 -214t-198 -85q-80 0 -148 39q-84 -69 -75 -110.5t114 -41.5h297q85 0 136 -62.5t51 -150.5q0 -58 -24 -113t-70.5 -103t-127.5 -77.5t-184 -29.5
q-147 0 -230 56t-83 126q0 43 34 77.5t97 49.5q-80 29 -104 103.5t15 158t128 133.5q-129 89 -129 248zM268 926v-535q0 -65 60 -65q55 0 55 65v535q0 29 -14 48t-43 19q-58 0 -58 -67zM117 -160q0 -59 56.5 -105t168.5 -46q115 0 176.5 49.5t61.5 109.5q0 38 -26.5 64.5
t-70.5 26.5h-270q-43 0 -69.5 -29t-26.5 -70z" />
    <glyph glyph-name="Hcircumflex" unicode="&#x124;" horiz-adv-x="880" 
d="M295 1516l-4 2q61 52 102 109t52.5 83t13.5 39h4q40 -120 168 -231l-2 -2q-50 10 -90 31t-55 34.5t-23 24.5q-8 -11 -23 -25t-54.5 -34.5t-88.5 -30.5zM41 1432h393v-33h-69v-668h194v668h-72v33h394v-33h-76v-1366h76v-33h-394v33h72v665h-194v-665h69v-33h-393v33h78
v1366h-78v33z" />
    <glyph glyph-name="hcircumflex" unicode="&#x125;" 
d="M279 1495l-5 2q61 52 102 109t52.5 83.5t13.5 39.5h4q41 -121 168 -232l-2 -2q-50 10 -90 31t-55 34.5t-23 24.5q-8 -12 -22.5 -25t-54 -34t-88.5 -31zM41 0v33h68v1378h-68v33h293v-543q46 121 155 121q33 0 67 -13t65 -37.5t51 -68.5t20 -100v-770h68v-33h-352v33h51
v862q0 66 -27 66q-32 0 -65 -55t-33 -128v-745h51v-33h-344z" />
    <glyph glyph-name="Hbar" unicode="&#x126;" horiz-adv-x="880" 
d="M881 1055v-41h-76v-981h76v-33h-394v33h72v665h-194v-665h69v-33h-393v33h78v981h-78v41h78v344h-78v33h393v-33h-69v-344h194v344h-72v33h394v-33h-76v-344h76zM365 731h194v283h-194v-283z" />
    <glyph glyph-name="hbar" unicode="&#x127;" horiz-adv-x="753" 
d="M45 0v33h66v1173h-62v41h62v164h-66v33h291v-197h106v-41h-106v-305q24 58 64 89.5t92 31.5q33 0 67.5 -13t65.5 -37.5t51 -68.5t20 -100v-770h66v-33h-350v33h51v862q0 66 -27 66q-32 0 -66 -55t-34 -128v-745h51v-33h-342z" />
    <glyph glyph-name="Itilde" unicode="&#x128;" horiz-adv-x="440" 
d="M414 1675q-7 -141 -92 -141q-31 0 -86.5 29.5t-83.5 29.5q-54 0 -78 -61l-8 2q6 61 36.5 97.5t67.5 39.5q33 3 93 -26t77 -29q34 0 68 61zM41 0v33h78v1366h-78v33h399v-33h-75v-1366h75v-33h-399z" />
    <glyph glyph-name="itilde" unicode="&#x129;" horiz-adv-x="393" 
d="M391 1257q-7 -141 -92 -141q-31 0 -86.5 30t-83.5 30q-52 0 -80 -62l-6 2q4 60 35.5 97t68.5 40q33 3 93 -26t77 -29q34 0 68 62zM33 0v33h67v948h-67v33h301v-981h65v-33h-366z" />
    <glyph glyph-name="Imacron" unicode="&#x12a;" horiz-adv-x="440" 
d="M416 1616v-62h-353v62h353zM41 0v33h78v1366h-78v33h399v-33h-75v-1366h75v-33h-399z" />
    <glyph glyph-name="imacron" unicode="&#x12b;" horiz-adv-x="393" 
d="M391 1198v-61h-350v61h350zM33 0v33h67v948h-67v33h301v-981h65v-33h-366z" />
    <glyph glyph-name="Ibreve" unicode="&#x12c;" horiz-adv-x="440" 
d="M385 1696h10q-9 -68 -52.5 -115t-100.5 -47q-58 0 -103 47.5t-53 114.5h10q6 -30 26 -49.5t46.5 -27t42 -9.5t31.5 -2q15 0 29 2t41 9t47 27t26 50zM41 0v33h78v1366h-78v33h399v-33h-75v-1366h75v-33h-399z" />
    <glyph glyph-name="ibreve" unicode="&#x12d;" horiz-adv-x="393" 
d="M362 1278h11q-11 -68 -54 -115t-100 -47q-58 0 -103 47.5t-53 114.5h11q6 -30 25 -49.5t46 -27t42.5 -9.5t31.5 -2q15 0 29 2t41 9t47 27t26 50zM33 0v33h67v948h-67v33h301v-981h65v-33h-366z" />
    <glyph glyph-name="Iogonek" unicode="&#x12e;" horiz-adv-x="440" 
d="M41 0v33h78v1366h-78v33h399v-33h-75v-1366h75v-33h-131q-45 -24 -66 -54.5t-20 -57t17 -50.5q12 -19 33.5 -30t45 -11t46.5 15.5t38 46.5l7 -4q-26 -63 -77.5 -88t-97 -14.5t-67.5 38.5q-14 20 -17.5 42.5t6.5 49.5t44.5 57.5t91.5 59.5h-252z" />
    <glyph glyph-name="iogonek" unicode="&#x12f;" horiz-adv-x="393" 
d="M94 1278q0 54 36 90.5t91 36.5t92 -36.5t37 -90.5q0 -56 -37 -92.5t-92 -36.5t-91 36.5t-36 92.5zM41 0v33h68v948h-68v33h293v-981h65v-33h-153q-45 -24 -66 -55t-19.5 -57.5t17.5 -49.5q16 -26 46 -37t64 3.5t54 54.5l6 -4q-21 -48 -57 -74.5t-72 -29t-67 8.5t-46 31
q-14 20 -17.5 42.5t6 49.5t44 57.5t90.5 59.5h-188z" />
    <glyph glyph-name="Idotaccent" unicode="&#x130;" horiz-adv-x="440" 
d="M164 1614q0 33 21.5 54.5t54.5 21.5q35 0 56 -21.5t21 -54.5q0 -36 -21 -58t-56 -22q-34 0 -55 22.5t-21 57.5zM41 0v33h78v1366h-78v33h399v-33h-75v-1366h75v-33h-399z" />
    <glyph glyph-name="dotlessi" unicode="&#x131;" horiz-adv-x="393" 
d="M33 0v33h67v948h-67v33h301v-981h65v-33h-366z" />
    <glyph glyph-name="Jcircumflex" unicode="&#x134;" horiz-adv-x="727" 
d="M379 1513l-4 3q61 53 102 109.5t52.5 82.5t13.5 39h4q39 -117 168 -231l-2 -3q-113 26 -168 91q-55 -65 -166 -91zM354 -12q-67 0 -127 23t-102.5 76t-42.5 126q0 48 26 85t62 52t76 7.5t65 -40.5q20 -26 21.5 -59t-7.5 -59.5t-19 -60.5t-11 -56q0 -31 16.5 -46.5
t44.5 -15.5q68 0 68 84v1295h-76v33h400v-33h-78v-1166q0 -57 -30 -105t-77 -78t-101.5 -46t-107.5 -16z" />
    <glyph glyph-name="jcircumflex" unicode="&#x135;" horiz-adv-x="630" 
d="M303 1090l-4 2q61 53 102 109.5t52.5 82.5t13.5 39h4q39 -117 168 -231l-2 -2q-114 26 -168 90q-53 -64 -166 -90zM580 -113q0 -124 -81.5 -183.5t-217.5 -59.5q-66 0 -121.5 18t-95 61.5t-39.5 106.5q0 45 19.5 78.5t48.5 48t62.5 11t59.5 -26.5q25 -22 33 -53.5
t3.5 -58t-15.5 -50.5q-23 -40 -17.5 -63t19.5 -31.5t34 -8.5q43 0 62.5 45.5t19.5 104.5v1155h-67v33h293v-1127z" />
    <glyph glyph-name="uni0136" unicode="&#x136;" horiz-adv-x="925" 
d="M41 0v33h78v1366h-78v33h399v-33h-75v-662l333 662h-67v33h192v-33h-86l-209 -418l297 -948h80v-33h-405v33h71l-206 694v-694h75v-33h-399zM502 -233q-44 -22 -79.5 0t-35.5 69q0 38 24.5 59t57.5 21q38 0 60 -28.5t22 -82.5q0 -36 -9.5 -66.5t-41.5 -59.5t-84 -37
l-2 18q88 18 88 107z" />
    <glyph glyph-name="uni0137" unicode="&#x137;" horiz-adv-x="837" 
d="M51 0v33h68v1366h-78v33h381v-33h-78v-785l234 367h-54v33h162v-33h-70l-108 -172l256 -776h74v-33h-373v33h65l-186 571v-571h78v-33h-371zM473 -233q-44 -22 -79.5 0t-35.5 69q0 38 24 59t58 21q38 0 60 -28.5t22 -82.5q0 -36 -9.5 -66.5t-41.5 -59.5t-84 -37l-4 18
q90 18 90 107z" />
    <glyph glyph-name="Lacute" unicode="&#x139;" horiz-adv-x="649" 
d="M178 1513h-10q67 109 76 213h133q-31 -66 -84 -121.5t-115 -91.5zM41 0v33h78v1366h-78v33h399v-33h-75v-1366h96q57 0 85 24.5t39 85.5t11 187h33v-330h-588z" />
    <glyph glyph-name="lacute" unicode="&#x13a;" horiz-adv-x="393" 
d="M160 1513h-10q66 107 75 213h133q-64 -134 -198 -213zM41 0v33h68v1378h-68v33h293v-1411h65v-33h-358z" />
    <glyph glyph-name="uni013B" unicode="&#x13b;" horiz-adv-x="649" 
d="M41 0v33h78v1366h-78v33h399v-33h-75v-1366h96q57 0 85 24.5t39 85.5t11 187h33v-330h-588zM356 -233q-43 -22 -77.5 0t-34.5 69q0 37 24 58.5t56 21.5q38 0 61 -28.5t23 -82.5q0 -35 -10 -66t-42 -60t-84 -37l-4 18q88 18 88 107z" />
    <glyph glyph-name="uni013C" unicode="&#x13c;" horiz-adv-x="393" 
d="M41 0v33h68v1378h-68v33h293v-1411h65v-33h-358zM254 -233q-43 -22 -79 0t-36 69q0 38 24.5 59t57.5 21q38 0 61 -28.5t23 -82.5q0 -36 -9.5 -66.5t-41.5 -59.5t-84 -37l-4 18q88 18 88 107z" />
    <glyph glyph-name="Lcaron" unicode="&#x13d;" horiz-adv-x="686" 
d="M614 1288q-43 -20 -77.5 1.5t-34.5 68.5q0 38 23.5 59t56.5 21q38 0 61 -28.5t23 -82.5q0 -35 -10.5 -66t-42.5 -60.5t-83 -37.5l-4 19q88 18 88 106zM41 0v33h78v1366h-78v33h399v-33h-75v-1366h96q57 0 85 24.5t39 85.5t11 187h33v-330h-588z" />
    <glyph glyph-name="lcaron" unicode="&#x13e;" horiz-adv-x="542" 
d="M502 1294q-41 -19 -75 2.5t-34 67.5q0 36 22 56t54 20q37 0 59.5 -27.5t22.5 -79.5q0 -55 -29.5 -100.5t-101.5 -56.5l-4 18q86 18 86 100zM41 0v33h68v1378h-68v33h293v-1411h65v-33h-358z" />
    <glyph glyph-name="Ldot" unicode="&#x13f;" horiz-adv-x="702" 
d="M41 0v33h78v1366h-78v33h399v-33h-75v-1366h96q57 0 85 24.5t39 85.5t11 187h33v-330h-588zM492 700q0 40 26.5 67.5t67.5 27.5t68.5 -27.5t27.5 -67.5q0 -41 -27.5 -68.5t-68.5 -27.5t-67.5 27.5t-26.5 68.5z" />
    <glyph glyph-name="ldot" unicode="&#x140;" horiz-adv-x="581" 
d="M397 803q0 40 27 67t68 27t68.5 -27t27.5 -67q0 -41 -27.5 -68.5t-68.5 -27.5t-68 27.5t-27 68.5zM41 0v33h68v1378h-68v33h293v-1411h65v-33h-358z" />
    <glyph glyph-name="Lslash" unicode="&#x141;" horiz-adv-x="671" 
d="M63 0v33h78v604l-80 -45l-20 39l100 55v713h-78v33h400v-33h-76v-570l125 72l20 -39l-145 -84v-745h96q57 0 85 24.5t39 85.5t11 187h33v-330h-588z" />
    <glyph glyph-name="lslash" unicode="&#x142;" horiz-adv-x="473" 
d="M80 0v33h65v686l-86 -49l-18 37l104 59v645h-65v33h291v-549l92 53l18 -37l-110 -63v-815h67v-33h-358z" />
    <glyph glyph-name="Nacute" unicode="&#x143;" horiz-adv-x="794" 
d="M397 1513h-10q67 109 76 213h133q-31 -66 -84 -121.5t-115 -91.5zM41 33h78v1366h-78v33h317l322 -803h2v770h-78v33h189v-33h-76v-1399h-51l-510 1284h-2v-1251h75v-33h-188v33z" />
    <glyph glyph-name="nacute" unicode="&#x144;" 
d="M313 1096h-10q67 109 76 213h135q-67 -134 -201 -213zM25 0v33h67v948h-67v33h292v-115q49 123 158 123q33 0 67 -12t67 -36t54 -69t21 -102v-770h68v-33h-355v33h52v852q0 78 -33 78q-31 0 -65 -59t-34 -126v-745h52v-33h-344z" />
    <glyph glyph-name="uni0145" unicode="&#x145;" horiz-adv-x="794" 
d="M41 33h78v1366h-78v33h317l322 -803h2v770h-78v33h189v-33h-76v-1399h-51l-510 1284h-2v-1251h75v-33h-188v33zM434 -233q-44 -22 -79.5 0t-35.5 69q0 38 24.5 59t57.5 21q37 0 59.5 -28.5t22.5 -82.5q0 -141 -133 -163l-4 18q88 18 88 107z" />
    <glyph glyph-name="uni0146" unicode="&#x146;" horiz-adv-x="755" 
d="M33 0v33h67v948h-67v33h293v-115q49 123 157 123q33 0 67 -12t67 -36t54 -69t21 -102v-770h68v-33h-354v33h51v852q0 78 -33 78q-31 0 -64.5 -59t-33.5 -126v-745h51v-33h-344zM422 -233q-43 -22 -78 0t-35 69q0 38 23.5 59t56.5 21q38 0 61 -28.5t23 -82.5
q0 -36 -9.5 -66.5t-41.5 -59.5t-84 -37l-2 18q46 10 66 40t20 67z" />
    <glyph glyph-name="Ncaron" unicode="&#x147;" horiz-adv-x="794" 
d="M293 1749q49 -11 88.5 -32t54.5 -35t23 -25q8 11 23 25t55 35t90 32l2 -2q-20 -17 -37.5 -35t-31.5 -33.5t-26 -32t-21 -29.5t-17 -26.5t-13 -23t-9.5 -19.5t-6.5 -15.5t-4 -10.5l-2 -6h-4l-2 6q-2 5 -4 10.5t-6.5 15.5t-9.5 19.5t-13 23t-17 26.5t-21 29.5t-26 32
t-31.5 33.5t-37.5 35zM41 33h78v1366h-78v33h317l322 -803h2v770h-78v33h189v-33h-76v-1399h-51l-510 1284h-2v-1251h75v-33h-188v33z" />
    <glyph glyph-name="ncaron" unicode="&#x148;" 
d="M207 1329q49 -11 88.5 -31.5t54.5 -34t23 -24.5q55 64 168 90l4 -2q-128 -111 -168 -231h-4q-40 120 -168 231zM25 0v33h67v948h-67v33h292v-115q49 123 158 123q33 0 67 -12t67 -36t54 -69t21 -102v-770h68v-33h-355v33h52v852q0 78 -33 78q-31 0 -65 -59t-34 -126v-745
h52v-33h-344z" />
    <glyph glyph-name="Eng" unicode="&#x14a;" horiz-adv-x="794" 
d="M41 33h78v1366h-78v33h317l322 -803h2v770h-76v33h189v-33h-78v-1481q0 -108 -3 -134q-16 -118 -114 -136q-20 -4 -43 -4q-85 0 -150 47t-71 131q-6 87 56.5 129t125.5 -4q37 -27 44 -70.5t-19 -99.5q-22 -49 -11 -75t46 -26q32 0 51 17.5t26.5 58t9 69.5t1.5 87v20v72
l-508 1284h-4v-1251h75v-33h-188v33z" />
    <glyph glyph-name="eng" unicode="&#x14b;" horiz-adv-x="737" 
d="M25 0v33h67v948h-67v33h292v-113q49 121 158 121q33 0 67 -12t67 -36t54 -69t21 -102v-916q0 -124 -84 -183.5t-221 -59.5q-66 0 -121.5 18t-95 61.5t-39.5 106.5q0 45 19.5 78.5t48.5 48t62.5 11t59.5 -26.5q25 -22 33.5 -53t3.5 -59t-18 -52q-22 -39 -16 -61.5
t20.5 -31t34.5 -8.5q22 0 38.5 13.5t24.5 37t11.5 48t3.5 51.5v1059q0 78 -29 78q-40 0 -71.5 -61.5t-31.5 -123.5v-745h52v-33h-344z" />
    <glyph glyph-name="Omacron" unicode="&#x14c;" horiz-adv-x="868" 
d="M694 1616v-62h-350v62h350zM176 356v729q0 143 103 251t241 108q139 0 243.5 -107t104.5 -252v-729q0 -151 -103.5 -259.5t-242.5 -108.5t-242.5 108.5t-103.5 259.5zM424 1249v-1075q0 -80 21.5 -117t76.5 -37q56 0 77.5 36t21.5 118v1075q0 77 -22 119.5t-77 42.5
q-98 0 -98 -162z" />
    <glyph glyph-name="omacron" unicode="&#x14d;" horiz-adv-x="733" 
d="M604 1198v-61h-350v61h350zM131 281v448q0 124 90 210.5t209 86.5t211 -87t92 -210v-448q0 -121 -89.5 -205t-207.5 -84q-119 0 -212 84.5t-93 204.5zM367 897v-784q0 -38 20 -64t49 -26q26 0 44 26t18 64v784q0 38 -19 66t-45 28q-29 0 -48 -27.5t-19 -66.5z" />
    <glyph glyph-name="Obreve" unicode="&#x14e;" horiz-adv-x="868" 
d="M666 1696h10q-9 -68 -53 -115t-103 -47q-57 0 -101 47.5t-52 114.5h10q6 -30 25.5 -49.5t45.5 -27t41.5 -9.5t30.5 -2q128 0 146 88zM176 356v729q0 143 103 251t241 108q139 0 243.5 -107t104.5 -252v-729q0 -151 -103.5 -259.5t-242.5 -108.5t-242.5 108.5
t-103.5 259.5zM424 1249v-1075q0 -80 21.5 -117t76.5 -37q56 0 77.5 36t21.5 118v1075q0 77 -22 119.5t-77 42.5q-98 0 -98 -162z" />
    <glyph glyph-name="obreve" unicode="&#x14f;" horiz-adv-x="733" 
d="M575 1278h11q-9 -68 -53 -115t-103 -47q-57 0 -101.5 48t-52.5 114h11q6 -30 25.5 -49.5t45.5 -27t41.5 -9.5t30.5 -2q127 0 145 88zM131 281v448q0 124 90 210.5t209 86.5t211 -87t92 -210v-448q0 -121 -89.5 -205t-207.5 -84q-119 0 -212 84.5t-93 204.5zM367 897v-784
q0 -38 20 -64t49 -26q26 0 44 26t18 64v784q0 38 -19 66t-45 28q-29 0 -48 -27.5t-19 -66.5z" />
    <glyph glyph-name="Ohungarumlaut" unicode="&#x150;" horiz-adv-x="868" 
d="M391 1516h-8q65 105 74 213h135q-69 -137 -201 -213zM567 1516h-8q37 61 53 108.5t23 104.5h133q-31 -66 -84.5 -121.5t-116.5 -91.5zM176 356v729q0 143 103 251t241 108q139 0 243.5 -107t104.5 -252v-729q0 -151 -103.5 -259.5t-242.5 -108.5t-242.5 108.5
t-103.5 259.5zM424 1249v-1075q0 -80 21.5 -117t76.5 -37q56 0 77.5 36t21.5 118v1075q0 77 -22 119.5t-77 42.5q-98 0 -98 -162z" />
    <glyph glyph-name="ohungarumlaut" unicode="&#x151;" horiz-adv-x="733" 
d="M301 1098h-8q65 105 74 213h135q-69 -137 -201 -213zM477 1098h-8q37 61 53 108.5t23 104.5h133q-31 -66 -84.5 -121.5t-116.5 -91.5zM131 281v448q0 124 90 210.5t209 86.5t211 -87t92 -210v-448q0 -121 -89.5 -205t-207.5 -84q-119 0 -212 84.5t-93 204.5zM367 897
v-784q0 -38 20 -64t49 -26q26 0 44 26t18 64v784q0 38 -19 66t-45 28q-29 0 -48 -27.5t-19 -66.5z" />
    <glyph glyph-name="OE" unicode="&#x152;" horiz-adv-x="1124" 
d="M176 373v702q0 70 18.5 128t48 94t66.5 63t72 40.5t68 21.5t51.5 9.5t23.5 0.5h592v-287h-33q0 152 -29 203t-114 51h-70v-651h50q30 0 48.5 2t32.5 11.5t20.5 20t10.5 36t5 49.5t1 71h33v-414h-33q0 40 -0.5 62t-3 46t-7.5 35.5t-13 23t-21.5 15.5t-30.5 6.5t-42 2.5
h-50v-682h97q85 0 113 61t28 244h35v-338h-617q-13 0 -32 2t-54 11t-68.5 23.5t-70 43t-63.5 66t-44.5 96.5t-17.5 131zM424 1245v-1063q0 -41 9 -71.5t21 -44.5t28 -22.5t24 -9.5t16 -1h25h76v1366h-101q-9 0 -18 -1.5t-25 -10t-27 -23.5t-19.5 -46t-8.5 -73z" />
    <glyph glyph-name="oe" unicode="&#x153;" horiz-adv-x="1075" 
d="M131 281v448q0 124 90 210.5t209 86.5q101 0 182 -63q79 63 181 63q119 0 204.5 -84.5t85.5 -206.5v-235h-348v-357q0 -62 16.5 -90t65.5 -28q89 0 161.5 73.5t72.5 177.5v95h34v-97q0 -112 -79.5 -197.5t-202.5 -86.5q-103 0 -185 63q-80 -61 -182 -61q-119 0 -212 84.5
t-93 204.5zM735 897v-365h115v365q0 96 -55 96q-32 0 -46 -28.5t-14 -67.5zM367 897v-784q0 -38 20 -64t49 -26q26 0 44 26t18 64v784q0 38 -19 66t-45 28q-29 0 -48 -27.5t-19 -66.5z" />
    <glyph glyph-name="Racute" unicode="&#x154;" horiz-adv-x="888" 
d="M291 1513h-10q66 107 75 213h133q-64 -134 -198 -213zM508 883v364q0 39 -6 70.5t-25.5 56.5t-50.5 25h-61v-668h67q76 0 76 152zM41 0v33h78v1366h-78v33h403q131 0 220.5 -92.5t89.5 -209.5v-131q0 -106 -72 -193t-186 -104q22 -3 45 -10t52.5 -24t54 -40t45 -62
t28.5 -87l65 -446h82v-33h-327l-80 539q-15 101 -31.5 130t-54.5 29h-10v-665h75v-33h-399z" />
    <glyph glyph-name="racute" unicode="&#x155;" horiz-adv-x="665" 
d="M285 1096h-11q67 109 76 213h133q-64 -134 -198 -213zM25 0v33h67v948h-67v33h292v-101q34 97 136 97q81 0 142.5 -55.5t61.5 -143.5q0 -68 -34 -106.5t-95 -38.5q-44 0 -72.5 21t-37.5 52.5t-5.5 67t19.5 65.5q7 14 11.5 30t5 32t-8.5 26t-28 9q-33 -1 -56 -37.5
t-31 -76.5t-8 -73v-749h66v-33h-358z" />
    <glyph glyph-name="uni0156" unicode="&#x156;" horiz-adv-x="888" 
d="M508 883v364q0 39 -6 70.5t-25.5 56.5t-50.5 25h-61v-668h67q76 0 76 152zM41 0v33h78v1366h-78v33h403q131 0 220.5 -92.5t89.5 -209.5v-131q0 -106 -72 -193t-186 -104q22 -3 45 -10t52.5 -24t54 -40t45 -62t28.5 -87l65 -446h82v-33h-327l-80 539q-15 101 -31.5 130
t-54.5 29h-10v-665h75v-33h-399zM477 -233q-44 -22 -79.5 0t-35.5 69q0 38 24 59t58 21q37 0 59.5 -28.5t22.5 -82.5q0 -36 -9.5 -66.5t-41.5 -59.5t-84 -37l-4 18q90 18 90 107z" />
    <glyph glyph-name="uni0157" unicode="&#x157;" horiz-adv-x="665" 
d="M25 0v33h67v948h-67v33h292v-101q34 97 136 97q81 0 142.5 -55.5t61.5 -143.5q0 -68 -34 -106.5t-95 -38.5q-44 0 -72.5 21t-37.5 52.5t-5.5 67t19.5 65.5q7 14 11.5 30t5 32t-8.5 26t-28 9q-33 -1 -56 -37.5t-31 -76.5t-8 -73v-749h66v-33h-358zM236 -233q-43 -22 -78 0
t-35 69q0 38 23.5 59t56.5 21q38 0 61 -28.5t23 -82.5q0 -35 -10 -66t-42 -60t-83 -37l-5 18q48 10 68.5 40t20.5 67z" />
    <glyph glyph-name="Rcaron" unicode="&#x158;" horiz-adv-x="888" 
d="M195 1747q50 -11 90 -31.5t54.5 -34t22.5 -24.5q8 11 23 24.5t55 34t90 31.5l2 -2q-126 -109 -167 -232h-5q-41 123 -167 232zM508 883v364q0 39 -6 70.5t-25.5 56.5t-50.5 25h-61v-668h67q76 0 76 152zM41 0v33h78v1366h-78v33h403q131 0 220.5 -92.5t89.5 -209.5v-131
q0 -106 -72 -193t-186 -104q22 -3 45 -10t52.5 -24t54 -40t45 -62t28.5 -87l65 -446h82v-33h-327l-80 539q-15 101 -31.5 130t-54.5 29h-10v-665h75v-33h-399z" />
    <glyph glyph-name="rcaron" unicode="&#x159;" horiz-adv-x="665" 
d="M201 1329q49 -11 88.5 -32t54.5 -35t23 -25q57 67 168 92l4 -2q-20 -17 -37.5 -35t-31.5 -33.5t-26 -32t-21 -29.5t-17 -26.5t-13 -23t-9.5 -19.5t-6.5 -15.5t-4 -10.5l-2 -6h-4l-2 6q-2 5 -4 10.5t-6.5 15.5t-9.5 19.5t-13 23t-17 26.5t-21 29.5t-26 32t-31.5 33.5
t-37.5 35zM25 0v33h67v948h-67v33h292v-101q34 97 136 97q81 0 142.5 -55.5t61.5 -143.5q0 -68 -34 -106.5t-95 -38.5q-44 0 -72.5 21t-37.5 52.5t-5.5 67t19.5 65.5q7 14 11.5 30t5 32t-8.5 26t-28 9q-33 -1 -56 -37.5t-31 -76.5t-8 -73v-749h66v-33h-358z" />
    <glyph glyph-name="Sacute" unicode="&#x15a;" horiz-adv-x="747" 
d="M287 1513h-11q67 109 76 213h133q-64 -134 -198 -213zM127 948q-44 104 -51 190.5t16 142.5t65.5 95t91.5 55.5t101 16.5q117 0 180 -66q19 3 25 15t6 35h33v-318h-31v88q0 103 -45.5 150t-109.5 47q-87 0 -106.5 -84t38.5 -225q23 -51 126 -312.5t148 -359.5
q50 -129 19.5 -225t-109 -151.5t-172.5 -55.5q-117 0 -200 71q-14 -1 -22.5 -5t-12 -13.5t-4 -16.5t-0.5 -22h-35v360h35v-133q0 -93 56 -144.5t126 -51.5q106 0 120 106.5t-69 286.5q-11 26 -96.5 237t-122.5 287z" />
    <glyph glyph-name="sacute" unicode="&#x15b;" horiz-adv-x="663" 
d="M246 1096h-10q66 107 75 213h133q-64 -134 -198 -213zM74 307v-135q0 -60 56 -100.5t122 -40.5q36 0 60.5 14.5t35 44t-3 81.5t-53.5 120q-155 263 -201 338q-55 93 -52 166.5t46 125t104.5 78.5t124.5 27q88 0 152 -49q15 0 24 2t16 10.5t7 24.5h35v-277h-35v68
q0 84 -44.5 128t-105.5 44q-42 0 -73.5 -22t-39.5 -67.5t32 -113.5q47 -82 98 -170t94 -162t57 -98q54 -101 30 -181t-99.5 -129.5t-167.5 -49.5q-104 0 -178 51q-41 0 -41 -35h-33v307h33z" />
    <glyph glyph-name="Scircumflex" unicode="&#x15c;" horiz-adv-x="747" 
d="M180 1513l-2 3q129 114 168 231h4q2 -13 13.5 -39t52.5 -82.5t102 -109.5l-4 -3q-100 23 -168 91q-55 -65 -166 -91zM127 948q-44 104 -51 190.5t16 142.5t65.5 95t91.5 55.5t101 16.5q117 0 180 -66q19 3 25 15t6 35h33v-318h-31v88q0 103 -45.5 150t-109.5 47
q-87 0 -106.5 -84t38.5 -225q23 -51 126 -312.5t148 -359.5q50 -129 19.5 -225t-109 -151.5t-172.5 -55.5q-117 0 -200 71q-14 -1 -22.5 -5t-12 -13.5t-4 -16.5t-0.5 -22h-35v360h35v-133q0 -93 56 -144.5t126 -51.5q106 0 120 106.5t-69 286.5q-11 26 -96.5 237t-122.5 287
z" />
    <glyph glyph-name="scircumflex" unicode="&#x15d;" horiz-adv-x="663" 
d="M139 1098l-4 2q61 52 102 109t52.5 83t13.5 39h4q40 -120 168 -231l-2 -2q-49 10 -89 30.5t-55.5 34.5t-23.5 25q-8 -11 -23 -25t-54.5 -34.5t-88.5 -30.5zM74 307v-135q0 -60 56 -100.5t122 -40.5q36 0 60.5 14.5t35 44t-3 81.5t-53.5 120q-18 32 -201 338
q-55 93 -52 166.5t46 125t105 78.5t126 27q85 0 152 -49q47 0 47 37h33v-277h-33v68q0 83 -45.5 127.5t-106.5 44.5q-42 0 -73 -22t-39 -67.5t31 -113.5q59 -101 249 -430q54 -101 30.5 -181t-99 -129.5t-168.5 -49.5q-105 0 -176 51q-43 0 -43 -35h-33v307h33z" />
    <glyph glyph-name="Scedilla" unicode="&#x15e;" horiz-adv-x="747" 
d="M215 -211l18 18q25 -41 79.5 -53t76.5 31q6 14 7.5 31t-3 36t-24.5 31.5t-54 12.5h-30l49 90q-109 7 -182 71q-14 -1 -22.5 -5t-12 -13.5t-4 -16.5t-0.5 -22h-35v360h35v-133q0 -93 56 -144.5t126 -51.5q106 0 120 106.5t-69 286.5q-11 26 -96.5 237t-122.5 287
q-44 104 -51 190.5t16 142.5t65.5 95t91.5 55.5t101 16.5q117 0 180 -66q19 3 25 15t6 35h33v-318h-31v88q0 103 -45.5 150t-109.5 47q-87 0 -106.5 -84t38.5 -225q23 -51 126 -312.5t148 -359.5q50 -127 21.5 -222t-103.5 -151t-167 -59l-27 -60q60 9 112 -22t52 -86
q0 -35 -23 -61t-59 -35.5t-75 -7.5t-75 21.5t-55 53.5z" />
    <glyph glyph-name="scedilla" unicode="&#x15f;" horiz-adv-x="663" 
d="M156 -211l18 18q24 -41 79 -53t77 31q5 13 6.5 29.5t-3.5 35.5t-24.5 31.5t-52.5 12.5h-31l47 90q-93 7 -157 51q-41 0 -41 -35h-33v307h33v-135q0 -60 56 -100.5t122 -40.5q36 0 60.5 14.5t35 44t-3 81.5t-53.5 120q-155 263 -201 338q-55 93 -52 166.5t46 125
t104.5 78.5t124.5 27q88 0 152 -49q15 0 24 2t16 10.5t7 24.5h35v-277h-35v68q0 84 -44.5 128t-105.5 44q-42 0 -73.5 -22t-39.5 -67.5t32 -113.5q47 -82 98 -170t94 -162t57 -98q54 -101 30.5 -181t-96.5 -129.5t-161 -49.5l-27 -60q60 9 112 -22t52 -86q0 -57 -57.5 -85.5
t-127 -13t-99.5 71.5z" />
    <glyph glyph-name="Scaron" unicode="&#x160;" horiz-adv-x="747" 
d="M182 1747q49 -11 88.5 -31.5t54.5 -34t23 -24.5q55 64 168 90l4 -2q-128 -111 -168 -232h-4q-40 121 -168 232zM127 948q-44 104 -51 190.5t16 142.5t65.5 95t91.5 55.5t101 16.5q117 0 180 -66q19 3 25 15t6 35h33v-318h-31v88q0 103 -45.5 150t-109.5 47
q-87 0 -106.5 -84t38.5 -225q23 -51 126 -312.5t148 -359.5q50 -129 19.5 -225t-109 -151.5t-172.5 -55.5q-117 0 -200 71q-14 -1 -22.5 -5t-12 -13.5t-4 -16.5t-0.5 -22h-35v360h35v-133q0 -93 56 -144.5t126 -51.5q106 0 120 106.5t-69 286.5q-11 26 -96.5 237t-122.5 287
z" />
    <glyph glyph-name="scaron" unicode="&#x161;" horiz-adv-x="663" 
d="M143 1329q111 -25 168 -92q8 11 23 25t54.5 35t88.5 32l4 -2q-20 -17 -37.5 -35t-31.5 -33.5t-26 -32t-21 -29.5t-17 -26.5t-13 -23t-9.5 -19.5t-6.5 -15.5t-4 -10.5l-2 -6h-4l-2 6q-2 5 -4 10.5t-6.5 15.5t-9.5 19.5t-13 23t-17 26.5t-21 29.5t-26 32t-31.5 33.5
t-37.5 35zM74 307v-135q0 -60 56 -100.5t122 -40.5q36 0 60.5 14.5t35 44t-3 81.5t-53.5 120q-18 32 -201 338q-55 93 -52 166.5t46 125t105 78.5t126 27q85 0 152 -49q47 0 47 37h33v-277h-33v68q0 83 -45.5 127.5t-106.5 44.5q-42 0 -73 -22t-39 -67.5t31 -113.5
q59 -101 249 -430q54 -101 30.5 -181t-99 -129.5t-168.5 -49.5q-105 0 -176 51q-43 0 -43 -35h-33v307h33z" />
    <glyph glyph-name="uni0162" unicode="&#x162;" horiz-adv-x="798" 
d="M242 0v33h75v1366h-69q-71 0 -102 -53t-31 -199h-33v285h717v-285h-33q0 146 -31 199t-102 53h-70v-1366h78v-33h-188l-25 -59q60 9 112 -22.5t52 -86.5q0 -57 -58.5 -85.5t-128.5 -13t-100 71.5l19 19q23 -41 78 -53.5t77 28.5q6 13 7.5 30.5t-3 36.5t-24.5 31.5
t-53 12.5h-31l49 90h-182z" />
    <glyph glyph-name="uni0163" unicode="&#x163;" horiz-adv-x="512" 
d="M215 -209l18 19q24 -41 79 -53.5t77 30.5q6 13 7.5 30.5t-3.5 36.5t-25 31.5t-53 12.5h-30l49 90q-38 2 -72 13.5t-65.5 35.5t-50.5 68.5t-19 103.5v772h-102v33h102v233l225 84v-317h154v-33h-154v-856q0 -90 49 -90q26 0 47 26.5t21 77.5h33q0 -71 -37.5 -109.5
t-102.5 -41.5l-24 -60q60 9 111 -22t51 -86q0 -58 -58 -87t-127.5 -13.5t-99.5 71.5z" />
    <glyph glyph-name="Tcaron" unicode="&#x164;" horiz-adv-x="798" 
d="M272 1747q50 -11 90 -31.5t55 -34t23 -24.5q8 11 23 24.5t55 34t90 31.5l2 -2q-127 -111 -168 -232h-4q-40 121 -168 232zM242 0v33h75v1366h-69q-71 0 -102 -53t-31 -199h-33v285h717v-285h-33q0 146 -31 199t-102 53h-70v-1366h78v-33h-399z" />
    <glyph glyph-name="tcaron" unicode="&#x165;" horiz-adv-x="512" 
d="M461 1292q-41 -19 -75 2.5t-34 65.5q0 36 22.5 57t53.5 21q38 0 60 -28t22 -81q0 -54 -30 -100t-101 -58l-2 19q45 10 64.5 38.5t19.5 63.5zM-49 981v33h102v233l228 84v-317h153v-33h-153v-856q0 -90 47 -90q26 0 47.5 26.5t21.5 77.5h33q0 -76 -41 -113.5t-113 -37.5
q-38 0 -74 10.5t-71 34t-56.5 69t-21.5 107.5v772h-102z" />
    <glyph glyph-name="Tbar" unicode="&#x166;" horiz-adv-x="798" 
d="M242 0v33h75v737h-131v43h131v586h-69q-71 0 -102 -53t-31 -199h-33v285h717v-285h-33q0 146 -31 199t-102 53h-70v-586h133v-43h-133v-737h78v-33h-399z" />
    <glyph glyph-name="tbar" unicode="&#x167;" horiz-adv-x="512" 
d="M25 981v33h102v233l225 84v-317h154v-33h-154v-63h158v-33h-158v-760q0 -90 49 -90q26 0 47 26.5t21 77.5h33q0 -76 -41 -113.5t-113 -37.5q-38 0 -74 10.5t-70.5 34t-55.5 69t-21 107.5v676h-100v33h100v63h-102z" />
    <glyph glyph-name="Utilde" unicode="&#x168;" horiz-adv-x="753" 
d="M594 1675q-7 -141 -92 -141q-31 0 -86.5 29.5t-83.5 29.5q-54 0 -78 -61l-8 2q6 61 36.5 97.5t67.5 39.5q33 3 93 -26t77 -29q34 0 68 61zM119 1399h-78v33h399v-33h-75v-1202q0 -98 20.5 -136t79.5 -38q28 0 54.5 9.5t56.5 34t48.5 79.5t18.5 133v1120h-76v33h187v-33
h-78v-1104q0 -151 -53 -229t-189 -78q-45 0 -87 8.5t-84.5 29t-73.5 52.5t-50.5 83t-19.5 115v1123z" />
    <glyph glyph-name="utilde" unicode="&#x169;" 
d="M532 1257q-7 -141 -92 -141q-31 0 -86.5 30t-83.5 30q-53 0 -77 -62l-9 2q6 61 37 97.5t68 39.5q33 3 93 -26t77 -29q33 0 67 62zM752 33v-33h-293v115q-49 -123 -158 -123q-33 0 -67 12t-67 36t-54 69t-21 102v770h-67v33h303v-885q0 -78 28 -78q35 0 69 60.5t34 124.5
v745h-68v33h293v-981h68z" />
    <glyph glyph-name="Umacron" unicode="&#x16a;" horiz-adv-x="753" 
d="M596 1616v-62h-352v62h352zM119 1399h-78v33h399v-33h-75v-1202q0 -98 20.5 -136t79.5 -38q28 0 54.5 9.5t56.5 34t48.5 79.5t18.5 133v1120h-76v33h187v-33h-78v-1104q0 -151 -53 -229t-189 -78q-45 0 -87 8.5t-84.5 29t-73.5 52.5t-50.5 83t-19.5 115v1123z" />
    <glyph glyph-name="umacron" unicode="&#x16b;" 
d="M535 1198v-61h-353v61h353zM752 33v-33h-293v115q-49 -123 -158 -123q-33 0 -67 12t-67 36t-54 69t-21 102v770h-67v33h303v-885q0 -78 28 -78q35 0 69 60.5t34 124.5v745h-68v33h293v-981h68z" />
    <glyph glyph-name="Ubreve" unicode="&#x16c;" horiz-adv-x="753" 
d="M565 1696h10q-9 -68 -52.5 -115t-100.5 -47q-58 0 -103 47.5t-53 114.5h10q6 -30 26 -49.5t46.5 -27t42 -9.5t31.5 -2q15 0 29 2t41 9t47 27t26 50zM119 1399h-78v33h399v-33h-75v-1202q0 -98 20.5 -136t79.5 -38q28 0 54.5 9.5t56.5 34t48.5 79.5t18.5 133v1120h-76v33
h187v-33h-78v-1104q0 -151 -53 -229t-189 -78q-45 0 -87 8.5t-84.5 29t-73.5 52.5t-50.5 83t-19.5 115v1123z" />
    <glyph glyph-name="ubreve" unicode="&#x16d;" 
d="M504 1278h10q-9 -67 -53 -114.5t-101 -47.5q-58 0 -102.5 47.5t-52.5 114.5h10q6 -30 25.5 -49.5t46 -27t42.5 -9.5t31 -2t29 2t41.5 9t47.5 27t26 50zM752 33v-33h-293v115q-49 -123 -158 -123q-33 0 -67 12t-67 36t-54 69t-21 102v770h-67v33h303v-885q0 -78 28 -78
q35 0 69 60.5t34 124.5v745h-68v33h293v-981h68z" />
    <glyph glyph-name="Uring" unicode="&#x16e;" horiz-adv-x="753" 
d="M319 1616q0 46 28.5 75t74.5 29q45 0 74.5 -29.5t29.5 -74.5q0 -44 -30 -73.5t-74 -29.5q-45 0 -74 29t-29 74zM362 1616q0 -27 16.5 -43.5t43.5 -16.5q28 0 44.5 17t16.5 43q0 28 -16.5 44.5t-44.5 16.5t-44 -16.5t-16 -44.5zM119 1399h-78v33h399v-33h-75v-1202
q0 -98 20.5 -136t79.5 -38q28 0 54.5 9.5t56.5 34t48.5 79.5t18.5 133v1120h-76v33h187v-33h-78v-1104q0 -151 -53 -229t-189 -78q-45 0 -87 8.5t-84.5 29t-73.5 52.5t-50.5 83t-19.5 115v1123z" />
    <glyph glyph-name="uring" unicode="&#x16f;" 
d="M258 1198q0 46 28.5 75.5t73.5 29.5t75 -30t30 -75q0 -44 -30 -73t-75 -29t-73.5 28.5t-28.5 73.5zM301 1198q0 -27 16 -43t43 -16q28 0 45 16.5t17 42.5q0 28 -17 45t-45 17q-27 0 -43 -17t-16 -45zM752 33v-33h-293v115q-49 -123 -158 -123q-33 0 -67 12t-67 36t-54 69
t-21 102v770h-67v33h303v-885q0 -78 28 -78q35 0 69 60.5t34 124.5v745h-68v33h293v-981h68z" />
    <glyph glyph-name="Uhungarumlaut" unicode="&#x170;" horiz-adv-x="753" 
d="M291 1516h-8q37 60 52.5 107.5t22.5 105.5h134q-31 -66 -84.5 -121.5t-116.5 -91.5zM469 1516h-10q67 109 76 213h133q-31 -66 -84 -121.5t-115 -91.5zM119 1399h-78v33h399v-33h-75v-1202q0 -98 20.5 -136t79.5 -38q28 0 54.5 9.5t56.5 34t48.5 79.5t18.5 133v1120h-76
v33h187v-33h-78v-1104q0 -151 -53 -229t-189 -78q-45 0 -87 8.5t-84.5 29t-73.5 52.5t-50.5 83t-19.5 115v1123z" />
    <glyph glyph-name="uhungarumlaut" unicode="&#x171;" 
d="M229 1098h-8q37 61 53 108.5t23 104.5h133q-31 -66 -84.5 -121.5t-116.5 -91.5zM408 1098h-11q67 109 76 213h133q-64 -134 -198 -213zM752 33v-33h-293v115q-49 -123 -158 -123q-33 0 -67 12t-67 36t-54 69t-21 102v770h-67v33h303v-885q0 -78 28 -78q35 0 69 60.5
t34 124.5v745h-68v33h293v-981h68z" />
    <glyph glyph-name="Uogonek" unicode="&#x172;" horiz-adv-x="753" 
d="M580 -150l6 -4q-20 -48 -55.5 -74.5t-71.5 -28.5t-67.5 9t-47.5 31q-14 20 -17.5 42t6 49t42.5 56.5t88 57.5h-29q-45 0 -87 8.5t-84.5 29t-73.5 52.5t-50.5 83t-19.5 115v1123h-78v33h399v-33h-75v-1202q0 -98 20.5 -136t79.5 -38q28 0 54.5 9.5t56.5 34t48.5 79.5
t18.5 133v1120h-76v33h187v-33h-78v-1104q0 -137 -42.5 -213.5t-150.5 -89.5q-45 -24 -65.5 -55t-19 -57.5t17.5 -49.5q17 -26 47.5 -37t64 3t52.5 54z" />
    <glyph glyph-name="uogonek" unicode="&#x173;" 
d="M737 -139l6 -2q-21 -49 -56.5 -76t-71 -29.5t-66.5 8t-47 31.5q-14 20 -17.5 42.5t5 49t41.5 56.5t87 59h-159v115q-49 -123 -158 -123q-33 0 -67 12t-67 36t-54 69t-21 102v770h-67v33h303v-885q0 -78 28 -78q35 0 69 60.5t34 124.5v745h-68v33h293v-981h68v-33h-115
q-44 -24 -63.5 -54t-18 -56t17.5 -50q16 -25 46 -36t64 3t54 54z" />
    <glyph glyph-name="Wcircumflex" unicode="&#x174;" horiz-adv-x="1284" 
d="M530 1516l-2 2q128 111 168 231h4q2 -13 13.5 -39t52.5 -83t102 -109l-4 -2q-111 23 -168 90q-8 -11 -23 -25t-54.5 -34.5t-88.5 -30.5zM518 0h-39l-315 1399h-82v33h407v-33h-73l176 -795l88 483l-68 312h-82v33h390v-33h-72l180 -783l137 783h-75v33h192v-33h-82
l-244 -1399l-2 25l-4 -25h-35l-215 993z" />
    <glyph glyph-name="wcircumflex" unicode="&#x175;" horiz-adv-x="1087" 
d="M449 1098l-5 2q61 52 102 109t52.5 83t13.5 39h4q40 -120 168 -231l-2 -2q-50 10 -90 31t-55 34.5t-23 24.5q-8 -12 -22.5 -25t-54 -34t-88.5 -31zM397 0h-24l-262 981h-74v33h373v-33h-60l123 -442l74 348l-25 94h-71v33h372v-33h-61l121 -434l92 434h-62v33h170v-33
h-73l-201 -981h-25l-215 807z" />
    <glyph glyph-name="Ycircumflex" unicode="&#x176;" horiz-adv-x="872" 
d="M369 1516l-4 2q61 52 102 109t52 83t13 39h5q40 -120 168 -231l-3 -2q-50 10 -90 31t-54.5 34t-22.5 25q-8 -11 -23 -25t-54.5 -34.5t-88.5 -30.5zM322 0v33h79v622l-235 748h-84v29h412v-29h-74l205 -651h2l127 651h-74v29h192v-29h-81l-144 -741v-629h76v-33h-401z" />
    <glyph glyph-name="ycircumflex" unicode="&#x177;" horiz-adv-x="714" 
d="M242 1096l-2 2q129 114 168 231h4q2 -13 13.5 -39t52.5 -82.5t102 -109.5l-5 -2q-100 23 -167 90q-53 -64 -166 -90zM358 -244q-18 -73 -57 -110t-84 -37q-44 0 -75 32t-31 87q0 52 35.5 81t113.5 41q26 6 41 11t34.5 23.5t26.5 47.5l17 72l-264 977h-74v33h373v-33h-60
l146 -455l104 455h-61v33h172v-33h-72z" />
    <glyph glyph-name="Ydieresis" unicode="&#x178;" horiz-adv-x="872" 
d="M328 1614q0 34 22 55t56 21q35 0 58 -21t23 -55q0 -35 -23 -57.5t-58 -22.5q-34 0 -56 22.5t-22 57.5zM549 1614q0 33 22.5 54.5t55.5 21.5q35 0 57.5 -21t22.5 -55q0 -35 -22.5 -57.5t-57.5 -22.5q-33 0 -55.5 22.5t-22.5 57.5zM322 0v33h79v622l-235 748h-84v29h412
v-29h-74l205 -651h2l127 651h-74v29h192v-29h-81l-144 -741v-629h76v-33h-401z" />
    <glyph glyph-name="Zacute" unicode="&#x179;" horiz-adv-x="829" 
d="M426 1516h-8q37 61 53 108.5t23 104.5h131q-30 -66 -82.5 -121.5t-116.5 -91.5zM526 1399h-161q-34 0 -52.5 -3.5t-38.5 -18t-29.5 -43.5t-15.5 -80.5t-6 -129.5h-33v308h607l-410 -1399h244q37 0 56 3.5t41 21t32 53t17 99.5t7 161h33v-371h-698z" />
    <glyph glyph-name="zacute" unicode="&#x17a;" horiz-adv-x="661" 
d="M287 1096h-8q64 103 73 213h135q-65 -135 -200 -213zM573 246h33v-246h-581l317 979h-94q-38 0 -58 -4.5t-36.5 -21.5t-22.5 -50.5t-6 -91.5h-33v203h512l-315 -979h172q36 0 54.5 5t33.5 26.5t19.5 63t4.5 116.5z" />
    <glyph glyph-name="Zdotaccent" unicode="&#x17b;" horiz-adv-x="829" 
d="M410 1616q0 32 22 54t55 22q35 0 56.5 -21.5t21.5 -54.5q0 -35 -21.5 -57.5t-56.5 -22.5q-34 0 -55.5 22.5t-21.5 57.5zM526 1399h-161q-34 0 -52.5 -3.5t-38.5 -18t-29.5 -43.5t-15.5 -80.5t-6 -129.5h-33v308h607l-410 -1399h244q37 0 56 3.5t41 21t32 53t17 99.5
t7 161h33v-371h-698z" />
    <glyph glyph-name="zdotaccent" unicode="&#x17c;" horiz-adv-x="661" 
d="M272 1196q0 33 21.5 54.5t54.5 21.5q35 0 56.5 -21.5t21.5 -54.5q0 -35 -21.5 -57.5t-56.5 -22.5q-34 0 -55 22.5t-21 57.5zM573 246h33v-246h-581l317 979h-94q-38 0 -58 -4.5t-36.5 -21.5t-22.5 -50.5t-6 -91.5h-33v203h512l-315 -979h172q36 0 54.5 5t33.5 26.5
t19.5 63t4.5 116.5z" />
    <glyph glyph-name="Zcaron" unicode="&#x17d;" horiz-adv-x="829" 
d="M322 1751q38 -9 69.5 -22.5t51 -28t29 -24t15.5 -17.5q57 67 168 92l4 -2q-22 -19 -41 -38.5t-34 -37.5t-27.5 -34.5t-21.5 -31.5t-16 -27.5t-12 -24t-8 -18t-5 -13.5l-2 -6h-5l-2 6q-2 5 -4 10.5t-6.5 15.5t-9.5 19.5t-13 23t-17 26.5t-21 29.5t-26 32t-31.5 33.5
t-37.5 35zM526 1399h-161q-34 0 -52.5 -3.5t-38.5 -18t-29.5 -43.5t-15.5 -80.5t-6 -129.5h-33v308h607l-410 -1399h244q37 0 56 3.5t41 21t32 53t17 99.5t7 161h33v-371h-698z" />
    <glyph glyph-name="zcaron" unicode="&#x17e;" horiz-adv-x="661" 
d="M182 1329q50 -11 90 -31.5t55 -34t23 -24.5q8 11 23 24.5t55 34t90 31.5l2 -2q-128 -111 -168 -231h-4q-40 120 -168 231zM573 246h33v-246h-581l317 979h-94q-38 0 -58 -4.5t-36.5 -21.5t-22.5 -50.5t-6 -91.5h-33v203h512l-315 -979h172q36 0 54.5 5t33.5 26.5t19.5 63
t4.5 116.5z" />
    <glyph glyph-name="florin" unicode="&#x192;" horiz-adv-x="909" 
d="M580 -106q0 -116 -76.5 -179t-208.5 -63q-133 0 -201.5 50.5t-68.5 135.5q0 48 20.5 82t49.5 46.5t62.5 6.5t57.5 -30q32 -27 38.5 -69.5t-9.5 -74.5q-24 -65 -23 -85q2 -39 62 -31q69 6 69 147v979h-102v41h102v352q0 116 76.5 179t208.5 63q134 0 202 -50.5t68 -136.5
q0 -48 -20.5 -82t-49.5 -46t-62.5 -6t-57.5 30q-30 28 -36 69.5t9 73.5q1 3 4 10q27 70 15 91q-12 22 -58 16q-71 -6 -71 -147v-416h151v-41h-151v-915z" />
    <glyph glyph-name="AEacute" unicode="&#x1fc;" horiz-adv-x="1148" 
d="M741 1513h-10q67 109 76 213h133q-31 -66 -84 -121.5t-115 -91.5zM84 33h84l432 1364v2h-76v33h570v-287h-33q0 152 -29 203t-114 51h-72v-651h51q30 0 48.5 2.5t32.5 11.5t21 19.5t11 35.5t5 50t1 71h33v-414h-33q0 46 -1 71t-5 50t-11 36t-21 20t-32.5 11.5t-48.5 2.5
h-51v-682h96q58 0 88 26t42.5 90t12.5 189h33v-338h-594v33h76v403h-266l-127 -403h74l-2 -33h-197zM344 469h256v805z" />
    <glyph glyph-name="aeacute" unicode="&#x1fd;" horiz-adv-x="1071" 
d="M524 1096h-8q37 61 53 108.5t23 104.5h133q-31 -66 -84.5 -121.5t-116.5 -91.5zM494 651v252q0 42 -19.5 66.5t-54.5 23.5q-40 2 -55 -28.5t14 -96.5q40 -88 7 -144t-105 -56q-62 0 -96.5 41t-34.5 104q0 101 81 157t201 56q116 0 191 -53q75 53 165 53
q120 0 206.5 -84.5t86.5 -206.5v-235h-350v-357q0 -63 16.5 -90.5t67.5 -27.5q89 0 161.5 73.5t72.5 177.5v95h32v-97q0 -112 -78.5 -197t-201.5 -85q-96 0 -175 54t-112 140q-1 -94 -51.5 -146t-124.5 -52q-31 0 -64 10.5t-66.5 33t-55 66t-21.5 101.5v114q0 61 21 106.5
t53.5 71t74.5 47.5t80.5 35.5t76 33.5t57.5 44zM731 897v-365h115v365q0 96 -53 96q-32 0 -47 -29t-15 -67zM494 608q-12 -13 -37.5 -30t-42.5 -30t-31 -43t-14 -71v-303q0 -36 12 -55t31 -19q29 0 55.5 45t26.5 105v401z" />
    <glyph glyph-name="Oslashacute" unicode="&#x1fe;" horiz-adv-x="868" 
d="M459 1513h-8q37 60 52.5 107.5t22.5 105.5h133q-65 -135 -200 -213zM178 12l62 135q-64 97 -64 209v729q0 143 103 251t241 108q148 0 254 -119l45 100l47 -22l-55 -123q57 -93 57 -195v-729q0 -151 -103.5 -259.5t-242.5 -108.5q-145 0 -246 112l-51 -108zM424 1249
v-696l197 434v262q0 77 -22 119.5t-77 42.5q-98 0 -98 -162zM424 174q0 -80 21.5 -117t76.5 -37q56 0 77.5 36t21.5 118v686l-197 -432v-254z" />
    <glyph glyph-name="oslashacute" unicode="&#x1ff;" horiz-adv-x="733" 
d="M369 1096h-11q67 109 76 213h133q-64 -134 -198 -213zM145 25l48 86q-62 75 -62 170v448q0 124 90 210.5t209 86.5q115 0 207 -82l37 70l45 -25l-45 -86q59 -78 59 -174v-448q0 -120 -89.5 -204.5t-207.5 -86.5q-115 0 -207 82l-36 -70zM367 897v-457l131 244v213
q0 38 -19 66t-45 28q-29 0 -48 -27.5t-19 -66.5zM367 113q0 -38 20 -64t49 -26q26 0 44 26t18 64v460l-131 -245v-215z" />
    <glyph glyph-name="uni0218" unicode="&#x218;" horiz-adv-x="747" 
d="M131 948q-44 104 -51 190.5t15.5 142.5t65 95t92 55.5t101.5 16.5q115 0 178 -66q19 3 25 15t6 35h33v-318h-31v88q0 103 -45 150t-108 47q-87 0 -106.5 -84.5t38.5 -224.5q23 -51 125 -313t147 -359q52 -129 21.5 -225t-109.5 -151.5t-174 -55.5q-116 0 -200 69
q-14 0 -22.5 -4t-12 -13.5t-4 -16.5t-0.5 -21h-33v360h33v-133q0 -93 56.5 -144.5t127.5 -51.5q70 0 100 48t17.5 137t-66.5 208q-23 51 -104 252t-115 272zM385 -233q-44 -22 -78.5 -0.5t-34.5 69.5q0 38 23.5 59t56.5 21q38 0 61 -28.5t23 -82.5q0 -35 -10 -66t-42.5 -60
t-84.5 -37l-2 18q88 18 88 107z" />
    <glyph glyph-name="uni0219" unicode="&#x219;" horiz-adv-x="663" 
d="M74 307v-135q0 -60 56 -100.5t122 -40.5q36 0 60.5 14.5t35 44t-3 81.5t-53.5 120q-155 263 -201 338q-55 93 -52 166.5t46 125t104.5 78.5t124.5 27q88 0 152 -49q15 0 24 2t16 10.5t7 24.5h35v-277h-35v68q0 84 -44.5 128t-105.5 44q-42 0 -73.5 -22t-39.5 -67.5
t32 -113.5q47 -82 98 -170t94 -162t57 -98q54 -101 30 -181t-99.5 -129.5t-167.5 -49.5q-104 0 -178 51q-41 0 -41 -35h-33v307h33zM311 -233q-43 -22 -78.5 0t-35.5 69q0 38 24.5 59t57.5 21q37 0 60 -28.5t23 -82.5q0 -35 -10 -66t-42.5 -60t-84.5 -37l-2 18q88 18 88 107
z" />
    <glyph glyph-name="uni021A" unicode="&#x21a;" horiz-adv-x="798" 
d="M242 0v33h75v1366h-69q-71 0 -102 -53t-31 -199h-33v285h717v-285h-33q0 146 -31 199t-102 53h-70v-1366h78v-33h-399zM473 -233q-44 -22 -79.5 0t-35.5 69q0 38 24.5 59t57.5 21q38 0 60 -28.5t22 -82.5q0 -36 -9.5 -66.5t-41.5 -59.5t-84 -37l-2 18q88 18 88 107z" />
    <glyph glyph-name="uni021B" unicode="&#x21b;" horiz-adv-x="512" 
d="M25 981v33h102v233l227 84v-317h154v-33h-154v-856q0 -90 47 -90q26 0 48 26.5t22 77.5h33q0 -76 -41 -113.5t-113 -37.5q-38 0 -74 10.5t-71 34t-56.5 69t-21.5 107.5v772h-102zM332 -233q-43 -22 -78 0t-35 69q0 38 23.5 59t56.5 21q38 0 61 -28.5t23 -82.5
q0 -36 -9.5 -66.5t-41.5 -59.5t-84 -37l-2 18q46 10 66 40t20 67z" />
    <glyph glyph-name="uni0237" unicode="&#x237;" horiz-adv-x="630" 
d="M580 -100q0 -124 -81.5 -184t-217.5 -60q-66 0 -121.5 18t-95 61.5t-39.5 106.5q0 44 19.5 77.5t48 48t62.5 11t60 -27.5q25 -22 33 -53.5t3.5 -57.5t-15.5 -49q-23 -40 -17.5 -63.5t19.5 -32t34 -8.5q29 0 48.5 25t26.5 56.5t7 67.5v1153h-67v25h293v-1114z" />
    <glyph glyph-name="circumflex" unicode="&#x2c6;" horiz-adv-x="393" 
d="M59 1165l-2 2q127 111 168 232h4q2 -13 13.5 -39.5t52.5 -83.5t102 -109l-4 -2q-111 23 -168 90q-8 -11 -23 -25t-54.5 -34.5t-88.5 -30.5z" />
    <glyph glyph-name="caron" unicode="&#x2c7;" horiz-adv-x="380" 
d="M-293 1397q50 -11 90 -31.5t55 -34t23 -24.5q8 11 23 24.5t55 34t90 31.5l2 -2q-127 -111 -168 -232h-4q-41 121 -168 232z" />
    <glyph glyph-name="breve" unicode="&#x2d8;" horiz-adv-x="366" 
d="M360 1407h11q-11 -68 -54 -115t-100 -47q-58 0 -103 47.5t-53 114.5h11q6 -30 25 -49.5t46 -27t42.5 -9.5t31.5 -2q15 0 29 2t41 9t47 27t26 50z" />
    <glyph glyph-name="dotaccent" unicode="&#x2d9;" horiz-adv-x="192" 
d="M37 1313q0 34 21.5 55t56.5 21t56.5 -21t21.5 -55q0 -35 -21.5 -56.5t-56.5 -21.5t-56.5 21.5t-21.5 56.5z" />
    <glyph glyph-name="ring" unicode="&#x2da;" horiz-adv-x="256" 
d="M49 1292q0 46 29.5 75.5t73.5 29.5q46 0 75 -29.5t29 -75.5q0 -44 -29 -73t-75 -29q-44 0 -73.5 29t-29.5 73zM92 1292q0 -26 17 -42.5t43 -16.5q28 0 44.5 16.5t16.5 42.5q0 28 -16.5 45t-44.5 17q-26 0 -43 -17t-17 -45z" />
    <glyph glyph-name="ogonek" unicode="&#x2db;" horiz-adv-x="315" 
d="M295 -141l6 -4q-20 -49 -55.5 -76t-71.5 -29t-67.5 9t-47.5 32q-14 19 -17.5 41.5t6.5 49.5t44.5 58t91.5 60h17q-45 -24 -66.5 -54.5t-20.5 -57.5t17 -52t46.5 -35.5t64.5 4t53 54.5z" />
    <glyph glyph-name="tilde" unicode="&#x2dc;" horiz-adv-x="524" 
d="M524 1389q-7 -140 -92 -140q-31 0 -86.5 30t-83.5 30q-52 0 -80 -62l-6 2q4 60 35.5 96t69.5 39q33 4 93.5 -24.5t76.5 -28.5q33 0 67 62z" />
    <glyph glyph-name="hungarumlaut" unicode="&#x2dd;" horiz-adv-x="430" 
d="M59 1163h-10q39 64 55 111.5t21 103.5h133q-63 -135 -199 -215zM236 1163h-9q38 63 54 110t22 105h133q-64 -137 -200 -215z" />
    <glyph glyph-name="Wgrave" unicode="&#x1e80;" horiz-adv-x="1284" 
d="M770 1513q-62 36 -115 91.5t-84 121.5h134q9 -105 73 -213h-8zM518 0h-39l-315 1399h-82v33h407v-33h-73l176 -795l88 483l-68 312h-82v33h390v-33h-72l180 -783l137 783h-75v33h192v-33h-82l-244 -1399l-2 25l-4 -25h-35l-215 993z" />
    <glyph glyph-name="wgrave" unicode="&#x1e81;" horiz-adv-x="1087" 
d="M674 1096q-139 82 -199 213h131q12 -106 78 -213h-10zM397 0h-24l-262 981h-74v33h373v-33h-60l123 -442l74 348l-25 94h-71v33h372v-33h-61l121 -434l92 434h-62v33h170v-33h-73l-201 -981h-25l-215 807z" />
    <glyph glyph-name="Wacute" unicode="&#x1e82;" horiz-adv-x="1284" 
d="M680 1513h-8q37 61 53 108.5t23 104.5h133q-69 -137 -201 -213zM518 0h-39l-315 1399h-82v33h407v-33h-73l176 -795l88 483l-68 312h-82v33h390v-33h-72l180 -783l137 783h-75v33h192v-33h-82l-244 -1399l-2 25l-4 -25h-35l-215 993z" />
    <glyph glyph-name="wacute" unicode="&#x1e83;" horiz-adv-x="1087" 
d="M553 1096h-8q64 103 73 213h136q-69 -137 -201 -213zM397 0h-24l-262 981h-74v33h373v-33h-60l123 -442l74 348l-25 94h-71v33h372v-33h-61l121 -434l92 434h-62v33h170v-33h-73l-201 -981h-25l-215 807z" />
    <glyph glyph-name="Wdieresis" unicode="&#x1e84;" horiz-adv-x="1284" 
d="M555 1614q0 34 22 55t56 21t57 -21.5t23 -54.5q0 -35 -23 -57.5t-57 -22.5t-56 22.5t-22 57.5zM774 1614q0 33 22.5 54.5t55.5 21.5q35 0 57.5 -21t22.5 -55q0 -35 -22.5 -57.5t-57.5 -22.5q-33 0 -55.5 22.5t-22.5 57.5zM518 0h-39l-315 1399h-82v33h407v-33h-73
l176 -795l88 483l-68 312h-82v33h390v-33h-72l180 -783l137 783h-75v33h192v-33h-82l-244 -1399l-2 25l-4 -25h-35l-215 993z" />
    <glyph glyph-name="wdieresis" unicode="&#x1e85;" horiz-adv-x="1087" 
d="M430 1196q0 34 22 55t56 21q35 0 57.5 -21t22.5 -55q0 -35 -22.5 -57.5t-57.5 -22.5q-34 0 -56 22.5t-22 57.5zM651 1196q0 34 22 55t56 21q35 0 57.5 -21t22.5 -55q0 -35 -22.5 -57.5t-57.5 -22.5q-34 0 -56 22.5t-22 57.5zM401 0h-24l-262 981h-74v33h373v-33h-60
l123 -442l74 348l-25 94h-71v33h372v-33h-61l121 -434l90 434h-62v33h172v-33h-73l-201 -981h-25l-217 807z" />
    <glyph glyph-name="Ygrave" unicode="&#x1ef2;" horiz-adv-x="872" 
d="M606 1513q-131 75 -200 213h135q9 -110 73 -213h-8zM322 0v33h79v622l-235 748h-84v29h412v-29h-74l205 -651h2l127 651h-74v29h192v-29h-81l-144 -741v-629h76v-33h-401z" />
    <glyph glyph-name="ygrave" unicode="&#x1ef3;" horiz-adv-x="714" 
d="M479 1096q-63 37 -115.5 92.5t-82.5 120.5h131q12 -108 77 -213h-10zM358 -244q-18 -73 -57 -110t-84 -37q-44 0 -75 32t-31 87q0 52 35.5 81t113.5 41q26 6 41 11t34.5 23.5t26.5 47.5l17 72l-264 977h-74v33h373v-33h-60l146 -455l104 455h-61v33h172v-33h-72z" />
    <glyph glyph-name="zerowidthspace" unicode="&#x200b;" horiz-adv-x="2048" 
 />
    <glyph glyph-name="endash" unicode="&#x2013;" horiz-adv-x="872" 
d="M131 707h741v-134h-741v134z" />
    <glyph glyph-name="emdash" unicode="&#x2014;" horiz-adv-x="1210" 
d="M131 707h1079v-134h-1079v134z" />
    <glyph glyph-name="quoteleft" unicode="&#x2018;" horiz-adv-x="440" 
d="M258 1233q69 32 125.5 -3t56.5 -110q0 -61 -39 -95t-92 -34q-60 0 -96.5 46t-36.5 132q0 32 5.5 62.5t20.5 64.5t38.5 60.5t62.5 48t90 29.5l6 -33q-77 -16 -109 -62.5t-32 -105.5z" />
    <glyph glyph-name="quoteright" unicode="&#x2019;" horiz-adv-x="395" 
d="M313 1200q-69 -32 -125.5 3t-56.5 110q0 61 38.5 95t92.5 34q60 0 96.5 -46t36.5 -132q0 -32 -5.5 -62.5t-20.5 -64.5t-38.5 -60.5t-62.5 -48t-90 -29.5l-6 33q77 16 109 62.5t32 105.5z" />
    <glyph glyph-name="quotesinglbase" unicode="&#x201a;" horiz-adv-x="440" 
d="M358 6q-69 -32 -125.5 3t-56.5 110q0 60 39 94.5t92 34.5q60 0 96.5 -46.5t36.5 -133.5q0 -32 -5.5 -62.5t-20.5 -64t-38.5 -60t-62.5 -47.5t-90 -29l-6 31q77 16 109 63.5t32 106.5z" />
    <glyph glyph-name="quotedblleft" unicode="&#x201c;" horiz-adv-x="792" 
d="M258 1233q69 32 125.5 -3t56.5 -110q0 -61 -39 -95t-92 -34q-60 0 -96.5 46t-36.5 132q0 32 5.5 62.5t20.5 64.5t38.5 60.5t62.5 48t90 29.5l6 -33q-77 -16 -109 -62.5t-32 -105.5zM610 1233q69 32 126 -3t57 -110q0 -61 -38.5 -95t-92.5 -34q-60 0 -97 46.5t-37 131.5
q0 32 5.5 62.5t20.5 64.5t38.5 60.5t62.5 48t90 29.5l7 -33q-77 -16 -109.5 -62.5t-32.5 -105.5z" />
    <glyph glyph-name="quotedblright" unicode="&#x201d;" horiz-adv-x="727" 
d="M313 1202q-69 -32 -125.5 3t-56.5 110q0 60 39 94.5t92 34.5q60 0 96.5 -46.5t36.5 -133.5q0 -32 -5.5 -62.5t-20.5 -64t-38.5 -60t-62.5 -47.5t-90 -29l-6 31q77 16 109 63.5t32 106.5zM645 1202q-69 -32 -125.5 3t-56.5 110q0 60 39 94.5t92 34.5q60 0 96.5 -46.5
t36.5 -133.5q0 -32 -5.5 -62.5t-20.5 -64t-38.5 -60t-62.5 -47.5t-90 -29l-6 31q77 16 109 63.5t32 106.5z" />
    <glyph glyph-name="quotedblbase" unicode="&#x201e;" horiz-adv-x="772" 
d="M358 6q-69 -32 -125.5 3t-56.5 110q0 60 39 94.5t92 34.5q60 0 96.5 -46.5t36.5 -133.5q0 -32 -5.5 -62.5t-20.5 -64t-38.5 -60t-62.5 -47.5t-90 -29l-6 31q77 16 109 63.5t32 106.5zM690 6q-69 -32 -125.5 3t-56.5 110q0 60 39 94.5t92 34.5q60 0 96.5 -46.5
t36.5 -133.5q0 -32 -5.5 -62.5t-20.5 -64t-38.5 -60t-62.5 -47.5t-90 -29l-6 31q77 16 109 63.5t32 106.5z" />
    <glyph glyph-name="dagger" unicode="&#x2020;" horiz-adv-x="970" 
d="M559 -338v766q-16 71 -80 121v4q64 50 80 121v313q-74 0 -129 -33q-33 -20 -80.5 -36.5t-79.5 -16.5q-40 0 -67 28t-27 72q0 45 27 74t67 29q31 0 78 -17t80 -36q59 -35 131 -35v43q0 71 -35 133q-19 29 -36 75t-17 79q0 40 28 67t72 27q45 0 74 -27t29 -67
q0 -33 -16.5 -79.5t-36.5 -78.5q-33 -57 -33 -129v-43q72 0 129 35q35 20 82 36.5t78 16.5q40 0 67 -29t27 -74q0 -44 -27 -72t-67 -28q-32 0 -79.5 16.5t-80.5 36.5q-63 36 -129 33v-317q16 -68 78 -117v-4q-62 -48 -78 -115v-772h-29z" />
    <glyph glyph-name="daggerdbl" unicode="&#x2021;" horiz-adv-x="970" 
d="M428 59q-31 -20 -78.5 -36.5t-79.5 -16.5q-40 0 -67 28t-27 72q0 45 26.5 74t65.5 29q32 0 79 -17.5t79 -37.5q58 -33 133 -33v285q-10 87 -84 143v4q74 56 84 143v275q-71 0 -129 -35q-35 -20 -82 -36.5t-78 -16.5q-40 0 -67 28.5t-27 73.5q0 44 27 72t67 28
q32 0 79 -16t79 -35q63 -37 131 -37v60q0 74 -35 133q-19 29 -36 76t-17 80q0 39 28 65.5t72 26.5q45 0 74 -27.5t29 -67.5q0 -32 -16.5 -79t-36.5 -78q-33 -55 -33 -129v-60q68 0 129 35q33 20 80.5 36.5t79.5 16.5q40 0 67 -28t27 -72q0 -45 -27 -73.5t-67 -28.5
q-31 0 -78 16.5t-82 36.5q-57 35 -129 35v-275q11 -89 84 -143v-4q-73 -54 -84 -143v-285q75 0 133 33q32 20 79 37.5t79 17.5q39 0 65.5 -29t26.5 -74q0 -44 -27 -72t-67 -28q-32 0 -79.5 16.5t-78.5 36.5q-58 37 -131 33v-57q0 -74 33 -129q20 -31 36.5 -78.5t16.5 -79.5
q0 -40 -29 -67t-74 -27q-44 0 -72 27t-28 67q0 32 17 78.5t36 75.5q35 59 35 133v57q-78 0 -131 -33z" />
    <glyph glyph-name="bullet" unicode="&#x2022;" horiz-adv-x="440" 
d="M307 500q-56 0 -93.5 40.5t-37.5 90.5q0 61 40 97t91 36q60 0 96.5 -42t36.5 -91q0 -60 -41.5 -95.5t-91.5 -35.5z" />
    <glyph glyph-name="ellipsis" unicode="&#x2026;" horiz-adv-x="1095" 
d="M176 119q0 55 36 91t91 36q56 0 92.5 -36t36.5 -91t-36.5 -91t-92.5 -36q-55 0 -91 36t-36 91zM508 119q0 55 36 91t91 36q56 0 92.5 -36t36.5 -91t-36.5 -91t-92.5 -36q-55 0 -91 36t-36 91zM840 119q0 55 36 91t91 36q56 0 92.5 -36t36.5 -91t-36.5 -91t-92.5 -36
q-55 0 -91 36t-36 91z" />
    <glyph glyph-name="perthousand" unicode="&#x2030;" horiz-adv-x="2224" 
d="M176 1006v141q0 124 90 211.5t209 87.5t211 -87.5t92 -211.5v-141q0 -122 -89.5 -206.5t-207.5 -84.5q-119 0 -212 85t-93 206zM633 0l334 1432h127l-334 -1432h-127zM412 1319v-481q0 -38 19.5 -64t47.5 -26t46 26t18 64v481q0 38 -19 66t-45 28q-29 0 -48 -27.5
t-19 -66.5zM952 287v141q0 124 90 211.5t209 87.5t211 -87.5t92 -211.5v-141q0 -122 -89.5 -206.5t-207.5 -84.5q-120 0 -212.5 84.5t-92.5 206.5zM1638 287v141q0 124 90 211.5t209 87.5t211.5 -87.5t92.5 -211.5v-141q0 -122 -89.5 -206.5t-207.5 -84.5q-120 0 -213 84.5
t-93 206.5zM1188 600v-481q0 -38 19 -64t48 -26q28 0 46 26t18 64v481q0 39 -19 66.5t-47 27.5q-27 0 -46 -27.5t-19 -66.5zM1874 600v-481q0 -38 19.5 -64t48.5 -26q28 0 45.5 25.5t17.5 64.5v481q0 39 -19 66.5t-47 27.5q-27 0 -46 -27.5t-19 -66.5z" />
    <glyph glyph-name="guilsinglleft" unicode="&#x2039;" horiz-adv-x="512" 
d="M176 625v6q19 10 59.5 35.5t99.5 66.5t103 88t47 82h27q-12 -87 -43 -150.5t-94 -121.5v-6q62 -57 93.5 -121t43.5 -152h-27q-4 46 -80.5 113.5t-136.5 105t-92 54.5z" />
    <glyph glyph-name="guilsinglright" unicode="&#x203a;" horiz-adv-x="512" 
d="M512 625q-32 -17 -92 -54.5t-136.5 -105t-80.5 -113.5h-27q12 88 43.5 152t93.5 121v6q-63 58 -94 121.5t-43 150.5h27q3 -35 47 -82t103 -88t99.5 -66.5t59.5 -35.5v-6z" />
    <glyph glyph-name="fraction" unicode="&#x2044;" horiz-adv-x="577" 
d="M176 0l318 1432h84l-318 -1432h-84z" />
    <glyph glyph-name="uni2074" unicode="&#x2074;" horiz-adv-x="442" 
d="M301 1221h-2l-104 -279v-2h106v281zM268 829h33v99h-125v10l180 494h41v-492h45v-12h-45v-99h35v-14h-164v14z" />
    <glyph glyph-name="franc" unicode="&#x20a3;" horiz-adv-x="659" 
d="M49 0v33h76v280h-84v43h84v1045h-76v31h561v-287h-32q0 152 -29.5 204t-114.5 52h-63v-653h43q40 0 60.5 5t34.5 27t17.5 57t3.5 103h33v-418h-33q0 124 -20.5 158.5t-95.5 34.5h-43v-359h84v-43h-84v-280h78v-33h-400z" />
    <glyph glyph-name="uni20A6" unicode="&#x20a6;" horiz-adv-x="864" 
d="M76 33h78v770h-113v43h113v96h-111v41h111v416h-78v33h317l178 -449h146v416h-76v33h188v-33h-77v-416h110v-41h-110v-96h112v-43h-112v-803h-52l-317 803h-195v-770h76v-33h-188v33zM188 1284v-301h123l-118 301h-5zM188 846h177l-37 96h-140v-96zM627 846h90v96h-127z
M715 629h2v174h-72z" />
    <glyph glyph-name="peseta" unicode="&#x20a7;" horiz-adv-x="948" 
d="M389 1399v-336h143v184q0 152 -79 152h-64zM532 872v150h-143v-311h70q73 0 73 161zM68 0v33h75v989h-102v41h102v336h-75v33h399q128 0 219.5 -86t91.5 -218v-65h103v-41h-103v-51q0 -140 -87.5 -216.5t-219.5 -76.5h-82v-645h78v-33h-399z" />
    <glyph glyph-name="uni20A9" unicode="&#x20a9;" horiz-adv-x="1284" 
d="M518 0h-39l-147 659h-170v43h160l-23 97h-137v43h129l-127 557h-82v33h407v-33h-73l123 -557h96l45 245l-68 312h-82v33h390v-33h-72l129 -557h90l98 557h-75v33h192v-33h-82l-96 -557h131v-43h-139l-17 -97h156v-43h-164l-115 -659l-2 25l-4 -25h-35l-143 659h-133z
M672 842h61l-33 151zM569 702h39l19 97h-78zM647 702h117l-23 97h-77zM1010 702h34l17 97h-74zM580 659l12 -55l8 55h-20zM1018 659l10 -43l8 43h-18z" />
    <glyph glyph-name="Euro" unicode="&#x20ac;" horiz-adv-x="794" 
d="M246 358v336h-70v37h70v90h-70v37h70v225q0 145 102.5 253t239.5 108q91 0 147 -53q16 1 20.5 10.5t4.5 30.5h33v-328h-33v119q0 79 -44 133.5t-118 54.5q-28 0 -48 -9t-31 -23t-17 -39t-8 -49.5t-2 -61.5v-371h92v-37h-92v-90h92v-37h-92v-504q0 -97 22.5 -133.5
t77.5 -36.5q29 0 55.5 7.5t53.5 26.5t43 58.5t16 96.5v162h33v-371h-33q0 36 -25 41q-53 -53 -145 -53q-97 0 -177.5 54.5t-123.5 139t-43 176.5z" />
    <glyph glyph-name="trademark" unicode="&#x2122;" horiz-adv-x="849" 
d="M231 1016v18h27v379h-10q-26 0 -36.5 -14t-10.5 -56h-25v89h252v-89h-25q0 42 -11 56t-36 14h-12v-379h27v-18h-140zM477 1014v20h27v377h-27v21h135l58 -197l39 197h141v-21h-27v-377h27v-20h-139v20h26v371h-2l-73 -391h-17l-108 375h-2v-355h26v-20h-84z" />
    <glyph glyph-name="minus" unicode="&#x2212;" horiz-adv-x="804" 
d="M176 840h629v-113h-629v113z" />
    <glyph glyph-name="uni2215" unicode="&#x2215;" horiz-adv-x="577" 
d="M176 0l318 1432h84l-318 -1432h-84z" />
    <glyph glyph-name="uniF8FF" unicode="&#xf8ff;" horiz-adv-x="2048" 
 />
    <glyph glyph-name="U00A0" horiz-adv-x="753" 
 />
    <glyph glyph-name="commaaccent" horiz-adv-x="348" 
d="M268 424q-70 -32 -126 3t-56 110q0 60 38 94.5t91 34.5q60 0 96.5 -47t36.5 -134q0 -32 -5.5 -62t-20 -63.5t-38 -60t-63 -47.5t-90.5 -29l-4 31q76 16 108.5 63.5t32.5 106.5z" />
    <glyph glyph-name="commaaccent.salt" horiz-adv-x="348" 
d="M268 424q-70 -32 -126 3t-56 110q0 60 38 94.5t91 34.5q60 0 96.5 -47t36.5 -134q0 -32 -5.5 -62t-20 -63.5t-38 -60t-63 -47.5t-90.5 -29l-4 31q76 16 108.5 63.5t32.5 106.5z" />
    </font>
</defs>
</svg>
