<?xml version="1.0" standalone="no"?>
<!DOCTYPE svg PUBLIC "-//W3C//DTD SVG 1.1//EN" "http://www.w3.org/Graphics/SVG/1.1/DTD/svg11.dtd" >
<svg xmlns="http://www.w3.org/2000/svg" xmlns:xlink="http://www.w3.org/1999/xlink" version="1.1">
<metadata>
Created by FontForge 20170731 at Mon Oct 19 23:50:22 2020
 By Aleksey,,,
Pangram Pangram
</metadata>
<defs>
<font id="MonumentExtended-Medium" horiz-adv-x="0" >
  <font-face 
    font-family="Monument Extended Medium"
    font-weight="500"
    font-stretch="normal"
    units-per-em="2048"
    panose-1="0 0 6 0 0 0 0 0 0 0"
    ascent="1638"
    descent="-410"
    x-height="1200"
    cap-height="1446"
    bbox="-2212 -621 4141 2200"
    underline-thickness="176"
    underline-position="-298"
    unicode-range="U+0020-25CA"
  />
<missing-glyph horiz-adv-x="1126" 
d="M209 1638h715v-2252h-715v2252zM750 1413v74h-371v-74h145v-84h-147v-74h373v74h-148v84h148zM602 1038v158h-225v-233h373v75h-148zM451 1120h73v-82h-73v82zM750 827v74h-373v-74h147v-84h-147v-73h225v157h148zM750 541v225h-74v-148h-299v-77h373zM750 238v254h-226
v-125h78v51h74v-107h-225v181h-74v-254h373zM750 -152v254h-373v-254h373zM451 29h225v-107h-225v107zM750 -279v74h-373v-74h158l-158 -106v-74h373v74h-230l158 106h72z" />
    <glyph glyph-name="f_f" unicode="ff" horiz-adv-x="2424" 
d="M2288 1409h-301q-152 0 -200.5 -39.5t-49.5 -169.5h551v-250h-551v-950h-303v950h-648v-950h-303v950h-344v250h344v33q0 215 118.5 310t375.5 95h323v-229h-266q-150 0 -198.5 -39.5t-49.5 -169.5h648v33q0 215 118.5 310t374.5 95h361v-229z" />
    <glyph glyph-name="f_f_i" unicode="ffi" horiz-adv-x="2852" 
d="M2687 1409h-700q-152 0 -200.5 -39.5t-49.5 -169.5h950v-1200h-301v950h-649v-950h-303v950h-648v-950h-303v950h-344v250h344v33q0 215 118.5 310t375.5 95h346v-229h-289q-150 0 -198.5 -39.5t-49.5 -169.5h648v33q0 215 118.5 310t374.5 95h760v-229z" />
    <glyph glyph-name="f_i" unicode="fi" horiz-adv-x="1902" 
d="M1737 1409h-703q-150 0 -198.5 -39.5t-49.5 -169.5h951v-1200h-303v950h-648v-950h-303v950h-344v250h344v33q0 215 118.5 310t375.5 95h760v-229z" />
    <glyph glyph-name="f_l" unicode="fl" horiz-adv-x="1943" 
d="M977 1638h803v-1638h-303v1409h-443q-150 0 -198.5 -39.5t-49.5 -169.5h486v-250h-486v-950h-303v950h-344v250h344v33q0 215 118.5 310t375.5 95z" />
    <glyph glyph-name=".notdef" horiz-adv-x="1126" 
d="M209 1638h715v-2252h-715v2252zM750 1413v74h-371v-74h145v-84h-147v-74h373v74h-148v84h148zM602 1038v158h-225v-233h373v75h-148zM451 1120h73v-82h-73v82zM750 827v74h-373v-74h147v-84h-147v-73h225v157h148zM750 541v225h-74v-148h-299v-77h373zM750 238v254h-226
v-125h78v51h74v-107h-225v181h-74v-254h373zM750 -152v254h-373v-254h373zM451 29h225v-107h-225v107zM750 -279v74h-373v-74h158l-158 -106v-74h373v74h-230l158 106h72z" />
    <glyph glyph-name=".null" 
 />
    <glyph glyph-name="nonmarkingreturn" horiz-adv-x="682" 
 />
    <glyph glyph-name="space" unicode=" " horiz-adv-x="813" 
 />
    <glyph glyph-name="exclam" unicode="!" horiz-adv-x="651" 
d="M166 1434h321l-8 -998h-307zM172 0v256h307v-256h-307z" />
    <glyph glyph-name="quotedbl" unicode="&#x22;" horiz-adv-x="1208" 
d="M166 1569h334l-27 -692h-280zM709 1569h333l-26 -692h-281z" />
    <glyph glyph-name="numbersign" unicode="#" horiz-adv-x="2818" 
d="M2613 1112v-250h-489l-148 -495h432v-248h-505l-127 -426h-303l126 426h-649l-127 -426h-303l127 426h-440v248h516l147 495h-458v250h534l123 414h301l-123 -414h651l123 414h301l-122 -414h413zM1024 367h651l148 495h-652z" />
    <glyph glyph-name="dollar" unicode="$" horiz-adv-x="2160" 
d="M1997 426q0 -107 -41.5 -188.5t-113 -133.5t-178.5 -84.5t-226 -46t-269 -14.5v-164h-176v166q-194 8 -340 39t-255 91t-167 155t-65 225h334q0 -75 44 -126t155 -85t294 -43v391q-168 13 -291 34.5t-218.5 56t-153.5 85t-87.5 119.5t-29.5 160q0 110 54 190.5t158 130
t244 74.5t324 29v151h176v-153q363 -18 562.5 -140.5t203.5 -345.5h-336q0 110 -101.5 163.5t-328.5 64.5v-369q128 -10 208 -18t177.5 -23t156 -34.5t120 -51t93.5 -73t52.5 -100t20.5 -132.5zM549 1055q0 -60 35.5 -93t129.5 -54t279 -36v359q-174 -2 -273 -23.5
t-135 -57.5t-36 -95zM1169 598v-383q181 2 291.5 26t155.5 65.5t45 105.5q0 40 -12.5 65.5t-40.5 45.5t-88 33t-140 22.5t-211 19.5z" />
    <glyph glyph-name="percent" unicode="%" horiz-adv-x="3078" 
d="M721 510q-116 0 -211 28t-158 75t-105.5 111t-61.5 132.5t-19 142.5q0 73 19 141.5t61.5 132t105.5 110.5t158 75.5t211 28.5q117 0 212.5 -28.5t158.5 -75.5t105.5 -110.5t61.5 -132t19 -141.5q0 -93 -31.5 -177.5t-95 -155.5t-174.5 -113.5t-256 -42.5zM1923 1446h324
l-1094 -1446h-326zM721 741q131 0 201.5 68.5t70.5 189.5q0 122 -70 190t-202 68q-131 0 -201.5 -68.5t-70.5 -189.5q0 -120 71 -189t201 -69zM2355 -41q-116 0 -211.5 28.5t-158.5 75.5t-106 111t-62 132.5t-19 142.5q0 73 19 141.5t62 132t106 110.5t158.5 75t211.5 28
q117 0 212.5 -28t158.5 -75t105.5 -110.5t61.5 -132t19 -141.5q0 -74 -19 -142.5t-61.5 -132.5t-105.5 -111t-158.5 -75.5t-212.5 -28.5zM2355 190q131 0 202 69t71 190q0 122 -70.5 190t-202.5 68q-131 0 -201.5 -68.5t-70.5 -189.5q0 -120 71 -189.5t201 -69.5z" />
    <glyph glyph-name="ampersand" unicode="&#x26;" horiz-adv-x="2215" 
d="M1681 268l369 -268h-453l-133 96q-247 -137 -573 -137q-353 0 -539 104t-186 302q0 82 31 146.5t90 111t120.5 77t147.5 60.5q-178 160 -178 350q0 173 145.5 269t374.5 96q230 0 372 -93t142 -258q0 -60 -20 -109.5t-52 -85.5t-86.5 -69.5t-107.5 -57t-131 -52.5
q108 -73 129 -88l330 -240q92 122 106 297h285q-15 -262 -183 -451zM903 1245q-111 0 -167 -42t-56 -116q0 -60 44 -114.5t128 -116.5q158 61 216 110t58 117q0 77 -58.5 119.5t-164.5 42.5zM926 197q181 0 321 57l-284 205q-40 28 -126 87.5t-128 90.5q-116 -46 -172 -97
t-56 -126q0 -217 445 -217z" />
    <glyph glyph-name="quotesingle" unicode="'" horiz-adv-x="665" 
d="M166 1569h334l-27 -692h-280z" />
    <glyph glyph-name="parenleft" unicode="(" horiz-adv-x="1302" 
d="M166 616q0 268 67.5 465.5t196.5 319t305 179.5t404 58v-262q-118 0 -214.5 -24t-178 -80t-136.5 -142.5t-85.5 -216t-30.5 -297.5q0 -169 31 -299.5t86 -217t136.5 -142.5t177.5 -80t214 -24v-263q-182 0 -330.5 36t-269 114.5t-202.5 198t-126.5 290.5t-44.5 387z" />
    <glyph glyph-name="parenright" unicode=")" horiz-adv-x="1302" 
d="M1139 616q0 -216 -44.5 -387t-126.5 -290.5t-203 -198t-269.5 -114.5t-329.5 -36v263q118 0 213.5 24t177 80t136.5 143t85.5 217t30.5 299q0 208 -45.5 357.5t-133 236.5t-201.5 126.5t-263 39.5v262q181 0 329.5 -36t269.5 -114.5t203 -197.5t126.5 -289t44.5 -385z
" />
    <glyph glyph-name="asterisk" unicode="*" horiz-adv-x="1353" 
d="M274 842l-108 194l342 158l-342 160l108 194l314 -205l-27 308h232l-27 -308l313 207l111 -196l-344 -160l344 -158l-111 -194l-313 202l27 -307h-230l27 307z" />
    <glyph glyph-name="plus" unicode="+" horiz-adv-x="1968" 
d="M1122 821h682v-250h-682v-571h-276v571h-680v250h680v572h276v-572z" />
    <glyph glyph-name="comma" unicode="," horiz-adv-x="638" 
d="M166 0v256h307v-256l-151 -395h-144l96 395h-108z" />
    <glyph glyph-name="hyphen" unicode="-" horiz-adv-x="2050" 
d="M207 571v250h1638v-250h-1638z" />
    <glyph glyph-name="period" unicode="." horiz-adv-x="638" 
d="M166 0v256h307v-256h-307z" />
    <glyph glyph-name="slash" unicode="/" horiz-adv-x="1187" 
d="M719 1526h303l-547 -1833h-303z" />
    <glyph glyph-name="zero" unicode="0" horiz-adv-x="1994" 
d="M997 -41q-210 0 -372.5 55t-267.5 156t-158.5 241.5t-53.5 313.5q0 352 218 557t634 205q209 0 371.5 -55t267.5 -155.5t159 -240t54 -311.5q0 -173 -54 -313t-159 -241.5t-267.5 -156.5t-371.5 -55zM997 227q250 0 387.5 129t137.5 369q0 238 -137.5 366t-387.5 128
q-251 0 -387.5 -127t-136.5 -367q0 -241 136.5 -369.5t387.5 -128.5z" />
    <glyph glyph-name="one" unicode="1" horiz-adv-x="1693" 
d="M1004 1446v-1184h524v-262h-1362v262h524v893l-432 -154l-92 261l526 184h312z" />
    <glyph glyph-name="two" unicode="2" horiz-adv-x="1929" 
d="M1763 1042q0 -96 -39 -173.5t-105.5 -130t-153 -94t-183.5 -71t-195 -54.5t-190 -49.5t-166 -52t-125 -67t-65 -88.5h1216v-262h-1605v170q5 100 51.5 181t121.5 135.5t170.5 98.5t200 75t209 59.5t198.5 57.5t166.5 63.5t115 84t42.5 111.5q0 48 -18 83t-62.5 62.5
t-127 41.5t-203.5 14q-247 0 -364 -72.5t-117 -226.5h-334q4 120 46.5 213.5t114.5 156t175.5 103.5t222.5 58.5t262 17.5q174 0 307.5 -24.5t232 -76.5t150 -138.5t51.5 -205.5z" />
    <glyph glyph-name="three" unicode="3" horiz-adv-x="1935" 
d="M1513 731q277 -95 277 -328q0 -444 -789 -444q-416 0 -631.5 126.5t-224.5 408.5h328q0 -157 126 -218t405 -61q246 0 349 44.5t103 154.5q0 85 -60 131t-192 65t-373 19v202q341 0 473 46t132 172q0 65 -38 105t-135.5 61.5t-263.5 21.5q-294 0 -410 -63t-116 -222h-321
q4 115 44 204.5t112 151.5t177 102t233 58.5t286 18.5q765 0 765 -434q0 -224 -256 -322z" />
    <glyph glyph-name="four" unicode="4" horiz-adv-x="1994" 
d="M1513 510h316v-256h-316v-254h-315v254h-1032v256l1032 936h315v-936zM1198 1118l-672 -608h672v608z" />
    <glyph glyph-name="five" unicode="5" horiz-adv-x="1914" 
d="M1157 1008q277 0 446 -133t169 -359q0 -269 -209.5 -413t-573.5 -144q-141 0 -262.5 16t-229 52.5t-184 92t-121.5 139.5t-47 190h334q6 -110 136 -172t374 -62q231 0 339 78.5t108 212.5q0 48 -11.5 87.5t-40 74t-74 58t-116 37t-162.5 13.5q-114 0 -227.5 -29
t-276.5 -108l-299 63l164 744h1270v-256h-1018l-67 -318q144 73 277 104.5t302 31.5z" />
    <glyph glyph-name="six" unicode="6" horiz-adv-x="1961" 
d="M1098 1008q332 0 516 -126t184 -382q0 -263 -199.5 -402t-578.5 -139q-229 0 -386.5 38.5t-262.5 125.5t-153.5 225t-51.5 340v14v15q4 172 49 304.5t121.5 220t188.5 143t241 79t287 23.5q182 0 322.5 -14t312.5 -41v-256q-137 20 -196.5 28.5t-171.5 17.5t-218 9
q-123 0 -210.5 -10t-162 -35t-120.5 -69.5t-73.5 -113t-33.5 -165.5q94 73 246.5 121.5t349.5 48.5zM981 215q135 0 229 19t149 56.5t79 88t24 119.5q0 93 -43.5 152t-151 92.5t-286.5 33.5q-481 0 -481 -278q0 -283 481 -283z" />
    <glyph glyph-name="seven" unicode="7" horiz-adv-x="1738" 
d="M109 1184v262h1521v-262q-443 -259 -633 -533.5t-190 -650.5h-330q0 141 23 266.5t77 252.5t140 239.5t216 221.5t300 204h-1124z" />
    <glyph glyph-name="eight" unicode="8" horiz-adv-x="2007" 
d="M1509 776q346 -104 346 -381q0 -81 -26 -146t-87.5 -120.5t-158 -92t-242.5 -57t-337 -20.5t-337.5 20.5t-243 57t-158 91.5t-87.5 120t-26 147q0 279 344 379q-207 103 -207 307q0 206 175.5 306t539.5 100q363 0 538.5 -100t175.5 -306q0 -207 -209 -305zM1004 1251
q-213 0 -303.5 -41.5t-90.5 -138.5t89.5 -137.5t304.5 -40.5t304 40.5t89 137.5t-90 138.5t-303 41.5zM1004 203q190 0 304 25.5t159.5 72t45.5 119.5t-45.5 119.5t-159 72t-304.5 25.5t-305 -25t-159.5 -71.5t-45.5 -120.5q0 -73 46 -119.5t160 -72t304 -25.5z" />
    <glyph glyph-name="nine" unicode="9" horiz-adv-x="1968" 
d="M1804 743v-14q-4 -172 -49 -304.5t-122 -220t-189.5 -143t-241.5 -79t-287 -23.5q-181 0 -321.5 14t-312.5 41v256q20 -3 92.5 -13t98 -13.5t87.5 -10.5t100.5 -10t95 -5.5t111.5 -2.5q123 0 210.5 10t161.5 35t119.5 69t73.5 112.5t35 164.5q-98 -71 -250 -119.5
t-346 -48.5q-331 0 -514.5 127t-183.5 381q0 263 199 402t577 139q229 0 387 -38.5t263 -125.5t154 -225t52 -340v-15zM987 670q481 0 481 280q0 281 -481 281q-135 0 -228.5 -18.5t-148 -55.5t-78.5 -87.5t-24 -119.5q0 -55 14.5 -97.5t49 -77.5t89 -58t136.5 -35t190 -12z
" />
    <glyph glyph-name="colon" unicode=":" horiz-adv-x="638" 
d="M166 614v256h307v-256h-307zM166 0v256h307v-256h-307z" />
    <glyph glyph-name="semicolon" unicode=";" horiz-adv-x="638" 
d="M166 614v256h307v-256h-307zM274 0h-108v256h307v-256l-151 -395h-144z" />
    <glyph glyph-name="less" unicode="&#x3c;" horiz-adv-x="1968" 
d="M166 905l1638 324v-281l-1343 -252l1343 -252v-280l-1638 323v418z" />
    <glyph glyph-name="equal" unicode="=" horiz-adv-x="1968" 
d="M166 899v250h1638v-250h-1638zM166 244v250h1638v-250h-1638z" />
    <glyph glyph-name="greater" unicode="&#x3e;" horiz-adv-x="1968" 
d="M166 948v281l1638 -324v-418l-1638 -323v280l1343 252z" />
    <glyph glyph-name="question" unicode="?" horiz-adv-x="1867" 
d="M1018 436h-324q0 78 23 140t62 103.5t89.5 74t106.5 55t112 41.5t106.5 38.5t89.5 42t62 56t23 76.5q0 174 -389 174q-255 0 -373.5 -75.5t-118.5 -250.5h-321q8 576 805 576q733 0 733 -404q0 -90 -38 -158t-98.5 -108t-133.5 -71.5t-146 -58.5t-133.5 -57.5t-98.5 -79
t-38 -114.5zM694 0v256h310v-256h-310z" />
    <glyph glyph-name="at" unicode="@" horiz-adv-x="2764" 
d="M1481 -330q504 0 936 213l112 -198q-90 -52 -180.5 -92t-219 -80t-293.5 -62t-355 -22q-664 0 -989.5 279t-325.5 841q0 534 325.5 821t962.5 287q220 0 397.5 -36.5t318.5 -115t235 -198.5t144 -289.5t50 -384.5q0 -678 -488 -678q-311 0 -401 244q-116 -189 -418 -189
q-133 0 -235.5 40.5t-165 113.5t-94 168.5t-31.5 210.5t31.5 210.5t94 168t165 113t235.5 40.5q268 0 389 -147v125h256v-650q0 -45 3.5 -78t15 -66t30.5 -53.5t52.5 -33t79.5 -12.5q60 0 100.5 29.5t62.5 92t30.5 144t8.5 201.5q0 153 -24 271.5t-74 205.5t-120.5 147
t-170 96t-215 52t-262.5 16q-511 0 -761.5 -207.5t-250.5 -658.5q0 -237 63.5 -405t195.5 -273t323.5 -153t456.5 -48zM1362 248q92 0 155 20.5t98.5 61t50.5 92t15 121.5t-15 121.5t-50.5 92t-98.5 61t-155 20.5q-176 0 -247 -75.5t-71 -219.5t71 -219.5t247 -75.5z" />
    <glyph glyph-name="A" unicode="A" horiz-adv-x="2318" 
d="M2175 0h-350l-166 301h-997l-166 -301h-351l805 1446h418zM1159 1204l-356 -647h715z" />
    <glyph glyph-name="B" unicode="B" horiz-adv-x="2045" 
d="M1673 752q230 -109 230 -346q0 -191 -118 -298.5t-364 -107.5h-1255v1446h1231q125 0 215 -28.5t140 -80.5t72.5 -114.5t22.5 -139.5q0 -105 -45 -190t-129 -141zM1288 1190h-809v-342h809q38 0 56.5 0.5t48.5 3.5t44.5 9.5t33.5 18.5t27.5 30.5t15 46t6.5 63.5
q0 25 -2.5 46t-9 37t-12.5 28.5t-18.5 21.5t-21.5 15.5t-27.5 10.5t-30 6.5t-34.5 3.5t-36 1h-40zM479 256h864q36 0 53.5 0.5t46.5 3.5t43 9.5t32.5 19t27 31.5t15 47t6.5 65q0 29 -4 53t-9 41.5t-16.5 31t-21 22t-27.5 14.5t-30 9.5t-36 5t-38 1.5h-42h-864v-354z" />
    <glyph glyph-name="C" unicode="C" horiz-adv-x="2084" 
d="M145 725q0 364 233 563t685 199q199 0 358.5 -42.5t267 -120t170.5 -181.5t80 -232h-340q-27 140 -163.5 220.5t-372.5 80.5q-284 0 -434 -120.5t-150 -366.5q0 -247 151 -369.5t433 -122.5q234 0 371.5 83.5t164.5 224.5h343q-18 -129 -81.5 -234t-170.5 -183.5
t-267 -121.5t-360 -43q-452 0 -685 201t-233 565z" />
    <glyph glyph-name="D" unicode="D" horiz-adv-x="2045" 
d="M1202 1446q144 0 268.5 -44.5t222 -131t154 -227t56.5 -320.5t-56.5 -320.5t-154 -227t-222 -131t-268.5 -44.5h-1036v1446h1036zM479 274h574q74 0 131.5 5t112.5 18t95.5 35t74.5 56t55.5 81t33 110.5t11.5 143.5q0 94 -15 165t-46.5 120t-73 81t-102 50t-125.5 25
t-152 7h-574v-897z" />
    <glyph glyph-name="E" unicode="E" horiz-adv-x="1830" 
d="M1681 1446v-262h-1202v-330h1161v-262h-1161v-330h1202v-262h-1515v1446h1515z" />
    <glyph glyph-name="F" unicode="F" horiz-adv-x="1830" 
d="M1681 1446v-275h-1202v-426h1080v-276h-1080v-469h-313v1446h1515z" />
    <glyph glyph-name="G" unicode="G" horiz-adv-x="2084" 
d="M145 723q0 357 246.5 560.5t675.5 203.5q196 0 356.5 -43t268.5 -119.5t171.5 -177t78.5 -219.5h-340q-29 131 -164 207.5t-369 76.5q-144 0 -253.5 -34.5t-171.5 -85.5t-101 -121t-51.5 -130.5t-12.5 -123.5q0 -43 6.5 -86t25 -93.5t47.5 -94t78 -85.5t112 -71.5
t154 -47.5t200 -18q172 0 291.5 24.5t251.5 80.5v202h-590v238h887v-586q-225 -122 -420.5 -171.5t-427.5 -49.5q-291 0 -505 91t-329 264t-115 409z" />
    <glyph glyph-name="H" unicode="H" horiz-adv-x="2109" 
d="M1630 860v586h314v-1446h-314v586h-1151v-586h-313v1446h313v-586h1151z" />
    <glyph glyph-name="I" unicode="I" horiz-adv-x="645" 
d="M166 1446h313v-1446h-313v1446z" />
    <glyph glyph-name="J" unicode="J" horiz-adv-x="2050" 
d="M1886 1446v-727q0 -377 -209 -561.5t-651 -184.5q-440 0 -650 184.5t-210 561.5h313q0 -50 4.5 -92t18.5 -92t37.5 -89.5t65 -77.5t97.5 -63.5t139 -41t185 -15.5t184 15.5t138 41t97.5 64t65 78t37.5 89t18.5 91.5t4.5 92v452h-705v275h1020z" />
    <glyph glyph-name="K" unicode="K" horiz-adv-x="2078" 
d="M1446 1446h489l-796 -635l796 -811h-426l-610 621l-420 -336v-285h-313v1446h313v-772z" />
    <glyph glyph-name="L" unicode="L" horiz-adv-x="1693" 
d="M479 1446v-1172h1075v-274h-1388v1446h313z" />
    <glyph glyph-name="M" unicode="M" horiz-adv-x="2590" 
d="M2425 1446v-1446h-316v1165l-669 -1165h-289l-672 1165v-1165h-313v1446h493l635 -1086l635 1086h496z" />
    <glyph glyph-name="N" unicode="N" horiz-adv-x="2160" 
d="M1679 291v1155h316v-1446h-457l-1059 1155v-1155h-313v1446h457z" />
    <glyph glyph-name="O" unicode="O" horiz-adv-x="2158" 
d="M1079 -41q-460 0 -697 202.5t-237 563.5q0 359 237 560.5t697 201.5q458 0 696 -202t238 -560q0 -360 -238 -563t-696 -203zM1079 233q598 0 598 492q0 487 -598 487q-298 0 -449 -119.5t-151 -367.5q0 -492 600 -492z" />
    <glyph glyph-name="P" unicode="P" horiz-adv-x="1996" 
d="M1290 1446q256 0 408.5 -139.5t152.5 -384.5q0 -244 -152.5 -383.5t-408.5 -139.5h-811v-399h-313v1446h1124zM479 674h703q40 0 62.5 0.5t63 5.5t65 13.5t55.5 27t48 44t29.5 66t12.5 91.5q0 41 -7.5 74.5t-18.5 58t-31 43.5t-37 31t-46 20.5t-47.5 12.5t-51.5 6
t-49 2.5t-48 0.5h-703v-497z" />
    <glyph glyph-name="Q" unicode="Q" horiz-adv-x="2062" 
d="M2013 725q0 -336 -205 -535l152 -149l-180 -180l-191 188q-209 -90 -510 -90q-460 0 -697 202.5t-237 563.5q0 359 237 560.5t697 201.5q458 0 696 -202t238 -560zM1079 233q169 0 287 39l-283 279l179 180l321 -317q94 120 94 311q0 487 -598 487q-298 0 -449 -119.5
t-151 -367.5q0 -492 600 -492z" />
    <glyph glyph-name="R" unicode="R" horiz-adv-x="2009" 
d="M1585 621q109 -17 167 -86t58 -183v-352h-315v283q0 107 -37.5 142.5t-154.5 35.5h-824v-461h-313v1446h1089q273 0 421.5 -108.5t148.5 -333.5q0 -287 -240 -383zM1176 1178h-697v-447h697q32 0 49 0.5t48 2t48.5 5.5t43.5 11.5t41 18.5t33 28t27.5 39t16 52t6.5 66
q0 64 -20.5 108.5t-46.5 67t-75.5 34t-81 13t-89.5 1.5z" />
    <glyph glyph-name="S" unicode="S" horiz-adv-x="2119" 
d="M145 471h334q0 -62 31 -107.5t102.5 -80t195 -51.5t300.5 -17q290 0 411 48.5t121 148.5q0 31 -7 52.5t-21.5 39.5t-47 30.5t-72 23t-108.5 18.5t-145 14t-192 14q-185 11 -319 31.5t-239 54.5t-168.5 85t-95.5 122t-32 166q0 114 58.5 197t171 132t263 72t348.5 23
q275 0 469.5 -53.5t301.5 -163.5t110 -271h-336q0 125 -133 178.5t-440 53.5q-187 0 -294 -21t-145.5 -57.5t-38.5 -97.5q0 -65 44 -99.5t156.5 -55t344.5 -36.5q118 -9 178.5 -14t157 -15.5t146 -20.5t121 -28t107.5 -39t80 -52t64 -69.5t34.5 -88.5t14.5 -111
q0 -110 -43.5 -192.5t-117.5 -134t-186 -83.5t-235 -44.5t-278 -12.5q-182 0 -326 16t-264 53.5t-201 96t-127.5 145.5t-52.5 201z" />
    <glyph glyph-name="T" unicode="T" horiz-adv-x="2050" 
d="M1907 1446v-275h-723v-1171h-316v1171h-723v275h1762z" />
    <glyph glyph-name="U" unicode="U" horiz-adv-x="2131" 
d="M1968 1446v-741q0 -378 -217 -562t-684 -184q-468 0 -684.5 183.5t-216.5 562.5v741h313v-735q0 -51 5 -94.5t20.5 -94t41 -90.5t70.5 -78.5t105 -64t148.5 -41t197.5 -15.5t197 15.5t148.5 41.5t105 64.5t70 78.5t41 90.5t20 93.5t4.5 94v735h315z" />
    <glyph glyph-name="V" unicode="V" horiz-adv-x="2318" 
d="M1159 242l666 1204h350l-807 -1446h-418l-805 1446h351z" />
    <glyph glyph-name="W" unicode="W" horiz-adv-x="3348" 
d="M2386 260l487 1186h330l-604 -1446h-426l-502 1214l-524 -1214h-428l-574 1446h330l461 -1186l512 1186h450z" />
    <glyph glyph-name="X" unicode="X" horiz-adv-x="2330" 
d="M610 0h-450l790 723l-790 723h450l555 -514l555 514h453l-793 -723l793 -723h-453l-555 514z" />
    <glyph glyph-name="Y" unicode="Y" horiz-adv-x="2314" 
d="M1157 745l604 701h408l-848 -969v-477h-330v477l-846 969h408z" />
    <glyph glyph-name="Z" unicode="Z" horiz-adv-x="1961" 
d="M166 1446h1630v-275l-1153 -897h1153v-274h-1630v274l1151 897h-1151v275z" />
    <glyph glyph-name="bracketleft" unicode="[" horiz-adv-x="1302" 
d="M1139 1638v-262h-645v-1523h645v-263h-973v2048h973z" />
    <glyph glyph-name="backslash" unicode="\" horiz-adv-x="1181" 
d="M713 -307l-547 1833h301l549 -1833h-303z" />
    <glyph glyph-name="bracketright" unicode="]" horiz-adv-x="1302" 
d="M166 1638h973v-2048h-973v263h643v1523h-643v262z" />
    <glyph glyph-name="asciicircum" unicode="^" horiz-adv-x="1970" 
d="M1188 1638l618 -921h-329l-490 737l-491 -737h-330l618 921h404z" />
    <glyph glyph-name="underscore" unicode="_" horiz-adv-x="2459" 
d="M207 -395v256h2048v-256h-2048z" />
    <glyph glyph-name="grave" unicode="`" horiz-adv-x="1126" 
d="M166 1761l797 -164v-208l-797 163v209z" />
    <glyph glyph-name="a" unicode="a" horiz-adv-x="1921" 
d="M1006 1241q196 0 335 -32t238 -105t147.5 -194t49.5 -296v-614h-301v152q-400 -187 -783 -187q-567 0 -567 406q0 92 39 165t105 120t159 78t196 44t222 13q303 0 629 -91q-2 55 -21.5 99.5t-50.5 75t-75 53.5t-88 36.5t-95.5 21.5t-92.5 10.5t-85 2.5q-317 0 -654 -104
l-88 227q405 119 781 119zM786 209q131 0 326.5 44t362.5 103v121q-310 84 -603 84q-426 0 -426 -182q0 -99 83.5 -134.5t256.5 -35.5z" />
    <glyph glyph-name="b" unicode="b" horiz-adv-x="1974" 
d="M1094 1241q154 0 285.5 -38.5t234.5 -114t162 -201t59 -287.5t-59 -287.5t-162 -201t-234.5 -114t-285.5 -38.5q-439 0 -627 248v-207h-301v1638h301v-645q188 248 627 248zM997 221q252 0 384 99.5t132 279.5q0 181 -132 280t-384 99q-255 0 -392.5 -99.5t-137.5 -279.5
q0 -179 138 -279t392 -100z" />
    <glyph glyph-name="c" unicode="c" horiz-adv-x="1933" 
d="M139 600q0 160 60 283t171.5 201t265 117.5t345.5 39.5q344 0 553.5 -127t261.5 -381h-321q-39 127 -159 189.5t-335 62.5q-526 0 -526 -385t526 -385q214 0 334.5 63t159.5 189h321q-52 -253 -262 -380.5t-553 -127.5q-192 0 -345.5 39.5t-265 117.5t-171.5 201t-60 283
z" />
    <glyph glyph-name="d" unicode="d" horiz-adv-x="1974" 
d="M1507 993v645h301v-1638h-301v207q-188 -248 -626 -248q-122 0 -231 23.5t-203 74t-162 124.5t-107 181.5t-39 237.5t39 237.5t107 181.5t162 124.5t203 74t231 23.5q438 0 626 -248zM977 221q254 0 392 100t138 279q0 180 -137.5 279.5t-392.5 99.5q-252 0 -383 -99
t-131 -280q0 -180 131.5 -279.5t382.5 -99.5z" />
    <glyph glyph-name="e" unicode="e" horiz-adv-x="1947" 
d="M997 209q208 0 321 51.5t159 145.5h315q-56 -213 -262 -330t-539 -117q-191 0 -346 39.5t-268.5 117.5t-175.5 201t-62 283q0 159 63.5 282.5t177 201t264 117.5t329.5 40q147 0 270.5 -23t230 -75t180 -132.5t115 -201t41.5 -274.5h-1351q21 -171 155.5 -248.5
t382.5 -77.5zM973 1006q-417 0 -498 -258h1002q-76 258 -504 258z" />
    <glyph glyph-name="f" unicode="f" horiz-adv-x="1462" 
d="M1075 1430q-120 0 -181.5 -22.5t-84 -69.5t-23.5 -138h537v-250h-537v-950h-303v950h-344v250h344v33q0 432 478 432q184 0 362 -20v-228q-159 13 -248 13z" />
    <glyph glyph-name="g" unicode="g" horiz-adv-x="1974" 
d="M1505 997v203h303v-1050q-1 -355 -196 -518.5t-576 -163.5q-374 0 -786 98l20 244q5 -1 57 -10.5t64 -12t62.5 -11.5t70.5 -12t67.5 -10t74 -10t71 -8t77 -7t72.5 -3.5t77 -1.5q203 0 321.5 49t169.5 147.5t51 263.5v31q-184 -244 -610 -244q-123 0 -233 23t-206.5 72.5
t-166 122.5t-110 180t-40.5 237q0 131 40.5 238t110 180t166 122.5t206.5 72t233 22.5q426 0 610 -244zM983 233q256 0 389 99t133 274q0 177 -132.5 275t-389.5 98t-389.5 -98t-132.5 -275q0 -175 133 -274t389 -99z" />
    <glyph glyph-name="h" unicode="h" horiz-adv-x="2021" 
d="M1176 1241q158 0 279 -34.5t212 -108t139 -196t49 -292.5v-610h-301v526q0 115 -24 196.5t-79.5 140.5t-149 87.5t-228.5 28.5q-180 0 -314.5 -54t-213 -168.5t-78.5 -279.5v-477h-301v1638h301v-708q242 311 709 311z" />
    <glyph glyph-name="i" unicode="i" horiz-adv-x="632" 
d="M166 1352v286h301v-286h-301zM166 0v1200h301v-1200h-301z" />
    <glyph glyph-name="j" unicode="j" horiz-adv-x="1067" 
d="M614 1352v286h304v-286h-304zM614 1200h304v-1145q0 -116 -13 -203.5t-45.5 -162t-86 -122t-135.5 -73.5t-192 -26q-186 0 -362 30v246q167 -20 252 -20q61 0 101.5 5t73.5 20t51.5 38t31 64.5t16.5 93t4 129.5v1126z" />
    <glyph glyph-name="k" unicode="k" horiz-adv-x="1935" 
d="M1292 1200h504l-770 -526l770 -674h-428l-582 510l-319 -219v-291h-301v1638h301v-1003z" />
    <glyph glyph-name="l" unicode="l" horiz-adv-x="632" 
d="M166 0v1638h301v-1638h-301z" />
    <glyph glyph-name="m" unicode="m" horiz-adv-x="2918" 
d="M2187 1241q267 0 415 -142.5t151 -441.5v-657h-304v625q0 182 -87 268t-289 86q-89 0 -170.5 -26t-147.5 -75t-105.5 -129t-39.5 -180v-569h-301v625q0 181 -88 267.5t-291 86.5q-89 0 -170.5 -26t-147.5 -75t-105.5 -129t-39.5 -180v-569h-301v1200h301v-233
q213 274 577 274q414 0 527 -328q222 328 616 328z" />
    <glyph glyph-name="n" unicode="n" horiz-adv-x="2021" 
d="M1176 1241q158 0 279 -34.5t212 -108t139 -196t49 -292.5v-610h-301v526q0 115 -24 196.5t-79.5 140.5t-149 87.5t-228.5 28.5q-180 0 -314.5 -54t-213 -168.5t-78.5 -279.5v-477h-301v1200h301v-270q242 311 709 311z" />
    <glyph glyph-name="o" unicode="o" horiz-adv-x="1974" 
d="M987 -41q-260 0 -448.5 70.5t-294 216t-105.5 354.5t105.5 354.5t294 216t448.5 70.5q259 0 447.5 -70.5t294.5 -216t106 -354.5t-106 -354.5t-294.5 -216t-447.5 -70.5zM987 215q526 0 526 385t-526 385t-526 -385t526 -385z" />
    <glyph glyph-name="p" unicode="p" horiz-adv-x="1974" 
d="M1094 1241q122 0 231 -23.5t203.5 -74t162.5 -124.5t107 -181.5t39 -237.5t-39 -237.5t-107 -181.5t-162.5 -124.5t-203.5 -74t-231 -23.5q-216 0 -375 63t-250 185v-699h-303v1692h303v-207q91 122 250 185t375 63zM997 221q253 0 384.5 99.5t131.5 279.5t-137.5 279.5
t-392.5 99.5q-252 0 -383 -99t-131 -280q0 -178 137.5 -278.5t390.5 -100.5z" />
    <glyph glyph-name="q" unicode="q" horiz-adv-x="1974" 
d="M1505 993v207h303v-1692h-303v699q-185 -248 -624 -248q-122 0 -231 23.5t-203 74t-162 124.5t-107 181.5t-39 237.5t39 237.5t107 181.5t162 124.5t203 74t231 23.5q439 0 624 -248zM977 221q253 0 390.5 100.5t137.5 278.5q0 181 -131 280t-383 99q-255 0 -392.5 -99.5
t-137.5 -279.5t131.5 -279.5t384.5 -99.5z" />
    <glyph glyph-name="r" unicode="r" horiz-adv-x="1478" 
d="M1036 1241q179 0 318 -47v-268q-162 47 -318 47q-139 0 -272 -51.5t-297 -192.5v-729h-301v1200h301v-223q132 148 267.5 206t301.5 58z" />
    <glyph glyph-name="s" unicode="s" horiz-adv-x="1943" 
d="M139 406h322q7 -76 60 -120.5t173 -66.5t324 -22q197 0 298.5 17t134 48t32.5 90q0 78 -87.5 102.5t-437.5 51.5q-106 8 -179 14.5t-153.5 17.5t-133.5 24t-107 31.5t-86.5 43t-59 57t-38 74t-11.5 92.5q0 88 40.5 155t109.5 109.5t170.5 69t213 37t247.5 10.5
q114 0 207.5 -7t183.5 -23.5t158.5 -45.5t122 -71.5t84.5 -104t38 -139.5h-323q-10 95 -119.5 128.5t-376.5 33.5q-124 0 -210.5 -9t-134.5 -27.5t-68.5 -41t-20.5 -53.5q0 -23 6.5 -38t28 -29t53.5 -22.5t93 -18t135.5 -17t191.5 -17.5q312 -27 393 -40q223 -34 311 -116
q82 -76 82 -216q0 -97 -36 -168.5t-99.5 -117t-162 -73t-211 -38.5t-259.5 -11q-109 0 -201.5 5t-185.5 18.5t-166.5 35.5t-138.5 56.5t-108.5 80.5t-69.5 109.5t-29 141.5z" />
    <glyph glyph-name="t" unicode="t" horiz-adv-x="1511" 
d="M1360 1200v-250h-588v-434q0 -90 10.5 -143.5t41.5 -89.5t83 -49t140 -13q123 0 313 27v-252q-211 -37 -383 -37q-144 0 -238 25t-155 85t-87 156t-26 242v483h-332v250h332v268l301 95v-363h588z" />
    <glyph glyph-name="u" unicode="u" horiz-adv-x="2021" 
d="M1554 723v477h301v-1200h-301v270q-119 -152 -291 -231.5t-417 -79.5q-158 0 -279.5 34.5t-212 107.5t-139 196t-49.5 293v610h303v-526q0 -115 24 -196.5t78.5 -140.5t148 -87.5t228.5 -28.5q180 0 314.5 54t213 168.5t78.5 279.5z" />
    <glyph glyph-name="v" unicode="v" horiz-adv-x="2048" 
d="M1026 178l557 1022h328l-658 -1200h-458l-656 1200h328z" />
    <glyph glyph-name="w" unicode="w" horiz-adv-x="3123" 
d="M2226 205l443 995h315l-533 -1200h-446l-442 918l-445 -918h-446l-533 1200h314l444 -997l477 997h375z" />
    <glyph glyph-name="x" unicode="x" horiz-adv-x="2068" 
d="M578 0h-439l701 600l-701 600h439l456 -418l457 418h440l-702 -600l702 -600h-440l-457 418z" />
    <glyph glyph-name="y" unicode="y" horiz-adv-x="2070" 
d="M1040 156l572 1044h327l-700 -1280q-62 -115 -118.5 -193t-129 -139.5t-162.5 -90.5t-204 -29q-183 0 -408 47v254q198 -45 354 -45q134 0 214 53.5t161 206.5l8 16h-159l-656 1200h332z" />
    <glyph glyph-name="z" unicode="z" horiz-adv-x="1765" 
d="M166 1200h1433v-250l-987 -700h987v-250h-1433v250l987 700h-987v250z" />
    <glyph glyph-name="braceleft" unicode="{" horiz-adv-x="1302" 
d="M166 471v291q57 0 87 2t73 10.5t64 29t42 54t27 89.5t0 132q-7 112 2 194t40 145.5t81 104.5t130.5 67t183 37t243.5 11v-262q-140 0 -213.5 -11t-125 -52t-64 -113t-3.5 -201q4 -66 -4 -121t-24 -91.5t-40 -64.5t-48.5 -44t-53 -25.5t-50 -12.5t-42.5 -3v-41
q21 0 42.5 -3t50 -13t53 -25.5t48.5 -43.5t40 -65t24 -92t4 -121q-9 -130 3.5 -203t64 -114t125 -52t213.5 -11v-263q-148 0 -254 11t-186 38.5t-128.5 68t-76.5 106t-35.5 146.5t0.5 194q6 77 0 132.5t-27 89.5t-42 54.5t-64.5 28.5t-72.5 10t-87 2z" />
    <glyph glyph-name="bar" unicode="|" horiz-adv-x="620" 
d="M166 -307v1945h289v-1945h-289z" />
    <glyph glyph-name="braceright" unicode="}" horiz-adv-x="1316" 
d="M1151 762v-291q-50 0 -75 -1t-64.5 -7t-59.5 -17.5t-44.5 -34.5t-34.5 -56.5t-15.5 -84t-1.5 -116.5q7 -73 4 -135t-10.5 -113t-27.5 -93t-46 -74.5t-67.5 -57.5t-91 -42t-117 -28t-146 -16t-176.5 -5v263q140 0 213 11t125 52t64.5 114t3.5 203q-4 66 4 121t23.5 92
t39.5 65t48.5 43.5t53 25.5t50 13t43.5 3v41q-32 0 -63.5 6t-72 29t-69 60t-46 106t-11.5 161q9 129 -3.5 201t-64.5 113t-125.5 52t-212.5 11v262q141 0 243 -11t182.5 -37t130.5 -67t81 -104.5t40 -145.5t1 -194q-5 -76 1 -131.5t27.5 -89.5t42.5 -54.5t64 -29t73 -10.5
t87 -2z" />
    <glyph glyph-name="asciitilde" unicode="~" horiz-adv-x="1968" 
d="M457 397h-291q0 136 24.5 242.5t75.5 187.5t138 124.5t206 43.5q100 0 187 -34t149 -82t119 -96.5t122.5 -82.5t133.5 -34q100 0 146 76t46 253h291q0 -136 -24.5 -242.5t-76 -187.5t-138.5 -124.5t-205 -43.5q-85 0 -162 24.5t-130 61t-107.5 79.5t-98.5 79.5t-100.5 61
t-114.5 24.5q-100 0 -145 -76t-45 -254z" />
    <glyph glyph-name="exclamdown" unicode="&#xa1;" horiz-adv-x="665" 
d="M479 973h-307v256h307v-256zM479 795l8 -1000h-321l6 1000h307z" />
    <glyph glyph-name="cent" unicode="&#xa2;" horiz-adv-x="1974" 
d="M1077 1100v-766q179 10 280.5 72t137.5 178h322q-49 -240 -239 -367t-501 -139v-283h-178v283q-228 14 -391.5 87.5t-255.5 213.5t-92 338t92 338t255.5 213.5t391.5 87.5v282h178v-282q311 -12 501 -139t239 -367h-322q-36 116 -137.5 178t-280.5 72zM475 717
q0 -345 424 -381v762q-424 -36 -424 -381z" />
    <glyph glyph-name="sterling" unicode="&#xa3;" horiz-adv-x="1845" 
d="M1196 1225q-153 0 -245.5 -25t-135 -75.5t-50.5 -127.5t7 -182h672v-151h-658q-9 -249 -370 -402h1265v-262h-1515v262q16 13 52.5 43.5t50 42.5t43 38t41.5 38.5t34 36t31 38t23 36.5t19.5 41t10.5 41.5t6 46.5h-311v151h287q-25 95 -25 180t23.5 160.5t76.5 136
t131 104.5t190 67.5t251 23.5q146 0 271.5 -14.5t309.5 -47.5v-262q-168 34 -273 48t-212 14z" />
    <glyph glyph-name="currency" unicode="&#xa4;" horiz-adv-x="2000" 
d="M1855 702q0 -172 -72 -301t-206 -208l229 -265l-164 -164l-294 336q-144 -39 -340 -39t-340 39l-297 -336l-164 164l231 262q-278 167 -278 512q0 340 270 506l-223 256l164 162l288 -323q151 40 349 40q196 0 350 -40l284 323l164 -162l-221 -256q270 -166 270 -506z
M481 702q0 -385 527 -385q526 0 526 385t-526 385q-527 0 -527 -385z" />
    <glyph glyph-name="yen" unicode="&#xa5;" horiz-adv-x="2371" 
d="M1782 1446h407l-667 -762h487v-152h-618l-50 -55v-69h668v-152h-668v-256h-329v256h-650v152h650v69l-49 55h-601v152h469l-665 762h407l605 -701z" />
    <glyph glyph-name="brokenbar" unicode="&#xa6;" horiz-adv-x="620" 
d="M166 870v768h289v-768h-289zM166 -307v768h289v-768h-289z" />
    <glyph glyph-name="section" unicode="&#xa7;" horiz-adv-x="2048" 
d="M1550 379q173 -48 252.5 -135.5t79.5 -237.5q0 -96 -39 -167.5t-106.5 -116t-173.5 -71.5t-224.5 -37.5t-273.5 -10.5q-193 0 -344.5 24.5t-268 77t-180 141t-65.5 209.5h321q0 -126 130.5 -172.5t437.5 -46.5q188 0 289.5 18t138.5 53.5t37 100.5q0 41 -14 68t-47 48.5
t-97.5 35.5t-153 24.5t-227.5 20.5q-101 7 -170 13t-151 15t-136.5 19t-115 25.5t-99 34t-75.5 44t-57.5 56.5t-33 70.5t-12.5 86.5q0 136 80.5 215t232.5 113q-165 46 -242 132.5t-77 232.5q0 97 40.5 169t109.5 116.5t175.5 72t223.5 37.5t268 10q186 0 333 -25t259.5 -78
t173.5 -141.5t63 -208.5h-321q0 125 -123 171.5t-418 46.5q-181 0 -281.5 -18t-141 -54t-40.5 -100q0 -39 14 -65t46 -46.5t95.5 -34t149 -23.5t220.5 -20q101 -7 170 -13t151 -15.5t136.5 -20t115 -25.5t99 -33.5t75.5 -44t57.5 -56t33 -70t12.5 -86.5q0 -254 -312 -328z
M487 641q0 -35 10 -59.5t38 -44t65.5 -32t107.5 -23.5t147.5 -18t199.5 -15q180 -10 290 10t155.5 63t45.5 113q0 35 -9.5 59.5t-38 44t-66 32t-107 23.5t-147 18t-199.5 15q-179 10 -290 -10t-156.5 -63.5t-45.5 -112.5z" />
    <glyph glyph-name="dieresis" unicode="&#xa8;" horiz-adv-x="1204" 
d="M166 1434v204h340v-204h-340zM698 1434v204h340v-204h-340z" />
    <glyph glyph-name="copyright" unicode="&#xa9;" horiz-adv-x="2019" 
d="M1012 -20q-405 0 -625.5 198.5t-220.5 540.5t220 538.5t626 196.5q407 0 625 -196t218 -539t-218.5 -541t-624.5 -198zM1012 115q330 0 514 158t184 446t-183.5 444t-514.5 156q-333 0 -517 -157t-184 -443q0 -288 185 -446t516 -158zM541 717q0 189 131 285t356 96
q385 0 449 -295h-146q-25 84 -97.5 122t-211.5 38q-336 0 -336 -246t336 -246q139 0 211.5 38t97.5 122h146q-64 -295 -449 -295q-225 0 -356 96t-131 285z" />
    <glyph glyph-name="guillemotleft" unicode="&#xab;" horiz-adv-x="1998" 
d="M166 600l532 600h404l-533 -600l533 -600h-404zM899 600l533 600h403l-532 -600l532 -600h-403z" />
    <glyph glyph-name="logicalnot" unicode="&#xac;" horiz-adv-x="1968" 
d="M166 840h1638v-688h-276v438h-1362v250z" />
    <glyph glyph-name="registered" unicode="&#xae;" horiz-adv-x="2019" 
d="M1012 -41q-202 0 -363 55.5t-266.5 156t-161 240t-55.5 308.5t55.5 309.5t161 242.5t266.5 159t363 57q203 0 363.5 -56.5t265 -159t159.5 -243t55 -309.5t-55 -308.5t-159.5 -240t-265 -156t-363.5 -55.5zM1012 94q336 0 517 166t181 459q0 294 -181 463.5t-517 169.5
t-518.5 -170.5t-182.5 -462.5t182.5 -458.5t518.5 -166.5zM836 383h-144v692h393q158 0 232 -67t74 -183q0 -79 -44.5 -143t-132.5 -90l166 -209h-180l-147 195h-217v-195zM836 938v-225h247q91 0 126.5 24t35.5 88q0 63 -35.5 88t-126.5 25h-247z" />
    <glyph glyph-name="macron" unicode="&#xaf;" horiz-adv-x="1290" 
d="M166 1434v204h960v-204h-960z" />
    <glyph glyph-name="degree" unicode="&#xb0;" horiz-adv-x="1456" 
d="M727 498q-124 0 -221.5 28.5t-160.5 75.5t-104 112t-58 133.5t-17 145.5q0 76 17 144.5t58.5 133.5t104 112t160 75.5t221.5 28.5q125 0 223.5 -28.5t161 -75.5t103.5 -112t58 -133.5t17 -144.5q0 -77 -17 -145.5t-58 -133.5t-103.5 -112t-161 -75.5t-223.5 -28.5z
M727 727q136 0 208.5 70.5t72.5 195.5q0 126 -72 195t-209 69q-135 0 -206.5 -69t-71.5 -195q0 -125 71.5 -195.5t206.5 -70.5z" />
    <glyph glyph-name="plusminus" unicode="&#xb1;" horiz-adv-x="1968" 
d="M1122 1440v-353h682v-249h-682v-353h-276v353h-680v249h680v353h276zM1804 80h-1638v250h1638v-250z" />
    <glyph glyph-name="acute" unicode="&#xb4;" horiz-adv-x="1126" 
d="M166 1389v208l797 164v-209z" />
    <glyph glyph-name="paragraph" unicode="&#xb6;" horiz-adv-x="1869" 
d="M868 1638h289v-1945h-289v1046q-100 0 -168.5 3t-148.5 13t-132 28.5t-104.5 52t-82 80.5t-48 116t-18.5 158q0 88 18.5 157t48 116t82 79.5t104.5 51.5t132.5 29t148.5 12.5t168 2.5zM1415 -307v1945h291v-1945h-291z" />
    <glyph glyph-name="periodcentered" unicode="&#xb7;" horiz-adv-x="653" 
d="M166 514v256h307v-256h-307z" />
    <glyph glyph-name="cedilla" unicode="&#xb8;" horiz-adv-x="976" 
d="M606 -111q92 0 149.5 -39.5t57.5 -111.5q0 -61 -37.5 -105.5t-99.5 -69.5t-146.5 -37t-175 -10.5t-188.5 13.5v172q196 -31 291.5 -24t95.5 59q0 47 -70 47q-50 0 -123 -31l-141 53l39 195h215l-31 -143q69 32 164 32z" />
    <glyph glyph-name="guillemotright" unicode="&#xbb;" horiz-adv-x="2056" 
d="M221 1200h404l532 -600l-532 -600h-404l533 600zM954 1200h404l532 -600l-532 -600h-404l533 600z" />
    <glyph glyph-name="questiondown" unicode="&#xbf;" horiz-adv-x="1867" 
d="M1174 1229v-256h-310v256h310zM852 795h322q0 -87 -29 -155.5t-76.5 -110.5t-108 -76t-123.5 -54t-123.5 -43.5t-108 -46t-76.5 -59t-29 -84.5q0 -174 389 -174q256 0 373.5 75t117.5 250h324q-11 -575 -807 -575q-731 0 -731 403q0 71 23.5 128t63 95.5t91 69
t108.5 53.5t114 44t108.5 44.5t91 52t63 70t23.5 93.5z" />
    <glyph glyph-name="Agrave" unicode="&#xc0;" horiz-adv-x="2318" 
d="M760 2007l796 -164v-209l-796 164v209zM2175 0h-350l-166 301h-997l-166 -301h-351l805 1446h418zM1159 1204l-356 -647h715z" />
    <glyph glyph-name="Aacute" unicode="&#xc1;" horiz-adv-x="2318" 
d="M762 1843l797 164v-209l-797 -164v209zM2175 0h-350l-166 301h-997l-166 -301h-351l805 1446h418zM1159 1204l-356 -647h715z" />
    <glyph glyph-name="Acircumflex" unicode="&#xc2;" horiz-adv-x="2318" 
d="M1585 1843v-219l-424 164l-424 -164v219l424 164zM2175 0h-350l-166 301h-997l-166 -301h-351l805 1446h418zM1159 1204l-356 -647h715z" />
    <glyph glyph-name="Atilde" unicode="&#xc3;" horiz-adv-x="2318" 
d="M934 1810q-68 0 -95.5 -47.5t-27.5 -136.5h-258q0 82 19 153t58.5 129.5t107 92t157.5 33.5q70 0 131.5 -20.5t105 -50t83.5 -58.5t83 -49.5t86 -20.5q68 0 95.5 47.5t27.5 136.5h258q0 -82 -19.5 -153t-59 -129t-107 -91.5t-156.5 -33.5q-70 0 -131.5 20.5t-105.5 49.5
t-84 58t-83 49.5t-85 20.5zM2175 0h-350l-166 301h-997l-166 -301h-351l805 1446h418zM1159 1204l-356 -647h715z" />
    <glyph glyph-name="Adieresis" unicode="&#xc4;" horiz-adv-x="2318" 
d="M723 1884h340v-205h-340v205zM1255 1884h340v-205h-340v205zM2175 0h-350l-166 301h-997l-166 -301h-351l805 1446h418zM1159 1204l-356 -647h715z" />
    <glyph glyph-name="Aring" unicode="&#xc5;" horiz-adv-x="2318" 
d="M1159 1597q-436 0 -436 271q0 270 436 270t436 -270q0 -271 -436 -271zM1159 1989q-219 0 -219 -121t219 -121t219 121t-219 121zM2175 0h-350l-166 301h-997l-166 -301h-351l805 1446h418zM1159 1204l-356 -647h715z" />
    <glyph glyph-name="AE" unicode="&#xc6;" horiz-adv-x="3061" 
d="M2918 1446v-262h-1202v-330h1161v-262h-1161v-330h1202v-262h-1515v313h-739l-160 -313h-359l727 1446h2046zM1104 1184l-311 -615h610v615h-299z" />
    <glyph glyph-name="Ccedilla" unicode="&#xc7;" horiz-adv-x="2084" 
d="M1599 541h343q-17 -125 -77.5 -228t-162.5 -180.5t-253.5 -123t-340.5 -50.5l-27 -123q71 33 164 33q91 0 149 -39.5t58 -112.5q0 -61 -37.5 -105.5t-99.5 -69.5t-146.5 -37t-175 -10.5t-188.5 13.5v173q197 -31 292 -24.5t95 58.5q0 47 -70 47q-52 0 -123 -30l-141 53
l37 182q-370 36 -560 232.5t-190 525.5q0 364 233 563t685 199q199 0 358.5 -42.5t267 -120t170.5 -181.5t80 -232h-340q-27 140 -163.5 220.5t-372.5 80.5q-284 0 -434 -120.5t-150 -366.5q0 -247 151 -369.5t433 -122.5q234 0 371.5 83.5t164.5 224.5z" />
    <glyph glyph-name="Egrave" unicode="&#xc8;" horiz-adv-x="1830" 
d="M543 2007l796 -164v-209l-796 164v209zM1681 1446v-262h-1202v-330h1161v-262h-1161v-330h1202v-262h-1515v1446h1515z" />
    <glyph glyph-name="Eacute" unicode="&#xc9;" horiz-adv-x="1830" 
d="M543 1843l796 164v-209l-796 -164v209zM1681 1446v-262h-1202v-330h1161v-262h-1161v-330h1202v-262h-1515v1446h1515z" />
    <glyph glyph-name="Ecircumflex" unicode="&#xca;" horiz-adv-x="1830" 
d="M1366 1843v-219l-424 164l-424 -164v219l424 164zM1681 1446v-262h-1202v-330h1161v-262h-1161v-330h1202v-262h-1515v1446h1515z" />
    <glyph glyph-name="Edieresis" unicode="&#xcb;" horiz-adv-x="1830" 
d="M506 1884h340v-205h-340v205zM1038 1884h340v-205h-340v205zM1681 1446v-262h-1202v-330h1161v-262h-1161v-330h1202v-262h-1515v1446h1515z" />
    <glyph glyph-name="Igrave" unicode="&#xcc;" horiz-adv-x="645" 
d="M-76 2007l797 -164v-209l-797 164v209zM166 1446h313v-1446h-313v1446z" />
    <glyph glyph-name="Iacute" unicode="&#xcd;" horiz-adv-x="645" 
d="M-76 1634v209l797 164v-209zM166 1446h313v-1446h-313v1446z" />
    <glyph glyph-name="Icircumflex" unicode="&#xce;" horiz-adv-x="645" 
d="M-100 1843l424 164l424 -164v-219l-424 164l-424 -164v219zM479 0h-313v1446h313v-1446z" />
    <glyph glyph-name="Idieresis" unicode="&#xcf;" horiz-adv-x="645" 
d="M-113 1679v205h340v-205h-340zM420 1679v205h340v-205h-340zM166 1446h313v-1446h-313v1446z" />
    <glyph glyph-name="Eth" unicode="&#xd0;" horiz-adv-x="2093" 
d="M1249 1446q144 0 268.5 -44.5t222 -131t154 -227t56.5 -320.5t-56.5 -320.5t-154 -227t-222 -131t-268.5 -44.5h-1036v662h-164v122h164v662h1036zM528 274h574q104 0 178.5 10.5t141 39t106.5 78.5t63 130t23 191q0 112 -23 192t-63 129.5t-106.5 78t-141 38.5
t-178.5 10h-574v-387h504v-122h-504v-388z" />
    <glyph glyph-name="Ntilde" unicode="&#xd1;" horiz-adv-x="2160" 
d="M883 1810q-68 0 -95.5 -47.5t-27.5 -136.5h-258q0 82 19 153t58.5 129.5t107 92t157.5 33.5q70 0 131.5 -20.5t105 -50t83.5 -58.5t83 -49.5t86 -20.5q68 0 95.5 47.5t27.5 136.5h258q0 -82 -19.5 -153t-59 -129t-107 -91.5t-156.5 -33.5q-70 0 -131.5 20.5t-105.5 49.5
t-84 58t-83 49.5t-85 20.5zM1679 291v1155h316v-1446h-457l-1059 1155v-1155h-313v1446h457z" />
    <glyph glyph-name="Ograve" unicode="&#xd2;" horiz-adv-x="2158" 
d="M680 2007l797 -164v-209l-797 164v209zM1079 -41q-460 0 -697 202.5t-237 563.5q0 359 237 560.5t697 201.5q458 0 696 -202t238 -560q0 -360 -238 -563t-696 -203zM1079 233q598 0 598 492q0 487 -598 487q-298 0 -449 -119.5t-151 -367.5q0 -492 600 -492z" />
    <glyph glyph-name="Oacute" unicode="&#xd3;" horiz-adv-x="2158" 
d="M680 1634v209l797 164v-209zM1079 -41q-460 0 -697 202.5t-237 563.5q0 359 237 560.5t697 201.5q458 0 696 -202t238 -560q0 -360 -238 -563t-696 -203zM1079 233q598 0 598 492q0 487 -598 487q-298 0 -449 -119.5t-151 -367.5q0 -492 600 -492z" />
    <glyph glyph-name="Ocircumflex" unicode="&#xd4;" horiz-adv-x="2158" 
d="M1503 1843v-219l-424 164l-424 -164v219l424 164zM1079 1487q458 0 696 -202t238 -560q0 -360 -238 -563t-696 -203q-460 0 -697 202.5t-237 563.5q0 359 237 560.5t697 201.5zM1079 233q598 0 598 492q0 487 -598 487q-298 0 -449 -119.5t-151 -367.5q0 -492 600 -492z
" />
    <glyph glyph-name="Otilde" unicode="&#xd5;" horiz-adv-x="2158" 
d="M731 1626h-258q0 82 19 153t58.5 129.5t107 92t157.5 33.5q70 0 131.5 -20.5t105.5 -50t83.5 -58.5t83 -49.5t86.5 -20.5q68 0 95 47.5t27 136.5h259q0 -82 -19.5 -153t-59 -129t-107.5 -91.5t-157 -33.5q-70 0 -131.5 20.5t-105.5 49.5t-84 58t-83 49.5t-85 20.5
q-68 0 -95.5 -47.5t-27.5 -136.5zM1079 -41q-460 0 -697 202.5t-237 563.5q0 359 237 560.5t697 201.5q458 0 696 -202t238 -560q0 -360 -238 -563t-696 -203zM1079 233q598 0 598 492q0 487 -598 487q-298 0 -449 -119.5t-151 -367.5q0 -492 600 -492z" />
    <glyph glyph-name="Odieresis" unicode="&#xd6;" horiz-adv-x="2158" 
d="M643 1679v205h340v-205h-340zM1176 1679v205h340v-205h-340zM1079 -41q-460 0 -697 202.5t-237 563.5q0 359 237 560.5t697 201.5q458 0 696 -202t238 -560q0 -360 -238 -563t-696 -203zM1079 233q598 0 598 492q0 487 -598 487q-298 0 -449 -119.5t-151 -367.5
q0 -492 600 -492z" />
    <glyph glyph-name="multiply" unicode="&#xd7;" horiz-adv-x="1875" 
d="M1186 692l524 -303l-125 -215l-647 375l-647 -375l-125 215l524 303l-524 301l125 215l647 -372l647 372l123 -215z" />
    <glyph glyph-name="Oslash" unicode="&#xd8;" horiz-adv-x="2158" 
d="M1442 1726l-64 -266q314 -61 474.5 -251.5t160.5 -483.5q0 -360 -238 -563t-696 -203h-59l-59 -250h-246l65 277q-314 61 -474.5 252t-160.5 487q0 359 237 560.5t697 201.5h62l57 239h244zM479 725q0 -385 367 -469l229 956q-297 -2 -446.5 -121.5t-149.5 -365.5z
M1313 1190l-228 -957q592 3 592 492q0 382 -364 465z" />
    <glyph glyph-name="Ugrave" unicode="&#xd9;" horiz-adv-x="2131" 
d="M668 2007l796 -164v-209l-796 164v209zM1968 1446v-741q0 -378 -217 -562t-684 -184q-468 0 -684.5 183.5t-216.5 562.5v741h313v-735q0 -51 5 -94.5t20.5 -94t41 -90.5t70.5 -78.5t105 -64t148.5 -41t197.5 -15.5t197 15.5t148.5 41.5t105 64.5t70 78.5t41 90.5t20 93.5
t4.5 94v735h315z" />
    <glyph glyph-name="Uacute" unicode="&#xda;" horiz-adv-x="2131" 
d="M668 1634v209l796 164v-209zM1968 1446v-741q0 -378 -217 -562t-684 -184q-468 0 -684.5 183.5t-216.5 562.5v741h313v-735q0 -51 5 -94.5t20.5 -94t41 -90.5t70.5 -78.5t105 -64t148.5 -41t197.5 -15.5t197 15.5t148.5 41.5t105 64.5t70 78.5t41 90.5t20 93.5t4.5 94
v735h315z" />
    <glyph glyph-name="Ucircumflex" unicode="&#xdb;" horiz-adv-x="2131" 
d="M1491 1843v-219l-424 164l-424 -164v219l424 164zM1653 711v735h315v-741q0 -378 -217 -562t-684 -184q-468 0 -684.5 183.5t-216.5 562.5v741h313v-735q0 -51 5 -94.5t20.5 -94t41 -90.5t70.5 -78.5t105 -64t148.5 -41t197.5 -15.5t197 15.5t148.5 41.5t105 64.5
t70 78.5t41 90.5t20 93.5t4.5 94z" />
    <glyph glyph-name="Udieresis" unicode="&#xdc;" horiz-adv-x="2131" 
d="M631 1679v205h340v-205h-340zM1163 1679v205h340v-205h-340zM1968 1446v-741q0 -378 -217 -562t-684 -184q-468 0 -684.5 183.5t-216.5 562.5v741h313v-735q0 -51 5 -94.5t20.5 -94t41 -90.5t70.5 -78.5t105 -64t148.5 -41t197.5 -15.5t197 15.5t148.5 41.5t105 64.5
t70 78.5t41 90.5t20 93.5t4.5 94v735h315z" />
    <glyph glyph-name="Yacute" unicode="&#xdd;" horiz-adv-x="2314" 
d="M758 1843l796 164v-209l-796 -164v209zM1157 745l604 701h408l-848 -969v-477h-330v477l-846 969h408z" />
    <glyph glyph-name="Thorn" unicode="&#xde;" horiz-adv-x="2004" 
d="M494 1247h804q256 0 409 -138.5t153 -377.5q0 -241 -153 -379.5t-409 -138.5h-804v-213h-328v1446h328v-199zM494 487h696q31 0 47.5 0.5t48.5 2.5t51 6t47 12.5t45.5 20.5t37.5 30.5t31 42t18.5 56.5t7.5 73q0 39 -7.5 72t-18.5 56.5t-31 42t-37.5 30t-45.5 20t-47 12.5
t-51 6t-48.5 2.5t-47.5 0.5h-696v-486z" />
    <glyph glyph-name="germandbls" unicode="&#xdf;" horiz-adv-x="1935" 
d="M1415 776q188 -35 282.5 -122t94.5 -251q0 -59 -9 -106.5t-32.5 -85.5t-48.5 -67.5t-73.5 -51.5t-91 -37.5t-117 -25.5t-134.5 -16t-162 -9t-180.5 -3.5t-206.5 -0.5v256q120 0 201.5 1t161 4.5t129 9t94.5 15t69.5 22.5t43.5 32.5t25.5 42.5t6.5 55t-6.5 55t-25.5 42.5
t-43.5 32.5t-69.5 23t-95 15.5t-128.5 9t-161 4.5t-201.5 1v217q82 0 135.5 1t111 4t92.5 9t70.5 16t54.5 24t35 34.5t22 47t6 60.5q0 103 -86.5 150t-259.5 47q-118 0 -194.5 -15.5t-134 -56.5t-83 -115t-25.5 -188v-856h-315v844q0 152 34 264t95 184.5t157.5 116
t208.5 61t261 17.5q119 0 216 -12t181.5 -41.5t142 -76t90.5 -118t33 -164.5q0 -191 -170 -299z" />
    <glyph glyph-name="agrave" unicode="&#xe0;" horiz-adv-x="1921" 
d="M592 1761l797 -164v-208l-797 163v209zM1006 1241q196 0 335 -32t238 -105t147.5 -194t49.5 -296v-614h-301v152q-400 -187 -783 -187q-567 0 -567 406q0 92 39 165t105 120t159 78t196 44t222 13q303 0 629 -91q-2 55 -21.5 99.5t-50.5 75t-75 53.5t-88 36.5t-95.5 21.5
t-92.5 10.5t-85 2.5q-317 0 -654 -104l-88 227q405 119 781 119zM786 209q131 0 326.5 44t362.5 103v121q-310 84 -603 84q-426 0 -426 -182q0 -99 83.5 -134.5t256.5 -35.5z" />
    <glyph glyph-name="aacute" unicode="&#xe1;" horiz-adv-x="1921" 
d="M592 1597l797 164v-209l-797 -163v208zM1006 1241q196 0 335 -32t238 -105t147.5 -194t49.5 -296v-614h-301v152q-400 -187 -783 -187q-567 0 -567 406q0 92 39 165t105 120t159 78t196 44t222 13q303 0 629 -91q-2 55 -21.5 99.5t-50.5 75t-75 53.5t-88 36.5t-95.5 21.5
t-92.5 10.5t-85 2.5q-317 0 -654 -104l-88 227q405 119 781 119zM786 209q131 0 326.5 44t362.5 103v121q-310 84 -603 84q-426 0 -426 -182q0 -99 83.5 -134.5t256.5 -35.5z" />
    <glyph glyph-name="acircumflex" unicode="&#xe2;" horiz-adv-x="1921" 
d="M1415 1597v-219l-424 164l-424 -164v219l424 164zM1006 1241q196 0 335 -32t238 -105t147.5 -194t49.5 -296v-614h-301v152q-400 -187 -783 -187q-567 0 -567 406q0 92 39 165t105 120t159 78t196 44t222 13q303 0 629 -91q-2 55 -21.5 99.5t-50.5 75t-75 53.5t-88 36.5
t-95.5 21.5t-92.5 10.5t-85 2.5q-317 0 -654 -104l-88 227q405 119 781 119zM786 209q131 0 326.5 44t362.5 103v121q-310 84 -603 84q-426 0 -426 -182q0 -99 83.5 -134.5t256.5 -35.5z" />
    <glyph glyph-name="atilde" unicode="&#xe3;" horiz-adv-x="1921" 
d="M766 1565q-68 0 -95.5 -48t-27.5 -137h-258q0 82 19 153t58.5 129.5t107 92t157.5 33.5q70 0 131.5 -20.5t105.5 -50t83.5 -58.5t83 -49.5t86.5 -20.5q68 0 95 48t27 137h258q0 -82 -19.5 -153t-59 -129.5t-107 -92t-156.5 -33.5q-70 0 -131.5 20.5t-105.5 50t-84 58.5
t-83 49.5t-85 20.5zM1006 1241q196 0 335 -32t238 -105t147.5 -194t49.5 -296v-614h-301v152q-400 -187 -783 -187q-567 0 -567 406q0 92 39 165t105 120t159 78t196 44t222 13q303 0 629 -91q-2 55 -21.5 99.5t-50.5 75t-75 53.5t-88 36.5t-95.5 21.5t-92.5 10.5t-85 2.5
q-317 0 -654 -104l-88 227q405 119 781 119zM786 209q131 0 326.5 44t362.5 103v121q-310 84 -603 84q-426 0 -426 -182q0 -99 83.5 -134.5t256.5 -35.5z" />
    <glyph glyph-name="adieresis" unicode="&#xe4;" horiz-adv-x="1921" 
d="M555 1638h340v-204h-340v204zM1087 1638h340v-204h-340v204zM1006 1241q196 0 335 -32t238 -105t147.5 -194t49.5 -296v-614h-301v152q-400 -187 -783 -187q-567 0 -567 406q0 92 39 165t105 120t159 78t196 44t222 13q303 0 629 -91q-2 55 -21.5 99.5t-50.5 75t-75 53.5
t-88 36.5t-95.5 21.5t-92.5 10.5t-85 2.5q-317 0 -654 -104l-88 227q405 119 781 119zM786 209q131 0 326.5 44t362.5 103v121q-310 84 -603 84q-426 0 -426 -182q0 -99 83.5 -134.5t256.5 -35.5z" />
    <glyph glyph-name="aring" unicode="&#xe5;" horiz-adv-x="1921" 
d="M991 1352q-436 0 -436 270t436 270t436 -270t-436 -270zM991 1743q-219 0 -219 -121t219 -121t219 121t-219 121zM1006 1241q196 0 335 -32t238 -105t147.5 -194t49.5 -296v-614h-301v152q-400 -187 -783 -187q-567 0 -567 406q0 92 39 165t105 120t159 78t196 44t222 13
q303 0 629 -91q-2 55 -21.5 99.5t-50.5 75t-75 53.5t-88 36.5t-95.5 21.5t-92.5 10.5t-85 2.5q-317 0 -654 -104l-88 227q405 119 781 119zM786 209q131 0 326.5 44t362.5 103v121q-310 84 -603 84q-426 0 -426 -182q0 -99 83.5 -134.5t256.5 -35.5z" />
    <glyph glyph-name="ae" unicode="&#xe6;" horiz-adv-x="3268" 
d="M2316 209q208 0 321 51.5t159 145.5h317q-58 -213 -264 -330t-537 -117q-255 0 -446 70t-295 207q-101 -92 -256 -155.5t-305.5 -89.5t-296.5 -26q-283 0 -435.5 96t-152.5 287q0 83 27 149t78 110.5t116.5 75.5t152 48t173.5 24t192 7h572q0 47 -24 84.5t-66.5 61
t-91 39.5t-107.5 24t-105 11t-94 3q-292 0 -606 -104l-111 223q366 131 734 131q473 0 655 -217q112 111 285.5 167t386.5 56q147 0 270.5 -23t230 -75t180 -132.5t115 -201t41.5 -274.5h-1351q21 -171 155.5 -248.5t382.5 -77.5zM2292 1006q-417 0 -498 -258h1002
q-76 258 -504 258zM1436 391v152h-551q-65 0 -109.5 -1t-94.5 -5t-82 -11.5t-64 -20t-49.5 -30.5t-28.5 -44t-11 -60q0 -90 83 -126t241 -36q174 0 350.5 46t315.5 136z" />
    <glyph glyph-name="ccedilla" unicode="&#xe7;" horiz-adv-x="1933" 
d="M981 215q214 0 334.5 63t159.5 189h321q-50 -244 -247.5 -371.5t-520.5 -136.5l-24 -117q71 33 163 33t149.5 -39.5t57.5 -111.5q0 -61 -37.5 -105.5t-99.5 -69.5t-146.5 -37t-175 -10.5t-188.5 13.5v172q197 -31 292 -24.5t95 58.5q0 48 -70 48q-49 0 -122 -31l-142 53
l35 176q-318 32 -497 191.5t-179 441.5q0 160 60 283t171.5 201t265 117.5t345.5 39.5q344 0 553.5 -127t261.5 -381h-321q-39 127 -159 189.5t-335 62.5q-526 0 -526 -385t526 -385z" />
    <glyph glyph-name="egrave" unicode="&#xe8;" horiz-adv-x="1947" 
d="M588 1761l796 -164v-208l-796 163v209zM997 209q208 0 321 51.5t159 145.5h315q-56 -213 -262 -330t-539 -117q-191 0 -346 39.5t-268.5 117.5t-175.5 201t-62 283q0 159 63.5 282.5t177 201t264 117.5t329.5 40q147 0 270.5 -23t230 -75t180 -132.5t115 -201
t41.5 -274.5h-1351q21 -171 155.5 -248.5t382.5 -77.5zM973 1006q-417 0 -498 -258h1002q-76 258 -504 258z" />
    <glyph glyph-name="eacute" unicode="&#xe9;" horiz-adv-x="1947" 
d="M588 1597l796 164v-209l-796 -163v208zM997 209q208 0 321 51.5t159 145.5h315q-56 -213 -262 -330t-539 -117q-191 0 -346 39.5t-268.5 117.5t-175.5 201t-62 283q0 159 63.5 282.5t177 201t264 117.5t329.5 40q147 0 270.5 -23t230 -75t180 -132.5t115 -201
t41.5 -274.5h-1351q21 -171 155.5 -248.5t382.5 -77.5zM973 1006q-417 0 -498 -258h1002q-76 258 -504 258z" />
    <glyph glyph-name="ecircumflex" unicode="&#xea;" horiz-adv-x="1947" 
d="M1411 1597v-219l-424 164l-424 -164v219l424 164zM997 209q208 0 321 51.5t159 145.5h315q-56 -213 -262 -330t-539 -117q-191 0 -346 39.5t-268.5 117.5t-175.5 201t-62 283q0 159 63.5 282.5t177 201t264 117.5t329.5 40q147 0 270.5 -23t230 -75t180 -132.5t115 -201
t41.5 -274.5h-1351q21 -171 155.5 -248.5t382.5 -77.5zM973 1006q-417 0 -498 -258h1002q-76 258 -504 258z" />
    <glyph glyph-name="edieresis" unicode="&#xeb;" horiz-adv-x="1947" 
d="M551 1638h340v-204h-340v204zM1083 1638h340v-204h-340v204zM997 209q208 0 321 51.5t159 145.5h315q-56 -213 -262 -330t-539 -117q-191 0 -346 39.5t-268.5 117.5t-175.5 201t-62 283q0 159 63.5 282.5t177 201t264 117.5t329.5 40q147 0 270.5 -23t230 -75t180 -132.5
t115 -201t41.5 -274.5h-1351q21 -171 155.5 -248.5t382.5 -77.5zM973 1006q-417 0 -498 -258h1002q-76 258 -504 258z" />
    <glyph glyph-name="igrave" unicode="&#xec;" horiz-adv-x="647" 
d="M-76 1761l797 -164v-208l-797 163v209zM166 0v1200h315v-1200h-315z" />
    <glyph glyph-name="iacute" unicode="&#xed;" horiz-adv-x="647" 
d="M-76 1389v208l797 164v-209zM166 0v1200h315v-1200h-315z" />
    <glyph glyph-name="icircumflex" unicode="&#xee;" horiz-adv-x="647" 
d="M-100 1597l424 164l424 -164v-219l-424 164l-424 -164v219zM481 0h-315v1200h315v-1200z" />
    <glyph glyph-name="idieresis" unicode="&#xef;" horiz-adv-x="647" 
d="M-113 1434v204h340v-204h-340zM420 1434v204h340v-204h-340zM166 0v1200h315v-1200h-315z" />
    <glyph glyph-name="ntilde" unicode="&#xf1;" horiz-adv-x="2021" 
d="M840 1565q-68 0 -95.5 -48t-27.5 -137h-258q0 82 19 153t58.5 129.5t107 92t157.5 33.5q70 0 131.5 -20.5t105 -50t83.5 -58.5t83 -49.5t86 -20.5q68 0 95.5 48t27.5 137h258q0 -82 -19.5 -153t-59 -129.5t-107 -92t-156.5 -33.5q-70 0 -131.5 20.5t-105.5 50t-84 58.5
t-83 49.5t-85 20.5zM1176 1241q158 0 279 -34.5t212 -108t139 -196t49 -292.5v-610h-301v526q0 115 -24 196.5t-79.5 140.5t-149 87.5t-228.5 28.5q-180 0 -314.5 -54t-213 -168.5t-78.5 -279.5v-477h-301v1200h301v-270q242 311 709 311z" />
    <glyph glyph-name="ograve" unicode="&#xf2;" horiz-adv-x="1974" 
d="M588 1761l796 -164v-208l-796 163v209zM987 -41q-260 0 -448.5 70.5t-294 216t-105.5 354.5t105.5 354.5t294 216t448.5 70.5q259 0 447.5 -70.5t294.5 -216t106 -354.5t-106 -354.5t-294.5 -216t-447.5 -70.5zM987 215q526 0 526 385t-526 385t-526 -385t526 -385z" />
    <glyph glyph-name="oacute" unicode="&#xf3;" horiz-adv-x="1974" 
d="M588 1389v208l796 164v-209zM987 -41q-260 0 -448.5 70.5t-294 216t-105.5 354.5t105.5 354.5t294 216t448.5 70.5q259 0 447.5 -70.5t294.5 -216t106 -354.5t-106 -354.5t-294.5 -216t-447.5 -70.5zM987 215q526 0 526 385t-526 385t-526 -385t526 -385z" />
    <glyph glyph-name="ocircumflex" unicode="&#xf4;" horiz-adv-x="1974" 
d="M1411 1597v-219l-424 164l-424 -164v219l424 164zM987 1241q259 0 447.5 -70.5t294.5 -216t106 -354.5t-106 -354.5t-294.5 -216t-447.5 -70.5q-260 0 -448.5 70.5t-294 216t-105.5 354.5t105.5 354.5t294 216t448.5 70.5zM987 215q526 0 526 385t-526 385t-526 -385
t526 -385z" />
    <glyph glyph-name="otilde" unicode="&#xf5;" horiz-adv-x="1974" 
d="M639 1380h-258q0 82 19 153t58.5 129.5t107 92t157.5 33.5q70 0 131.5 -20.5t105 -50t83.5 -58.5t83 -49.5t86 -20.5q68 0 95.5 48t27.5 137h258q0 -82 -19.5 -153t-59 -129.5t-107 -92t-156.5 -33.5q-70 0 -131.5 20.5t-105.5 50t-84 58.5t-83 49.5t-85 20.5
q-68 0 -95.5 -48t-27.5 -137zM987 -41q-260 0 -448.5 70.5t-294 216t-105.5 354.5t105.5 354.5t294 216t448.5 70.5q259 0 447.5 -70.5t294.5 -216t106 -354.5t-106 -354.5t-294.5 -216t-447.5 -70.5zM987 215q526 0 526 385t-526 385t-526 -385t526 -385z" />
    <glyph glyph-name="odieresis" unicode="&#xf6;" horiz-adv-x="1974" 
d="M551 1434v204h340v-204h-340zM1083 1434v204h340v-204h-340zM987 -41q-260 0 -448.5 70.5t-294 216t-105.5 354.5t105.5 354.5t294 216t448.5 70.5q259 0 447.5 -70.5t294.5 -216t106 -354.5t-106 -354.5t-294.5 -216t-447.5 -70.5zM987 215q526 0 526 385t-526 385
t-526 -385t526 -385z" />
    <glyph glyph-name="divide" unicode="&#xf7;" horiz-adv-x="1968" 
d="M836 1024v240h288v-240h-288zM166 559v250h1638v-250h-1638zM836 113v239h288v-239h-288z" />
    <glyph glyph-name="oslash" unicode="&#xf8;" horiz-adv-x="1974" 
d="M1362 1491l-78 -279q262 -55 406.5 -210t144.5 -402q0 -209 -106 -354.5t-294.5 -216t-447.5 -70.5h-53l-70 -250h-254l78 279q-261 55 -405 210t-144 402q0 209 105.5 354.5t294 216t448.5 70.5h51l70 250h254zM461 600q0 -288 297 -360l209 745q-506 -6 -506 -385z
M1214 963l-208 -748q507 6 507 385q0 292 -299 363z" />
    <glyph glyph-name="ugrave" unicode="&#xf9;" horiz-adv-x="2021" 
d="M596 1761l797 -164v-208l-797 163v209zM1554 723v477h301v-1200h-301v270q-119 -152 -291 -231.5t-417 -79.5q-158 0 -279.5 34.5t-212 107.5t-139 196t-49.5 293v610h303v-526q0 -115 24 -196.5t78.5 -140.5t148 -87.5t228.5 -28.5q180 0 314.5 54t213 168.5t78.5 279.5
z" />
    <glyph glyph-name="uacute" unicode="&#xfa;" horiz-adv-x="2021" 
d="M596 1597l797 164v-209l-797 -163v208zM1554 723v477h301v-1200h-301v270q-119 -152 -291 -231.5t-417 -79.5q-158 0 -279.5 34.5t-212 107.5t-139 196t-49.5 293v610h303v-526q0 -115 24 -196.5t78.5 -140.5t148 -87.5t228.5 -28.5q180 0 314.5 54t213 168.5t78.5 279.5
z" />
    <glyph glyph-name="ucircumflex" unicode="&#xfb;" horiz-adv-x="2021" 
d="M1419 1597v-219l-424 164l-424 -164v219l424 164zM1554 723v477h301v-1200h-301v270q-119 -152 -291 -231.5t-417 -79.5q-158 0 -279.5 34.5t-212 107.5t-139 196t-49.5 293v610h303v-526q0 -115 24 -196.5t78.5 -140.5t148 -87.5t228.5 -28.5q180 0 314.5 54t213 168.5
t78.5 279.5z" />
    <glyph glyph-name="udieresis" unicode="&#xfc;" horiz-adv-x="2021" 
d="M559 1638h340v-204h-340v204zM1092 1638h340v-204h-340v204zM1554 723v477h301v-1200h-301v270q-119 -152 -291 -231.5t-417 -79.5q-158 0 -279.5 34.5t-212 107.5t-139 196t-49.5 293v610h303v-526q0 -115 24 -196.5t78.5 -140.5t148 -87.5t228.5 -28.5q180 0 314.5 54
t213 168.5t78.5 279.5z" />
    <glyph glyph-name="yacute" unicode="&#xfd;" horiz-adv-x="2070" 
d="M649 1597l797 164v-209l-797 -163v208zM1040 156l572 1044h327l-700 -1280q-62 -115 -118.5 -193t-129 -139.5t-162.5 -90.5t-204 -29q-183 0 -408 47v254q198 -45 354 -45q134 0 214 53.5t161 206.5l8 16h-159l-656 1200h332z" />
    <glyph glyph-name="thorn" unicode="&#xfe;" horiz-adv-x="1986" 
d="M1108 1235q114 0 216 -19.5t197.5 -66t164.5 -117.5t110 -181.5t41 -250.5t-41 -250.5t-110 -181.5t-164.5 -117.5t-197.5 -66t-216 -19.5q-202 0 -363 58t-258 176v-584h-321v2023h321v-637q97 118 258 176t363 58zM1001 233q263 0 387.5 93t124.5 274q0 182 -124 274.5
t-388 92.5q-265 0 -389.5 -92.5t-124.5 -274.5q0 -181 124.5 -274t389.5 -93z" />
    <glyph glyph-name="ydieresis" unicode="&#xff;" horiz-adv-x="2070" 
d="M612 1638h340v-204h-340v204zM1145 1638h340v-204h-340v204zM1040 156l572 1044h327l-700 -1280q-62 -115 -118.5 -193t-129 -139.5t-162.5 -90.5t-204 -29q-183 0 -408 47v254q198 -45 354 -45q134 0 214 53.5t161 206.5l8 16h-159l-656 1200h332z" />
    <glyph glyph-name="Amacron" unicode="&#x100;" horiz-adv-x="2318" 
d="M680 1884h960v-205h-960v205zM2175 0h-350l-166 301h-997l-166 -301h-351l805 1446h418zM1159 1204l-356 -647h715z" />
    <glyph glyph-name="amacron" unicode="&#x101;" horiz-adv-x="1921" 
d="M510 1638h960v-204h-960v204zM1006 1241q196 0 335 -32t238 -105t147.5 -194t49.5 -296v-614h-301v152q-400 -187 -783 -187q-567 0 -567 406q0 92 39 165t105 120t159 78t196 44t222 13q303 0 629 -91q-2 55 -21.5 99.5t-50.5 75t-75 53.5t-88 36.5t-95.5 21.5
t-92.5 10.5t-85 2.5q-317 0 -654 -104l-88 227q405 119 781 119zM786 209q131 0 326.5 44t362.5 103v121q-310 84 -603 84q-426 0 -426 -182q0 -99 83.5 -134.5t256.5 -35.5z" />
    <glyph glyph-name="Abreve" unicode="&#x102;" horiz-adv-x="2318" 
d="M1161 1604q-81 0 -146.5 10t-126.5 36.5t-102 69.5t-65.5 112t-24.5 161h217q0 -109 63 -154t185 -45q121 0 183.5 45t62.5 154h219q0 -92 -24.5 -161t-65.5 -112t-102 -69.5t-126.5 -36.5t-146.5 -10zM2175 0h-350l-166 301h-997l-166 -301h-351l805 1446h418z
M1159 1204l-356 -647h715z" />
    <glyph glyph-name="abreve" unicode="&#x103;" horiz-adv-x="1921" 
d="M991 1358q-81 0 -146.5 10t-126.5 36.5t-102 69.5t-65.5 112t-24.5 161h217q0 -109 63 -154t185 -45q121 0 183.5 45t62.5 154h219q0 -92 -24.5 -161t-65.5 -112t-102 -69.5t-126.5 -36.5t-146.5 -10zM1006 1241q196 0 335 -32t238 -105t147.5 -194t49.5 -296v-614h-301
v152q-400 -187 -783 -187q-567 0 -567 406q0 92 39 165t105 120t159 78t196 44t222 13q303 0 629 -91q-2 55 -21.5 99.5t-50.5 75t-75 53.5t-88 36.5t-95.5 21.5t-92.5 10.5t-85 2.5q-317 0 -654 -104l-88 227q405 119 781 119zM786 209q131 0 326.5 44t362.5 103v121
q-310 84 -603 84q-426 0 -426 -182q0 -99 83.5 -134.5t256.5 -35.5z" />
    <glyph glyph-name="Aogonek" unicode="&#x104;" horiz-adv-x="2318" 
d="M1919 -156q0 -40 21 -67t61 -39t80 -16.5t94 -4.5v-229q-128 0 -224.5 13.5t-171.5 44.5t-114 85.5t-39 130.5q0 89 66 151t155 87h-22l-166 301h-997l-166 -301h-351l805 1446h418l807 -1446h-21q-235 -38 -235 -156zM1159 1204l-356 -647h715z" />
    <glyph glyph-name="aogonek" unicode="&#x105;" horiz-adv-x="1994" 
d="M1526 -156q0 -33 13.5 -56.5t35.5 -37t57 -21t69.5 -10t82.5 -2.5v-229q-273 0 -412 57.5t-139 196.5q0 178 248 258h-6v152q-400 -187 -783 -187q-567 0 -567 406q0 92 39 165t105 120t159 78t196 44t222 13q303 0 629 -91q-2 55 -21.5 99.5t-50.5 75t-75 53.5t-88 36.5
t-95.5 21.5t-92.5 10.5t-85 2.5q-317 0 -654 -104l-88 227q405 119 781 119q196 0 335 -32t238 -105t147.5 -194t49.5 -296v-614h-13q-237 -19 -237 -156zM786 209q131 0 326.5 44t362.5 103v121q-310 84 -603 84q-426 0 -426 -182q0 -99 83.5 -134.5t256.5 -35.5z" />
    <glyph glyph-name="Cacute" unicode="&#x106;" horiz-adv-x="2084" 
d="M664 1634v209l796 164v-209zM145 725q0 364 233 563t685 199q199 0 358.5 -42.5t267 -120t170.5 -181.5t80 -232h-340q-27 140 -163.5 220.5t-372.5 80.5q-284 0 -434 -120.5t-150 -366.5q0 -247 151 -369.5t433 -122.5q234 0 371.5 83.5t164.5 224.5h343
q-18 -129 -81.5 -234t-170.5 -183.5t-267 -121.5t-360 -43q-452 0 -685 201t-233 565z" />
    <glyph glyph-name="cacute" unicode="&#x107;" horiz-adv-x="1933" 
d="M590 1389v208l796 164v-209zM139 600q0 160 60 283t171.5 201t265 117.5t345.5 39.5q344 0 553.5 -127t261.5 -381h-321q-39 127 -159 189.5t-335 62.5q-526 0 -526 -385t526 -385q214 0 334.5 63t159.5 189h321q-52 -253 -262 -380.5t-553 -127.5q-192 0 -345.5 39.5
t-265 117.5t-171.5 201t-60 283z" />
    <glyph glyph-name="Cdotaccent" unicode="&#x10a;" horiz-adv-x="2084" 
d="M887 1679v205h352v-205h-352zM145 725q0 364 233 563t685 199q199 0 358.5 -42.5t267 -120t170.5 -181.5t80 -232h-340q-27 140 -163.5 220.5t-372.5 80.5q-284 0 -434 -120.5t-150 -366.5q0 -247 151 -369.5t433 -122.5q234 0 371.5 83.5t164.5 224.5h343
q-18 -129 -81.5 -234t-170.5 -183.5t-267 -121.5t-360 -43q-452 0 -685 201t-233 565z" />
    <glyph glyph-name="cdotaccent" unicode="&#x10b;" horiz-adv-x="1933" 
d="M811 1434v204h352v-204h-352zM139 600q0 160 60 283t171.5 201t265 117.5t345.5 39.5q344 0 553.5 -127t261.5 -381h-321q-39 127 -159 189.5t-335 62.5q-526 0 -526 -385t526 -385q214 0 334.5 63t159.5 189h321q-52 -253 -262 -380.5t-553 -127.5q-192 0 -345.5 39.5
t-265 117.5t-171.5 201t-60 283z" />
    <glyph glyph-name="Ccaron" unicode="&#x10c;" horiz-adv-x="2084" 
d="M1487 1985v-220l-424 -163l-424 163v220l424 -164zM1599 541h343q-18 -129 -81.5 -234t-170.5 -183.5t-267 -121.5t-360 -43q-452 0 -685 201t-233 565t233 563t685 199q199 0 358.5 -42.5t267 -120t170.5 -181.5t80 -232h-340q-27 140 -163.5 220.5t-372.5 80.5
q-284 0 -434 -120.5t-150 -366.5q0 -247 151 -369.5t433 -122.5q234 0 371.5 83.5t164.5 224.5z" />
    <glyph glyph-name="ccaron" unicode="&#x10d;" horiz-adv-x="1933" 
d="M1413 1739v-219l-424 -164l-424 164v219l424 -164zM981 215q214 0 334.5 63t159.5 189h321q-52 -253 -262 -380.5t-553 -127.5q-192 0 -345.5 39.5t-265 117.5t-171.5 201t-60 283t60 283t171.5 201t265 117.5t345.5 39.5q344 0 553.5 -127t261.5 -381h-321
q-39 127 -159 189.5t-335 62.5q-526 0 -526 -385t526 -385z" />
    <glyph glyph-name="Dcaron" unicode="&#x10e;" horiz-adv-x="2045" 
d="M1315 1972v-219l-424 -164l-424 164v219l424 -164zM1202 1446q144 0 268.5 -44.5t222 -131t154 -227t56.5 -320.5t-56.5 -320.5t-154 -227t-222 -131t-268.5 -44.5h-1036v1446h1036zM479 274h574q74 0 131.5 5t112.5 18t95.5 35t74.5 56t55.5 81t33 110.5t11.5 143.5
q0 94 -15 165t-46.5 120t-73 81t-102 50t-125.5 25t-152 7h-574v-897z" />
    <glyph glyph-name="dcaron" unicode="&#x10f;" horiz-adv-x="2400" 
d="M1507 993v645h301v-1638h-301v207q-188 -248 -626 -248q-122 0 -231 23.5t-203 74t-162 124.5t-107 181.5t-39 237.5t39 237.5t107 181.5t162 124.5t203 74t231 23.5q438 0 626 -248zM1931 1382v256h310v-256l-154 -393h-143l98 393h-111zM977 221q254 0 392 100t138 279
q0 180 -137.5 279.5t-392.5 99.5q-252 0 -383 -99t-131 -280q0 -180 131.5 -279.5t382.5 -99.5z" />
    <glyph glyph-name="Dcroat" unicode="&#x110;" horiz-adv-x="2093" 
d="M1249 1446q144 0 268.5 -44.5t222 -131t154 -227t56.5 -320.5t-56.5 -320.5t-154 -227t-222 -131t-268.5 -44.5h-1036v662h-164v122h164v662h1036zM528 274h574q104 0 178.5 10.5t141 39t106.5 78.5t63 130t23 191q0 112 -23 192t-63 129.5t-106.5 78t-141 38.5
t-178.5 10h-574v-387h504v-122h-504v-388z" />
    <glyph glyph-name="dcroat" unicode="&#x111;" horiz-adv-x="2123" 
d="M1808 1522h193v-205h-193v-1317h-301v207q-188 -248 -626 -248q-122 0 -231 23.5t-203 74t-162 124.5t-107 181.5t-39 237.5t39 237.5t107 181.5t162 124.5t203 74t231 23.5q438 0 626 -248v324h-585v205h585v116h301v-116zM977 221q254 0 392 100t138 279
q0 180 -137.5 279.5t-392.5 99.5q-252 0 -383 -99t-131 -280q0 -180 131.5 -279.5t382.5 -99.5z" />
    <glyph glyph-name="Emacron" unicode="&#x112;" horiz-adv-x="1830" 
d="M461 1884h960v-205h-960v205zM1681 1446v-262h-1202v-330h1161v-262h-1161v-330h1202v-262h-1515v1446h1515z" />
    <glyph glyph-name="emacron" unicode="&#x113;" horiz-adv-x="1947" 
d="M506 1638h960v-204h-960v204zM997 209q208 0 321 51.5t159 145.5h315q-56 -213 -262 -330t-539 -117q-191 0 -346 39.5t-268.5 117.5t-175.5 201t-62 283q0 159 63.5 282.5t177 201t264 117.5t329.5 40q147 0 270.5 -23t230 -75t180 -132.5t115 -201t41.5 -274.5h-1351
q21 -171 155.5 -248.5t382.5 -77.5zM973 1006q-417 0 -498 -258h1002q-76 258 -504 258z" />
    <glyph glyph-name="Edotaccent" unicode="&#x116;" horiz-adv-x="1830" 
d="M766 1884h352v-205h-352v205zM1681 1446v-262h-1202v-330h1161v-262h-1161v-330h1202v-262h-1515v1446h1515z" />
    <glyph glyph-name="edotaccent" unicode="&#x117;" horiz-adv-x="1947" 
d="M811 1638h352v-204h-352v204zM997 209q208 0 321 51.5t159 145.5h315q-56 -213 -262 -330t-539 -117q-191 0 -346 39.5t-268.5 117.5t-175.5 201t-62 283q0 159 63.5 282.5t177 201t264 117.5t329.5 40q147 0 270.5 -23t230 -75t180 -132.5t115 -201t41.5 -274.5h-1351
q21 -171 155.5 -248.5t382.5 -77.5zM973 1006q-417 0 -498 -258h1002q-76 258 -504 258z" />
    <glyph glyph-name="Eogonek" unicode="&#x118;" horiz-adv-x="1830" 
d="M1681 1446v-262h-1202v-330h1161v-262h-1161v-330h1202v-262h-47q-112 -21 -161.5 -58.5t-49.5 -97.5q0 -33 13.5 -56.5t35.5 -37t57 -21t69.5 -10t82.5 -2.5v-229q-106 0 -189 8.5t-152.5 28t-114.5 50.5t-70 78t-25 109q0 92 68 152.5t195 85.5h-1227v1446h1515z" />
    <glyph glyph-name="eogonek" unicode="&#x119;" horiz-adv-x="1935" 
d="M997 209q208 0 321 51.5t159 145.5h315q-45 -169 -185 -278.5t-364 -147.5q-78 -25 -104.5 -50.5t-26.5 -64.5q0 -19 6.5 -35t22 -26.5t31 -18.5t43.5 -13t49 -8t57.5 -4t59 -1.5t63.5 -0.5v-229q-122 0 -209 5.5t-163 21t-121.5 42t-71 69t-25.5 102.5q0 66 45 112.5
t148 77.5h-56q-191 0 -346 39.5t-268.5 117.5t-175.5 201t-62 283q0 159 63.5 282.5t177 201t264 117.5t329.5 40q147 0 270.5 -23t230 -75t180 -132.5t115 -201t41.5 -274.5h-1351q21 -171 155.5 -248.5t382.5 -77.5zM973 1006q-417 0 -498 -258h1002q-76 258 -504 258z
" />
    <glyph glyph-name="Ecaron" unicode="&#x11a;" horiz-adv-x="1830" 
d="M1366 1985v-220l-424 -163l-424 163v220l424 -164zM1681 1446v-262h-1202v-330h1161v-262h-1161v-330h1202v-262h-1515v1446h1515z" />
    <glyph glyph-name="ecaron" unicode="&#x11b;" horiz-adv-x="1947" 
d="M1411 1739v-219l-424 -164l-424 164v219l424 -164zM997 209q208 0 321 51.5t159 145.5h315q-56 -213 -262 -330t-539 -117q-191 0 -346 39.5t-268.5 117.5t-175.5 201t-62 283q0 159 63.5 282.5t177 201t264 117.5t329.5 40q147 0 270.5 -23t230 -75t180 -132.5t115 -201
t41.5 -274.5h-1351q21 -171 155.5 -248.5t382.5 -77.5zM973 1006q-417 0 -498 -258h1002q-76 258 -504 258z" />
    <glyph glyph-name="Gbreve" unicode="&#x11e;" horiz-adv-x="2084" 
d="M600 1993h217q0 -109 63 -154t185 -45q121 0 183.5 45t62.5 154h219q0 -92 -24.5 -161t-65.5 -112t-102 -69.5t-126.5 -36.5t-146.5 -10t-146.5 10t-126.5 36.5t-102 69.5t-65.5 112t-24.5 161zM145 723q0 357 246.5 560.5t675.5 203.5q196 0 356.5 -43t268.5 -119.5
t171.5 -177t78.5 -219.5h-340q-29 131 -164 207.5t-369 76.5q-144 0 -253.5 -34.5t-171.5 -85.5t-101 -121t-51.5 -130.5t-12.5 -123.5q0 -43 6.5 -86t25 -93.5t47.5 -94t78 -85.5t112 -71.5t154 -47.5t200 -18q172 0 291.5 24.5t251.5 80.5v202h-590v238h887v-586
q-225 -122 -420.5 -171.5t-427.5 -49.5q-291 0 -505 91t-329 264t-115 409z" />
    <glyph glyph-name="gbreve" unicode="&#x11f;" horiz-adv-x="1974" 
d="M981 1358q-81 0 -146.5 10t-126.5 36.5t-102 69.5t-65.5 112t-24.5 161h217q0 -109 63 -154t185 -45q121 0 183.5 45t62.5 154h219q0 -92 -24.5 -161t-65.5 -112t-102 -69.5t-126.5 -36.5t-146.5 -10zM1505 997v203h303v-1050q-1 -355 -196 -518.5t-576 -163.5
q-374 0 -786 98l20 244q5 -1 57 -10.5t64 -12t62.5 -11.5t70.5 -12t67.5 -10t74 -10t71 -8t77 -7t72.5 -3.5t77 -1.5q203 0 321.5 49t169.5 147.5t51 263.5v31q-184 -244 -610 -244q-123 0 -233 23t-206.5 72.5t-166 122.5t-110 180t-40.5 237q0 131 40.5 238t110 180
t166 122.5t206.5 72t233 22.5q426 0 610 -244zM983 233q256 0 389 99t133 274q0 177 -132.5 275t-389.5 98t-389.5 -98t-132.5 -275q0 -175 133 -274t389 -99z" />
    <glyph glyph-name="Gdotaccent" unicode="&#x120;" horiz-adv-x="2084" 
d="M889 1679v205h352v-205h-352zM145 723q0 357 246.5 560.5t675.5 203.5q196 0 356.5 -43t268.5 -119.5t171.5 -177t78.5 -219.5h-340q-29 131 -164 207.5t-369 76.5q-144 0 -253.5 -34.5t-171.5 -85.5t-101 -121t-51.5 -130.5t-12.5 -123.5q0 -43 6.5 -86t25 -93.5
t47.5 -94t78 -85.5t112 -71.5t154 -47.5t200 -18q172 0 291.5 24.5t251.5 80.5v202h-590v238h887v-586q-225 -122 -420.5 -171.5t-427.5 -49.5q-291 0 -505 91t-329 264t-115 409z" />
    <glyph glyph-name="gdotaccent" unicode="&#x121;" horiz-adv-x="1974" 
d="M805 1638h352v-204h-352v204zM1505 997v203h303v-1050q-1 -355 -196 -518.5t-576 -163.5q-374 0 -786 98l20 244q5 -1 57 -10.5t64 -12t62.5 -11.5t70.5 -12t67.5 -10t74 -10t71 -8t77 -7t72.5 -3.5t77 -1.5q203 0 321.5 49t169.5 147.5t51 263.5v31q-184 -244 -610 -244
q-123 0 -233 23t-206.5 72.5t-166 122.5t-110 180t-40.5 237q0 131 40.5 238t110 180t166 122.5t206.5 72t233 22.5q426 0 610 -244zM983 233q256 0 389 99t133 274q0 177 -132.5 275t-389.5 98t-389.5 -98t-132.5 -275q0 -175 133 -274t389 -99z" />
    <glyph glyph-name="uni0122" unicode="&#x122;" horiz-adv-x="2084" 
d="M145 723q0 357 246.5 560.5t675.5 203.5q196 0 356.5 -43t268.5 -119.5t171.5 -177t78.5 -219.5h-340q-29 131 -164 207.5t-369 76.5q-144 0 -253.5 -34.5t-171.5 -85.5t-101 -121t-51.5 -130.5t-12.5 -123.5q0 -43 6.5 -86t25 -93.5t47.5 -94t78 -85.5t112 -71.5
t154 -47.5t200 -18q172 0 291.5 24.5t251.5 80.5v202h-590v238h887v-586q-225 -122 -420.5 -171.5t-427.5 -49.5q-291 0 -505 91t-329 264t-115 409zM971 -375v217h297v-217l-156 -225h-141l110 225h-110z" />
    <glyph glyph-name="uni0123" unicode="&#x123;" horiz-adv-x="1974" 
d="M1018 1665h112v-217h-296v217l153 225h143zM1505 997v203h303v-1050q-1 -355 -196 -518.5t-576 -163.5q-374 0 -786 98l20 244q5 -1 57 -10.5t64 -12t62.5 -11.5t70.5 -12t67.5 -10t74 -10t71 -8t77 -7t72.5 -3.5t77 -1.5q203 0 321.5 49t169.5 147.5t51 263.5v31
q-184 -244 -610 -244q-123 0 -233 23t-206.5 72.5t-166 122.5t-110 180t-40.5 237q0 131 40.5 238t110 180t166 122.5t206.5 72t233 22.5q426 0 610 -244zM983 233q256 0 389 99t133 274q0 177 -132.5 275t-389.5 98t-389.5 -98t-132.5 -275q0 -175 133 -274t389 -99z" />
    <glyph glyph-name="Hbar" unicode="&#x126;" horiz-adv-x="2258" 
d="M2019 1255h144v-204h-144v-1051h-315v586h-1149v-586h-315v1051h-144v204h144v191h315v-191h1149v191h315v-191zM555 860h1149v191h-1149v-191z" />
    <glyph glyph-name="hbar" unicode="&#x127;" horiz-adv-x="2158" 
d="M1313 1241q158 0 279.5 -34.5t212 -107.5t139 -196t49.5 -293v-610h-303v526q0 115 -24 196.5t-79 140.5t-148.5 87.5t-228.5 28.5q-180 0 -314.5 -54t-213 -168.5t-78.5 -279.5v-477h-301v1317h-178v205h178v116h301v-116h600v-205h-600v-385q243 309 709 309z" />
    <glyph glyph-name="Imacron" unicode="&#x12a;" horiz-adv-x="645" 
d="M-158 1679v205h961v-205h-961zM166 1446h313v-1446h-313v1446z" />
    <glyph glyph-name="imacron" unicode="&#x12b;" horiz-adv-x="647" 
d="M-158 1434v204h961v-204h-961zM166 0v1200h315v-1200h-315z" />
    <glyph glyph-name="Iogonek" unicode="&#x12e;" horiz-adv-x="661" 
d="M272 -156q0 -41 19.5 -67.5t58 -39t79.5 -16.5t101 -4v-229q-133 0 -230.5 13.5t-171 44.5t-111 85t-37.5 131q0 89 57.5 143.5t163.5 94.5h-39v1446h315v-1446h6q-111 -21 -161 -59t-50 -97z" />
    <glyph glyph-name="iogonek" unicode="&#x12f;" horiz-adv-x="653" 
d="M111 1638h370v-229h-370v229zM291 -156q0 -33 13.5 -56.5t35.5 -37t57 -21t69.5 -10t82.5 -2.5v-229q-133 0 -231.5 13.5t-172.5 44.5t-111.5 85t-37.5 131q0 42 13 77t42 65.5t47 45t57 42.5q7 5 11 8v1200h315v-1200h6q-102 -22 -149 -59.5t-47 -96.5z" />
    <glyph glyph-name="Idotaccent" unicode="&#x130;" horiz-adv-x="645" 
d="M147 1679v205h353v-205h-353zM166 1446h313v-1446h-313v1446z" />
    <glyph glyph-name="dotlessi" unicode="&#x131;" horiz-adv-x="647" 
d="M166 0v1200h315v-1200h-315z" />
    <glyph glyph-name="uni0136" unicode="&#x136;" horiz-adv-x="2078" 
d="M1446 1446h489l-796 -635l796 -811h-426l-610 621l-420 -336v-285h-313v1446h313v-772zM930 -375h-111v217h297v-217l-155 -225h-142z" />
    <glyph glyph-name="uni0137" unicode="&#x137;" horiz-adv-x="1935" 
d="M1292 1200h504l-770 -526l770 -674h-428l-582 510l-319 -219v-291h-301v1638h301v-1003zM864 -375h-110v217h297v-217l-156 -225h-141z" />
    <glyph glyph-name="Lacute" unicode="&#x139;" horiz-adv-x="1693" 
d="M166 1843l797 164v-209l-797 -164v209zM479 1446v-1172h1075v-274h-1388v1446h313z" />
    <glyph glyph-name="lacute" unicode="&#x13a;" horiz-adv-x="632" 
d="M-82 1827v209l797 164v-209zM166 0v1638h301v-1638h-301z" />
    <glyph glyph-name="uni013B" unicode="&#x13b;" horiz-adv-x="1693" 
d="M479 1446v-1172h1075v-274h-1388v1446h313zM829 -375h-110v217h297v-217l-156 -225h-141z" />
    <glyph glyph-name="uni013C" unicode="&#x13c;" horiz-adv-x="632" 
d="M166 0v1638h301v-1638h-301zM168 -375v217h297v-217l-156 -225h-141l111 225h-111z" />
    <glyph glyph-name="Lcaron" unicode="&#x13d;" horiz-adv-x="1693" 
d="M479 1446v-1172h1075v-274h-1388v1446h313zM1374 1176l-155 -226h-142l111 226h-111v217h297v-217z" />
    <glyph glyph-name="lcaron" unicode="&#x13e;" horiz-adv-x="964" 
d="M166 0v1638h301v-1638h-301zM600 1380v217h297v-217l-156 -225h-141l111 225h-111z" />
    <glyph glyph-name="Lslash" unicode="&#x141;" horiz-adv-x="1984" 
d="M659 651v-377h1076v-274h-1391v512l-209 -90v266l209 90v668h315v-528l576 249v-266z" />
    <glyph glyph-name="lslash" unicode="&#x142;" horiz-adv-x="1130" 
d="M709 1020l282 129v-225l-282 -129v-795h-301v659l-269 -122v225l269 123v753h301v-618z" />
    <glyph glyph-name="Nacute" unicode="&#x143;" horiz-adv-x="2160" 
d="M709 1843l796 164v-209l-796 -164v209zM1679 291v1155h316v-1446h-457l-1059 1155v-1155h-313v1446h457z" />
    <glyph glyph-name="nacute" unicode="&#x144;" horiz-adv-x="2021" 
d="M666 1597l796 164v-209l-796 -163v208zM1176 1241q158 0 279 -34.5t212 -108t139 -196t49 -292.5v-610h-301v526q0 115 -24 196.5t-79.5 140.5t-149 87.5t-228.5 28.5q-180 0 -314.5 -54t-213 -168.5t-78.5 -279.5v-477h-301v1200h301v-270q242 311 709 311z" />
    <glyph glyph-name="uni0145" unicode="&#x145;" horiz-adv-x="2160" 
d="M1679 291v1155h316v-1446h-457l-1059 1155v-1155h-313v1446h457zM977 -375h-111v217h297v-217l-155 -225h-142z" />
    <glyph glyph-name="uni0146" unicode="&#x146;" horiz-adv-x="2021" 
d="M1176 1241q158 0 279 -34.5t212 -108t139 -196t49 -292.5v-610h-301v526q0 115 -24 196.5t-79.5 140.5t-149 87.5t-228.5 28.5q-180 0 -314.5 -54t-213 -168.5t-78.5 -279.5v-477h-301v1200h301v-270q242 311 709 311zM971 -375h-111v217h297v-217l-156 -225h-141z" />
    <glyph glyph-name="Ncaron" unicode="&#x147;" horiz-adv-x="2160" 
d="M1532 1985v-220l-424 -163l-424 163v220l424 -164zM1679 291v1155h316v-1446h-457l-1059 1155v-1155h-313v1446h457z" />
    <glyph glyph-name="ncaron" unicode="&#x148;" horiz-adv-x="2021" 
d="M1489 1739v-219l-424 -164l-424 164v219l424 -164zM1176 1241q158 0 279 -34.5t212 -108t139 -196t49 -292.5v-610h-301v526q0 115 -24 196.5t-79.5 140.5t-149 87.5t-228.5 28.5q-180 0 -314.5 -54t-213 -168.5t-78.5 -279.5v-477h-301v1200h301v-270q242 311 709 311z
" />
    <glyph glyph-name="Eng" unicode="&#x14a;" horiz-adv-x="2160" 
d="M1679 291v1155h316v-1446q0 -272 -138 -412.5t-432 -140.5q-180 0 -362 45v252q6 -1 28.5 -5.5t28.5 -6t25.5 -5t27.5 -4.5t26.5 -4t30 -3.5t31 -2.5t36 -2.5t37.5 -1t44 -0.5q87 0 143.5 19t86 59t40.5 89.5t11 123.5h-121l-1059 1155v-1155h-313v1446h457z" />
    <glyph glyph-name="eng" unicode="&#x14b;" horiz-adv-x="2021" 
d="M1176 1241q158 0 279 -34.5t212 -108t139 -196t49 -292.5v-610q0 -268 -133.5 -396t-421.5 -128q-186 0 -362 30v238q167 -20 231 -20q87 0 144 6t106.5 22.5t77 47.5t42.5 80t15 120v526q0 115 -24 196.5t-79.5 140.5t-149 87.5t-228.5 28.5q-180 0 -314.5 -54
t-213 -168.5t-78.5 -279.5v-477h-301v1200h301v-270q242 311 709 311z" />
    <glyph glyph-name="Omacron" unicode="&#x14c;" horiz-adv-x="2158" 
d="M598 1679v205h961v-205h-961zM1079 -41q-460 0 -697 202.5t-237 563.5q0 359 237 560.5t697 201.5q458 0 696 -202t238 -560q0 -360 -238 -563t-696 -203zM1079 233q598 0 598 492q0 487 -598 487q-298 0 -449 -119.5t-151 -367.5q0 -492 600 -492z" />
    <glyph glyph-name="omacron" unicode="&#x14d;" horiz-adv-x="1974" 
d="M506 1434v204h960v-204h-960zM987 -41q-260 0 -448.5 70.5t-294 216t-105.5 354.5t105.5 354.5t294 216t448.5 70.5q259 0 447.5 -70.5t294.5 -216t106 -354.5t-106 -354.5t-294.5 -216t-447.5 -70.5zM987 215q526 0 526 385t-526 385t-526 -385t526 -385z" />
    <glyph glyph-name="Ohungarumlaut" unicode="&#x150;" horiz-adv-x="2158" 
d="M635 1651v219l424 164v-219zM1182 1651v219l424 164v-219zM1079 -41q-460 0 -697 202.5t-237 563.5q0 359 237 560.5t697 201.5q458 0 696 -202t238 -560q0 -360 -238 -563t-696 -203zM1079 233q598 0 598 492q0 487 -598 487q-298 0 -449 -119.5t-151 -367.5
q0 -492 600 -492z" />
    <glyph glyph-name="ohungarumlaut" unicode="&#x151;" horiz-adv-x="1974" 
d="M543 1405v219l424 164v-219zM1090 1405v219l423 164v-219zM987 -41q-260 0 -448.5 70.5t-294 216t-105.5 354.5t105.5 354.5t294 216t448.5 70.5q259 0 447.5 -70.5t294.5 -216t106 -354.5t-106 -354.5t-294.5 -216t-447.5 -70.5zM987 215q526 0 526 385t-526 385
t-526 -385t526 -385z" />
    <glyph glyph-name="OE" unicode="&#x152;" horiz-adv-x="3502" 
d="M3351 1446v-262h-1201v-330h1160v-262h-1160v-330h1201v-262h-1516v219q-241 -260 -756 -260q-460 0 -697 202.5t-237 563.5q0 359 237 560.5t697 201.5q514 0 756 -258v217h1516zM1079 233q598 0 598 492q0 487 -598 487q-298 0 -449 -119.5t-151 -367.5
q0 -492 600 -492z" />
    <glyph glyph-name="oe" unicode="&#x153;" horiz-adv-x="3409" 
d="M2460 209q207 0 319 51t160 146h315q-58 -213 -263.5 -330t-536.5 -117q-252 0 -441 68t-295 202q-105 -134 -292 -202t-439 -68q-260 0 -448.5 70.5t-294 216t-105.5 354.5t105.5 354.5t294 216t448.5 70.5q254 0 441 -68.5t290 -203.5q106 135 292.5 203.5t422.5 68.5
q147 0 270.5 -23t230 -75t180 -132.5t115.5 -201t42 -274.5h-1352q21 -171 156 -248.5t385 -77.5zM2433 1006q-417 0 -498 -258h1002q-76 258 -504 258zM987 215q526 0 526 385t-526 385t-526 -385t526 -385z" />
    <glyph glyph-name="Racute" unicode="&#x154;" horiz-adv-x="2009" 
d="M535 1843l796 164v-209l-796 -164v209zM1585 621q109 -17 167 -86t58 -183v-352h-315v283q0 107 -37.5 142.5t-154.5 35.5h-824v-461h-313v1446h1089q273 0 421.5 -108.5t148.5 -333.5q0 -287 -240 -383zM1176 1178h-697v-447h697q32 0 49 0.5t48 2t48.5 5.5t43.5 11.5
t41 18.5t33 28t27.5 39t16 52t6.5 66q0 64 -20.5 108.5t-46.5 67t-75.5 34t-81 13t-89.5 1.5z" />
    <glyph glyph-name="racute" unicode="&#x155;" horiz-adv-x="1478" 
d="M334 1597l796 164v-209l-796 -163v208zM1036 1241q179 0 318 -47v-268q-162 47 -318 47q-139 0 -272 -51.5t-297 -192.5v-729h-301v1200h301v-223q132 148 267.5 206t301.5 58z" />
    <glyph glyph-name="uni0156" unicode="&#x156;" horiz-adv-x="2009" 
d="M1585 621q109 -17 167 -86t58 -183v-352h-315v283q0 107 -37.5 142.5t-154.5 35.5h-824v-461h-313v1446h1089q273 0 421.5 -108.5t148.5 -333.5q0 -287 -240 -383zM1176 1178h-697v-447h697q32 0 49 0.5t48 2t48.5 5.5t43.5 11.5t41 18.5t33 28t27.5 39t16 52t6.5 66
q0 64 -20.5 108.5t-46.5 67t-75.5 34t-81 13t-89.5 1.5zM985 -375h-111v217h297v-217l-155 -225h-142z" />
    <glyph glyph-name="uni0157" unicode="&#x157;" horiz-adv-x="1478" 
d="M1036 1241q179 0 318 -47v-268q-162 47 -318 47q-139 0 -272 -51.5t-297 -192.5v-729h-301v1200h301v-223q132 148 267.5 206t301.5 58zM279 -375h-111v217h297v-217l-156 -225h-141z" />
    <glyph glyph-name="Rcaron" unicode="&#x158;" horiz-adv-x="2009" 
d="M1358 1985v-220l-424 -163l-424 163v220l424 -164zM1585 621q109 -17 167 -86t58 -183v-352h-315v283q0 107 -37.5 142.5t-154.5 35.5h-824v-461h-313v1446h1089q273 0 421.5 -108.5t148.5 -333.5q0 -287 -240 -383zM1176 1178h-697v-447h697q32 0 49 0.5t48 2t48.5 5.5
t43.5 11.5t41 18.5t33 28t27.5 39t16 52t6.5 66q0 64 -20.5 108.5t-46.5 67t-75.5 34t-81 13t-89.5 1.5z" />
    <glyph glyph-name="rcaron" unicode="&#x159;" horiz-adv-x="1478" 
d="M1157 1739v-219l-424 -164l-424 164v219l424 -164zM1036 1241q179 0 318 -47v-268q-162 47 -318 47q-139 0 -272 -51.5t-297 -192.5v-729h-301v1200h301v-223q132 148 267.5 206t301.5 58z" />
    <glyph glyph-name="Sacute" unicode="&#x15a;" horiz-adv-x="2119" 
d="M662 1634v209l796 164v-209zM145 471h334q0 -62 31 -107.5t102.5 -80t195 -51.5t300.5 -17q290 0 411 48.5t121 148.5q0 31 -7 52.5t-21.5 39.5t-47 30.5t-72 23t-108.5 18.5t-145 14t-192 14q-185 11 -319 31.5t-239 54.5t-168.5 85t-95.5 122t-32 166q0 114 58.5 197
t171 132t263 72t348.5 23q275 0 469.5 -53.5t301.5 -163.5t110 -271h-336q0 125 -133 178.5t-440 53.5q-187 0 -294 -21t-145.5 -57.5t-38.5 -97.5q0 -65 44 -99.5t156.5 -55t344.5 -36.5q118 -9 178.5 -14t157 -15.5t146 -20.5t121 -28t107.5 -39t80 -52t64 -69.5
t34.5 -88.5t14.5 -111q0 -110 -43.5 -192.5t-117.5 -134t-186 -83.5t-235 -44.5t-278 -12.5q-182 0 -326 16t-264 53.5t-201 96t-127.5 145.5t-52.5 201z" />
    <glyph glyph-name="sacute" unicode="&#x15b;" horiz-adv-x="1943" 
d="M573 1389v208l797 164v-209zM139 406h322q7 -76 60 -120.5t173 -66.5t324 -22q197 0 298.5 17t134 48t32.5 90q0 78 -87.5 102.5t-437.5 51.5q-106 8 -179 14.5t-153.5 17.5t-133.5 24t-107 31.5t-86.5 43t-59 57t-38 74t-11.5 92.5q0 88 40.5 155t109.5 109.5t170.5 69
t213 37t247.5 10.5q114 0 207.5 -7t183.5 -23.5t158.5 -45.5t122 -71.5t84.5 -104t38 -139.5h-323q-10 95 -119.5 128.5t-376.5 33.5q-124 0 -210.5 -9t-134.5 -27.5t-68.5 -41t-20.5 -53.5q0 -23 6.5 -38t28 -29t53.5 -22.5t93 -18t135.5 -17t191.5 -17.5q312 -27 393 -40
q223 -34 311 -116q82 -76 82 -216q0 -97 -36 -168.5t-99.5 -117t-162 -73t-211 -38.5t-259.5 -11q-109 0 -201.5 5t-185.5 18.5t-166.5 35.5t-138.5 56.5t-108.5 80.5t-69.5 109.5t-29 141.5z" />
    <glyph glyph-name="Scedilla" unicode="&#x15e;" horiz-adv-x="2119" 
d="M1976 426q0 -91 -28.5 -163t-84.5 -122.5t-129 -86t-171.5 -56t-202.5 -29.5t-230 -10l-26 -123q71 33 164 33q91 0 149 -39.5t58 -112.5q0 -61 -37.5 -105.5t-100 -69.5t-147 -37t-175 -10.5t-188.5 13.5v173q197 -31 292 -24.5t95 58.5q0 47 -69 47q-53 0 -123 -30
l-141 53l37 180q-181 10 -317.5 43t-238 92.5t-156 152t-61.5 218.5h334q0 -62 31 -107.5t102.5 -80t195 -51.5t300.5 -17q290 0 411 48.5t121 148.5q0 31 -7 52.5t-21.5 39.5t-47 30.5t-72 23t-108.5 18.5t-145 14t-192 14q-185 11 -319 31.5t-239 54.5t-168.5 85
t-95.5 122t-32 166q0 114 58.5 197t171 132t263 72t348.5 23q275 0 469.5 -53.5t301.5 -163.5t110 -271h-336q0 125 -133 178.5t-440 53.5q-187 0 -294 -21t-145.5 -57.5t-38.5 -97.5q0 -65 44 -99.5t156.5 -55t344.5 -36.5q118 -9 178.5 -14t157 -15.5t146 -20.5t121 -28
t107.5 -39t80 -52t64 -69.5t34.5 -88.5t14.5 -111z" />
    <glyph glyph-name="scedilla" unicode="&#x15f;" horiz-adv-x="1943" 
d="M1806 367q0 -97 -36 -168.5t-99 -117t-161 -73t-210 -38.5t-258 -11l-26 -123q71 33 164 33q91 0 148.5 -39.5t57.5 -112.5q0 -61 -37.5 -105.5t-99.5 -69.5t-146.5 -37t-175 -10.5t-188.5 13.5v173q197 -31 292 -24.5t95 58.5q0 47 -69 47q-53 0 -123 -30l-141 53
l36 180q-121 7 -219 24t-186.5 50.5t-148.5 81.5t-96.5 120.5t-39.5 164.5h322q7 -76 60 -120.5t173 -66.5t324 -22q197 0 298.5 17t134 48t32.5 90q0 78 -87.5 102.5t-437.5 51.5q-106 8 -179 14.5t-153.5 17.5t-133.5 24t-107 31.5t-86.5 43t-59 57t-38 74t-11.5 92.5
q0 88 40.5 155t109.5 109.5t170.5 69t213 37t247.5 10.5q114 0 207.5 -7t183.5 -23.5t158.5 -45.5t122 -71.5t84.5 -104t38 -139.5h-323q-10 95 -119.5 128.5t-376.5 33.5q-124 0 -210.5 -9t-134.5 -27.5t-68.5 -41t-20.5 -53.5q0 -23 6.5 -38t28 -29t53.5 -22.5t93 -18
t135.5 -17t191.5 -17.5q312 -27 393 -40q223 -34 311 -116q82 -76 82 -216z" />
    <glyph glyph-name="Scaron" unicode="&#x160;" horiz-adv-x="2119" 
d="M1485 1985v-220l-424 -163l-424 163v220l424 -164zM1073 864q118 -9 178.5 -14t157 -15.5t146 -20.5t121 -28t107.5 -39t80 -52t64 -69.5t34.5 -88.5t14.5 -111q0 -110 -43.5 -192.5t-117.5 -134t-186 -83.5t-235 -44.5t-278 -12.5q-182 0 -326 16t-264 53.5t-201 96
t-127.5 145.5t-52.5 201h334q0 -62 31 -107.5t102.5 -80t195 -51.5t300.5 -17q290 0 411 48.5t121 148.5q0 31 -7 52.5t-21.5 39.5t-47 30.5t-72 23t-108.5 18.5t-145 14t-192 14q-185 11 -319 31.5t-239 54.5t-168.5 85t-95.5 122t-32 166q0 114 58.5 197t171 132t263 72
t348.5 23q275 0 469.5 -53.5t301.5 -163.5t110 -271h-336q0 125 -133 178.5t-440 53.5q-187 0 -294 -21t-145.5 -57.5t-38.5 -97.5q0 -65 44 -99.5t156.5 -55t344.5 -36.5z" />
    <glyph glyph-name="scaron" unicode="&#x161;" horiz-adv-x="1943" 
d="M1397 1739v-219l-424 -164l-424 164v219l424 -164zM1020 739q312 -27 393 -40q223 -34 311 -116q82 -76 82 -216q0 -97 -36 -168.5t-99.5 -117t-162 -73t-211 -38.5t-259.5 -11q-109 0 -201.5 5t-185.5 18.5t-166.5 35.5t-138.5 56.5t-108.5 80.5t-69.5 109.5t-29 141.5
h322q7 -76 60 -120.5t173 -66.5t324 -22q197 0 298.5 17t134 48t32.5 90q0 78 -87.5 102.5t-437.5 51.5q-106 8 -179 14.5t-153.5 17.5t-133.5 24t-107 31.5t-86.5 43t-59 57t-38 74t-11.5 92.5q0 88 40.5 155t109.5 109.5t170.5 69t213 37t247.5 10.5q114 0 207.5 -7
t183.5 -23.5t158.5 -45.5t122 -71.5t84.5 -104t38 -139.5h-323q-10 95 -119.5 128.5t-376.5 33.5q-124 0 -210.5 -9t-134.5 -27.5t-68.5 -41t-20.5 -53.5q0 -23 6.5 -38t28 -29t53.5 -22.5t93 -18t135.5 -17t191.5 -17.5z" />
    <glyph glyph-name="uni0162" unicode="&#x162;" horiz-adv-x="2050" 
d="M1184 1171v-1171h-60l-30 -143q69 32 163 32q93 0 150 -39t57 -112q0 -61 -37.5 -105.5t-99.5 -69.5t-146.5 -37t-175 -10.5t-188.5 13.5v172q197 -31 293 -24t96 59q0 47 -71 47q-47 0 -123 -31l-142 53l39 195h-41v1171h-723v275h1762v-275h-723z" />
    <glyph glyph-name="uni0163" unicode="&#x163;" horiz-adv-x="1511" 
d="M1360 1200v-250h-588v-434q0 -90 10.5 -143.5t41.5 -89.5t83 -49t140 -13q123 0 313 27v-252q-211 -37 -383 -37h-27l-24 -117q71 33 164 33q91 0 148.5 -39t57.5 -112q0 -61 -37.5 -105.5t-99.5 -69.5t-146.5 -37t-175 -10.5t-188.5 13.5v172q197 -31 292 -24.5t95 58.5
q0 48 -69 48q-50 0 -123 -31l-142 53l39 193q-146 39 -208 151.5t-62 331.5v483h-332v250h332v268l301 95v-363h588z" />
    <glyph glyph-name="Tcaron" unicode="&#x164;" horiz-adv-x="2050" 
d="M1450 1985v-220l-424 -163l-424 163v220l424 -164zM1907 1446v-275h-723v-1171h-316v1171h-723v275h1762z" />
    <glyph glyph-name="tcaron" unicode="&#x165;" horiz-adv-x="1511" 
d="M1243 1493l-153 -219h-144l113 219h-113v211h297v-211zM1360 1200v-250h-588v-434q0 -90 10.5 -143.5t41.5 -89.5t83 -49t140 -13q123 0 313 27v-252q-211 -37 -383 -37q-144 0 -238 25t-155 85t-87 156t-26 242v483h-332v250h332v268l301 95v-363h588z" />
    <glyph glyph-name="Tbar" unicode="&#x166;" horiz-adv-x="2050" 
d="M1907 1446v-275h-723v-405h487v-205h-487v-561h-316v561h-489v205h489v405h-723v275h1762z" />
    <glyph glyph-name="tbar" unicode="&#x167;" horiz-adv-x="1511" 
d="M1360 1200v-250h-588v-186h588v-205h-588v-43q0 -90 10.5 -143.5t41.5 -89.5t83 -49t140 -13q123 0 313 27v-252q-211 -37 -383 -37q-144 0 -238 25t-155 85t-87 156t-26 242v92h-332v205h332v186h-332v250h332v268l301 95v-363h588z" />
    <glyph glyph-name="Umacron" unicode="&#x16a;" horiz-adv-x="2131" 
d="M586 1679v205h960v-205h-960zM1968 1446v-741q0 -378 -217 -562t-684 -184q-468 0 -684.5 183.5t-216.5 562.5v741h313v-735q0 -51 5 -94.5t20.5 -94t41 -90.5t70.5 -78.5t105 -64t148.5 -41t197.5 -15.5t197 15.5t148.5 41.5t105 64.5t70 78.5t41 90.5t20 93.5t4.5 94
v735h315z" />
    <glyph glyph-name="umacron" unicode="&#x16b;" horiz-adv-x="2021" 
d="M514 1638h961v-204h-961v204zM1554 723v477h301v-1200h-301v270q-119 -152 -291 -231.5t-417 -79.5q-158 0 -279.5 34.5t-212 107.5t-139 196t-49.5 293v610h303v-526q0 -115 24 -196.5t78.5 -140.5t148 -87.5t228.5 -28.5q180 0 314.5 54t213 168.5t78.5 279.5z" />
    <glyph glyph-name="Uring" unicode="&#x16e;" horiz-adv-x="2131" 
d="M1067 1597q-436 0 -436 271q0 270 436 270t436 -270q0 -271 -436 -271zM1067 1747q219 0 219 121t-219 121t-219 -121t219 -121zM1968 1446v-741q0 -378 -217 -562t-684 -184q-468 0 -684.5 183.5t-216.5 562.5v741h313v-735q0 -51 5 -94.5t20.5 -94t41 -90.5t70.5 -78.5
t105 -64t148.5 -41t197.5 -15.5t197 15.5t148.5 41.5t105 64.5t70 78.5t41 90.5t20 93.5t4.5 94v735h315z" />
    <glyph glyph-name="uring" unicode="&#x16f;" horiz-adv-x="2021" 
d="M995 1352q-436 0 -436 270t436 270q437 0 437 -270t-437 -270zM995 1743q-219 0 -219 -121t219 -121t219 121t-219 121zM1554 723v477h301v-1200h-301v270q-119 -152 -291 -231.5t-417 -79.5q-158 0 -279.5 34.5t-212 107.5t-139 196t-49.5 293v610h303v-526
q0 -115 24 -196.5t78.5 -140.5t148 -87.5t228.5 -28.5q180 0 314.5 54t213 168.5t78.5 279.5z" />
    <glyph glyph-name="Uhungarumlaut" unicode="&#x170;" horiz-adv-x="2131" 
d="M623 1651v219l424 164v-219zM1169 1651v219l424 164v-219zM1968 1446v-741q0 -378 -217 -562t-684 -184q-468 0 -684.5 183.5t-216.5 562.5v741h313v-735q0 -51 5 -94.5t20.5 -94t41 -90.5t70.5 -78.5t105 -64t148.5 -41t197.5 -15.5t197 15.5t148.5 41.5t105 64.5
t70 78.5t41 90.5t20 93.5t4.5 94v735h315z" />
    <glyph glyph-name="uhungarumlaut" unicode="&#x171;" horiz-adv-x="2021" 
d="M551 1624l424 164v-219l-424 -164v219zM1098 1624l424 164v-219l-424 -164v219zM1554 723v477h301v-1200h-301v270q-119 -152 -291 -231.5t-417 -79.5q-158 0 -279.5 34.5t-212 107.5t-139 196t-49.5 293v610h303v-526q0 -115 24 -196.5t78.5 -140.5t148 -87.5
t228.5 -28.5q180 0 314.5 54t213 168.5t78.5 279.5z" />
    <glyph glyph-name="Uogonek" unicode="&#x172;" horiz-adv-x="2131" 
d="M1653 711v735h315v-741q0 -297 -134 -474t-415 -239q-108 -27 -143 -55t-35 -72q0 -19 6.5 -35t21.5 -26.5t30.5 -18.5t43 -13t48.5 -8t57.5 -4t59 -1.5t63.5 -0.5v-229q-105 0 -177.5 3t-144.5 11t-117.5 23.5t-82 40t-52.5 61t-16 86.5q0 145 203 209q-74 -4 -117 -4
q-468 0 -684.5 183.5t-216.5 562.5v741h313v-735q0 -51 5 -94.5t20.5 -94t41 -90.5t70.5 -78.5t105 -64t148.5 -41t197.5 -15.5t197 15.5t148.5 41.5t105 64.5t70 78.5t41 90.5t20 93.5t4.5 94z" />
    <glyph glyph-name="uogonek" unicode="&#x173;" horiz-adv-x="2021" 
d="M1855 1200v-1200q-237 -19 -237 -160q0 -39 18 -65t53.5 -38t73 -16t92.5 -4v-229q-258 0 -395 64t-137 206q0 92 69 148.5t199 93.5h-37v270q-119 -152 -291 -231.5t-417 -79.5q-158 0 -279.5 34.5t-212 107.5t-139 196t-49.5 293v610h303v-526q0 -115 24 -196.5
t78.5 -140.5t148 -87.5t228.5 -28.5q180 0 314.5 54t213 168.5t78.5 279.5v477h301z" />
    <glyph glyph-name="Wcircumflex" unicode="&#x174;" horiz-adv-x="3348" 
d="M2099 1843v-219l-424 164l-424 -164v219l424 164zM2386 260l487 1186h330l-604 -1446h-426l-502 1214l-524 -1214h-428l-574 1446h330l461 -1186l512 1186h450z" />
    <glyph glyph-name="wcircumflex" unicode="&#x175;" horiz-adv-x="3123" 
d="M1987 1597v-219l-424 164l-424 -164v219l424 164zM2226 205l443 995h315l-533 -1200h-446l-442 918l-445 -918h-446l-533 1200h314l444 -997l477 997h375z" />
    <glyph glyph-name="Ycircumflex" unicode="&#x176;" horiz-adv-x="2314" 
d="M1581 1843v-219l-424 164l-424 -164v219l424 164zM1157 745l604 701h408l-848 -969v-477h-330v477l-846 969h408z" />
    <glyph glyph-name="ycircumflex" unicode="&#x177;" horiz-adv-x="2070" 
d="M1473 1597v-219l-424 164l-424 -164v219l424 164zM1040 156l572 1044h327l-700 -1280q-62 -115 -118.5 -193t-129 -139.5t-162.5 -90.5t-204 -29q-183 0 -408 47v254q198 -45 354 -45q134 0 214 53.5t161 206.5l8 16h-159l-656 1200h332z" />
    <glyph glyph-name="Ydieresis" unicode="&#x178;" horiz-adv-x="2314" 
d="M721 1884h340v-205h-340v205zM1253 1884h340v-205h-340v205zM1157 745l604 701h408l-848 -969v-477h-330v477l-846 969h408z" />
    <glyph glyph-name="Zacute" unicode="&#x179;" horiz-adv-x="1961" 
d="M582 1843l796 164v-209l-796 -164v209zM166 1446h1630v-275l-1153 -897h1153v-274h-1630v274l1151 897h-1151v275z" />
    <glyph glyph-name="zacute" unicode="&#x17a;" horiz-adv-x="1765" 
d="M483 1597l797 164v-209l-797 -163v208zM166 1200h1433v-250l-987 -700h987v-250h-1433v250l987 700h-987v250z" />
    <glyph glyph-name="Zdotaccent" unicode="&#x17b;" horiz-adv-x="1961" 
d="M805 1884h352v-205h-352v205zM166 1446h1630v-275l-1153 -897h1153v-274h-1630v274l1151 897h-1151v275z" />
    <glyph glyph-name="zdotaccent" unicode="&#x17c;" horiz-adv-x="1765" 
d="M707 1638h352v-204h-352v204zM166 1200h1433v-250l-987 -700h987v-250h-1433v250l987 700h-987v250z" />
    <glyph glyph-name="Zcaron" unicode="&#x17d;" horiz-adv-x="1961" 
d="M1405 1985v-220l-424 -163l-424 163v220l424 -164zM166 1446h1630v-275l-1153 -897h1153v-274h-1630v274l1151 897h-1151v275z" />
    <glyph glyph-name="zcaron" unicode="&#x17e;" horiz-adv-x="1765" 
d="M1307 1739v-219l-424 -164l-424 164v219l424 -164zM166 1200h1433v-250l-987 -700h987v-250h-1433v250l987 700h-987v250z" />
    <glyph glyph-name="uni0218" unicode="&#x218;" horiz-adv-x="2119" 
d="M145 471h334q0 -62 31 -107.5t102.5 -80t195 -51.5t300.5 -17q290 0 411 48.5t121 148.5q0 31 -7 52.5t-21.5 39.5t-47 30.5t-72 23t-108.5 18.5t-145 14t-192 14q-185 11 -319 31.5t-239 54.5t-168.5 85t-95.5 122t-32 166q0 114 58.5 197t171 132t263 72t348.5 23
q275 0 469.5 -53.5t301.5 -163.5t110 -271h-336q0 125 -133 178.5t-440 53.5q-187 0 -294 -21t-145.5 -57.5t-38.5 -97.5q0 -65 44 -99.5t156.5 -55t344.5 -36.5q118 -9 178.5 -14t157 -15.5t146 -20.5t121 -28t107.5 -39t80 -52t64 -69.5t34.5 -88.5t14.5 -111
q0 -110 -43.5 -192.5t-117.5 -134t-186 -83.5t-235 -44.5t-278 -12.5q-182 0 -326 16t-264 53.5t-201 96t-127.5 145.5t-52.5 201zM913 -395v217h297v-217l-155 -226h-142l111 226h-111z" />
    <glyph glyph-name="uni0219" unicode="&#x219;" horiz-adv-x="1943" 
d="M139 406h322q7 -76 60 -120.5t173 -66.5t324 -22q197 0 298.5 17t134 48t32.5 90q0 78 -87.5 102.5t-437.5 51.5q-106 8 -179 14.5t-153.5 17.5t-133.5 24t-107 31.5t-86.5 43t-59 57t-38 74t-11.5 92.5q0 88 40.5 155t109.5 109.5t170.5 69t213 37t247.5 10.5
q114 0 207.5 -7t183.5 -23.5t158.5 -45.5t122 -71.5t84.5 -104t38 -139.5h-323q-10 95 -119.5 128.5t-376.5 33.5q-124 0 -210.5 -9t-134.5 -27.5t-68.5 -41t-20.5 -53.5q0 -23 6.5 -38t28 -29t53.5 -22.5t93 -18t135.5 -17t191.5 -17.5q312 -27 393 -40q223 -34 311 -116
q82 -76 82 -216q0 -97 -36 -168.5t-99.5 -117t-162 -73t-211 -38.5t-259.5 -11q-109 0 -201.5 5t-185.5 18.5t-166.5 35.5t-138.5 56.5t-108.5 80.5t-69.5 109.5t-29 141.5zM823 -395v217h297v-217l-155 -226h-142l111 226h-111z" />
    <glyph glyph-name="uni021A" unicode="&#x21a;" horiz-adv-x="2050" 
d="M1907 1446v-275h-723v-1171h-316v1171h-723v275h1762zM989 -375h-110v217h297v-217l-156 -225h-141z" />
    <glyph glyph-name="uni021B" unicode="&#x21b;" horiz-adv-x="1511" 
d="M1360 1200v-250h-588v-434q0 -90 10.5 -143.5t41.5 -89.5t83 -49t140 -13q123 0 313 27v-252q-211 -37 -383 -37q-144 0 -238 25t-155 85t-87 156t-26 242v483h-332v250h332v268l301 95v-363h588zM887 -381h-111v217h297v-217l-155 -225h-142z" />
    <glyph glyph-name="circumflex" unicode="&#x2c6;" horiz-adv-x="1177" 
d="M166 1597l424 164l424 -164v-219l-424 164l-424 -164v219z" />
    <glyph glyph-name="caron" unicode="&#x2c7;" horiz-adv-x="1177" 
d="M166 1739l424 -164l424 164v-219l-424 -164l-424 164v219z" />
    <glyph glyph-name="breve" unicode="&#x2d8;" horiz-adv-x="1259" 
d="M166 1747h217q0 -109 63 -154t185 -45q121 0 183.5 45t62.5 154h219q0 -92 -24.5 -161t-65.5 -112t-102 -69.5t-126.5 -36.5t-146.5 -10t-146.5 10t-126.5 36.5t-102 69.5t-65.5 112t-24.5 161z" />
    <glyph glyph-name="dotaccent" unicode="&#x2d9;" horiz-adv-x="684" 
d="M166 1434v204h352v-204h-352z" />
    <glyph glyph-name="ring" unicode="&#x2da;" horiz-adv-x="1204" 
d="M602 1352q-436 0 -436 270t436 270t436 -270t-436 -270zM602 1501q219 0 219 121t-219 121t-219 -121t219 -121z" />
    <glyph glyph-name="ogonek" unicode="&#x2db;" horiz-adv-x="919" 
d="M756 -266v-205q-123 0 -210 5.5t-164 21t-123.5 42t-72.5 69t-26 102.5q0 71 42 122.5t130 108.5h190q-62 -50 -81 -79q-23 -34 -23 -68q0 -22 7 -39.5t23 -29.5t31.5 -21t44.5 -14t49.5 -8.5t58.5 -4.5t60 -1.5t64 -0.5z" />
    <glyph glyph-name="tilde" unicode="&#x2dc;" horiz-adv-x="1544" 
d="M424 1380h-258q0 82 19 153t58.5 129.5t107 92t157.5 33.5q70 0 131.5 -20.5t105 -50t83.5 -58.5t83 -49.5t86 -20.5q68 0 95.5 48t27.5 137h258q0 -82 -19.5 -153t-59 -129.5t-107 -92t-156.5 -33.5q-70 0 -131.5 20.5t-105.5 50t-84 58.5t-83 49.5t-85 20.5
q-68 0 -95.5 -48t-27.5 -137z" />
    <glyph glyph-name="hungarumlaut" unicode="&#x2dd;" horiz-adv-x="1300" 
d="M166 1405v219l424 164v-219zM713 1405v219l424 164v-219z" />
    <glyph glyph-name="gravecomb" unicode="&#x300;" 
d="M-989 1761l796 -164v-208l-796 163v209z" />
    <glyph glyph-name="acutecomb" unicode="&#x301;" 
d="M-961 1389v208l797 164v-209z" />
    <glyph glyph-name="uni0302" unicode="&#x302;" 
d="M-1012 1597l424 164l424 -164v-219l-424 164l-424 -164v219z" />
    <glyph glyph-name="tildecomb" unicode="&#x303;" 
d="M-1120 1380h-258q0 82 19 153t58.5 129.5t107 92t157.5 33.5q70 0 131.5 -20.5t105 -50t83.5 -58.5t83 -49.5t86 -20.5q68 0 95.5 48t27.5 137h258q0 -82 -19.5 -153t-59 -129.5t-107 -92t-156.5 -33.5q-70 0 -131.5 20.5t-105.5 50t-84 58.5t-83 49.5t-85 20.5
q-68 0 -95.5 -48t-27.5 -137z" />
    <glyph glyph-name="uni0304" unicode="&#x304;" 
d="M-1124 1434v204h960v-204h-960z" />
    <glyph glyph-name="uni0306" unicode="&#x306;" 
d="M-1094 1747h217q0 -109 63 -154t185 -45q121 0 183.5 45t62.5 154h219q0 -92 -24.5 -161t-65.5 -112t-102 -69.5t-126.5 -36.5t-146.5 -10t-146.5 10t-126.5 36.5t-102 69.5t-65.5 112t-24.5 161z" />
    <glyph glyph-name="uni0307" unicode="&#x307;" 
d="M-518 1434v204h352v-204h-352z" />
    <glyph glyph-name="uni0308" unicode="&#x308;" 
d="M-1038 1434v204h340v-204h-340zM-506 1434v204h340v-204h-340z" />
    <glyph glyph-name="uni030A" unicode="&#x30a;" 
d="M-602 1352q-436 0 -436 270t436 270t436 -270t-436 -270zM-602 1501q219 0 219 121t-219 121t-219 -121t219 -121z" />
    <glyph glyph-name="uni030B" unicode="&#x30b;" 
d="M-1135 1405v219l424 164v-219zM-588 1405v219l424 164v-219z" />
    <glyph glyph-name="uni030C" unicode="&#x30c;" 
d="M-1012 1739l424 -164l424 164v-219l-424 -164l-424 164v219z" />
    <glyph glyph-name="uni0312" unicode="&#x312;" 
d="M-164 1665v-217h-297v217l154 225h143l-112 -225h112z" />
    <glyph glyph-name="uni0326" unicode="&#x326;" 
d="M-461 -375v217h297v-217l-155 -225h-142l111 225h-111z" />
    <glyph glyph-name="uni0327" unicode="&#x327;" 
d="M-371 -111q92 0 149.5 -39.5t57.5 -111.5q0 -61 -37.5 -105.5t-99.5 -69.5t-146.5 -37t-175 -10.5t-188.5 13.5v172q197 -31 292 -24t95 59q0 47 -70 47q-49 0 -122 -31l-142 53l39 195h215l-31 -143q69 32 164 32z" />
    <glyph glyph-name="uni0328" unicode="&#x328;" 
d="M-164 -266v-205q-123 0 -210 5.5t-164 21t-123.5 42t-72.5 69t-26 102.5q0 71 42 122.5t130 108.5h191q-61 -50 -80 -77q-25 -34 -25 -70q0 -22 7 -39.5t23 -29.5t31.5 -21t44.5 -14t49.5 -8.5t58.5 -4.5t60 -1.5t64 -0.5z" />
    <glyph glyph-name="uni0335" unicode="&#x335;" 
d="M-1147 594v205h983v-205h-983z" />
    <glyph glyph-name="uni0336" unicode="&#x336;" 
d="M-2212 594v205h2048v-205h-2048z" />
    <glyph glyph-name="uni0337" unicode="&#x337;" 
d="M-469 1526h303l-549 -1833h-301z" />
    <glyph glyph-name="uni0338" unicode="&#x338;" 
d="M-434 1475h270l-532 -1782h-271z" />
    <glyph glyph-name="Wgrave" unicode="&#x1e80;" horiz-adv-x="3348" 
d="M1274 2007l797 -164v-209l-797 164v209zM2386 260l487 1186h330l-604 -1446h-426l-502 1214l-524 -1214h-428l-574 1446h330l461 -1186l512 1186h450z" />
    <glyph glyph-name="wgrave" unicode="&#x1e81;" horiz-adv-x="3123" 
d="M1163 1761l797 -164v-208l-797 163v209zM2226 205l443 995h315l-533 -1200h-446l-442 918l-445 -918h-446l-533 1200h314l444 -997l477 997h375z" />
    <glyph glyph-name="Wacute" unicode="&#x1e82;" horiz-adv-x="3348" 
d="M1276 1843l797 164v-209l-797 -164v209zM2386 260l487 1186h330l-604 -1446h-426l-502 1214l-524 -1214h-428l-574 1446h330l461 -1186l512 1186h450z" />
    <glyph glyph-name="wacute" unicode="&#x1e83;" horiz-adv-x="3123" 
d="M1163 1597l797 164v-209l-797 -163v208zM2226 205l443 995h315l-533 -1200h-446l-442 918l-445 -918h-446l-533 1200h314l444 -997l477 997h375z" />
    <glyph glyph-name="Wdieresis" unicode="&#x1e84;" horiz-adv-x="3348" 
d="M1239 1884h340v-205h-340v205zM1772 1884h339v-205h-339v205zM2386 260l487 1186h330l-604 -1446h-426l-502 1214l-524 -1214h-428l-574 1446h330l461 -1186l512 1186h450z" />
    <glyph glyph-name="wdieresis" unicode="&#x1e85;" horiz-adv-x="3123" 
d="M1126 1638h340v-204h-340v204zM1659 1638h340v-204h-340v204zM2226 205l443 995h315l-533 -1200h-446l-442 918l-445 -918h-446l-533 1200h314l444 -997l477 997h375z" />
    <glyph glyph-name="Ygrave" unicode="&#x1ef2;" horiz-adv-x="2314" 
d="M758 2007l796 -164v-209l-796 164v209zM1157 745l604 701h408l-848 -969v-477h-330v477l-846 969h408z" />
    <glyph glyph-name="ygrave" unicode="&#x1ef3;" horiz-adv-x="2070" 
d="M649 1761l797 -164v-208l-797 163v209zM1040 156l572 1044h327l-700 -1280q-62 -115 -118.5 -193t-129 -139.5t-162.5 -90.5t-204 -29q-183 0 -408 47v254q198 -45 354 -45q134 0 214 53.5t161 206.5l8 16h-159l-656 1200h332z" />
    <glyph glyph-name="endash" unicode="&#x2013;" horiz-adv-x="2459" 
d="M207 571v250h2048v-250h-2048z" />
    <glyph glyph-name="emdash" unicode="&#x2014;" horiz-adv-x="2869" 
d="M207 571v250h2457v-250h-2457z" />
    <glyph glyph-name="quoteleft" unicode="&#x2018;" horiz-adv-x="763" 
d="M502 877h-316l129 692h269z" />
    <glyph glyph-name="quoteright" unicode="&#x2019;" horiz-adv-x="755" 
d="M262 1569h316l-129 -692h-269z" />
    <glyph glyph-name="quotesinglbase" unicode="&#x201a;" horiz-adv-x="653" 
d="M166 0v256h307v-256l-151 -395h-144l96 395h-108z" />
    <glyph glyph-name="quotedblleft" unicode="&#x201c;" horiz-adv-x="1243" 
d="M502 877h-316l129 692h269zM981 877h-315l129 692h268z" />
    <glyph glyph-name="quotedblright" unicode="&#x201d;" horiz-adv-x="1243" 
d="M262 1569h316l-129 -692h-269zM741 1569h316l-129 -692h-269z" />
    <glyph glyph-name="quotedblbase" unicode="&#x201e;" horiz-adv-x="1132" 
d="M274 0h-108v256h307v-256l-151 -395h-144zM645 0v256h309v-256l-153 -395h-144l99 395h-111z" />
    <glyph glyph-name="dagger" unicode="&#x2020;" horiz-adv-x="1828" 
d="M1061 1200h602v-262h-602v-1245h-291v1245h-604v262h604v438h291v-438z" />
    <glyph glyph-name="daggerdbl" unicode="&#x2021;" horiz-adv-x="1828" 
d="M1663 1200v-262h-602v-545h602v-262h-602v-438h-291v438h-604v262h604v545h-604v262h604v438h291v-438h602z" />
    <glyph glyph-name="bullet" unicode="&#x2022;" horiz-adv-x="935" 
d="M469 440q-156 0 -229.5 52.5t-73.5 164.5q0 110 74 162.5t229 52.5q154 0 228.5 -52.5t74.5 -162.5q0 -112 -74 -164.5t-229 -52.5z" />
    <glyph glyph-name="ellipsis" unicode="&#x2026;" horiz-adv-x="1685" 
d="M166 0v256h307v-256h-307zM682 0v256h307v-256h-307zM1196 0v256h309v-256h-309z" />
    <glyph glyph-name="perthousand" unicode="&#x2030;" horiz-adv-x="4306" 
d="M721 510q-116 0 -211 28t-158 75t-105.5 111t-61.5 132.5t-19 142.5q0 73 19 141.5t61.5 132t105.5 110.5t158 75.5t211 28.5q117 0 212.5 -28.5t158.5 -75.5t105.5 -110.5t61.5 -132t19 -141.5q0 -93 -31.5 -177.5t-95 -155.5t-174.5 -113.5t-256 -42.5zM1923 1446h324
l-1094 -1446h-326zM721 741q131 0 201.5 68.5t70.5 189.5q0 122 -70 190t-202 68q-131 0 -201.5 -68.5t-70.5 -189.5q0 -120 71 -189t201 -69zM2355 -41q-116 0 -211.5 28.5t-158.5 75.5t-106 111t-62 132.5t-19 142.5q0 73 19 141.5t62 132t106 110.5t158.5 75t211.5 28
q117 0 212.5 -28t158.5 -75t105.5 -110.5t61.5 -132t19 -141.5q0 -74 -19 -142.5t-61.5 -132.5t-105.5 -111t-158.5 -75.5t-212.5 -28.5zM3584 -41q-145 0 -255.5 42.5t-174 114t-94.5 156t-31 177.5q0 73 18.5 141.5t61 132t105.5 110.5t158 75t212 28q118 0 213.5 -28
t158.5 -75t105.5 -110.5t61 -132t18.5 -141.5q0 -74 -18.5 -142.5t-61 -132.5t-105.5 -111t-158.5 -75.5t-213.5 -28.5zM2355 190q131 0 202 69t71 190q0 122 -70.5 190t-202.5 68q-131 0 -201.5 -68.5t-70.5 -189.5q0 -120 71 -189.5t201 -69.5zM3584 190q132 0 203 69.5
t71 189.5q0 121 -71 189.5t-203 68.5q-130 0 -200 -68t-70 -190q0 -121 70 -190t200 -69z" />
    <glyph glyph-name="guilsinglleft" unicode="&#x2039;" horiz-adv-x="1265" 
d="M166 600l532 600h404l-533 -600l533 -600h-404z" />
    <glyph glyph-name="guilsinglright" unicode="&#x203a;" horiz-adv-x="1265" 
d="M166 1200h403l533 -600l-533 -600h-403l532 600z" />
    <glyph glyph-name="fraction" unicode="&#x2044;" horiz-adv-x="1191" 
d="M719 1526h303l-547 -1833h-303z" />
    <glyph glyph-name="Euro" unicode="&#x20ac;" horiz-adv-x="1832" 
d="M1167 1219q-213 0 -325.5 -65.5t-151.5 -205.5h740v-151h-764q-2 -25 -2 -78q0 -46 2 -66h764v-151h-742q39 -141 152 -208t327 -67q110 0 219.5 15.5t280.5 52.5v-268q-177 -37 -304.5 -52.5t-277.5 -15.5q-637 0 -737 543h-182v151h166q-2 20 -2 66q0 53 2 78h-166v151
h184q52 254 232 396.5t503 142.5q150 0 277.5 -15.5t304.5 -52.5v-268q-171 37 -280.5 52.5t-219.5 15.5z" />
    <glyph glyph-name="trademark" unicode="&#x2122;" horiz-adv-x="2308" 
d="M520 1298h-354v136h852v-136h-354v-555h-144v555zM1264 743h-144v691h226l284 -562l287 562h225v-691h-143v543l-279 -543h-178l-278 543v-543z" />
    <glyph glyph-name="arrowleft" unicode="&#x2190;" horiz-adv-x="1763" 
d="M1599 836v-238h-993l316 -319l-179 -173l-577 613l577 608l179 -172l-316 -319h993z" />
    <glyph glyph-name="arrowup" unicode="&#x2191;" horiz-adv-x="1550" 
d="M895 1067v-991h-238v991l-319 -315l-172 178l608 579l612 -579l-172 -178z" />
    <glyph glyph-name="arrowright" unicode="&#x2192;" horiz-adv-x="1763" 
d="M1157 598h-991v238h991l-315 319l178 172l579 -608l-579 -613l-178 173z" />
    <glyph glyph-name="arrowdown" unicode="&#x2193;" horiz-adv-x="1550" 
d="M657 1364h238v-991l319 315l172 -178l-612 -580l-608 580l172 178l319 -315v991z" />
    <glyph glyph-name="arrowboth" unicode="&#x2194;" horiz-adv-x="3028" 
d="M2107 1155l179 172l579 -608l-579 -613l-179 173l316 319h-1817l316 -319l-179 -173l-577 613l577 608l179 -172l-316 -319h1817z" />
    <glyph glyph-name="arrowupdn" unicode="&#x2195;" horiz-adv-x="1550" 
d="M895 45l319 315l172 -178l-612 -579l-608 579l172 178l319 -315v1200l-319 -317l-172 178l608 580l612 -580l-172 -178l-319 317v-1200z" />
    <glyph glyph-name="uni2196" unicode="&#x2196;" horiz-adv-x="1449" 
d="M1284 371l-166 -168l-702 702l-2 -450l-248 4l22 844l840 20l4 -248l-448 -2z" />
    <glyph glyph-name="uni2197" unicode="&#x2197;" horiz-adv-x="1449" 
d="M1034 901l-702 -702l-168 168l702 700l-450 4l6 248l840 -21l22 -843l-248 -4z" />
    <glyph glyph-name="uni2198" unicode="&#x2198;" horiz-adv-x="1449" 
d="M164 1067l168 168l702 -703l2 451l248 -4l-22 -844l-840 -20l-6 247l450 5z" />
    <glyph glyph-name="uni2199" unicode="&#x2199;" horiz-adv-x="1449" 
d="M416 532l702 703l166 -168l-700 -700l448 -5l-4 -247l-840 20l-22 844l248 4z" />
    <glyph glyph-name="emptyset" unicode="&#x2205;" horiz-adv-x="2410" 
d="M2224 1579l-221 -221q231 -249 231 -639q0 -200 -67 -372t-193.5 -301.5t-323.5 -203t-444 -73.5q-369 0 -626 165l-238 -237l-158 158l224 223q-114 125 -173 289t-59 352q0 160 42 302t127.5 260t207 203.5t288.5 133t365 47.5q370 0 627 -162l233 234zM498 719
q0 -257 123 -428l1005 1005q-170 101 -420 101q-337 0 -522.5 -178.5t-185.5 -499.5zM1206 37q336 0 520.5 180t184.5 502q0 261 -121 426l-1006 -1006q170 -102 422 -102z" />
    <glyph glyph-name="product" unicode="&#x220f;" horiz-adv-x="2494" 
d="M2331 1638v-262h-447v-1683h-289v1683h-766v-1683h-288v1683h-375v262h2165z" />
    <glyph glyph-name="minus" unicode="&#x2212;" horiz-adv-x="1968" 
d="M166 571v250h1638v-250h-1638z" />
    <glyph glyph-name="integral" unicode="&#x222b;" horiz-adv-x="2117" 
d="M166 -307v262q178 0 253 11q244 35 351 217q53 93 76 223l98 520q22 116 57.5 211.5t73.5 165.5t96 124t105 89t123 59.5t126.5 36.5t139 18t137 7t143.5 1h9v-262h-27q-72 0 -110.5 -1t-110.5 -9t-115.5 -24t-102.5 -49t-96 -80t-70.5 -120t-49.5 -167l-98 -520
q-22 -116 -57 -212t-73 -166t-96.5 -124t-105 -89t-123 -59.5t-127 -36.5t-139 -18t-137.5 -7t-143 -1h-7z" />
    <glyph glyph-name="approxequal" unicode="&#x2248;" horiz-adv-x="1968" 
d="M457 778h-291q0 137 24.5 244t76 188t138 124.5t205.5 43.5q73 0 139.5 -18.5t116.5 -47.5t96.5 -64.5t88.5 -70.5t82.5 -64t89 -47.5t98.5 -18.5q100 0 146 76.5t46 254.5h291q0 -137 -24.5 -244t-76 -188t-138.5 -124.5t-205 -43.5q-85 0 -162 24.5t-130 61
t-107.5 79.5t-98.5 79.5t-100.5 61t-114.5 24.5q-100 0 -145 -75.5t-45 -254.5zM457 29h-291q0 136 24.5 242.5t75.5 187.5t138 124.5t206 43.5q85 0 161 -24.5t129 -61t107.5 -79.5t98.5 -79.5t100.5 -61t114.5 -24.5q100 0 146 76.5t46 253.5h291q0 -136 -24.5 -242.5
t-76 -187.5t-138.5 -124.5t-205 -43.5q-101 0 -188.5 34t-149.5 82t-119 96.5t-122.5 82.5t-133.5 34q-100 0 -145 -76t-45 -253z" />
    <glyph glyph-name="notequal" unicode="&#x2260;" horiz-adv-x="1968" 
d="M1804 1149v-250h-594l-120 -405h714v-250h-790l-140 -465h-301l140 465h-547v250h620l121 405h-741v250h817l137 463h303l-139 -463h520z" />
    <glyph glyph-name="lessequal" unicode="&#x2264;" horiz-adv-x="1996" 
d="M461 987l1343 -252v-280l-1638 323v418l1638 324v-281zM193 49v250h1638v-250h-1638z" />
    <glyph glyph-name="greaterequal" unicode="&#x2265;" horiz-adv-x="1996" 
d="M193 1239v281l1638 -324v-418l-1638 -323v280l1343 252zM1804 49h-1638v250h1638v-250z" />
    <glyph glyph-name="lozenge" unicode="&#x25ca;" horiz-adv-x="1984" 
d="M1196 1638l623 -974l-623 -977h-405l-625 977l625 974h405zM492 664l501 -785l498 785l-498 782z" />
    <glyph glyph-name="A.ss01" horiz-adv-x="2648" 
d="M2505 0h-351l-178 315h-1302l-178 -315h-351l805 1446h748zM1159 1171l-340 -600h1012l-340 600h-332z" />
    <glyph glyph-name="Aacute.ss01" horiz-adv-x="2648" 
d="M926 1843l796 164v-209l-796 -164v209zM2505 0h-351l-178 315h-1302l-178 -315h-351l805 1446h748zM1159 1171l-340 -600h1012l-340 600h-332z" />
    <glyph glyph-name="Abreve.ss01" horiz-adv-x="2648" 
d="M1325 1604q-81 0 -146.5 10t-126.5 36.5t-102 69.5t-65.5 112t-24.5 161h217q0 -109 63 -154t185 -45q121 0 183.5 45t62.5 154h219q0 -92 -24.5 -161t-65.5 -112t-102 -69.5t-126.5 -36.5t-146.5 -10zM2505 0h-351l-178 315h-1302l-178 -315h-351l805 1446h748z
M1159 1171l-340 -600h1012l-340 600h-332z" />
    <glyph glyph-name="Acircumflex.ss01" horiz-adv-x="2648" 
d="M1749 1843v-219l-424 164l-424 -164v219l424 164zM2505 0h-351l-178 315h-1302l-178 -315h-351l805 1446h748zM1159 1171l-340 -600h1012l-340 600h-332z" />
    <glyph glyph-name="Adieresis.ss01" horiz-adv-x="2648" 
d="M889 1884h340v-205h-340v205zM1421 1884h340v-205h-340v205zM2505 0h-351l-178 315h-1302l-178 -315h-351l805 1446h748zM1159 1171l-340 -600h1012l-340 600h-332z" />
    <glyph glyph-name="Agrave.ss01" horiz-adv-x="2648" 
d="M926 2007l796 -164v-209l-796 164v209zM2505 0h-351l-178 315h-1302l-178 -315h-351l805 1446h748zM1159 1171l-340 -600h1012l-340 600h-332z" />
    <glyph glyph-name="Amacron.ss01" horiz-adv-x="2648" 
d="M844 1884h960v-205h-960v205zM2505 0h-351l-178 315h-1302l-178 -315h-351l805 1446h748zM1159 1171l-340 -600h1012l-340 600h-332z" />
    <glyph glyph-name="Aogonek.ss01" horiz-adv-x="2648" 
d="M2294 -147q0 -22 7 -39.5t23 -29.5t31.5 -21t44.5 -14t49.5 -8.5t58.5 -4.5t60 -1.5t64 -0.5v-205q-123 0 -210 5.5t-164 21t-123.5 42t-72.5 69t-26 102.5q0 71 42 122.5t130 108.5h-54l-178 315h-1302l-178 -315h-351l805 1446h748l807 -1446h-107q-62 -50 -81 -79
q-23 -33 -23 -68zM1159 1171l-340 -600h1012l-340 600h-332z" />
    <glyph glyph-name="Aring.ss01" horiz-adv-x="2648" 
d="M1325 1597q-436 0 -436 271q0 270 436 270t436 -270q0 -271 -436 -271zM1325 1989q-219 0 -219 -121t219 -121t219 121t-219 121zM2505 0h-351l-178 315h-1302l-178 -315h-351l805 1446h748zM1159 1171l-340 -600h1012l-340 600h-332z" />
    <glyph glyph-name="Atilde.ss01" horiz-adv-x="2648" 
d="M1100 1810q-68 0 -95.5 -47.5t-27.5 -136.5h-258q0 82 19 153t58.5 129.5t107 92t157.5 33.5q70 0 131.5 -20.5t105 -50t83.5 -58.5t83 -49.5t86 -20.5q68 0 95.5 47.5t27.5 136.5h258q0 -82 -19.5 -153t-59 -129t-107 -91.5t-156.5 -33.5q-70 0 -131.5 20.5t-105.5 49.5
t-84 58t-83 49.5t-85 20.5zM2505 0h-351l-178 315h-1302l-178 -315h-351l805 1446h748zM1159 1171l-340 -600h1012l-340 600h-332z" />
    <glyph glyph-name="K.ss01" horiz-adv-x="2111" 
d="M1540 1446h420l-725 -723l725 -723h-420l-598 586h-463v-586h-313v1446h313v-586h461z" />
    <glyph glyph-name="uni0136.ss01" horiz-adv-x="2111" 
d="M1540 1446h420l-725 -723l725 -723h-420l-598 586h-463v-586h-313v1446h313v-586h461zM936 -375h-111v217h297v-217l-155 -225h-142z" />
    <glyph glyph-name="R.ss01" horiz-adv-x="1996" 
d="M1851 936q0 -176 -87.5 -300t-245.5 -177l319 -459h-371l-286 426h-701v-426h-313v1446h1130q256 0 405.5 -135.5t149.5 -374.5zM1176 1178h-697v-484h697q32 0 49.5 0.5t50.5 2.5t52.5 6t48.5 12.5t46 20t37.5 30t31.5 42t18.5 56.5t7.5 72t-7.5 72t-18.5 56.5t-31.5 42
t-37.5 30t-46 20t-48.5 12.5t-52.5 6t-50.5 2.5t-49.5 0.5z" />
    <glyph glyph-name="Racute.ss01" horiz-adv-x="1996" 
d="M535 1843l796 164v-209l-796 -164v209zM1851 936q0 -176 -87.5 -300t-245.5 -177l319 -459h-371l-286 426h-701v-426h-313v1446h1130q256 0 405.5 -135.5t149.5 -374.5zM1176 1178h-697v-484h697q32 0 49.5 0.5t50.5 2.5t52.5 6t48.5 12.5t46 20t37.5 30t31.5 42
t18.5 56.5t7.5 72t-7.5 72t-18.5 56.5t-31.5 42t-37.5 30t-46 20t-48.5 12.5t-52.5 6t-50.5 2.5t-49.5 0.5z" />
    <glyph glyph-name="Rcaron.ss01" horiz-adv-x="1996" 
d="M1358 1985v-220l-424 -163l-424 163v220l424 -164zM1851 936q0 -176 -87.5 -300t-245.5 -177l319 -459h-371l-286 426h-701v-426h-313v1446h1130q256 0 405.5 -135.5t149.5 -374.5zM1176 1178h-697v-484h697q32 0 49.5 0.5t50.5 2.5t52.5 6t48.5 12.5t46 20t37.5 30
t31.5 42t18.5 56.5t7.5 72t-7.5 72t-18.5 56.5t-31.5 42t-37.5 30t-46 20t-48.5 12.5t-52.5 6t-50.5 2.5t-49.5 0.5z" />
    <glyph glyph-name="uni0156.ss01" horiz-adv-x="1996" 
d="M1851 936q0 -176 -87.5 -300t-245.5 -177l319 -459h-371l-286 426h-701v-426h-313v1446h1130q256 0 405.5 -135.5t149.5 -374.5zM1176 1178h-697v-484h697q32 0 49.5 0.5t50.5 2.5t52.5 6t48.5 12.5t46 20t37.5 30t31.5 42t18.5 56.5t7.5 72t-7.5 72t-18.5 56.5t-31.5 42
t-37.5 30t-46 20t-48.5 12.5t-52.5 6t-50.5 2.5t-49.5 0.5zM924 -375h-111v217h297v-217l-156 -225h-141z" />
    <glyph glyph-name="V.ss01" horiz-adv-x="2648" 
d="M2154 1446h351l-807 -1446h-748l-805 1446h351l663 -1172h332z" />
    <glyph glyph-name="W.ss01" horiz-adv-x="3737" 
d="M2771 274l489 1172h332l-602 -1446h-700l-420 1149l-422 -1149h-700l-603 1446h332l490 -1172h256l432 1172h428l432 -1172h256z" />
    <glyph glyph-name="Wacute.ss01" horiz-adv-x="3737" 
d="M1470 1843l797 164v-209l-797 -164v209zM2771 274l489 1172h332l-602 -1446h-700l-420 1149l-422 -1149h-700l-603 1446h332l490 -1172h256l432 1172h428l432 -1172h256z" />
    <glyph glyph-name="Wcircumflex.ss01" horiz-adv-x="3737" 
d="M2294 1843v-219l-424 164l-424 -164v219l424 164zM2771 274l489 1172h332l-602 -1446h-700l-420 1149l-422 -1149h-700l-603 1446h332l490 -1172h256l432 1172h428l432 -1172h256z" />
    <glyph glyph-name="Wdieresis.ss01" horiz-adv-x="3737" 
d="M1434 1884h340v-205h-340v205zM1966 1884h340v-205h-340v205zM2771 274l489 1172h332l-602 -1446h-700l-420 1149l-422 -1149h-700l-603 1446h332l490 -1172h256l432 1172h428l432 -1172h256z" />
    <glyph glyph-name="Wgrave.ss01" horiz-adv-x="3737" 
d="M1470 2007l797 -164v-209l-797 164v209zM2771 274l489 1172h332l-602 -1446h-700l-420 1149l-422 -1149h-700l-603 1446h332l490 -1172h256l432 1172h428l432 -1172h256z" />
    <glyph glyph-name="i.loclTRK" horiz-adv-x="647" 
d="M139 1409v229h369v-229h-369zM166 0v1200h315v-1200h-315z" />
    <glyph glyph-name="a.001" horiz-adv-x="1921" 
d="M1006 1241q196 0 335 -32t238 -105t147.5 -194t49.5 -296v-614h-301v152q-400 -187 -783 -187q-567 0 -567 406q0 92 39 165t105 120t159 78t196 44t222 13q303 0 629 -91q-2 55 -21.5 99.5t-50.5 75t-75 53.5t-88 36.5t-95.5 21.5t-92.5 10.5t-85 2.5q-317 0 -654 -104
l-88 227q405 119 781 119zM786 209q131 0 326.5 44t362.5 103v121q-310 84 -603 84q-426 0 -426 -182q0 -99 83.5 -134.5t256.5 -35.5z" />
    <glyph glyph-name="a.ss01" horiz-adv-x="1986" 
d="M1505 993v203h318v-1200h-318v211q-185 -248 -624 -248q-122 0 -231 23.5t-203 74t-162 124.5t-107 181.5t-39 237.5t39 237.5t107 181.5t162 124.5t203 74t231 23.5q439 0 624 -248zM977 221q253 0 390.5 100.5t137.5 278.5q0 180 -137.5 279.5t-390.5 99.5t-384.5 -99
t-131.5 -280q0 -180 131.5 -279.5t384.5 -99.5z" />
    <glyph glyph-name="aacute.ss01" horiz-adv-x="1986" 
d="M592 1597l797 164v-209l-797 -163v208zM1505 993v203h318v-1200h-318v211q-185 -248 -624 -248q-122 0 -231 23.5t-203 74t-162 124.5t-107 181.5t-39 237.5t39 237.5t107 181.5t162 124.5t203 74t231 23.5q439 0 624 -248zM977 221q253 0 390.5 100.5t137.5 278.5
q0 180 -137.5 279.5t-390.5 99.5t-384.5 -99t-131.5 -280q0 -180 131.5 -279.5t384.5 -99.5z" />
    <glyph glyph-name="abreve.ss01" horiz-adv-x="1986" 
d="M991 1358q-81 0 -146.5 10t-126.5 36.5t-102 69.5t-65.5 112t-24.5 161h217q0 -109 63 -154t185 -45q121 0 183.5 45t62.5 154h219q0 -92 -24.5 -161t-65.5 -112t-102 -69.5t-126.5 -36.5t-146.5 -10zM1505 993v203h318v-1200h-318v211q-185 -248 -624 -248
q-122 0 -231 23.5t-203 74t-162 124.5t-107 181.5t-39 237.5t39 237.5t107 181.5t162 124.5t203 74t231 23.5q439 0 624 -248zM977 221q253 0 390.5 100.5t137.5 278.5q0 180 -137.5 279.5t-390.5 99.5t-384.5 -99t-131.5 -280q0 -180 131.5 -279.5t384.5 -99.5z" />
    <glyph glyph-name="acircumflex.ss01" horiz-adv-x="1986" 
d="M1415 1597v-219l-424 164l-424 -164v219l424 164zM1505 993v203h318v-1200h-318v211q-185 -248 -624 -248q-122 0 -231 23.5t-203 74t-162 124.5t-107 181.5t-39 237.5t39 237.5t107 181.5t162 124.5t203 74t231 23.5q439 0 624 -248zM977 221q253 0 390.5 100.5
t137.5 278.5q0 180 -137.5 279.5t-390.5 99.5t-384.5 -99t-131.5 -280q0 -180 131.5 -279.5t384.5 -99.5z" />
    <glyph glyph-name="adieresis.ss01" horiz-adv-x="1986" 
d="M555 1638h340v-204h-340v204zM1087 1638h340v-204h-340v204zM1505 993v203h318v-1200h-318v211q-185 -248 -624 -248q-122 0 -231 23.5t-203 74t-162 124.5t-107 181.5t-39 237.5t39 237.5t107 181.5t162 124.5t203 74t231 23.5q439 0 624 -248zM977 221
q253 0 390.5 100.5t137.5 278.5q0 180 -137.5 279.5t-390.5 99.5t-384.5 -99t-131.5 -280q0 -180 131.5 -279.5t384.5 -99.5z" />
    <glyph glyph-name="agrave.ss01" horiz-adv-x="1986" 
d="M592 1761l797 -164v-208l-797 163v209zM1505 993v203h318v-1200h-318v211q-185 -248 -624 -248q-122 0 -231 23.5t-203 74t-162 124.5t-107 181.5t-39 237.5t39 237.5t107 181.5t162 124.5t203 74t231 23.5q439 0 624 -248zM977 221q253 0 390.5 100.5t137.5 278.5
q0 180 -137.5 279.5t-390.5 99.5t-384.5 -99t-131.5 -280q0 -180 131.5 -279.5t384.5 -99.5z" />
    <glyph glyph-name="amacron.ss01" horiz-adv-x="1986" 
d="M510 1638h960v-204h-960v204zM1505 993v203h318v-1200h-318v211q-185 -248 -624 -248q-122 0 -231 23.5t-203 74t-162 124.5t-107 181.5t-39 237.5t39 237.5t107 181.5t162 124.5t203 74t231 23.5q439 0 624 -248zM977 221q253 0 390.5 100.5t137.5 278.5
q0 180 -137.5 279.5t-390.5 99.5t-384.5 -99t-131.5 -280q0 -180 131.5 -279.5t384.5 -99.5z" />
    <glyph glyph-name="aogonek.ss01" horiz-adv-x="1986" 
d="M1606 -147q0 -22 7 -39.5t23 -29.5t31.5 -21t44.5 -14t49.5 -8.5t58.5 -4.5t60 -1.5t64 -0.5v-205q-123 0 -210 5.5t-164 21t-123.5 42t-72.5 69t-26 102.5q0 70 40.5 121t124.5 106h-8v211q-185 -248 -624 -248q-122 0 -231 23.5t-203 74t-162 124.5t-107 181.5
t-39 237.5t39 237.5t107 181.5t162 124.5t203 74t231 23.5q439 0 624 -248v203h318v-1200h-117q-24 -19 -35 -29.5t-29.5 -30.5t-27 -40.5t-8.5 -42.5zM977 221q253 0 390.5 100.5t137.5 278.5q0 180 -137.5 279.5t-390.5 99.5t-384.5 -99t-131.5 -280q0 -180 131.5 -279.5
t384.5 -99.5z" />
    <glyph glyph-name="aring.ss01" horiz-adv-x="1986" 
d="M991 1352q-436 0 -436 270t436 270t436 -270t-436 -270zM991 1743q-219 0 -219 -121t219 -121t219 121t-219 121zM1505 993v203h318v-1200h-318v211q-185 -248 -624 -248q-122 0 -231 23.5t-203 74t-162 124.5t-107 181.5t-39 237.5t39 237.5t107 181.5t162 124.5t203 74
t231 23.5q439 0 624 -248zM977 221q253 0 390.5 100.5t137.5 278.5q0 180 -137.5 279.5t-390.5 99.5t-384.5 -99t-131.5 -280q0 -180 131.5 -279.5t384.5 -99.5z" />
    <glyph glyph-name="atilde.ss01" horiz-adv-x="1986" 
d="M766 1565q-68 0 -95.5 -48t-27.5 -137h-258q0 82 19 153t58.5 129.5t107 92t157.5 33.5q70 0 131.5 -20.5t105.5 -50t83.5 -58.5t83 -49.5t86.5 -20.5q68 0 95 48t27 137h258q0 -82 -19.5 -153t-59 -129.5t-107 -92t-156.5 -33.5q-70 0 -131.5 20.5t-105.5 50t-84 58.5
t-83 49.5t-85 20.5zM1505 993v203h318v-1200h-318v211q-185 -248 -624 -248q-122 0 -231 23.5t-203 74t-162 124.5t-107 181.5t-39 237.5t39 237.5t107 181.5t162 124.5t203 74t231 23.5q439 0 624 -248zM977 221q253 0 390.5 100.5t137.5 278.5q0 180 -137.5 279.5
t-390.5 99.5t-384.5 -99t-131.5 -280q0 -180 131.5 -279.5t384.5 -99.5z" />
    <glyph glyph-name="g.ss01" horiz-adv-x="2031" 
d="M1438 1200h504v-176q-54 0 -203 23q80 -93 80 -236q0 -80 -23 -143t-81 -118.5t-151.5 -92t-240 -57.5t-340.5 -21q-359 0 -453 -12t-94 -68q0 -57 103.5 -69.5t502.5 -12.5q140 0 247.5 -6t205.5 -21.5t166 -42.5t119 -67t75.5 -97.5t24.5 -132.5q0 -70 -22.5 -125.5
t-61 -95.5t-99.5 -69t-128 -46.5t-156.5 -28t-175.5 -14t-195 -3.5q-113 0 -198.5 2t-183.5 9.5t-169 20.5t-140 35.5t-111.5 54t-68.5 77t-26 102.5q0 196 293 247q-278 57 -278 232q0 160 243 209q-139 54 -198.5 142.5t-59.5 211.5q0 79 23 141.5t80.5 118t151 92
t240.5 57.5t343 21q277 0 455 -41zM983 602q274 0 388 46.5t114 162.5q0 115 -114 161t-388 46q-276 0 -390 -46t-114 -161q0 -116 114 -162.5t390 -46.5zM1589 -158q0 88 -120.5 114t-426.5 26h-55q-308 -2 -420 -28t-112 -112q0 -31 16.5 -53.5t54 -37.5t82 -24.5
t117.5 -14t143 -6t174 -1.5q309 0 428 24.5t119 112.5z" />
    <glyph glyph-name="gbreve.ss01" horiz-adv-x="2031" 
d="M979 1358q-81 0 -146.5 10t-126.5 36.5t-102 69.5t-65.5 112t-24.5 161h217q0 -109 63 -154t185 -45q121 0 183.5 45t62.5 154h219q0 -92 -24.5 -161t-65.5 -112t-102 -69.5t-126.5 -36.5t-146.5 -10zM1438 1200h504v-176q-54 0 -203 23q80 -93 80 -236q0 -80 -23 -143
t-81 -118.5t-151.5 -92t-240 -57.5t-340.5 -21q-359 0 -453 -12t-94 -68q0 -57 103.5 -69.5t502.5 -12.5q140 0 247.5 -6t205.5 -21.5t166 -42.5t119 -67t75.5 -97.5t24.5 -132.5q0 -70 -22.5 -125.5t-61 -95.5t-99.5 -69t-128 -46.5t-156.5 -28t-175.5 -14t-195 -3.5
q-113 0 -198.5 2t-183.5 9.5t-169 20.5t-140 35.5t-111.5 54t-68.5 77t-26 102.5q0 196 293 247q-278 57 -278 232q0 160 243 209q-139 54 -198.5 142.5t-59.5 211.5q0 79 23 141.5t80.5 118t151 92t240.5 57.5t343 21q277 0 455 -41zM983 602q274 0 388 46.5t114 162.5
q0 115 -114 161t-388 46q-276 0 -390 -46t-114 -161q0 -116 114 -162.5t390 -46.5zM1589 -158q0 88 -120.5 114t-426.5 26h-55q-308 -2 -420 -28t-112 -112q0 -31 16.5 -53.5t54 -37.5t82 -24.5t117.5 -14t143 -6t174 -1.5q309 0 428 24.5t119 112.5z" />
    <glyph glyph-name="uni0123.ss01" horiz-adv-x="2031" 
d="M1016 1665h112v-217h-297v217l154 225h143zM1438 1200h504v-176q-54 0 -203 23q80 -93 80 -236q0 -80 -23 -143t-81 -118.5t-151.5 -92t-240 -57.5t-340.5 -21q-359 0 -453 -12t-94 -68q0 -57 103.5 -69.5t502.5 -12.5q140 0 247.5 -6t205.5 -21.5t166 -42.5t119 -67
t75.5 -97.5t24.5 -132.5q0 -70 -22.5 -125.5t-61 -95.5t-99.5 -69t-128 -46.5t-156.5 -28t-175.5 -14t-195 -3.5q-113 0 -198.5 2t-183.5 9.5t-169 20.5t-140 35.5t-111.5 54t-68.5 77t-26 102.5q0 196 293 247q-278 57 -278 232q0 160 243 209q-139 54 -198.5 142.5
t-59.5 211.5q0 79 23 141.5t80.5 118t151 92t240.5 57.5t343 21q277 0 455 -41zM983 602q274 0 388 46.5t114 162.5q0 115 -114 161t-388 46q-276 0 -390 -46t-114 -161q0 -116 114 -162.5t390 -46.5zM1589 -158q0 88 -120.5 114t-426.5 26h-55q-308 -2 -420 -28t-112 -112
q0 -31 16.5 -53.5t54 -37.5t82 -24.5t117.5 -14t143 -6t174 -1.5q309 0 428 24.5t119 112.5z" />
    <glyph glyph-name="gdotaccent.ss01" horiz-adv-x="2031" 
d="M803 1638h352v-204h-352v204zM1438 1200h504v-176q-54 0 -203 23q80 -93 80 -236q0 -80 -23 -143t-81 -118.5t-151.5 -92t-240 -57.5t-340.5 -21q-359 0 -453 -12t-94 -68q0 -57 103.5 -69.5t502.5 -12.5q140 0 247.5 -6t205.5 -21.5t166 -42.5t119 -67t75.5 -97.5
t24.5 -132.5q0 -70 -22.5 -125.5t-61 -95.5t-99.5 -69t-128 -46.5t-156.5 -28t-175.5 -14t-195 -3.5q-113 0 -198.5 2t-183.5 9.5t-169 20.5t-140 35.5t-111.5 54t-68.5 77t-26 102.5q0 196 293 247q-278 57 -278 232q0 160 243 209q-139 54 -198.5 142.5t-59.5 211.5
q0 79 23 141.5t80.5 118t151 92t240.5 57.5t343 21q277 0 455 -41zM983 602q274 0 388 46.5t114 162.5q0 115 -114 161t-388 46q-276 0 -390 -46t-114 -161q0 -116 114 -162.5t390 -46.5zM1589 -158q0 88 -120.5 114t-426.5 26h-55q-308 -2 -420 -28t-112 -112
q0 -31 16.5 -53.5t54 -37.5t82 -24.5t117.5 -14t143 -6t174 -1.5q309 0 428 24.5t119 112.5z" />
    </font>
</defs>
</svg>
