<svg xmlns="http://www.w3.org/2000/svg" width="63" height="63" viewBox="0 0 63 63">
    <g fill="none" fill-rule="evenodd">
        <g>
            <g>
                <g transform="translate(-454 -589) translate(454 589)">
                    <circle cx="31.5" cy="31.5" r="31.5" fill="#101015" stroke="#58585B" stroke-width="2"/>
                    <g>
                        <path fill="#F2E0B7" fill-rule="nonzero" d="M8.478 13c2.468 0 4.332-.572 5.59-1.715 1.259-1.144 1.888-2.745 1.888-4.803 0-2.046-.626-3.638-1.879-4.776C12.825.57 10.958 0 8.478 0s-4.347.566-5.6 1.697C1.627 2.83 1 4.424 1 6.482c0 2.07.626 3.674 1.879 4.812C4.13 12.43 5.997 13 8.478 13zm0-1.806c-1.702 0-3.01-.394-3.921-1.182-.912-.789-1.368-1.965-1.368-3.53 0-1.553.456-2.72 1.368-3.503.912-.782 2.219-1.173 3.921-1.173s3.01.394 3.921 1.182c.912.789 1.368 1.953 1.368 3.494 0 1.553-.456 2.726-1.368 3.52-.912.795-2.219 1.192-3.921 1.192zM30 12.82v-1.805h-4.925V.18h-2.188c0 .878-.259 1.531-.775 1.959-.517.427-1.107.689-1.77.785-.662.096-1.456.144-2.38.144v1.806c1.034 0 1.964-.07 2.79-.208.828-.138 1.545-.472 2.153-1.002l-.018 7.349h-4.925v1.805H30z" transform="translate(16 24)"/>
                        <path stroke="#F2E0B7" stroke-linecap="square" stroke-width="2" d="M4 3L12 11" transform="translate(16 24)"/>
                    </g>
                </g>
            </g>
        </g>
    </g>
</svg>
