<svg xmlns="http://www.w3.org/2000/svg" width="32" height="13" viewBox="0 0 32 13">
    <g fill="none" fill-rule="evenodd">
        <g>
            <g>
                <g>
                    <path fill="#F2E0B7" fill-rule="nonzero" d="M8.415 13c2.448 0 4.296-.572 5.544-1.715 1.248-1.144 1.872-2.745 1.872-4.803 0-2.046-.621-3.638-1.863-4.776C12.726.57 10.875 0 8.415 0s-4.31.566-5.552 1.697C1.62 2.83 1 4.424 1 6.482c0 2.07.621 3.674 1.863 4.812C4.105 12.43 5.956 13 8.415 13zm0-1.806c-1.688 0-2.984-.394-3.888-1.182-.904-.789-1.357-1.965-1.357-3.53 0-1.553.453-2.72 1.357-3.503.904-.782 2.2-1.173 3.888-1.173 1.688 0 2.985.394 3.889 1.182.904.789 1.356 1.953 1.356 3.494 0 1.553-.452 2.726-1.356 3.52-.904.795-2.2 1.192-3.889 1.192zM31.82 12.82v-1.805H20.172c.096-.445.373-.816.832-1.11.458-.295.997-.533 1.618-.714.621-.18 1.474-.39 2.56-.632 1.458-.313 2.64-.617 3.544-.911.905-.295 1.676-.74 2.315-1.337.64-.595.959-1.375.959-2.338 0-1.023-.265-1.823-.796-2.401-.53-.578-1.296-.984-2.297-1.219-1-.235-2.273-.352-3.816-.352-1.483 0-2.743.147-3.78.442-1.037.295-1.848.822-2.433 1.58-.584.759-.877 1.8-.877 3.124h2.17c0-.867.17-1.54.507-2.022.338-.482.871-.822 1.6-1.02.73-.2 1.728-.298 2.994-.298 1.218 0 2.158.078 2.821.234.664.157 1.119.385 1.366.686.247.301.37.705.37 1.21 0 .518-.225.948-.678 1.291-.452.343-1.01.62-1.673.83-.663.211-1.591.455-2.785.732-1.52.361-2.743.701-3.671 1.02-.929.319-1.725.782-2.388 1.39-.663.608-.995 1.394-.995 2.357v1.263h14.18z" transform="translate(-627 -364) translate(612 339) translate(15 25)"/>
                    <path stroke="#F2E0B7" stroke-linecap="square" stroke-width="2" d="M4 3L12 10" transform="translate(-627 -364) translate(612 339) translate(15 25)"/>
                </g>
            </g>
        </g>
    </g>
</svg>
