<svg xmlns="http://www.w3.org/2000/svg" width="32" height="13" viewBox="0 0 32 13">
    <g fill="none" fill-rule="evenodd">
        <g>
            <g>
                <path fill="#ff303c" fill-rule="nonzero" d="M8.415 13c2.448 0 4.296-.572 5.544-1.715 1.248-1.144 1.872-2.745 1.872-4.803 0-2.046-.621-3.638-1.863-4.776C12.726.57 10.875 0 8.415 0s-4.31.566-5.552 1.697C1.62 2.83 1 4.424 1 6.482c0 2.07.621 3.674 1.863 4.812C4.105 12.43 5.956 13 8.415 13zm0-1.806c-1.688 0-2.984-.394-3.888-1.182-.904-.789-1.357-1.965-1.357-3.53 0-1.553.453-2.72 1.357-3.503.904-.782 2.2-1.173 3.888-1.173 1.688 0 2.985.394 3.889 1.182.904.789 1.356 1.953 1.356 3.494 0 1.553-.452 2.726-1.356 3.52-.904.795-2.2 1.192-3.889 1.192zM25.001 13c2.303 0 4.045-.292 5.227-.876C31.409 11.541 32 10.6 32 9.3c0-1.264-.693-2.197-2.08-2.799C31.307 5.898 32 4.965 32 3.701c0-1.3-.59-2.242-1.772-2.825C29.046.292 27.304 0 25 0c-1.568 0-2.888.144-3.961.433-1.073.29-1.908.798-2.505 1.526s-.896 1.73-.896 3.006h2.17c0-.878.164-1.54.49-1.986.325-.445.861-.752 1.609-.92.747-.17 1.839-.253 3.273-.253 1.218 0 2.162.066 2.831.198.67.133 1.14.34 1.41.623.272.283.408.671.408 1.165 0 .541-.193.939-.58 1.191-.385.253-1.015.419-1.89.497-.873.078-2.203.117-3.987.117v1.806c1.845 0 3.201.039 4.07.117.867.078 1.482.244 1.844.497.362.252.543.65.543 1.191 0 .542-.157.954-.47 1.237-.314.283-.8.479-1.457.587-.657.108-1.564.162-2.722.162-1.314 0-2.345-.072-3.092-.216-.748-.145-1.315-.446-1.7-.903-.386-.457-.58-1.137-.58-2.04h-2.17c0 1.276.299 2.278.896 3.006.597.728 1.432 1.237 2.505 1.526 1.073.289 2.393.433 3.96.433z" transform="translate(-1123 -809) translate(1123 809)"/>
                <path stroke="#ff303c" stroke-linecap="square" stroke-width="2" d="M4 3L12 10" transform="translate(-1123 -809) translate(1123 809)"/>
            </g>
        </g>
    </g>
</svg>
