<svg xmlns="http://www.w3.org/2000/svg" width="63" height="63" viewBox="0 0 63 63">
    <g fill="none" fill-rule="evenodd">
        <g>
            <g>
                <g transform="translate(-1267 -141) translate(1267 141)">
                    <circle cx="31.5" cy="31.5" r="31.5" fill="#101015" stroke="#58585B" stroke-width="2"/>
                    <g>
                        <path fill="#F2E0B7" fill-rule="nonzero" d="M8.288 13c2.405 0 4.221-.572 5.448-1.715 1.226-1.144 1.84-2.745 1.84-4.803 0-2.046-.61-3.638-1.831-4.776C12.525.57 10.705 0 8.288 0 5.87 0 4.05.566 2.83 1.697 1.61 2.83 1 4.424 1 6.482c0 2.07.61 3.674 1.83 4.812C4.052 12.43 5.87 13 8.289 13zm0-1.806c-1.66 0-2.933-.394-3.822-1.182-.889-.789-1.333-1.965-1.333-3.53 0-1.553.444-2.72 1.333-3.503.889-.782 2.163-1.173 3.822-1.173 1.659 0 2.933.394 3.822 1.182.888.789 1.333 1.953 1.333 3.494 0 1.553-.445 2.726-1.333 3.52-.89.795-2.163 1.192-3.822 1.192zm20.69 1.625v-2.527H32V8.486h-3.022V.181h-2.133l-9.314 8.305v1.806h9.314v2.527h2.133zm-2.133-4.333h-6.47l6.47-5.597v5.597z" transform="translate(15 25)"/>
                        <path stroke="#F2E0B7" stroke-linecap="square" stroke-width="2" d="M4 3L12 10" transform="translate(15 25)"/>
                    </g>
                </g>
            </g>
        </g>
    </g>
</svg>
