<svg xmlns="http://www.w3.org/2000/svg" width="63" height="63" viewBox="0 0 63 63">
    <g fill="none" fill-rule="evenodd">
        <g>
            <g>
                <g transform="translate(-1694 -585) translate(1694 585)">
                    <circle cx="31.5" cy="31.5" r="31.5" fill="#101015" stroke="#58585B" stroke-width="2"/>
                    <g>
                        <path fill="#F2E0B7" fill-rule="nonzero" d="M8.415 13c2.448 0 4.296-.572 5.544-1.715 1.248-1.144 1.872-2.745 1.872-4.803 0-2.046-.621-3.638-1.863-4.776C12.726.57 10.875 0 8.415 0s-4.31.566-5.552 1.697C1.62 2.83 1 4.424 1 6.482c0 2.07.621 3.674 1.863 4.812C4.105 12.43 5.956 13 8.415 13zm0-1.806c-1.688 0-2.984-.394-3.888-1.182-.904-.789-1.357-1.965-1.357-3.53 0-1.553.453-2.72 1.357-3.503.904-.782 2.2-1.173 3.888-1.173 1.688 0 2.985.394 3.889 1.182.904.789 1.356 1.953 1.356 3.494 0 1.553-.452 2.726-1.356 3.52-.904.795-2.2 1.192-3.889 1.192zM25.091 13c2.122 0 3.804-.382 5.046-1.147C31.38 11.09 32 9.95 32 8.432c0-1.408-.455-2.489-1.366-3.241-.91-.752-2.191-1.128-3.843-1.128-1.037 0-2.01.102-2.92.306-.911.205-1.927.56-3.048 1.066l.958-3.449h9.315V.181H19.973l-1.628 6.572 1.99.47c1.277-.518 2.323-.873 3.137-1.066.814-.193 1.583-.289 2.306-.289 1.52 0 2.575.229 3.165.686.591.458.887 1.102.887 1.932 0 .867-.362 1.535-1.086 2.004-.723.47-1.91.704-3.563.704-1.82 0-3.17-.198-4.05-.595-.881-.398-1.321-1.042-1.321-1.932h-2.17c0 1.625.669 2.753 2.007 3.385 1.338.632 3.153.948 5.444.948z" transform="translate(15 25)"/>
                        <path stroke="#F2E0B7" stroke-linecap="square" stroke-width="2" d="M4 3L12 10" transform="translate(15 25)"/>
                    </g>
                </g>
            </g>
        </g>
    </g>
</svg>
