<svg xmlns="http://www.w3.org/2000/svg" xmlns:xlink="http://www.w3.org/1999/xlink" width="86" height="798" viewBox="0 0 86 798">
    <defs>
        <path id="frcat5j7ua" d="M0.586 0.757L99.309 0.757 99.309 85.157 0.586 85.157z"/>
        <path id="qyranyo3vc" d="M0.103 0.696L95.432 0.696 95.432 80.217 0.103 80.217z"/>
    </defs>
    <g fill="none" fill-rule="evenodd">
        <g>
            <g>
                <g transform="translate(-202 -142) rotate(-90 571 369) translate(319)">
                    <mask id="nq1gm9seob" fill="#fff">
                        <use xlink:href="#frcat5j7ua"/>
                    </mask>
                    <path fill="#F2E0B7" d="M23.875 66.385c4.808 2.558 14.887 3.836 25.02 3.836 10.783 0 20.915-1.261 25.554-2.456 6.427-1.654 8.065-5.348 6.692-9.312-1.156-3.337-6.519-4.109-9.487-4.63-3.894-.682-44.135-7.904-46.61-8.285-5.976-.921-10.685-2.335-14.129-4.246-5.546-3.076-9.16-8.761-9.16-15.37 0-7.501 3.493-13.571 10.476-18.21C19.215 3.078 33.401.758 49.578.758c7.471 0 16.608.664 22.194 1.996 5.587 1.328 10.2 3.187 13.838 5.574 3.637 2.386 6.365 5.268 8.184 8.644 1.82 3.375 2.729 11.613 2.729 11.613h-15.98v-.309c0-3.613-2.226-6.597-6.675-8.952-4.45-2.352-14.188-3.528-23.998-3.528-10.394 0-20.105 1.206-24.29 2.405-4.753 1.361-6.852 4.38-5.71 7.43 1.154 3.083 4.852 3.646 7.554 4.17 1.96.382 45.268 7.876 48.1 8.325 5.813.92 10.475 2.386 13.983 4.398 3.76 2.156 6.76 5.482 8.407 9.668 4.105 10.43-1.296 21.527-10.356 26.522-7.795 4.293-22.161 6.444-37.882 6.444-15.85 0-30.17-2.49-37.737-7.468C4.371 72.71.586 64.969.586 54.464v-.714h16.078v.409c0 5.59 2.405 9.668 7.211 12.226" mask="url(#nq1gm9seob)"/>
                </g>
                <path fill="#F2E0B7" d="M106 20.258L61.947 20.258 61.947 83 44.014 83 44.014 20.258 0 20.258 0 3 106 3zM242.42 19.843L242.42 36.071 311.5 36.071 311.5 50.929 242.42 50.929 242.42 67.157 311.5 67.157 311.5 83.5 224.5 83.5 224.5 3.5 311.5 3.5 311.5 19.843zM620.42 19.843L620.42 36.071 689.5 36.071 689.5 50.929 620.42 50.929 620.42 67.157 689.5 67.157 689.5 83.5 602.5 83.5 602.5 3.5 689.5 3.5 689.5 19.843z" transform="translate(-202 -142) rotate(-90 571 369)"/>
                <g transform="translate(-202 -142) rotate(-90 571 369) translate(701.5 2.5)">
                    <mask id="6crku7uipd" fill="#fff">
                        <use xlink:href="#qyranyo3vc"/>
                    </mask>
                    <path fill="#F2E0B7" d="M95.433 0.696L95.433 80.217 70.024 80.217 18.079 20.577 18.079 80.217 0.103 80.217 0.103 0.696 25.399 0.696 77.459 60.45 77.459 0.696z" mask="url(#6crku7uipd)"/>
                </g>
                <path fill="#F2E0B7" d="M530.436 68.67h-45.8V54.602l41.362-8.16c12.796-2.763 19.006 3.44 19.006 10.733 0 8.351-5.968 11.493-14.568 11.493zm-45.8-51.633h44.153c5.332 0 8.31 3.03 8.31 7.63 0 5.638-7.508 8.199-12.602 9.005-4.932.782-36.64 6.647-39.701 7.13-.008.002-.16.022-.16.026v-23.79zm58.608 22.822c6.729-3.168 12.417-9.369 12.358-18.784v-.001c0-9.982-8.075-18.074-18.037-18.074H467v80h74.117C553.203 83 563 73.183 563 61.073c0-11.39-8.669-20.207-19.756-21.214zM573 83L591 83 591 33 573 36.567zM591 3L573 3 573 23 591 19.411zM132.028 20.259h48.141c5.156 0 9.336 4.163 9.336 9.299 0 5.137-4.18 9.3-9.336 9.3h-48.14v-18.6zm0 35.325h27.449c6.56.393 10.695 2.235 16.772 7.7 6.95 6.248 10.831 17.21 12.249 19.716H214c-8.908-9.135-9.603-15.105-16.66-22.788-3.197-3.479-10.201-9.796-22.716-10.226h12.107c13.026 0 23.586-10.517 23.586-23.492C210.317 13.52 199.757 3 186.731 3H114v80h18.028V55.584z" transform="translate(-202 -142) rotate(-90 571 369)"/>
            </g>
        </g>
    </g>
</svg>
